<svg version="1.1" xmlns="http://www.w3.org/2000/svg" viewBox="0 0 1011.3747567981015 684" width="1011.3747567981015" height="684">
  <!-- svg-source:excalidraw -->
  
  <defs>
    <style class="style-fonts">
      @font-face {
        font-family: "Virgil";
        src: url("https://excalidraw.com/Virgil.woff2");
      }
      @font-face {
        font-family: "Cascadia";
        src: url("https://excalidraw.com/Cascadia.woff2");
      }
      @font-face {
        font-family: "Assistant";
        src: url("https://excalidraw.com/Assistant-Regular.woff2");
      }
    </style>
    
  </defs>
  <g stroke-linecap="round"><g transform="translate(366.37475679810154 645) rotate(0 -4.5 -302)"><path d="M0.34 0.95 C-1.11 -99.93, -6.99 -503.99, -8.49 -604.83 M-0.93 0.4 C-2.52 -100.39, -7.79 -503.19, -9.17 -603.73" stroke="#1e1e1e" stroke-width="4" fill="none"></path></g><g transform="translate(366.37475679810154 645) rotate(0 -4.5 -302)"><path d="M-0.3 -580.36 C-1.65 -586.96, -7.46 -594.71, -9.17 -603.73 M-0.3 -580.36 C-2.55 -587.86, -4.5 -594.68, -9.17 -603.73" stroke="#1e1e1e" stroke-width="4" fill="none"></path></g><g transform="translate(366.37475679810154 645) rotate(0 -4.5 -302)"><path d="M-17.4 -580.13 C-13.27 -586.86, -13.6 -594.67, -9.17 -603.73 M-17.4 -580.13 C-14.69 -587.71, -11.69 -594.59, -9.17 -603.73" stroke="#1e1e1e" stroke-width="4" fill="none"></path></g></g><mask></mask><g stroke-linecap="round"><g transform="translate(10.374756798101544 356) rotate(0 401 -2.5)"><path d="M0.71 -0.73 C134.47 -1.47, 669.03 -4.42, 802.53 -5.03 M-0.37 1.49 C133.28 1.01, 668.34 -2.19, 801.86 -3.51" stroke="#1e1e1e" stroke-width="4" fill="none"></path></g><g transform="translate(10.374756798101544 356) rotate(0 401 -2.5)"><path d="M778.43 5.21 C784.2 3.37, 792.32 -0.63, 801.86 -3.51 M778.43 5.21 C786.41 2.68, 795.17 -1.13, 801.86 -3.51" stroke="#1e1e1e" stroke-width="4" fill="none"></path></g><g transform="translate(10.374756798101544 356) rotate(0 401 -2.5)"><path d="M778.3 -11.89 C784.03 -8.66, 792.18 -7.59, 801.86 -3.51 M778.3 -11.89 C786.31 -8.45, 795.11 -6.3, 801.86 -3.51" stroke="#1e1e1e" stroke-width="4" fill="none"></path></g></g><mask></mask><g transform="translate(490.37475679810154 451) rotate(0 17 -107.5)" stroke="none"><path fill="#e03131" d="M 1.98,-0.99 Q 1.98,-0.99 2.45,-0.10 2.91,0.78 2.28,3.21 1.64,5.63 1.03,6.96 0.42,8.28 -1.67,11.33 -3.76,14.39 -6.13,17.15 -8.50,19.92 -11.63,22.63 -14.75,25.34 -17.21,27.33 -19.67,29.31 -28.45,33.48 -37.23,37.65 -45.02,40.26 -52.81,42.88 -62.81,45.16 -72.80,47.43 -81.75,48.41 -90.70,49.39 -104.32,49.80 -117.94,50.21 -131.56,49.51 -145.18,48.82 -158.56,46.50 -171.94,44.17 -183.12,41.45 -194.29,38.72 -204.02,35.23 -213.76,31.73 -228.36,24.15 -242.96,16.57 -250.88,11.91 -258.81,7.24 -268.09,-0.60 -277.37,-8.46 -283.64,-15.01 -289.91,-21.55 -295.59,-30.85 -301.27,-40.15 -304.27,-47.36 -307.28,-54.57 -308.89,-63.00 -310.50,-71.43 -311.17,-82.25 -311.85,-93.08 -311.84,-99.42 -311.83,-105.76 -310.67,-114.92 -309.51,-124.08 -308.14,-131.15 -306.77,-138.22 -305.02,-144.46 -303.27,-150.70 -298.73,-160.98 -294.20,-171.25 -291.08,-176.81 -287.97,-182.37 -280.13,-190.43 -272.29,-198.49 -267.57,-202.98 -262.86,-207.48 -254.89,-212.42 -246.92,-217.37 -240.04,-220.62 -233.17,-223.87 -226.71,-226.14 -220.25,-228.41 -207.80,-229.99 -195.34,-231.58 -186.35,-232.23 -177.37,-232.89 -167.36,-232.30 -157.35,-231.71 -148.48,-230.59 -139.61,-229.48 -127.09,-226.38 -114.57,-223.29 -105.16,-219.94 -95.74,-216.58 -83.29,-210.21 -70.84,-203.85 -63.55,-199.70 -56.27,-195.56 -47.56,-188.81 -38.85,-182.06 -26.78,-170.53 -14.70,-158.99 -8.13,-152.06 -1.55,-145.14 6.43,-135.84 14.43,-126.54 24.46,-113.64 34.49,-100.74 40.20,-92.95 45.91,-85.16 53.50,-74.97 61.08,-64.79 68.04,-55.57 75.00,-46.36 85.12,-33.86 95.24,-21.35 102.99,-12.01 110.74,-2.67 121.40,7.50 132.06,17.68 140.53,23.95 149.00,30.23 159.96,36.29 170.93,42.36 179.02,46.08 187.10,49.80 198.11,52.76 209.13,55.72 217.48,56.98 225.84,58.24 236.22,58.77 246.59,59.31 254.38,58.97 262.16,58.62 272.86,57.06 283.55,55.49 289.88,54.53 296.20,53.57 308.16,49.77 320.13,45.97 329.27,42.62 338.41,39.28 348.52,34.45 358.63,29.62 368.86,23.03 379.09,16.45 389.12,8.24 399.15,0.04 406.54,-7.14 413.93,-14.32 419.89,-21.33 425.85,-28.34 433.18,-40.38 440.51,-52.42 445.35,-62.11 450.19,-71.79 453.62,-82.92 457.05,-94.06 458.49,-108.38 459.92,-122.70 459.40,-133.87 458.88,-145.03 454.11,-163.67 449.34,-182.31 444.46,-195.98 439.58,-209.64 430.96,-225.66 422.34,-241.68 416.67,-251.09 411.00,-260.50 396.93,-276.40 382.87,-292.30 371.73,-303.09 360.59,-313.88 350.75,-321.87 340.90,-329.85 325.94,-338.33 310.99,-346.80 296.32,-353.57 281.65,-360.33 264.07,-365.46 246.48,-370.58 233.26,-373.64 220.03,-376.69 203.92,-378.25 187.80,-379.81 175.80,-380.20 163.79,-380.59 152.20,-379.61 140.61,-378.63 129.24,-375.67 117.87,-372.70 110.21,-369.75 102.56,-366.80 96.85,-363.61 91.14,-360.42 86.11,-354.71 81.08,-349.00 78.14,-342.75 75.21,-336.50 73.38,-329.91 71.56,-323.31 70.79,-316.32 70.02,-309.34 69.69,-300.91 69.35,-292.49 69.78,-286.14 70.21,-279.79 70.96,-274.25 71.71,-268.71 74.28,-260.21 76.86,-251.71 79.36,-245.85 81.86,-240.00 84.32,-235.57 86.77,-231.14 91.42,-225.69 96.07,-220.24 100.63,-215.61 105.19,-210.97 111.92,-205.64 118.65,-200.30 123.46,-197.21 128.27,-194.12 134.15,-191.74 140.04,-189.36 144.25,-188.05 148.45,-186.74 152.36,-186.22 156.27,-185.70 160.50,-185.46 164.73,-185.23 167.41,-185.13 170.10,-185.03 173.10,-185.27 176.10,-185.52 178.94,-185.63 181.77,-185.74 183.84,-185.79 185.90,-185.83 188.21,-186.38 190.51,-186.94 192.75,-187.47 194.98,-188.01 197.68,-189.29 200.39,-190.58 202.78,-191.73 205.17,-192.89 208.66,-195.03 212.14,-197.18 214.69,-199.18 217.24,-201.19 221.20,-204.62 225.16,-208.04 228.27,-210.92 231.37,-213.80 234.85,-218.32 238.33,-222.84 241.52,-227.88 244.71,-232.93 248.40,-238.84 252.08,-244.76 254.45,-249.46 256.82,-254.17 259.50,-261.80 262.19,-269.43 263.92,-274.99 265.65,-280.55 266.63,-287.88 267.61,-295.21 268.04,-300.92 268.46,-306.63 267.79,-314.33 267.12,-322.03 265.99,-327.83 264.86,-333.64 262.40,-341.18 259.95,-348.71 257.77,-354.19 255.59,-359.68 251.64,-365.52 247.68,-371.36 242.93,-376.36 238.17,-381.36 231.40,-386.27 224.62,-391.18 219.14,-394.73 213.65,-398.28 206.29,-401.73 198.92,-405.17 193.19,-407.51 187.47,-409.85 180.48,-412.27 173.50,-414.68 165.38,-417.15 157.26,-419.61 150.42,-421.22 143.58,-422.83 134.45,-424.07 125.31,-425.31 116.92,-425.55 108.54,-425.79 98.15,-425.04 87.76,-424.30 80.24,-423.13 72.72,-421.96 64.53,-419.21 56.33,-416.46 49.40,-413.58 42.47,-410.69 37.60,-408.08 32.72,-405.47 27.06,-401.01 21.40,-396.55 17.29,-392.68 13.18,-388.81 9.03,-381.95 4.89,-375.08 1.96,-368.47 -0.95,-361.86 -2.75,-356.51 -4.56,-351.16 -6.17,-344.09 -7.78,-337.02 -8.45,-331.51 -9.13,-326.00 -9.41,-319.97 -9.70,-313.93 -9.25,-307.76 -8.81,-301.58 -7.77,-295.57 -6.73,-289.57 -4.60,-282.53 -2.46,-275.48 0.16,-267.87 2.79,-260.26 5.04,-254.78 7.29,-249.30 9.94,-243.86 12.60,-238.42 16.26,-232.46 19.93,-226.50 22.88,-222.59 25.83,-218.67 29.90,-214.19 33.98,-209.71 37.41,-206.39 40.84,-203.07 45.42,-199.10 50.01,-195.12 54.25,-191.72 58.48,-188.33 63.64,-184.93 68.80,-181.54 73.83,-178.68 78.87,-175.81 83.88,-173.16 88.88,-170.50 92.74,-168.51 96.60,-166.52 101.82,-164.59 107.04,-162.66 111.04,-161.24 115.03,-159.82 119.75,-158.68 124.48,-157.55 130.76,-156.49 137.04,-155.44 142.86,-154.70 148.67,-153.97 155.65,-153.66 162.63,-153.35 167.55,-153.50 172.47,-153.66 178.60,-154.00 184.72,-154.35 190.03,-155.35 195.35,-156.34 200.47,-157.61 205.60,-158.89 210.34,-160.28 215.08,-161.68 220.79,-163.69 226.49,-165.70 231.99,-168.24 237.48,-170.79 241.57,-172.74 245.67,-174.70 249.63,-176.93 253.60,-179.15 256.74,-180.97 259.88,-182.78 264.57,-186.08 269.26,-189.38 272.37,-191.90 275.47,-194.42 279.38,-197.79 283.28,-201.16 286.02,-203.96 288.75,-206.76 292.22,-210.54 295.69,-214.31 298.93,-217.68 302.16,-221.05 304.63,-223.87 307.11,-226.68 310.77,-230.78 314.43,-234.88 317.11,-238.03 319.79,-241.18 323.00,-244.60 326.21,-248.01 329.96,-251.27 333.71,-254.53 337.65,-257.39 341.60,-260.25 346.76,-263.50 351.93,-266.75 357.03,-269.58 362.14,-272.41 368.39,-275.37 374.64,-278.32 379.05,-280.16 383.45,-282.00 388.65,-283.41 393.84,-284.82 400.10,-285.99 406.37,-287.16 410.72,-287.93 415.08,-288.71 421.27,-288.48 427.45,-288.25 433.08,-286.95 438.72,-285.65 445.23,-283.03 451.75,-280.41 456.01,-278.11 460.27,-275.81 465.34,-272.17 470.40,-268.53 473.80,-265.14 477.20,-261.76 480.74,-256.74 484.28,-251.73 488.11,-244.66 491.94,-237.58 495.02,-230.50 498.09,-223.42 500.88,-214.27 503.66,-205.11 505.68,-197.81 507.71,-190.50 509.18,-180.33 510.65,-170.16 511.56,-160.97 512.46,-151.77 512.56,-142.59 512.66,-133.41 512.42,-124.33 512.17,-115.26 511.20,-105.85 510.22,-96.45 508.36,-85.22 506.50,-74.00 504.27,-63.45 502.03,-52.91 497.88,-40.81 493.73,-28.72 490.23,-20.12 486.73,-11.53 483.20,-4.63 479.66,2.26 472.90,11.92 466.15,21.58 458.63,30.33 451.12,39.07 444.41,45.43 437.70,51.79 426.76,60.57 415.81,69.34 405.64,76.27 395.48,83.19 384.72,88.77 373.97,94.36 363.34,99.04 352.72,103.71 344.17,107.14 335.62,110.57 325.58,113.78 315.55,116.98 304.63,119.79 293.71,122.60 282.66,124.38 271.60,126.17 260.28,127.50 248.97,128.84 237.47,129.40 225.98,129.97 211.55,129.64 197.11,129.30 185.51,128.58 173.90,127.86 163.74,126.69 153.58,125.51 145.16,123.85 136.73,122.19 129.72,120.62 122.70,119.04 117.28,117.18 111.86,115.32 107.05,112.40 102.23,109.48 99.19,106.65 96.14,103.82 94.35,99.66 92.56,95.50 91.60,92.06 90.63,88.61 90.20,84.39 89.76,80.17 89.30,74.71 88.85,69.26 88.38,65.28 87.91,61.29 87.69,56.02 87.47,50.74 87.10,46.90 86.73,43.06 86.00,37.41 85.28,31.77 84.39,25.63 83.50,19.50 82.84,14.27 82.17,9.05 81.59,4.24 81.02,-0.57 79.94,-5.64 78.85,-10.72 77.54,-15.74 76.22,-20.76 74.54,-25.70 72.85,-30.64 71.51,-36.06 70.17,-41.48 68.21,-47.36 66.24,-53.24 64.53,-58.68 62.81,-64.13 60.96,-69.25 59.10,-74.37 57.15,-79.73 55.20,-85.10 52.96,-90.48 50.72,-95.86 48.32,-101.62 45.91,-107.38 42.60,-114.98 39.29,-122.59 36.75,-127.78 34.22,-132.98 31.11,-139.54 28.00,-146.10 25.55,-150.85 23.10,-155.60 20.06,-161.04 17.02,-166.49 12.90,-172.76 8.77,-179.02 5.55,-184.04 2.33,-189.05 -2.46,-196.02 -7.25,-203.00 -12.10,-209.06 -16.96,-215.12 -22.47,-221.42 -27.97,-227.72 -32.02,-232.11 -36.08,-236.51 -40.66,-241.23 -45.25,-245.96 -50.59,-250.79 -55.93,-255.63 -60.23,-259.42 -64.52,-263.21 -70.86,-267.92 -77.20,-272.63 -81.94,-276.09 -86.67,-279.55 -93.23,-283.86 -99.79,-288.17 -106.32,-292.30 -112.85,-296.44 -121.30,-301.03 -129.75,-305.62 -136.50,-309.01 -143.24,-312.39 -151.81,-316.11 -160.37,-319.82 -167.12,-322.24 -173.86,-324.67 -181.28,-326.83 -188.71,-329.00 -197.80,-330.77 -206.90,-332.54 -215.37,-333.87 -223.84,-335.20 -231.71,-336.04 -239.57,-336.88 -247.74,-337.24 -255.91,-337.60 -263.88,-337.19 -271.86,-336.78 -279.50,-335.75 -287.14,-334.72 -295.45,-332.58 -303.77,-330.45 -309.55,-328.41 -315.33,-326.38 -321.81,-323.79 -328.28,-321.21 -334.98,-317.85 -341.67,-314.49 -347.12,-311.62 -352.57,-308.75 -360.17,-303.04 -367.78,-297.34 -373.85,-291.78 -379.93,-286.23 -385.88,-279.09 -391.83,-271.94 -397.56,-264.84 -403.29,-257.73 -408.25,-250.48 -413.21,-243.24 -417.90,-235.58 -422.58,-227.92 -425.97,-221.28 -429.36,-214.65 -433.37,-204.99 -437.37,-195.33 -440.79,-185.78 -444.21,-176.24 -447.37,-165.06 -450.53,-153.88 -452.72,-143.71 -454.92,-133.55 -456.72,-123.77 -458.51,-113.99 -459.55,-104.74 -460.59,-95.49 -461.32,-86.11 -462.05,-76.72 -462.07,-67.64 -462.08,-58.57 -461.52,-49.58 -460.96,-40.59 -459.58,-30.22 -458.20,-19.85 -456.19,-11.23 -454.19,-2.60 -451.64,5.01 -449.09,12.62 -445.77,19.17 -442.45,25.72 -438.24,31.56 -434.04,37.40 -428.93,42.35 -423.81,47.31 -416.35,51.90 -408.89,56.49 -400.37,59.85 -391.86,63.21 -385.43,64.93 -379.01,66.64 -369.80,67.65 -360.60,68.66 -353.22,69.10 -345.85,69.54 -334.54,68.58 -323.24,67.63 -313.64,65.53 -304.04,63.42 -296.81,61.39 -289.58,59.35 -279.79,54.55 -270.01,49.74 -263.59,45.72 -257.16,41.70 -250.51,36.05 -243.86,30.40 -238.52,24.37 -233.18,18.33 -229.04,9.68 -224.90,1.04 -222.86,-6.55 -220.82,-14.14 -220.25,-19.82 -219.67,-25.49 -221.40,-33.04 -223.12,-40.59 -226.34,-47.12 -229.57,-53.65 -233.98,-59.17 -238.39,-64.68 -246.06,-69.73 -253.72,-74.78 -264.27,-78.33 -274.83,-81.88 -284.99,-83.68 -295.16,-85.49 -305.42,-85.97 -315.69,-86.45 -324.36,-86.37 -333.03,-86.30 -344.64,-84.84 -356.25,-83.38 -366.61,-81.33 -376.98,-79.28 -389.59,-75.01 -402.19,-70.73 -410.40,-67.20 -418.60,-63.68 -425.69,-59.38 -432.78,-55.08 -438.51,-49.65 -444.24,-44.22 -449.48,-37.14 -454.72,-30.05 -458.33,-22.86 -461.94,-15.67 -464.57,-6.71 -467.21,2.23 -468.89,11.18 -470.57,20.12 -471.58,28.48 -472.59,36.84 -472.44,44.83 -472.29,52.83 -471.10,60.42 -469.91,68.02 -467.14,76.58 -464.38,85.13 -460.65,93.91 -456.91,102.69 -452.78,110.07 -448.65,117.45 -444.93,122.83 -441.21,128.21 -434.86,134.67 -428.52,141.13 -421.28,147.01 -414.04,152.89 -406.43,157.94 -398.81,162.99 -390.75,167.40 -382.68,171.82 -374.09,175.99 -365.50,180.16 -354.74,184.50 -343.97,188.83 -333.98,192.10 -323.99,195.36 -312.87,198.47 -301.75,201.58 -293.29,203.77 -284.82,205.95 -274.43,207.72 -264.04,209.49 -255.38,210.24 -246.72,210.99 -237.36,211.02 -228.00,211.05 -219.52,210.21 -211.04,209.37 -202.34,207.59 -193.64,205.81 -187.01,204.47 -180.38,203.13 -172.80,200.87 -165.22,198.60 -156.80,195.91 -148.37,193.21 -140.78,190.64 -133.19,188.06 -125.38,185.24 -117.57,182.42 -111.13,179.80 -104.69,177.19 -100.00,174.95 -95.30,172.71 -88.96,169.73 -82.61,166.75 -75.60,163.47 -68.59,160.19 -62.86,156.85 -57.12,153.50 -52.08,150.36 -47.05,147.21 -41.78,143.59 -36.51,139.98 -31.92,136.97 -27.34,133.97 -23.41,131.28 -19.49,128.59 -15.81,126.01 -12.13,123.43 -7.69,120.31 -3.24,117.20 0.64,114.44 4.54,111.69 8.54,109.05 12.54,106.42 15.34,104.46 18.14,102.51 20.74,100.55 23.33,98.60 26.56,96.54 29.79,94.48 33.10,92.22 36.40,89.96 40.91,86.45 45.43,82.95 49.41,79.98 53.39,77.01 56.15,74.66 58.91,72.32 62.74,69.26 66.56,66.20 70.22,63.44 73.88,60.69 76.84,58.40 79.80,56.10 83.11,53.66 86.42,51.22 90.61,47.67 94.80,44.11 98.01,41.18 101.22,38.24 103.96,35.32 106.70,32.41 109.26,29.21 111.82,26.02 114.98,22.29 118.13,18.57 120.57,15.34 123.00,12.11 126.02,7.61 129.04,3.11 131.47,-0.78 133.90,-4.69 135.74,-8.28 137.59,-11.87 138.91,-15.31 140.23,-18.75 141.66,-23.08 143.09,-27.40 144.28,-31.25 145.46,-35.11 145.92,-38.00 146.38,-40.90 146.88,-44.75 147.38,-48.60 147.58,-52.73 147.79,-56.87 147.88,-60.36 147.97,-63.85 147.73,-67.52 147.48,-71.18 146.84,-73.70 146.20,-76.22 145.09,-79.26 143.99,-82.30 142.14,-85.77 140.30,-89.25 138.40,-92.12 136.51,-94.99 134.10,-97.50 131.69,-100.02 129.19,-102.59 126.68,-105.16 123.47,-107.56 120.26,-109.95 116.90,-112.12 113.54,-114.29 109.35,-116.30 105.17,-118.31 101.17,-119.72 97.17,-121.12 92.04,-122.59 86.92,-124.06 82.87,-124.65 78.82,-125.25 75.02,-125.81 71.22,-126.36 67.98,-126.59 64.74,-126.81 60.60,-126.63 56.47,-126.44 53.61,-126.08 50.74,-125.73 48.24,-125.03 45.73,-124.34 43.42,-123.74 41.11,-123.15 39.14,-122.37 37.17,-121.59 35.18,-120.69 33.19,-119.79 30.63,-118.54 28.07,-117.30 25.83,-116.19 23.58,-115.09 21.13,-114.02 18.67,-112.94 16.54,-111.94 14.41,-110.94 12.85,-109.78 11.29,-108.62 8.87,-106.67 6.44,-104.72 4.85,-103.34 3.27,-101.96 1.37,-100.45 -0.51,-98.95 -2.08,-97.52 -3.66,-96.08 -5.30,-94.82 -6.93,-93.56 -7.91,-92.16 -8.89,-90.76 -10.27,-88.91 -11.66,-87.05 -12.09,-85.97 -12.52,-84.89 -13.07,-83.69 -13.63,-82.50 -14.15,-81.43 -14.67,-80.36 -14.84,-78.40 -15.02,-76.44 -15.07,-74.18 -15.13,-71.92 -14.74,-69.92 -14.35,-67.93 -13.29,-65.91 -12.24,-63.89 -11.89,-62.20 -11.54,-60.50 -10.98,-59.42 -10.41,-58.33 -9.35,-56.56 -8.28,-54.80 -7.75,-53.78 -7.22,-52.77 -6.66,-51.36 -6.09,-49.95 -4.77,-47.98 -3.45,-46.01 -2.58,-44.35 -1.70,-42.69 -1.05,-41.42 -0.40,-40.16 0.15,-39.03 0.72,-37.91 1.07,-36.54 1.43,-35.18 1.79,-33.96 2.16,-32.74 2.57,-31.74 2.98,-30.73 3.35,-28.34 3.72,-25.95 3.78,-24.17 3.83,-22.39 3.84,-20.71 3.85,-19.04 3.85,-17.62 3.85,-16.21 3.85,-15.02 3.85,-13.82 3.84,-11.94 3.83,-10.06 3.42,-8.90 3.02,-7.74 2.93,-6.60 2.84,-5.47 2.37,-4.40 1.91,-3.32 1.88,-2.07 1.85,-0.81 1.63,0.49 1.41,1.81 0.57,3.57 -0.26,5.33 -0.28,5.48 -0.29,5.64 -0.35,5.79 -0.41,5.94 -0.50,6.07 -0.59,6.20 -0.71,6.30 -0.83,6.41 -0.97,6.48 -1.11,6.55 -1.26,6.59 -1.41,6.63 -1.57,6.63 -1.73,6.63 -1.88,6.59 -2.04,6.55 -2.18,6.48 -2.32,6.40 -2.44,6.30 -2.55,6.19 -2.64,6.06 -2.73,5.93 -2.79,5.78 -2.84,5.63 -2.86,5.48 -2.88,5.32 -2.07,2.47 -1.25,-0.37 -1.16,-0.56 -1.07,-0.75 -0.92,-0.90 -0.77,-1.05 -0.58,-1.15 -0.39,-1.25 -0.18,-1.28 0.02,-1.31 0.23,-1.27 0.43,-1.23 0.62,-1.13 0.81,-1.03 0.95,-0.87 1.09,-0.71 1.18,-0.52 1.27,-0.33 1.29,-0.11 1.31,0.09 1.26,0.29 1.21,0.50 1.09,0.68 0.98,0.86 0.82,1.00 0.65,1.13 0.45,1.21 0.26,1.28 0.04,1.29 -0.16,1.30 -0.36,1.24 -0.57,1.18 -0.74,1.06 -0.91,0.93 -1.04,0.76 -1.17,0.59 -1.23,0.39 -1.29,0.19 -1.29,-0.02 -1.29,-0.23 -1.22,-0.43 -1.14,-0.63 -1.01,-0.80 -0.88,-0.96 -0.70,-1.08 -0.53,-1.20 -0.32,-1.25 -0.12,-1.30 0.09,-1.29 0.30,-1.27 0.49,-1.19 0.69,-1.11 0.85,-0.97 1.01,-0.83 1.12,-0.64 1.22,-0.46 1.27,-0.25 1.31,-0.04 1.28,0.16 1.25,0.37 1.25,0.37 1.25,0.37 0.49,2.85 -0.26,5.33 -0.28,5.48 -0.29,5.64 -0.35,5.79 -0.41,5.94 -0.50,6.07 -0.59,6.20 -0.71,6.30 -0.83,6.41 -0.97,6.48 -1.11,6.55 -1.26,6.59 -1.41,6.63 -1.57,6.63 -1.73,6.63 -1.88,6.59 -2.04,6.55 -2.18,6.48 -2.32,6.40 -2.44,6.30 -2.55,6.19 -2.64,6.06 -2.73,5.93 -2.79,5.78 -2.84,5.63 -2.86,5.48 -2.88,5.32 -3.14,3.55 -3.40,1.79 -3.59,0.38 -3.79,-1.02 -3.68,-2.72 -3.58,-4.42 -3.17,-5.74 -2.76,-7.05 -2.29,-8.66 -1.83,-10.28 -1.84,-12.05 -1.85,-13.82 -1.85,-15.01 -1.85,-16.21 -1.85,-17.61 -1.86,-19.01 -1.86,-20.66 -1.87,-22.30 -1.92,-23.93 -1.97,-25.56 -2.14,-27.08 -2.32,-28.61 -2.82,-29.86 -3.31,-31.11 -3.85,-33.24 -4.38,-35.36 -4.94,-36.45 -5.49,-37.54 -6.13,-38.78 -6.77,-40.02 -7.57,-41.56 -8.38,-43.09 -8.94,-44.04 -9.50,-45.00 -10.44,-46.41 -11.39,-47.82 -11.84,-48.97 -12.29,-50.12 -13.27,-51.95 -14.25,-53.78 -14.91,-54.84 -15.57,-55.90 -16.48,-58.67 -17.39,-61.44 -17.94,-62.58 -18.49,-63.71 -19.33,-66.35 -20.17,-68.99 -20.49,-70.47 -20.81,-71.95 -20.80,-73.31 -20.78,-74.66 -20.74,-75.78 -20.69,-76.90 -20.58,-78.16 -20.47,-79.41 -20.14,-81.09 -19.80,-82.78 -19.28,-83.84 -18.77,-84.90 -18.25,-86.02 -17.72,-87.14 -16.97,-88.78 -16.22,-90.42 -14.83,-92.29 -13.44,-94.15 -11.94,-96.07 -10.44,-98.00 -8.95,-99.15 -7.46,-100.30 -5.75,-101.84 -4.03,-103.38 -2.24,-104.80 -0.45,-106.23 1.22,-107.69 2.90,-109.15 5.43,-111.17 7.97,-113.20 9.98,-114.63 11.99,-116.06 14.19,-117.10 16.40,-118.14 18.74,-119.16 21.07,-120.18 23.34,-121.29 25.60,-122.41 28.23,-123.67 30.87,-124.94 32.99,-125.90 35.11,-126.86 37.40,-127.73 39.68,-128.61 41.96,-129.21 44.25,-129.81 47.15,-130.58 50.04,-131.35 53.13,-131.72 56.22,-132.10 60.68,-132.29 65.14,-132.48 68.59,-132.23 72.04,-131.98 75.85,-131.43 79.66,-130.87 84.07,-130.21 88.48,-129.54 93.78,-128.04 99.08,-126.53 103.37,-125.00 107.66,-123.48 112.15,-121.29 116.64,-119.11 120.17,-116.82 123.71,-114.54 127.24,-111.86 130.78,-109.18 133.32,-106.57 135.87,-103.97 138.59,-101.06 141.30,-98.16 143.35,-95.05 145.39,-91.94 147.40,-88.10 149.41,-84.27 150.60,-80.93 151.80,-77.60 152.52,-74.59 153.25,-71.57 153.50,-67.64 153.75,-63.70 153.66,-60.14 153.57,-56.57 153.35,-52.22 153.12,-47.86 152.61,-43.91 152.11,-39.96 151.56,-36.69 151.01,-33.41 149.81,-29.50 148.61,-25.59 147.13,-21.12 145.66,-16.65 144.21,-12.93 142.76,-9.20 140.80,-5.41 138.84,-1.62 136.36,2.37 133.88,6.37 130.77,10.99 127.66,15.62 125.13,18.98 122.59,22.35 119.48,26.01 116.37,29.68 113.66,33.05 110.95,36.42 108.06,39.48 105.16,42.54 101.87,45.56 98.57,48.57 94.23,52.24 89.88,55.92 86.63,58.32 83.38,60.71 80.39,63.04 77.40,65.36 73.81,68.06 70.22,70.76 66.46,73.77 62.70,76.78 59.79,79.24 56.89,81.70 52.95,84.63 49.01,87.56 44.36,91.18 39.70,94.79 36.31,97.10 32.93,99.41 29.89,101.34 26.85,103.27 24.16,105.29 21.48,107.31 18.61,109.30 15.75,111.29 11.83,113.88 7.92,116.46 4.01,119.23 0.10,121.99 -4.33,125.10 -8.77,128.22 -12.48,130.81 -16.18,133.41 -20.16,136.13 -24.14,138.85 -28.67,141.83 -33.21,144.80 -38.58,148.48 -43.95,152.16 -49.06,155.36 -54.18,158.56 -60.14,162.02 -66.11,165.49 -73.12,168.77 -80.12,172.05 -86.46,175.02 -92.79,177.99 -97.64,180.30 -102.49,182.60 -109.04,185.26 -115.59,187.92 -123.45,190.74 -131.32,193.57 -138.96,196.17 -146.60,198.76 -155.08,201.47 -163.56,204.17 -171.39,206.49 -179.23,208.82 -185.86,210.15 -192.49,211.49 -201.48,213.31 -210.47,215.13 -219.24,215.98 -228.02,216.83 -237.62,216.79 -247.22,216.75 -256.12,215.97 -265.02,215.20 -275.64,213.38 -286.27,211.56 -294.79,209.36 -303.31,207.17 -314.55,204.02 -325.80,200.88 -335.97,197.55 -346.14,194.22 -357.10,189.81 -368.05,185.40 -376.76,181.16 -385.47,176.92 -393.75,172.37 -402.03,167.83 -409.87,162.61 -417.71,157.40 -425.20,151.30 -432.69,145.21 -439.35,138.37 -446.00,131.53 -449.87,125.92 -453.75,120.30 -458.00,112.63 -462.26,104.97 -466.10,95.94 -469.93,86.91 -472.79,77.92 -475.66,68.92 -476.88,60.93 -478.11,52.93 -478.23,44.54 -478.36,36.15 -477.32,27.59 -476.28,19.03 -474.48,9.82 -472.68,0.61 -469.84,-8.80 -467.01,-18.21 -463.14,-25.82 -459.28,-33.43 -453.70,-40.88 -448.12,-48.33 -441.92,-54.11 -435.72,-59.89 -428.27,-64.37 -420.83,-68.85 -412.41,-72.45 -404.00,-76.06 -391.04,-80.43 -378.07,-84.80 -367.51,-86.88 -356.94,-88.95 -345.01,-90.43 -333.08,-91.91 -324.25,-91.98 -315.42,-92.05 -304.80,-91.52 -294.18,-91.00 -283.60,-89.08 -273.03,-87.16 -261.85,-83.31 -250.66,-79.45 -242.37,-73.83 -234.07,-68.21 -229.32,-62.16 -224.58,-56.11 -221.14,-48.97 -217.70,-41.82 -215.92,-33.41 -214.15,-25.01 -214.81,-18.85 -215.48,-12.70 -217.70,-4.63 -219.93,3.43 -224.47,12.69 -229.01,21.95 -234.64,28.29 -240.27,34.63 -247.24,40.52 -254.21,46.40 -260.89,50.57 -267.57,54.73 -277.81,59.73 -288.05,64.72 -295.45,66.80 -302.85,68.88 -312.81,71.04 -322.76,73.21 -334.47,74.18 -346.17,75.15 -353.69,74.71 -361.22,74.27 -370.84,73.20 -380.46,72.14 -387.21,70.33 -393.96,68.53 -402.93,64.95 -411.90,61.38 -419.85,56.42 -427.81,51.46 -433.26,46.11 -438.72,40.77 -443.16,34.55 -447.59,28.33 -451.07,21.39 -454.55,14.46 -457.17,6.57 -459.80,-1.30 -461.85,-10.20 -463.90,-19.09 -465.30,-29.67 -466.70,-40.24 -467.26,-49.41 -467.83,-58.58 -467.80,-67.87 -467.77,-77.17 -467.03,-86.65 -466.29,-96.14 -465.21,-105.58 -464.14,-115.03 -462.33,-124.89 -460.51,-134.76 -458.27,-145.10 -456.03,-155.44 -452.81,-166.80 -449.59,-178.17 -446.12,-187.84 -442.64,-197.52 -438.54,-207.38 -434.44,-217.24 -430.94,-224.07 -427.44,-230.89 -422.67,-238.67 -417.91,-246.45 -412.81,-253.88 -407.72,-261.31 -401.95,-268.45 -396.19,-275.58 -389.98,-283.01 -383.77,-290.43 -377.47,-296.15 -371.18,-301.88 -363.20,-307.83 -355.23,-313.77 -349.72,-316.67 -344.21,-319.57 -337.30,-323.03 -330.39,-326.48 -323.80,-329.11 -317.21,-331.74 -311.19,-333.84 -305.18,-335.95 -296.54,-338.15 -287.90,-340.35 -280.03,-341.40 -272.15,-342.45 -263.91,-342.88 -255.66,-343.31 -247.31,-342.94 -238.96,-342.57 -230.96,-341.71 -222.96,-340.84 -214.38,-339.49 -205.81,-338.15 -196.45,-336.32 -187.10,-334.50 -179.51,-332.28 -171.93,-330.06 -165.01,-327.57 -158.09,-325.08 -149.38,-321.30 -140.67,-317.52 -133.84,-314.09 -127.01,-310.66 -118.39,-305.97 -109.78,-301.29 -103.21,-297.13 -96.64,-292.96 -89.96,-288.58 -83.28,-284.19 -78.53,-280.71 -73.78,-277.23 -67.25,-272.38 -60.72,-267.52 -56.40,-263.71 -52.07,-259.89 -46.59,-254.93 -41.12,-249.97 -36.48,-245.19 -31.85,-240.41 -27.74,-235.96 -23.64,-231.50 -18.06,-225.11 -12.48,-218.71 -7.49,-212.48 -2.51,-206.26 2.32,-199.21 7.16,-192.15 10.36,-187.16 13.57,-182.17 17.79,-175.73 22.02,-169.28 25.10,-163.75 28.18,-158.22 30.67,-153.38 33.16,-148.54 36.25,-142.01 39.35,-135.48 41.93,-130.17 44.51,-124.86 47.84,-117.22 51.18,-109.57 53.57,-103.81 55.97,-98.04 58.26,-92.54 60.55,-87.04 62.49,-81.67 64.44,-76.31 66.33,-71.07 68.23,-65.83 69.93,-60.43 71.64,-55.03 73.66,-48.93 75.67,-42.83 76.95,-37.65 78.22,-32.46 79.96,-27.33 81.71,-22.20 83.05,-17.04 84.40,-11.89 85.53,-6.57 86.65,-1.24 87.22,3.54 87.79,8.33 88.45,13.51 89.11,18.69 90.00,24.87 90.88,31.05 91.63,36.78 92.37,42.52 92.75,46.52 93.12,50.52 93.31,55.57 93.50,60.63 93.99,64.71 94.48,68.79 94.93,74.21 95.38,79.62 95.72,83.37 96.06,87.13 96.92,90.28 97.79,93.43 98.95,96.67 100.11,99.92 102.64,102.33 105.17,104.73 109.44,107.38 113.71,110.04 118.82,111.80 123.93,113.56 130.88,115.12 137.83,116.67 146.03,118.30 154.23,119.93 164.24,121.09 174.25,122.25 185.75,122.97 197.25,123.68 211.48,124.02 225.71,124.36 237.01,123.80 248.31,123.24 259.51,121.93 270.71,120.62 281.51,118.89 292.32,117.16 303.08,114.39 313.83,111.62 323.68,108.48 333.52,105.34 341.99,101.95 350.45,98.56 360.92,93.96 371.38,89.36 381.84,83.94 392.31,78.52 402.29,71.73 412.28,64.93 423.05,56.31 433.82,47.69 440.33,41.54 446.84,35.39 454.18,26.86 461.52,18.33 468.08,9.00 474.64,-0.32 478.08,-6.98 481.52,-13.65 484.96,-22.10 488.41,-30.55 492.47,-42.31 496.53,-54.08 498.74,-64.50 500.96,-74.92 502.79,-85.98 504.63,-97.03 505.59,-106.22 506.55,-115.41 506.80,-124.38 507.05,-133.35 506.96,-142.29 506.87,-151.22 505.99,-160.30 505.10,-169.37 503.70,-179.18 502.30,-189.00 500.29,-196.24 498.28,-203.49 495.61,-212.34 492.95,-221.19 489.97,-228.05 487.00,-234.92 483.34,-241.72 479.69,-248.51 476.45,-253.15 473.21,-257.78 470.14,-260.85 467.07,-263.92 462.30,-267.35 457.54,-270.78 453.57,-272.94 449.60,-275.10 443.50,-277.57 437.40,-280.05 432.29,-281.26 427.19,-282.47 421.63,-282.73 416.07,-282.99 411.75,-282.21 407.43,-281.44 401.39,-280.32 395.34,-279.20 390.52,-277.91 385.69,-276.63 381.41,-274.84 377.12,-273.06 371.04,-270.19 364.96,-267.32 360.00,-264.56 355.03,-261.80 350.02,-258.66 345.01,-255.53 341.26,-252.83 337.51,-250.13 333.97,-247.08 330.43,-244.04 327.32,-240.73 324.21,-237.42 321.48,-234.22 318.75,-231.01 315.10,-226.94 311.45,-222.86 308.89,-219.95 306.33,-217.05 303.14,-213.73 299.95,-210.41 296.41,-206.56 292.88,-202.71 289.97,-199.75 287.05,-196.79 283.07,-193.37 279.09,-189.94 275.83,-187.31 272.57,-184.67 267.67,-181.23 262.77,-177.80 259.60,-175.96 256.42,-174.12 252.29,-171.80 248.16,-169.48 244.03,-167.51 239.90,-165.54 234.16,-162.90 228.41,-160.26 222.56,-158.20 216.71,-156.14 211.85,-154.71 206.99,-153.28 201.69,-151.97 196.40,-150.65 190.73,-149.63 185.05,-148.60 178.85,-148.24 172.65,-147.88 167.51,-147.73 162.38,-147.58 155.16,-147.90 147.95,-148.23 142.01,-148.98 136.08,-149.73 129.60,-150.83 123.12,-151.93 118.11,-153.16 113.10,-154.38 109.07,-155.81 105.03,-157.24 99.49,-159.31 93.95,-161.38 90.07,-163.39 86.18,-165.40 81.09,-168.09 76.00,-170.79 70.81,-173.75 65.62,-176.72 60.24,-180.27 54.87,-183.82 50.55,-187.30 46.24,-190.77 41.53,-194.85 36.83,-198.93 33.27,-202.38 29.71,-205.84 25.47,-210.52 21.22,-215.21 18.12,-219.35 15.03,-223.48 11.23,-229.69 7.43,-235.90 4.70,-241.51 1.97,-247.12 -0.32,-252.76 -2.62,-258.39 -5.29,-266.11 -7.95,-273.83 -10.16,-281.21 -12.37,-288.60 -13.44,-294.89 -14.51,-301.17 -14.96,-307.69 -15.41,-314.21 -15.10,-320.45 -14.79,-326.70 -14.06,-332.49 -13.33,-338.29 -11.64,-345.64 -9.95,-352.99 -8.04,-358.58 -6.14,-364.16 -3.04,-371.10 0.05,-378.04 4.66,-385.47 9.27,-392.89 13.60,-396.95 17.92,-401.00 23.98,-405.72 30.05,-410.44 35.17,-413.18 40.30,-415.92 47.43,-418.87 54.55,-421.81 63.20,-424.67 71.85,-427.53 79.60,-428.73 87.36,-429.93 98.03,-430.69 108.70,-431.46 117.39,-431.20 126.08,-430.93 135.48,-429.64 144.88,-428.35 151.89,-426.70 158.91,-425.06 167.14,-422.57 175.37,-420.08 182.50,-417.61 189.64,-415.14 195.49,-412.75 201.35,-410.35 209.05,-406.71 216.75,-403.07 222.37,-399.44 227.99,-395.80 235.15,-390.55 242.32,-385.31 247.38,-379.94 252.44,-374.58 256.69,-368.20 260.94,-361.83 263.19,-356.16 265.44,-350.49 267.98,-342.62 270.53,-334.74 271.70,-328.63 272.87,-322.52 273.55,-314.37 274.23,-306.21 273.78,-300.32 273.34,-294.43 272.26,-286.64 271.18,-278.84 269.41,-273.17 267.65,-267.50 264.82,-259.54 261.98,-251.57 259.49,-246.64 257.00,-241.70 253.30,-235.76 249.61,-229.82 246.26,-224.56 242.91,-219.29 239.11,-214.43 235.32,-209.57 232.14,-206.62 228.95,-203.67 224.88,-200.14 220.81,-196.61 217.99,-194.43 215.17,-192.25 211.43,-189.96 207.69,-187.67 205.25,-186.50 202.82,-185.33 199.59,-183.86 196.35,-182.39 194.08,-181.84 191.81,-181.30 188.93,-180.66 186.05,-180.03 184.02,-179.99 181.99,-179.94 179.26,-179.85 176.54,-179.75 173.21,-179.51 169.88,-179.27 167.14,-179.37 164.41,-179.48 159.95,-179.74 155.48,-179.99 151.12,-180.62 146.75,-181.24 142.31,-182.64 137.86,-184.03 131.51,-186.65 125.16,-189.27 120.12,-192.54 115.07,-195.81 108.09,-201.38 101.11,-206.95 96.40,-211.74 91.70,-216.53 86.73,-222.44 81.76,-228.35 79.17,-233.05 76.58,-237.75 73.98,-243.91 71.38,-250.06 68.71,-259.00 66.05,-267.94 65.28,-273.68 64.52,-279.41 64.09,-286.06 63.66,-292.71 64.02,-301.34 64.37,-309.97 65.23,-317.40 66.09,-324.84 68.09,-331.88 70.10,-338.93 73.47,-345.83 76.83,-352.72 82.57,-359.01 88.31,-365.29 94.42,-368.68 100.52,-372.07 108.48,-375.12 116.44,-378.17 128.29,-381.22 140.13,-384.27 152.05,-385.26 163.97,-386.25 176.16,-385.86 188.36,-385.47 204.83,-383.84 221.30,-382.22 234.69,-379.13 248.08,-376.04 266.05,-370.77 284.03,-365.50 298.91,-358.62 313.80,-351.75 329.14,-343.02 344.48,-334.28 354.52,-326.13 364.56,-317.98 375.85,-307.03 387.15,-296.08 401.51,-279.77 415.88,-263.47 421.63,-253.92 427.38,-244.38 436.17,-227.98 444.97,-211.57 449.93,-197.65 454.90,-183.73 459.76,-164.52 464.63,-145.32 465.14,-133.72 465.64,-122.13 464.09,-107.25 462.54,-92.38 458.93,-80.81 455.33,-69.24 450.37,-59.33 445.42,-49.43 437.83,-37.03 430.24,-24.62 424.09,-17.41 417.94,-10.19 410.36,-2.85 402.79,4.49 392.49,12.88 382.19,21.27 371.65,28.04 361.10,34.80 350.74,39.73 340.38,44.66 331.12,48.05 321.86,51.43 309.46,55.34 297.07,59.26 290.73,60.22 284.38,61.18 273.40,62.78 262.41,64.38 254.35,64.72 246.30,65.06 235.64,64.49 224.98,63.93 216.30,62.60 207.63,61.28 196.17,58.16 184.70,55.04 176.42,51.22 168.15,47.40 156.85,41.13 145.56,34.87 136.82,28.36 128.07,21.86 117.19,11.43 106.30,1.00 98.53,-8.36 90.75,-17.73 80.58,-30.31 70.41,-42.89 63.44,-52.12 56.47,-61.35 48.87,-71.56 41.28,-81.77 35.62,-89.49 29.96,-97.22 20.01,-110.00 10.07,-122.79 2.17,-131.99 -5.72,-141.18 -12.19,-148.01 -18.67,-154.84 -30.52,-166.19 -42.37,-177.54 -50.74,-184.07 -59.10,-190.59 -66.28,-194.67 -73.45,-198.76 -85.56,-204.98 -97.67,-211.21 -106.81,-214.48 -115.95,-217.74 -128.14,-220.77 -140.33,-223.80 -149.01,-224.91 -157.69,-226.02 -167.33,-226.61 -176.96,-227.20 -185.80,-226.56 -194.64,-225.93 -206.52,-224.48 -218.40,-223.04 -224.57,-220.88 -230.75,-218.73 -237.35,-215.63 -243.94,-212.53 -251.45,-207.94 -258.96,-203.35 -263.60,-198.93 -268.23,-194.52 -275.64,-187.03 -283.04,-179.55 -286.03,-174.25 -289.01,-168.94 -293.42,-159.05 -297.82,-149.16 -299.52,-143.15 -301.22,-137.14 -302.56,-130.25 -303.90,-123.36 -305.05,-114.55 -306.20,-105.74 -306.21,-99.58 -306.22,-93.42 -305.61,-82.93 -304.99,-72.45 -303.55,-64.57 -302.10,-56.69 -299.29,-49.86 -296.48,-43.04 -291.17,-34.22 -285.86,-25.39 -279.80,-19.06 -273.75,-12.72 -264.85,-5.14 -255.95,2.43 -248.16,7.02 -240.37,11.60 -226.12,19.03 -211.86,26.46 -202.40,29.86 -192.95,33.26 -181.96,35.95 -170.98,38.64 -157.93,40.92 -144.89,43.21 -131.50,43.90 -118.11,44.59 -104.70,44.19 -91.30,43.79 -82.67,42.87 -74.04,41.94 -64.32,39.74 -54.60,37.54 -47.11,35.04 -39.62,32.54 -31.40,28.73 -23.17,24.91 -20.80,22.99 -18.42,21.07 -15.59,18.66 -12.75,16.24 -10.56,13.71 -8.37,11.18 -6.51,8.54 -4.64,5.90 -4.05,4.64 -3.45,3.39 -2.61,2.45 -1.76,1.51 -1.87,1.25 -1.98,0.99 -2.07,0.74 -2.16,0.48 -2.19,0.22 -2.22,-0.04 -2.18,-0.30 -2.14,-0.57 -2.04,-0.82 -1.94,-1.07 -1.79,-1.28 -1.63,-1.50 -1.43,-1.68 -1.22,-1.85 -0.98,-1.97 -0.74,-2.09 -0.48,-2.15 -0.22,-2.21 0.04,-2.20 0.31,-2.20 0.57,-2.13 0.82,-2.06 1.06,-1.93 1.29,-1.80 1.49,-1.62 1.69,-1.44 1.84,-1.21 1.98,-0.99 1.98,-0.99 L 1.98,-0.99 Z"></path></g><g transform="translate(444.37475679810154 483) rotate(0 -10.5 15.5)" stroke="none"><path fill="#e03131" d="M 1.08,-2.17 Q 1.08,-2.17 1.76,-2.09 2.44,-2.01 2.73,-1.82 3.03,-1.63 3.26,-1.37 3.50,-1.11 3.67,-0.81 3.84,-0.50 3.93,-0.16 4.02,0.16 4.02,0.51 4.03,0.86 3.95,1.20 3.88,1.55 3.72,1.86 3.56,2.17 3.34,2.44 3.11,2.70 2.83,2.91 2.54,3.11 2.22,3.24 1.89,3.37 1.55,3.42 1.20,3.47 0.85,3.43 0.51,3.40 0.18,3.28 -0.14,3.16 -1.86,2.75 -3.57,2.34 -4.84,2.25 -6.11,2.16 -8.53,1.82 -10.96,1.47 -14.85,1.64 -18.74,1.82 -21.10,1.89 -23.45,1.96 -24.74,2.03 -26.04,2.10 -26.29,2.13 -26.55,2.16 -26.93,2.12 -27.31,2.08 -27.67,1.95 -28.04,1.82 -28.35,1.61 -28.67,1.40 -28.93,1.12 -29.19,0.84 -29.38,0.50 -29.56,0.16 -29.66,-0.20 -29.76,-0.57 -29.77,-0.95 -29.78,-1.33 -29.69,-1.71 -29.61,-2.08 -29.44,-2.42 -29.27,-2.76 -29.02,-3.06 -28.77,-3.35 -28.46,-3.57 -28.15,-3.80 -27.79,-3.94 -27.44,-4.08 -27.06,-4.14 -26.68,-4.19 -24.74,-4.20 -22.80,-4.21 -19.12,-4.22 -15.44,-4.23 -10.89,-3.95 -6.33,-3.68 -2.26,-2.57 1.81,-1.46 4.46,1.65 7.10,4.76 6.64,8.89 6.18,13.02 3.32,17.27 0.47,21.52 -3.64,24.47 -7.76,27.43 -11.12,29.02 -14.49,30.60 -16.34,31.82 -18.19,33.03 -18.38,33.13 -18.56,33.23 -18.77,33.27 -18.98,33.31 -19.19,33.28 -19.40,33.24 -19.59,33.15 -19.78,33.05 -19.93,32.90 -20.07,32.74 -20.17,32.55 -20.26,32.36 -20.28,32.15 -20.31,31.94 -20.26,31.73 -20.22,31.52 -20.11,31.34 -20.01,31.16 -19.84,31.02 -19.68,30.88 -19.49,30.80 -19.29,30.72 -19.08,30.70 -18.87,30.69 -18.66,30.74 -18.46,30.80 -18.28,30.91 -18.10,31.03 -17.97,31.20 -17.84,31.37 -17.77,31.57 -17.70,31.77 -17.70,31.98 -17.70,32.19 -17.76,32.40 -17.83,32.60 -17.95,32.77 -18.08,32.94 -18.26,33.06 -18.43,33.18 -18.63,33.24 -18.84,33.30 -19.05,33.29 -19.26,33.28 -19.46,33.20 -19.66,33.13 -19.82,32.99 -19.99,32.86 -20.10,32.68 -20.21,32.49 -20.26,32.29 -20.31,32.08 -20.28,31.87 -20.26,31.66 -20.18,31.46 -20.09,31.27 -19.95,31.11 -19.80,30.96 -19.80,30.96 -19.80,30.96 -18.21,29.20 -16.62,27.44 -13.98,25.00 -11.34,22.55 -8.09,20.10 -4.84,17.64 -2.53,14.56 -0.22,11.47 0.63,9.18 1.50,6.89 0.50,5.72 -0.49,4.54 -3.64,3.69 -6.78,2.83 -11.11,2.53 -15.44,2.23 -19.13,2.21 -22.82,2.20 -24.68,2.18 -26.55,2.16 -26.93,2.12 -27.31,2.08 -27.67,1.95 -28.03,1.82 -28.35,1.61 -28.67,1.40 -28.93,1.12 -29.19,0.84 -29.38,0.50 -29.56,0.17 -29.66,-0.19 -29.76,-0.57 -29.77,-0.95 -29.78,-1.33 -29.69,-1.71 -29.61,-2.08 -29.44,-2.42 -29.27,-2.76 -29.02,-3.06 -28.77,-3.35 -28.46,-3.57 -28.15,-3.80 -27.79,-3.94 -27.44,-4.08 -27.06,-4.14 -26.68,-4.19 -26.42,-4.18 -26.16,-4.17 -24.89,-4.15 -23.61,-4.13 -21.28,-4.19 -18.95,-4.24 -14.53,-4.34 -10.10,-4.45 -7.83,-4.11 -5.56,-3.76 -3.92,-3.58 -2.27,-3.40 -1.02,-3.10 0.22,-2.79 1.33,-2.40 2.44,-2.01 2.73,-1.82 3.02,-1.63 3.26,-1.37 3.50,-1.11 3.67,-0.81 3.84,-0.50 3.93,-0.16 4.02,0.16 4.02,0.51 4.03,0.86 3.95,1.20 3.88,1.54 3.72,1.86 3.56,2.17 3.34,2.44 3.11,2.70 2.83,2.91 2.54,3.11 2.22,3.24 1.89,3.37 1.55,3.42 1.20,3.47 0.85,3.43 0.51,3.40 0.18,3.28 -0.14,3.16 -0.61,2.67 -1.08,2.17 -1.33,2.01 -1.57,1.84 -1.77,1.63 -1.97,1.41 -2.11,1.16 -2.25,0.90 -2.32,0.62 -2.40,0.34 -2.41,0.04 -2.41,-0.24 -2.35,-0.53 -2.28,-0.81 -2.15,-1.07 -2.02,-1.34 -1.83,-1.56 -1.64,-1.78 -1.40,-1.95 -1.17,-2.12 -0.89,-2.23 -0.62,-2.34 -0.33,-2.38 -0.04,-2.42 0.24,-2.39 0.53,-2.36 0.81,-2.27 1.08,-2.17 1.08,-2.17 L 1.08,-2.17 Z"></path></g><g transform="translate(647.3747567981015 404) rotate(0 1 -7.5)" stroke="none"><path fill="#e03131" d="M -0.72,1.82 Q -0.72,1.82 -3.71,0.92 -6.69,0.02 -9.31,-1.73 -11.93,-3.48 -13.59,-4.80 -15.25,-6.12 -13.97,-4.42 -12.68,-2.71 -11.54,-1.32 -10.40,0.06 -7.42,0.10 -4.44,0.14 -1.56,-1.25 1.31,-2.65 4.70,-6.13 8.08,-9.61 10.81,-13.01 13.55,-16.41 14.75,-17.58 15.95,-18.75 16.15,-18.75 16.36,-18.75 16.48,-18.91 16.61,-19.08 16.77,-19.21 16.93,-19.35 17.12,-19.43 17.31,-19.52 17.52,-19.57 17.72,-19.61 17.93,-19.60 18.14,-19.59 18.34,-19.53 18.54,-19.47 18.72,-19.37 18.90,-19.26 19.05,-19.12 19.21,-18.97 19.32,-18.79 19.43,-18.62 19.49,-18.42 19.56,-18.22 19.58,-18.01 19.59,-17.80 19.56,-17.60 19.52,-17.39 19.44,-17.20 19.36,-17.00 16.26,-14.11 13.16,-11.22 9.90,-8.29 6.64,-5.36 3.80,-2.24 0.97,0.88 0.80,1.01 0.63,1.14 0.43,1.21 0.23,1.29 0.02,1.29 -0.18,1.30 -0.38,1.23 -0.59,1.17 -0.76,1.04 -0.93,0.92 -1.05,0.74 -1.18,0.57 -1.24,0.37 -1.30,0.16 -1.29,-0.04 -1.28,-0.25 -1.21,-0.45 -1.13,-0.65 -1.00,-0.81 -0.87,-0.98 -0.69,-1.09 -0.51,-1.20 -0.30,-1.25 -0.09,-1.30 0.11,-1.29 0.32,-1.27 0.51,-1.18 0.71,-1.10 0.87,-0.95 1.02,-0.81 1.13,-0.63 1.23,-0.44 1.27,-0.23 1.31,-0.02 1.28,0.18 1.25,0.39 1.15,0.58 1.06,0.77 0.91,0.92 0.75,1.07 0.56,1.16 0.37,1.25 0.16,1.28 -0.04,1.31 -0.25,1.27 -0.46,1.22 -0.64,1.12 -0.82,1.01 -0.97,0.85 -1.11,0.69 -1.19,0.50 -1.27,0.30 -1.29,0.09 -1.30,-0.11 -1.25,-0.32 -1.20,-0.52 -1.08,-0.70 -0.97,-0.88 -0.97,-0.88 -0.97,-0.88 1.94,-4.09 4.87,-7.30 8.04,-10.23 11.21,-13.17 13.78,-15.96 16.36,-18.75 16.48,-18.91 16.61,-19.08 16.77,-19.21 16.93,-19.35 17.12,-19.43 17.31,-19.52 17.52,-19.57 17.72,-19.61 17.93,-19.60 18.14,-19.59 18.34,-19.53 18.54,-19.47 18.72,-19.37 18.90,-19.26 19.05,-19.12 19.20,-18.97 19.32,-18.79 19.43,-18.62 19.49,-18.42 19.56,-18.22 19.58,-18.01 19.59,-17.80 19.56,-17.60 19.52,-17.39 19.44,-17.20 19.36,-17.00 19.37,-16.84 19.39,-16.68 18.80,-14.76 18.22,-12.84 15.38,-8.98 12.55,-5.12 8.25,-0.98 3.94,3.15 -0.42,4.80 -4.80,6.44 -9.44,5.53 -14.07,4.62 -15.96,2.42 -17.85,0.23 -18.83,-1.93 -19.82,-4.10 -19.55,-6.40 -19.29,-8.70 -18.26,-9.79 -17.23,-10.89 -14.65,-10.50 -12.06,-10.11 -10.55,-8.89 -9.04,-7.66 -6.92,-6.14 -4.80,-4.62 -2.03,-3.22 0.72,-1.82 0.93,-1.70 1.14,-1.59 1.31,-1.43 1.49,-1.27 1.62,-1.07 1.75,-0.88 1.83,-0.65 1.91,-0.43 1.93,-0.20 1.96,0.03 1.93,0.26 1.89,0.50 1.81,0.72 1.72,0.94 1.58,1.13 1.44,1.32 1.26,1.48 1.08,1.63 0.87,1.74 0.66,1.84 0.43,1.90 0.20,1.95 -0.03,1.94 -0.27,1.94 -0.50,1.88 -0.72,1.82 -0.72,1.82 L -0.72,1.82 Z"></path></g><g transform="translate(281.37475679810154 659) rotate(0 8 -1)" stroke="none"><path fill="#e03131" d="M -0.71,-2.13 Q -0.71,-2.13 0.02,-2.76 0.76,-3.40 1.90,-4.70 3.04,-5.99 4.14,-7.17 5.24,-8.35 6.48,-9.91 7.72,-11.46 8.90,-12.79 10.08,-14.12 11.14,-15.52 12.19,-16.92 12.47,-17.16 12.74,-17.40 13.06,-17.57 13.38,-17.73 13.73,-17.82 14.08,-17.90 14.44,-17.90 14.81,-17.90 15.16,-17.81 15.51,-17.72 15.83,-17.55 16.15,-17.39 16.42,-17.14 16.69,-16.90 16.89,-16.61 17.10,-16.31 17.22,-15.97 17.35,-15.63 17.39,-15.27 17.43,-14.91 17.39,-14.55 17.34,-14.19 17.21,-13.86 17.08,-13.52 16.88,-13.22 16.67,-12.92 14.96,-11.45 13.25,-9.97 12.05,-8.80 10.85,-7.63 9.49,-6.27 8.12,-4.90 6.17,-2.68 4.22,-0.45 3.22,1.20 2.22,2.85 1.52,4.08 0.81,5.32 3.81,6.42 6.81,7.52 9.07,8.14 11.32,8.77 13.25,9.36 15.17,9.95 17.45,11.93 19.73,13.90 19.88,14.05 20.04,14.19 20.14,14.38 20.24,14.57 20.27,14.78 20.31,14.99 20.28,15.20 20.24,15.41 20.14,15.60 20.05,15.78 19.89,15.93 19.74,16.08 19.55,16.17 19.35,16.26 19.14,16.28 18.93,16.31 18.72,16.26 18.52,16.22 18.33,16.11 18.15,16.00 18.01,15.84 17.87,15.68 17.79,15.48 17.71,15.28 17.70,15.07 17.69,14.86 17.74,14.66 17.80,14.45 17.92,14.27 18.04,14.10 18.20,13.97 18.37,13.84 18.57,13.77 18.78,13.70 18.99,13.70 19.20,13.70 19.40,13.76 19.60,13.83 19.77,13.96 19.94,14.09 20.06,14.26 20.18,14.44 20.24,14.64 20.30,14.85 20.29,15.06 20.28,15.27 20.20,15.47 20.12,15.67 19.99,15.83 19.85,15.99 19.67,16.10 19.49,16.21 19.28,16.26 19.07,16.31 18.86,16.28 18.65,16.26 18.46,16.17 18.26,16.09 18.26,16.09 18.26,16.09 15.74,16.20 13.22,16.32 11.35,15.74 9.49,15.17 6.89,14.41 4.30,13.64 1.73,12.53 -0.83,11.43 -2.60,9.78 -4.37,8.13 -4.45,5.39 -4.52,2.66 -3.67,1.18 -2.83,-0.29 -1.54,-2.33 -0.25,-4.36 1.84,-6.74 3.94,-9.12 5.32,-10.49 6.71,-11.86 7.93,-13.05 9.15,-14.25 10.67,-15.58 12.19,-16.92 12.47,-17.16 12.74,-17.40 13.06,-17.56 13.38,-17.73 13.73,-17.82 14.08,-17.90 14.44,-17.90 14.81,-17.90 15.16,-17.81 15.51,-17.72 15.83,-17.55 16.15,-17.39 16.42,-17.14 16.69,-16.90 16.89,-16.61 17.09,-16.31 17.22,-15.97 17.35,-15.63 17.39,-15.27 17.43,-14.91 17.39,-14.55 17.34,-14.19 17.21,-13.86 17.08,-13.52 16.88,-13.22 16.67,-12.92 15.62,-11.52 14.56,-10.12 13.48,-8.91 12.39,-7.70 11.01,-5.99 9.62,-4.27 8.60,-3.18 7.58,-2.08 6.11,-0.48 4.65,1.11 3.67,1.68 2.68,2.25 1.69,2.19 0.71,2.13 0.44,2.18 0.17,2.24 -0.09,2.22 -0.36,2.21 -0.62,2.14 -0.88,2.06 -1.11,1.93 -1.35,1.79 -1.54,1.60 -1.74,1.42 -1.88,1.19 -2.03,0.96 -2.11,0.70 -2.20,0.44 -2.22,0.17 -2.24,-0.09 -2.20,-0.35 -2.15,-0.62 -2.05,-0.87 -1.94,-1.12 -1.78,-1.34 -1.62,-1.55 -1.41,-1.72 -1.20,-1.90 -0.95,-2.01 -0.71,-2.13 -0.71,-2.13 L -0.71,-2.13 Z"></path></g><g transform="translate(21.374756798101544 546) rotate(0 11.5 5)" stroke="none"><path fill="#e03131" d="M 2.57,0.36 Q 2.57,0.36 2.50,2.41 2.43,4.45 2.35,5.54 2.27,6.64 2.25,8.59 2.23,10.55 2.24,12.11 2.25,13.67 0.71,13.73 -0.81,13.79 -1.66,14.54 -2.50,15.29 -2.23,13.62 -1.97,11.95 -1.43,9.53 -0.89,7.12 -0.36,3.83 0.15,0.53 0.67,-1.86 1.20,-4.27 2.10,-6.13 3.01,-7.99 5.22,-8.67 7.43,-9.35 10.01,-7.58 12.59,-5.81 14.33,-3.85 16.08,-1.89 17.59,-0.28 19.10,1.31 20.58,3.33 22.06,5.36 23.39,7.63 24.72,9.90 24.88,10.05 25.03,10.19 25.14,10.38 25.24,10.57 25.27,10.78 25.31,10.98 25.28,11.19 25.24,11.40 25.14,11.59 25.05,11.78 24.89,11.93 24.74,12.08 24.55,12.17 24.36,12.26 24.15,12.28 23.93,12.31 23.73,12.26 23.52,12.22 23.34,12.11 23.15,12.00 23.01,11.84 22.88,11.68 22.79,11.48 22.71,11.29 22.70,11.08 22.69,10.86 22.74,10.66 22.80,10.45 22.92,10.28 23.03,10.10 23.20,9.97 23.37,9.84 23.57,9.77 23.77,9.70 23.98,9.70 24.20,9.70 24.40,9.76 24.60,9.83 24.77,9.96 24.94,10.08 25.06,10.26 25.18,10.43 25.24,10.64 25.30,10.84 25.29,11.06 25.28,11.27 25.20,11.47 25.13,11.66 24.99,11.83 24.85,11.99 24.67,12.10 24.49,12.21 24.28,12.26 24.08,12.31 23.86,12.28 23.65,12.26 23.46,12.18 23.27,12.09 23.27,12.09 23.27,12.09 20.35,10.63 17.43,9.17 15.87,7.50 14.31,5.82 12.72,4.14 11.13,2.45 9.65,0.74 8.16,-0.96 7.71,-1.93 7.27,-2.90 6.77,-0.70 6.26,1.50 5.71,4.99 5.16,8.49 4.53,11.24 3.91,13.98 2.78,16.33 1.65,18.67 0.23,19.41 -1.17,20.14 -2.70,16.89 -4.22,13.63 -4.19,12.02 -4.16,10.41 -4.11,9.34 -4.07,8.27 -3.99,7.12 -3.91,5.98 -3.75,4.78 -3.58,3.59 -3.08,1.61 -2.57,-0.36 -2.49,-0.67 -2.41,-0.97 -2.26,-1.24 -2.11,-1.52 -1.89,-1.75 -1.68,-1.98 -1.42,-2.15 -1.16,-2.32 -0.86,-2.43 -0.56,-2.53 -0.25,-2.57 0.05,-2.60 0.36,-2.55 0.67,-2.51 0.96,-2.39 1.25,-2.27 1.51,-2.09 1.76,-1.91 1.96,-1.67 2.17,-1.43 2.31,-1.15 2.45,-0.87 2.52,-0.56 2.58,-0.25 2.58,0.05 2.57,0.36 2.57,0.36 L 2.57,0.36 Z"></path></g><g transform="translate(76.37475679810154 377) rotate(0 -4.5 9.5)" stroke="none"><path fill="#e03131" d="M -1.09,2.18 Q -1.09,2.18 -3.47,1.21 -5.85,0.24 -8.57,-0.42 -11.29,-1.09 -13.03,-1.38 -14.77,-1.68 -14.91,-3.10 -15.05,-4.52 -16.27,-5.95 -17.49,-7.39 -14.46,-7.31 -11.44,-7.24 -7.46,-6.96 -3.47,-6.68 -0.40,-5.93 2.66,-5.18 5.38,-3.84 8.10,-2.49 9.70,-0.33 11.30,1.83 11.06,5.28 10.81,8.74 9.32,11.96 7.83,15.19 5.35,17.86 2.86,20.54 0.44,22.68 -1.97,24.82 -2.13,24.96 -2.29,25.10 -2.49,25.19 -2.68,25.27 -2.89,25.29 -3.11,25.30 -3.31,25.25 -3.52,25.20 -3.70,25.08 -3.88,24.97 -4.01,24.80 -4.14,24.64 -4.21,24.44 -4.29,24.24 -4.29,24.03 -4.30,23.81 -4.23,23.61 -4.17,23.41 -4.05,23.24 -3.92,23.06 -3.75,22.94 -3.57,22.82 -3.37,22.75 -3.17,22.69 -2.96,22.70 -2.74,22.71 -2.54,22.78 -2.34,22.85 -2.18,22.99 -2.01,23.12 -1.90,23.30 -1.79,23.48 -1.74,23.69 -1.69,23.89 -1.70,24.10 -1.72,24.32 -1.81,24.51 -1.89,24.71 -2.03,24.86 -2.18,25.02 -2.36,25.13 -2.55,25.23 -2.76,25.27 -2.96,25.31 -3.17,25.28 -3.38,25.25 -3.57,25.15 -3.76,25.06 -3.91,24.91 -4.06,24.76 -4.16,24.57 -4.25,24.38 -4.28,24.17 -4.31,23.95 -4.27,23.75 -4.23,23.54 -4.12,23.35 -4.02,23.17 -4.02,23.17 -4.02,23.17 -2.47,20.41 -0.93,17.65 0.59,15.05 2.11,12.45 3.29,10.02 4.48,7.60 4.72,5.33 4.97,3.06 3.01,2.08 1.05,1.10 -1.47,0.43 -4.00,-0.22 -7.78,-0.56 -11.57,-0.89 -14.99,-1.14 -18.42,-1.38 -19.58,-3.34 -20.75,-5.30 -18.39,-6.47 -16.04,-7.64 -14.90,-7.49 -13.76,-7.34 -11.81,-6.97 -9.86,-6.60 -6.60,-5.72 -3.34,-4.84 -1.12,-3.51 1.09,-2.18 1.33,-2.01 1.58,-1.85 1.78,-1.64 1.97,-1.42 2.12,-1.16 2.26,-0.90 2.33,-0.62 2.41,-0.34 2.42,-0.04 2.42,0.24 2.36,0.53 2.29,0.81 2.16,1.08 2.03,1.34 1.84,1.56 1.65,1.79 1.41,1.96 1.17,2.13 0.90,2.24 0.62,2.35 0.33,2.39 0.04,2.43 -0.24,2.40 -0.53,2.37 -0.81,2.27 -1.09,2.18 -1.09,2.18 L -1.09,2.18 Z"></path></g><g transform="translate(107.37475679810154 514) rotate(0 8 4.5)" stroke="none"><path fill="#e03131" d="M -0.87,-1.74 Q -0.87,-1.74 0.60,-3.10 2.07,-4.46 3.77,-5.16 5.47,-5.86 7.07,-6.88 8.67,-7.91 9.74,-8.67 10.81,-9.43 11.15,-9.59 11.48,-9.74 11.84,-9.81 12.20,-9.88 12.56,-9.87 12.93,-9.85 13.28,-9.74 13.63,-9.64 13.95,-9.46 14.26,-9.27 14.52,-9.02 14.79,-8.76 14.98,-8.45 15.17,-8.14 15.29,-7.79 15.40,-7.44 15.43,-7.08 15.46,-6.71 15.39,-6.35 15.33,-5.99 15.19,-5.65 15.04,-5.32 14.82,-5.03 14.60,-4.74 14.31,-4.51 14.03,-4.28 11.89,-2.25 9.76,-0.23 8.51,1.20 7.27,2.64 6.18,4.09 5.09,5.54 4.43,6.57 3.77,7.60 5.07,8.93 6.37,10.26 7.92,10.89 9.47,11.52 11.08,12.20 12.70,12.88 14.50,14.30 16.30,15.72 16.49,15.80 16.69,15.88 16.85,16.02 17.01,16.16 17.11,16.34 17.22,16.53 17.26,16.73 17.31,16.94 17.28,17.15 17.26,17.36 17.16,17.56 17.07,17.75 16.92,17.90 16.78,18.05 16.59,18.15 16.40,18.25 16.19,18.28 15.98,18.31 15.77,18.27 15.56,18.23 15.37,18.13 15.19,18.03 15.04,17.87 14.90,17.72 14.81,17.52 14.72,17.33 14.70,17.12 14.68,16.91 14.73,16.70 14.78,16.49 14.89,16.31 15.01,16.13 15.17,16.00 15.33,15.86 15.53,15.78 15.73,15.71 15.94,15.70 16.16,15.69 16.36,15.75 16.56,15.81 16.74,15.93 16.91,16.05 17.04,16.23 17.16,16.40 17.23,16.60 17.29,16.80 17.29,17.01 17.29,17.23 17.22,17.43 17.15,17.63 17.02,17.79 16.88,17.96 16.71,18.08 16.53,18.19 16.32,18.25 16.12,18.30 15.91,18.29 15.69,18.27 15.69,18.27 15.69,18.27 12.93,18.62 10.17,18.97 8.33,18.20 6.49,17.44 3.96,16.02 1.43,14.59 -0.26,11.98 -1.97,9.37 -1.71,7.07 -1.46,4.77 -0.56,3.35 0.34,1.93 1.57,0.32 2.81,-1.28 4.33,-2.98 5.85,-4.68 7.56,-6.14 9.26,-7.59 10.04,-8.51 10.81,-9.43 11.15,-9.59 11.48,-9.74 11.84,-9.81 12.20,-9.88 12.56,-9.87 12.93,-9.85 13.28,-9.74 13.63,-9.64 13.94,-9.46 14.26,-9.27 14.52,-9.02 14.79,-8.76 14.98,-8.45 15.17,-8.14 15.29,-7.79 15.40,-7.44 15.43,-7.08 15.46,-6.71 15.39,-6.35 15.33,-5.99 15.19,-5.65 15.04,-5.32 14.82,-5.03 14.60,-4.74 14.31,-4.51 14.03,-4.28 12.97,-3.49 11.92,-2.71 9.86,-1.45 7.81,-0.20 6.31,0.40 4.82,1.01 2.84,1.38 0.87,1.74 0.65,1.82 0.43,1.90 0.19,1.93 -0.03,1.95 -0.27,1.92 -0.50,1.88 -0.72,1.80 -0.94,1.71 -1.13,1.57 -1.32,1.43 -1.47,1.25 -1.63,1.07 -1.73,0.86 -1.84,0.65 -1.89,0.42 -1.94,0.19 -1.94,-0.03 -1.93,-0.27 -1.87,-0.50 -1.81,-0.72 -1.70,-0.93 -1.58,-1.14 -1.42,-1.31 -1.26,-1.48 -1.07,-1.61 -0.87,-1.74 -0.87,-1.74 L -0.87,-1.74 Z"></path></g><g transform="translate(63.374756798101544 221) rotate(0 -11 14)" stroke="none"><path fill="#e03131" d="M 1.64,1.64 Q 1.64,1.64 0.41,3.30 -0.81,4.96 -2.55,6.07 -4.28,7.18 -7.63,8.79 -10.97,10.40 -13.82,11.65 -16.66,12.90 -18.13,13.46 -19.59,14.01 -19.94,14.12 -20.29,14.22 -20.66,14.24 -21.02,14.26 -21.38,14.19 -21.74,14.12 -22.08,13.96 -22.41,13.81 -22.70,13.58 -22.98,13.35 -23.21,13.06 -23.43,12.77 -23.58,12.43 -23.72,12.10 -23.78,11.74 -23.85,11.38 -23.82,11.01 -23.79,10.64 -23.68,10.30 -23.57,9.95 -23.38,9.64 -23.18,9.32 -22.92,9.07 -22.66,8.81 -22.34,8.62 -22.03,8.44 -20.07,7.21 -18.11,5.98 -16.40,4.73 -14.70,3.48 -11.66,1.90 -8.63,0.32 -6.47,-0.37 -4.30,-1.08 -1.94,-0.21 0.42,0.64 1.70,4.22 2.98,7.81 3.33,10.72 3.67,13.63 3.22,17.33 2.76,21.02 1.48,23.20 0.20,25.37 -0.27,26.88 -0.74,28.39 -0.84,28.58 -0.93,28.77 -1.08,28.92 -1.24,29.07 -1.43,29.16 -1.62,29.25 -1.83,29.28 -2.04,29.31 -2.25,29.27 -2.46,29.22 -2.64,29.12 -2.82,29.01 -2.97,28.85 -3.11,28.70 -3.19,28.50 -3.27,28.30 -3.29,28.09 -3.30,27.88 -3.25,27.67 -3.20,27.47 -3.08,27.29 -2.97,27.11 -2.80,26.98 -2.63,26.85 -2.43,26.78 -2.23,26.70 -2.02,26.70 -1.81,26.69 -1.61,26.76 -1.40,26.82 -1.23,26.95 -1.06,27.07 -0.94,27.25 -0.81,27.42 -0.75,27.62 -0.69,27.83 -0.70,28.04 -0.71,28.25 -0.78,28.45 -0.86,28.65 -0.99,28.81 -1.12,28.98 -1.30,29.09 -1.48,29.20 -1.69,29.25 -1.90,29.30 -2.11,29.29 -2.32,29.27 -2.51,29.18 -2.71,29.10 -2.87,28.95 -3.02,28.81 -3.13,28.63 -3.23,28.44 -3.27,28.23 -3.31,28.02 -3.28,27.81 -3.25,27.60 -3.25,27.60 -3.25,27.60 -2.77,26.09 -2.30,24.58 -2.30,22.67 -2.30,20.75 -2.45,17.54 -2.59,14.33 -2.87,11.81 -3.15,9.29 -3.05,7.10 -2.96,4.91 -4.36,5.43 -5.76,5.96 -8.41,7.29 -11.06,8.61 -14.16,10.51 -17.26,12.41 -18.42,13.21 -19.59,14.01 -19.94,14.12 -20.29,14.22 -20.66,14.24 -21.02,14.26 -21.38,14.19 -21.74,14.12 -22.08,13.96 -22.41,13.81 -22.70,13.58 -22.98,13.35 -23.21,13.06 -23.43,12.77 -23.58,12.43 -23.72,12.10 -23.78,11.74 -23.85,11.38 -23.82,11.01 -23.79,10.64 -23.68,10.30 -23.57,9.95 -23.38,9.64 -23.18,9.32 -22.92,9.07 -22.66,8.81 -22.34,8.62 -22.03,8.44 -20.53,7.95 -19.04,7.47 -16.28,6.26 -13.52,5.06 -10.43,3.61 -7.35,2.15 -6.14,1.47 -4.93,0.78 -3.28,-0.42 -1.64,-1.64 -1.42,-1.81 -1.20,-1.98 -0.94,-2.10 -0.69,-2.21 -0.41,-2.26 -0.14,-2.31 0.13,-2.30 0.41,-2.28 0.68,-2.20 0.95,-2.11 1.19,-1.97 1.43,-1.82 1.62,-1.62 1.82,-1.43 1.97,-1.19 2.11,-0.95 2.20,-0.68 2.28,-0.41 2.30,-0.13 2.31,0.14 2.26,0.41 2.21,0.69 2.10,0.94 1.98,1.20 1.81,1.42 1.64,1.64 1.64,1.64 L 1.64,1.64 Z"></path></g><g transform="translate(307.37475679810154 122) rotate(0 -5.5 -7)" stroke="none"><path fill="#e03131" d="M 1.06,2.47 Q 1.06,2.47 -0.90,3.43 -2.87,4.40 -5.96,5.90 -9.05,7.41 -10.59,8.30 -12.12,9.18 -12.51,8.06 -12.90,6.93 -14.33,6.38 -15.77,5.83 -14.83,5.27 -13.89,4.71 -12.11,4.19 -10.33,3.67 -8.44,3.17 -6.55,2.67 -4.95,2.18 -3.35,1.70 -1.30,0.95 0.74,0.21 0.73,-1.67 0.71,-3.57 -1.08,-6.88 -2.88,-10.19 -4.43,-13.17 -5.99,-16.16 -6.79,-17.96 -7.58,-19.76 -8.75,-20.91 -9.92,-22.06 -10.04,-22.23 -10.17,-22.40 -10.23,-22.60 -10.29,-22.81 -10.29,-23.02 -10.29,-23.23 -10.22,-23.43 -10.14,-23.63 -10.01,-23.80 -9.88,-23.97 -9.70,-24.08 -9.52,-24.20 -9.32,-24.25 -9.11,-24.30 -8.90,-24.29 -8.69,-24.27 -8.49,-24.19 -8.30,-24.11 -8.14,-23.97 -7.98,-23.83 -7.87,-23.64 -7.77,-23.46 -7.72,-23.25 -7.68,-23.04 -7.71,-22.83 -7.74,-22.62 -7.83,-22.43 -7.92,-22.24 -8.07,-22.09 -8.22,-21.93 -8.41,-21.84 -8.60,-21.74 -8.81,-21.71 -9.02,-21.68 -9.23,-21.72 -9.44,-21.76 -9.62,-21.86 -9.81,-21.96 -9.95,-22.12 -10.10,-22.28 -10.18,-22.47 -10.27,-22.67 -10.29,-22.88 -10.30,-23.09 -10.26,-23.30 -10.21,-23.50 -10.09,-23.68 -9.98,-23.86 -9.81,-24.00 -9.65,-24.13 -9.45,-24.21 -9.25,-24.28 -9.04,-24.29 -8.83,-24.30 -8.62,-24.24 -8.42,-24.18 -8.25,-24.05 -8.07,-23.93 -8.07,-23.93 -8.07,-23.93 -6.91,-22.78 -5.74,-21.64 -3.38,-20.34 -1.03,-19.03 0.77,-16.07 2.58,-13.10 4.64,-9.18 6.70,-5.25 7.22,-2.89 7.74,-0.54 7.04,1.60 6.34,3.76 4.63,4.93 2.92,6.11 0.69,6.93 -1.53,7.76 -3.23,8.27 -4.94,8.78 -6.76,9.26 -8.59,9.74 -10.14,10.18 -11.70,10.61 -13.20,10.96 -14.69,11.30 -16.44,10.17 -18.19,9.04 -16.62,6.55 -15.06,4.05 -13.33,3.07 -11.61,2.10 -8.39,0.57 -5.17,-0.95 -3.11,-1.71 -1.06,-2.47 -0.74,-2.56 -0.43,-2.65 -0.11,-2.66 0.21,-2.68 0.52,-2.61 0.84,-2.55 1.14,-2.41 1.43,-2.27 1.68,-2.07 1.93,-1.86 2.13,-1.60 2.32,-1.35 2.45,-1.05 2.58,-0.75 2.63,-0.43 2.68,-0.11 2.66,0.20 2.63,0.53 2.53,0.84 2.43,1.14 2.26,1.42 2.08,1.69 1.85,1.92 1.62,2.14 1.34,2.31 1.05,2.47 1.05,2.47 L 1.06,2.47 Z"></path></g><g transform="translate(499.37475679810154 274) rotate(0 2 -10.5)" stroke="none"><path fill="#e03131" d="M -2.01,1.34 Q -2.01,1.34 -2.77,0.62 -3.54,-0.09 -4.69,-1.04 -5.85,-1.99 -7.05,-2.62 -8.25,-3.24 -9.49,-3.63 -10.74,-4.01 -11.40,-3.66 -12.05,-3.30 -12.41,-3.41 -12.76,-3.52 -13.08,-3.71 -13.40,-3.90 -13.66,-4.17 -13.92,-4.43 -14.11,-4.75 -14.31,-5.07 -14.42,-5.42 -14.53,-5.78 -14.55,-6.15 -14.57,-6.52 -14.50,-6.88 -14.44,-7.25 -14.28,-7.59 -14.13,-7.92 -13.90,-8.22 -13.67,-8.51 -13.38,-8.74 -13.09,-8.97 -12.75,-9.12 -12.41,-9.27 -12.04,-9.34 -11.68,-9.40 -11.31,-9.38 -10.94,-9.36 -9.75,-8.62 -8.57,-7.89 -7.31,-6.97 -6.06,-6.05 -3.88,-5.26 -1.69,-4.48 0.59,-4.43 2.88,-4.38 5.14,-5.32 7.39,-6.25 8.94,-8.28 10.50,-10.30 11.28,-11.98 12.07,-13.65 12.52,-15.51 12.97,-17.38 12.83,-19.13 12.69,-20.89 12.70,-21.10 12.72,-21.31 12.80,-21.51 12.89,-21.70 13.03,-21.86 13.17,-22.02 13.36,-22.12 13.54,-22.23 13.75,-22.27 13.96,-22.31 14.17,-22.28 14.38,-22.25 14.57,-22.16 14.76,-22.06 14.91,-21.91 15.06,-21.76 15.16,-21.57 15.25,-21.38 15.28,-21.17 15.31,-20.96 15.27,-20.75 15.23,-20.54 15.12,-20.36 15.02,-20.17 14.86,-20.03 14.70,-19.89 14.51,-19.80 14.31,-19.72 14.10,-19.70 13.89,-19.69 13.68,-19.74 13.48,-19.79 13.30,-19.90 13.12,-20.02 12.99,-20.18 12.85,-20.35 12.78,-20.55 12.71,-20.75 12.70,-20.96 12.69,-21.17 12.76,-21.37 12.82,-21.58 12.94,-21.75 13.07,-21.92 13.24,-22.05 13.41,-22.17 13.61,-22.23 13.82,-22.30 14.03,-22.29 14.24,-22.28 14.44,-22.21 14.64,-22.14 14.81,-22.01 14.97,-21.87 15.09,-21.69 15.20,-21.51 15.25,-21.31 15.30,-21.10 15.30,-21.10 15.30,-21.10 15.45,-19.35 15.59,-17.59 16.43,-14.71 17.27,-11.83 16.27,-9.10 15.27,-6.37 12.61,-3.44 9.95,-0.52 6.36,0.72 2.77,1.96 -0.57,1.73 -3.92,1.49 -6.90,0.25 -9.87,-0.97 -10.96,-2.14 -12.05,-3.30 -12.41,-3.41 -12.76,-3.52 -13.08,-3.71 -13.40,-3.90 -13.66,-4.17 -13.92,-4.43 -14.11,-4.75 -14.31,-5.07 -14.42,-5.42 -14.53,-5.77 -14.55,-6.15 -14.57,-6.52 -14.50,-6.88 -14.44,-7.25 -14.28,-7.59 -14.13,-7.92 -13.90,-8.22 -13.67,-8.51 -13.38,-8.74 -13.09,-8.97 -12.75,-9.12 -12.41,-9.27 -12.04,-9.34 -11.68,-9.40 -11.31,-9.38 -10.94,-9.36 -10.92,-9.45 -10.90,-9.54 -9.66,-9.41 -8.43,-9.28 -6.93,-8.82 -5.44,-8.35 -3.73,-7.36 -2.02,-6.37 -0.39,-4.86 1.24,-3.35 1.62,-2.34 2.01,-1.34 2.14,-1.08 2.27,-0.82 2.33,-0.53 2.40,-0.25 2.39,0.03 2.39,0.32 2.31,0.61 2.24,0.89 2.10,1.14 1.96,1.40 1.76,1.61 1.57,1.83 1.33,1.99 1.08,2.15 0.81,2.25 0.54,2.35 0.25,2.38 -0.03,2.41 -0.32,2.37 -0.61,2.33 -0.88,2.22 -1.15,2.12 -1.39,1.95 -1.63,1.78 -1.82,1.56 -2.01,1.34 -2.01,1.34 L -2.01,1.34 Z"></path></g><g transform="translate(641.3747567981015 569) rotate(0 0.5 7)" stroke="none"><path fill="#e03131" d="M -1.93,1.45 Q -1.93,1.45 -2.93,0.42 -3.92,-0.60 -5.46,-1.68 -7.00,-2.76 -8.45,-3.50 -9.89,-4.25 -10.88,-4.29 -11.87,-4.34 -12.20,-4.51 -12.52,-4.68 -12.80,-4.92 -13.07,-5.16 -13.28,-5.46 -13.49,-5.76 -13.62,-6.11 -13.76,-6.45 -13.80,-6.81 -13.85,-7.18 -13.80,-7.54 -13.76,-7.90 -13.63,-8.25 -13.51,-8.59 -13.30,-8.89 -13.09,-9.20 -12.82,-9.44 -12.54,-9.69 -12.22,-9.86 -11.90,-10.03 -11.54,-10.12 -11.19,-10.21 -10.82,-10.21 -10.45,-10.21 -10.10,-10.13 -9.74,-10.04 -6.88,-8.68 -4.02,-7.32 -0.72,-5.74 2.56,-4.15 5.45,-2.58 8.34,-1.01 10.86,1.37 13.38,3.76 13.48,6.97 13.59,10.19 9.75,13.46 5.91,16.72 2.51,18.58 -0.88,20.44 -4.44,21.01 -8.00,21.59 -10.27,22.41 -12.55,23.23 -12.76,23.27 -12.97,23.31 -13.18,23.28 -13.39,23.25 -13.58,23.15 -13.77,23.06 -13.92,22.91 -14.07,22.76 -14.16,22.56 -14.25,22.37 -14.28,22.16 -14.31,21.95 -14.27,21.74 -14.23,21.54 -14.12,21.35 -14.01,21.17 -13.86,21.03 -13.70,20.88 -13.50,20.80 -13.30,20.72 -13.09,20.70 -12.88,20.69 -12.68,20.74 -12.47,20.79 -12.29,20.91 -12.11,21.02 -11.98,21.19 -11.85,21.36 -11.78,21.55 -11.70,21.75 -11.70,21.97 -11.69,22.18 -11.76,22.38 -11.82,22.59 -11.95,22.76 -12.07,22.93 -12.24,23.05 -12.42,23.17 -12.62,23.24 -12.83,23.30 -13.04,23.29 -13.25,23.28 -13.45,23.21 -13.65,23.13 -13.81,23.00 -13.98,22.87 -14.09,22.69 -14.20,22.51 -14.25,22.30 -14.30,22.09 -14.29,21.88 -14.27,21.67 -14.18,21.48 -14.10,21.28 -13.95,21.12 -13.81,20.97 -13.63,20.86 -13.44,20.76 -13.44,20.76 -13.44,20.76 -11.16,19.94 -8.89,19.11 -6.28,17.46 -3.68,15.81 -0.70,13.79 2.26,11.76 5.39,9.33 8.52,6.91 6.92,5.69 5.31,4.48 2.57,2.98 -0.17,1.48 -3.37,-0.08 -6.58,-1.65 -9.22,-2.99 -11.87,-4.34 -12.20,-4.51 -12.52,-4.68 -12.80,-4.92 -13.07,-5.16 -13.28,-5.46 -13.49,-5.76 -13.62,-6.10 -13.76,-6.45 -13.80,-6.81 -13.85,-7.18 -13.80,-7.54 -13.76,-7.90 -13.63,-8.25 -13.51,-8.59 -13.30,-8.89 -13.09,-9.20 -12.82,-9.44 -12.55,-9.69 -12.22,-9.86 -11.90,-10.03 -11.54,-10.12 -11.19,-10.21 -10.82,-10.21 -10.45,-10.21 -10.10,-10.13 -9.74,-10.04 -10.56,-9.92 -11.38,-9.79 -9.33,-9.49 -7.28,-9.19 -5.47,-8.22 -3.66,-7.24 -1.59,-5.61 0.47,-3.99 1.20,-2.72 1.93,-1.45 2.08,-1.20 2.23,-0.94 2.31,-0.66 2.39,-0.38 2.40,-0.09 2.41,0.19 2.35,0.48 2.29,0.76 2.17,1.03 2.04,1.29 1.86,1.52 1.67,1.74 1.44,1.92 1.21,2.10 0.94,2.21 0.67,2.32 0.38,2.37 0.09,2.42 -0.19,2.39 -0.48,2.37 -0.76,2.28 -1.04,2.18 -1.28,2.03 -1.53,1.87 -1.73,1.66 -1.93,1.45 -1.93,1.45 L -1.93,1.45 Z"></path></g><g transform="translate(945.3747567981015 477) rotate(0 -7 14.5)" stroke="none"><path fill="#e03131" d="M 0.37,1.67 Q 0.37,1.67 -2.09,2.77 -4.56,3.87 -6.97,4.66 -9.38,5.46 -12.38,6.67 -15.38,7.89 -16.92,8.38 -18.47,8.88 -18.98,9.51 -19.48,10.15 -19.84,10.22 -20.20,10.29 -20.57,10.27 -20.94,10.25 -21.29,10.14 -21.64,10.04 -21.96,9.85 -22.27,9.66 -22.53,9.40 -22.79,9.15 -22.99,8.83 -23.18,8.52 -23.29,8.17 -23.40,7.82 -23.43,7.46 -23.46,7.09 -23.39,6.73 -23.33,6.37 -23.18,6.03 -23.03,5.69 -22.81,5.40 -22.59,5.11 -22.30,4.88 -22.01,4.65 -21.68,4.50 -21.35,4.35 -19.63,4.53 -17.92,4.71 -16.38,4.23 -14.83,3.74 -10.81,2.68 -6.79,1.61 -3.91,0.86 -1.02,0.11 1.31,-0.22 3.64,-0.56 6.07,0.71 8.50,1.99 9.14,5.33 9.78,8.66 9.57,10.98 9.37,13.29 7.89,17.30 6.41,21.32 4.61,23.61 2.82,25.91 2.01,27.72 1.19,29.53 1.08,29.71 0.96,29.89 0.79,30.02 0.62,30.15 0.42,30.22 0.22,30.29 0.01,30.29 -0.19,30.29 -0.39,30.23 -0.60,30.16 -0.77,30.04 -0.94,29.91 -1.06,29.74 -1.18,29.56 -1.24,29.36 -1.30,29.15 -1.29,28.94 -1.28,28.73 -1.20,28.53 -1.13,28.33 -0.99,28.17 -0.86,28.00 -0.68,27.89 -0.50,27.78 -0.29,27.73 -0.08,27.68 0.12,27.71 0.33,27.73 0.53,27.81 0.72,27.90 0.88,28.04 1.03,28.19 1.13,28.37 1.23,28.56 1.27,28.77 1.31,28.98 1.28,29.19 1.24,29.40 1.15,29.59 1.05,29.78 0.90,29.93 0.74,30.07 0.55,30.16 0.36,30.26 0.15,30.28 -0.05,30.31 -0.26,30.26 -0.47,30.22 -0.65,30.11 -0.83,30.01 -0.97,29.85 -1.11,29.69 -1.19,29.49 -1.27,29.29 -1.29,29.08 -1.30,28.87 -1.25,28.66 -1.19,28.46 -1.19,28.46 -1.19,28.46 -0.38,26.64 0.42,24.83 0.83,22.22 1.23,19.61 2.22,16.13 3.20,12.66 3.39,10.89 3.59,9.12 3.88,7.31 4.17,5.50 2.34,5.78 0.50,6.07 -2.36,6.80 -5.24,7.54 -9.37,8.61 -13.49,9.68 -16.49,9.91 -19.48,10.15 -19.84,10.22 -20.20,10.29 -20.57,10.27 -20.94,10.25 -21.29,10.14 -21.64,10.04 -21.96,9.85 -22.27,9.66 -22.53,9.40 -22.79,9.15 -22.99,8.83 -23.18,8.52 -23.29,8.17 -23.40,7.82 -23.43,7.46 -23.46,7.09 -23.39,6.73 -23.33,6.37 -23.18,6.03 -23.03,5.69 -22.81,5.40 -22.59,5.11 -22.30,4.88 -22.01,4.65 -21.68,4.50 -21.35,4.35 -21.07,3.97 -20.79,3.59 -19.13,3.06 -17.48,2.52 -14.29,1.31 -11.11,0.10 -8.44,-0.73 -5.78,-1.57 -3.07,-1.62 -0.37,-1.67 -0.16,-1.69 0.03,-1.71 0.24,-1.68 0.44,-1.65 0.64,-1.58 0.83,-1.50 1.00,-1.38 1.16,-1.26 1.30,-1.10 1.43,-0.94 1.52,-0.75 1.62,-0.57 1.66,-0.37 1.71,-0.16 1.70,0.03 1.70,0.24 1.64,0.44 1.59,0.64 1.49,0.82 1.39,1.00 1.25,1.16 1.10,1.31 0.93,1.42 0.76,1.54 0.56,1.60 0.37,1.67 0.37,1.67 L 0.37,1.67 Z"></path></g><g transform="translate(922.3747567981015 169) rotate(0 11 7.5)" stroke="none"><path fill="#e03131" d="M -0.81,-2.04 Q -0.81,-2.04 0.48,-2.96 1.78,-3.87 3.29,-4.45 4.80,-5.02 6.82,-5.85 8.84,-6.67 10.96,-7.34 13.08,-8.02 15.14,-8.59 17.20,-9.16 18.35,-9.38 19.49,-9.59 19.86,-9.65 20.22,-9.70 20.59,-9.67 20.96,-9.63 21.30,-9.51 21.65,-9.39 21.96,-9.19 22.27,-8.99 22.52,-8.72 22.77,-8.45 22.95,-8.13 23.13,-7.81 23.23,-7.45 23.33,-7.10 23.34,-6.73 23.35,-6.36 23.27,-6.00 23.19,-5.64 23.03,-5.31 22.87,-4.98 22.63,-4.70 22.40,-4.41 22.10,-4.20 21.80,-3.98 21.46,-3.84 21.12,-3.70 18.68,-1.96 16.25,-0.22 13.44,2.66 10.63,5.54 9.57,6.39 8.50,7.24 9.26,8.20 10.01,9.17 11.05,9.94 12.10,10.71 14.65,12.33 17.21,13.94 18.51,15.29 19.82,16.63 20.49,19.01 21.16,21.39 21.23,21.59 21.29,21.79 21.29,22.01 21.29,22.22 21.22,22.42 21.15,22.62 21.02,22.79 20.89,22.96 20.71,23.07 20.54,23.19 20.33,23.25 20.13,23.30 19.91,23.29 19.70,23.27 19.50,23.19 19.31,23.11 19.15,22.98 18.99,22.84 18.88,22.65 18.77,22.47 18.73,22.26 18.68,22.05 18.71,21.84 18.73,21.63 18.82,21.44 18.91,21.25 19.06,21.10 19.21,20.94 19.40,20.84 19.59,20.75 19.80,20.71 20.01,20.68 20.22,20.72 20.43,20.75 20.61,20.86 20.80,20.96 20.94,21.11 21.09,21.27 21.18,21.46 21.26,21.66 21.28,21.87 21.31,22.08 21.26,22.29 21.21,22.49 21.10,22.67 20.99,22.85 20.82,22.99 20.66,23.13 20.46,23.20 20.27,23.28 20.05,23.29 19.84,23.30 19.64,23.24 19.43,23.18 19.26,23.06 19.08,22.94 18.96,22.77 18.83,22.60 18.83,22.60 18.83,22.60 17.68,21.47 16.54,20.34 15.38,19.65 14.22,18.95 10.98,17.12 7.75,15.28 5.98,13.35 4.22,11.42 3.78,8.73 3.35,6.04 4.90,3.70 6.45,1.36 9.79,-1.88 13.13,-5.14 15.37,-6.40 17.62,-7.66 18.55,-8.63 19.49,-9.59 19.86,-9.65 20.22,-9.70 20.59,-9.67 20.96,-9.63 21.30,-9.51 21.65,-9.39 21.96,-9.19 22.27,-8.99 22.52,-8.72 22.77,-8.45 22.95,-8.13 23.13,-7.81 23.23,-7.45 23.33,-7.10 23.34,-6.73 23.35,-6.36 23.27,-6.00 23.19,-5.64 23.03,-5.31 22.87,-4.98 22.63,-4.70 22.40,-4.41 22.10,-4.20 21.80,-3.98 21.46,-3.84 21.12,-3.70 19.98,-3.45 18.84,-3.19 16.88,-2.65 14.91,-2.11 12.98,-1.53 11.05,-0.95 8.94,-0.17 6.83,0.60 5.40,1.09 3.96,1.57 2.39,1.81 0.81,2.04 0.56,2.11 0.30,2.17 0.03,2.18 -0.22,2.18 -0.48,2.12 -0.74,2.07 -0.97,1.95 -1.21,1.83 -1.41,1.65 -1.61,1.48 -1.77,1.27 -1.92,1.05 -2.02,0.81 -2.12,0.56 -2.16,0.30 -2.19,0.03 -2.17,-0.22 -2.14,-0.48 -2.05,-0.73 -1.96,-0.98 -1.81,-1.20 -1.67,-1.42 -1.47,-1.60 -1.28,-1.78 -1.04,-1.91 -0.81,-2.04 -0.81,-2.04 L -0.81,-2.04 Z"></path></g><g transform="translate(744.3747567981015 270) rotate(0 13.5 -3.5)" stroke="none"><path fill="#e03131" d="M -1.84,-1.22 Q -1.84,-1.22 -0.42,-4.01 0.99,-6.81 2.25,-8.98 3.51,-11.15 4.30,-12.84 5.09,-14.54 5.46,-15.59 5.84,-16.65 6.02,-16.94 6.21,-17.24 6.46,-17.48 6.71,-17.73 7.01,-17.90 7.31,-18.08 7.64,-18.18 7.98,-18.28 8.32,-18.30 8.67,-18.32 9.02,-18.25 9.36,-18.18 9.67,-18.04 9.99,-17.89 10.26,-17.67 10.54,-17.45 10.75,-17.17 10.96,-16.90 11.10,-16.58 11.24,-16.26 11.30,-15.91 11.36,-15.57 11.33,-15.22 11.31,-14.87 11.20,-14.54 11.09,-14.21 10.03,-11.71 8.97,-9.21 8.73,-7.70 8.49,-6.19 8.43,-3.89 8.37,-1.60 10.24,0.29 12.11,2.20 14.35,3.25 16.59,4.30 18.99,4.81 21.39,5.31 24.37,7.02 27.36,8.73 27.55,8.82 27.74,8.92 27.90,9.06 28.05,9.21 28.15,9.40 28.24,9.59 28.28,9.80 28.31,10.01 28.27,10.22 28.24,10.43 28.13,10.61 28.03,10.80 27.88,10.95 27.72,11.09 27.53,11.18 27.33,11.26 27.12,11.28 26.91,11.31 26.70,11.26 26.50,11.21 26.31,11.10 26.13,10.99 26.00,10.82 25.86,10.66 25.79,10.46 25.71,10.26 25.70,10.05 25.69,9.84 25.75,9.63 25.81,9.43 25.93,9.26 26.05,9.08 26.22,8.95 26.39,8.83 26.59,8.76 26.80,8.70 27.01,8.70 27.22,8.70 27.42,8.77 27.62,8.84 27.79,8.97 27.96,9.10 28.08,9.28 28.19,9.46 28.25,9.66 28.30,9.87 28.29,10.08 28.27,10.29 28.19,10.49 28.11,10.68 27.97,10.84 27.83,11.01 27.65,11.11 27.47,11.22 27.26,11.26 27.05,11.31 26.84,11.28 26.63,11.26 26.63,11.26 26.63,11.26 23.46,11.19 20.30,11.12 17.08,10.57 13.87,10.03 11.01,8.60 8.15,7.17 5.77,4.96 3.39,2.75 2.75,0.44 2.11,-1.86 2.39,-4.62 2.66,-7.38 3.20,-9.65 3.74,-11.91 4.79,-14.28 5.84,-16.65 6.02,-16.94 6.21,-17.24 6.46,-17.48 6.70,-17.73 7.01,-17.90 7.31,-18.08 7.64,-18.18 7.98,-18.28 8.32,-18.30 8.67,-18.32 9.02,-18.25 9.36,-18.18 9.67,-18.04 9.99,-17.89 10.26,-17.67 10.54,-17.45 10.75,-17.17 10.96,-16.90 11.10,-16.58 11.24,-16.26 11.30,-15.91 11.36,-15.57 11.33,-15.22 11.31,-14.87 11.20,-14.54 11.09,-14.21 10.75,-13.14 10.41,-12.07 9.51,-10.13 8.61,-8.19 7.26,-5.86 5.90,-3.53 3.87,-1.15 1.84,1.22 1.66,1.42 1.49,1.63 1.27,1.78 1.05,1.94 0.81,2.04 0.56,2.13 0.29,2.17 0.03,2.21 -0.22,2.18 -0.49,2.15 -0.74,2.06 -0.99,1.97 -1.21,1.82 -1.44,1.67 -1.62,1.48 -1.80,1.28 -1.92,1.05 -2.05,0.81 -2.12,0.55 -2.19,0.30 -2.19,0.03 -2.20,-0.23 -2.14,-0.49 -2.08,-0.75 -1.96,-0.98 -1.84,-1.22 -1.84,-1.22 L -1.84,-1.22 Z"></path></g><g transform="translate(481.37475679810154 184) rotate(0 6.5 3)" stroke="none"><path fill="#e03131" d="M 2.25,0.75 Q 2.25,0.75 1.96,2.57 1.68,4.39 0.82,6.40 -0.03,8.41 -0.68,9.82 -1.33,11.22 -1.85,12.58 -2.37,13.94 -2.92,15.19 -3.47,16.45 -4.00,17.23 -4.53,18.02 -4.71,18.32 -4.89,18.63 -5.14,18.89 -5.40,19.14 -5.70,19.33 -6.00,19.51 -6.34,19.62 -6.68,19.73 -7.04,19.76 -7.40,19.78 -7.75,19.72 -8.10,19.66 -8.43,19.51 -8.75,19.37 -9.04,19.15 -9.32,18.93 -9.54,18.65 -9.76,18.37 -9.91,18.05 -10.06,17.73 -10.13,17.37 -10.20,17.02 -10.18,16.67 -10.16,16.31 -10.05,15.97 -9.95,15.63 -10.08,13.60 -10.20,11.57 -8.90,7.04 -7.60,2.52 -6.19,-1.40 -4.78,-5.33 -3.51,-7.79 -2.23,-10.25 -0.24,-11.74 1.75,-13.24 4.50,-13.16 7.26,-13.08 10.18,-10.35 13.09,-7.62 14.92,-5.39 16.75,-3.17 17.99,-1.23 19.23,0.71 20.61,3.42 21.99,6.14 22.10,6.32 22.21,6.50 22.26,6.71 22.31,6.92 22.28,7.13 22.26,7.34 22.17,7.53 22.09,7.73 21.94,7.88 21.79,8.04 21.61,8.14 21.42,8.24 21.21,8.27 21.00,8.31 20.79,8.27 20.58,8.24 20.39,8.14 20.21,8.04 20.06,7.89 19.91,7.74 19.82,7.54 19.73,7.35 19.71,7.14 19.68,6.93 19.73,6.72 19.77,6.51 19.88,6.33 19.99,6.15 20.15,6.01 20.31,5.87 20.51,5.79 20.71,5.71 20.92,5.70 21.13,5.69 21.34,5.74 21.54,5.80 21.72,5.92 21.89,6.04 22.02,6.21 22.15,6.37 22.22,6.58 22.29,6.78 22.29,6.99 22.29,7.20 22.23,7.40 22.16,7.61 22.03,7.77 21.90,7.94 21.73,8.06 21.55,8.18 21.35,8.24 21.14,8.30 20.93,8.29 20.72,8.28 20.52,8.20 20.32,8.12 20.16,7.99 20.00,7.85 20.00,7.85 20.00,7.85 17.41,5.93 14.82,4.02 13.39,2.40 11.96,0.78 10.22,-1.30 8.48,-3.40 7.05,-5.41 5.63,-7.43 4.21,-7.33 2.79,-7.23 1.74,-5.28 0.68,-3.34 -0.67,0.39 -2.03,4.12 -3.20,8.15 -4.37,12.18 -4.65,13.50 -4.93,14.82 -4.73,16.42 -4.53,18.02 -4.71,18.32 -4.89,18.63 -5.14,18.89 -5.40,19.14 -5.70,19.33 -6.00,19.51 -6.34,19.62 -6.68,19.73 -7.04,19.76 -7.40,19.78 -7.75,19.72 -8.10,19.66 -8.43,19.51 -8.75,19.37 -9.04,19.15 -9.32,18.93 -9.54,18.65 -9.76,18.37 -9.91,18.05 -10.06,17.73 -10.13,17.37 -10.20,17.02 -10.18,16.67 -10.16,16.31 -10.06,15.97 -9.95,15.63 -9.46,14.82 -8.96,14.02 -8.47,12.90 -7.97,11.78 -7.38,10.24 -6.78,8.70 -6.16,7.36 -5.54,6.01 -4.76,4.26 -3.98,2.50 -3.11,0.87 -2.25,-0.75 -2.13,-1.01 -2.00,-1.26 -1.82,-1.49 -1.64,-1.71 -1.41,-1.88 -1.18,-2.05 -0.92,-2.16 -0.66,-2.28 -0.37,-2.32 -0.09,-2.37 0.18,-2.35 0.47,-2.32 0.74,-2.23 1.01,-2.14 1.25,-1.99 1.50,-1.84 1.70,-1.63 1.89,-1.42 2.04,-1.17 2.18,-0.93 2.26,-0.65 2.34,-0.38 2.35,-0.09 2.36,0.19 2.31,0.47 2.25,0.75 2.25,0.75 L 2.25,0.75 Z"></path></g><g transform="translate(655.3747567981015 34) rotate(0 -7 -8)" stroke="none"><path fill="#e03131" d="M 0.71,1.71 Q 0.71,1.71 -2.53,3.63 -5.78,5.56 -8.91,7.02 -12.05,8.48 -13.77,9.17 -15.49,9.85 -15.90,10.15 -16.31,10.44 -16.66,10.53 -17.02,10.62 -17.38,10.62 -17.75,10.62 -18.10,10.53 -18.46,10.44 -18.78,10.27 -19.11,10.10 -19.38,9.86 -19.66,9.62 -19.87,9.32 -20.07,9.02 -20.20,8.67 -20.33,8.33 -20.38,7.97 -20.42,7.61 -20.38,7.24 -20.34,6.88 -20.21,6.54 -20.08,6.19 -19.87,5.89 -19.66,5.59 -19.39,5.35 -19.12,5.11 -18.79,4.93 -18.47,4.76 -17.14,3.86 -15.81,2.95 -13.52,2.12 -11.23,1.28 -9.25,0.40 -7.27,-0.46 -4.92,-0.95 -2.57,-1.44 -1.32,-1.84 -0.06,-2.23 0.69,-3.31 1.45,-4.38 1.56,-5.90 1.67,-7.42 1.22,-9.85 0.77,-12.28 0.02,-14.72 -0.71,-17.16 -1.46,-20.31 -2.20,-23.47 -2.25,-23.68 -2.30,-23.88 -2.29,-24.09 -2.27,-24.31 -2.19,-24.50 -2.11,-24.70 -1.96,-24.86 -1.82,-25.01 -1.64,-25.12 -1.45,-25.23 -1.25,-25.27 -1.04,-25.31 -0.83,-25.28 -0.62,-25.25 -0.43,-25.16 -0.23,-25.07 -0.08,-24.92 0.06,-24.77 0.15,-24.58 0.25,-24.39 0.28,-24.18 0.31,-23.97 0.27,-23.76 0.23,-23.55 0.13,-23.36 0.02,-23.18 -0.12,-23.03 -0.28,-22.89 -0.48,-22.81 -0.67,-22.72 -0.88,-22.70 -1.09,-22.69 -1.30,-22.74 -1.51,-22.79 -1.69,-22.90 -1.87,-23.01 -2.00,-23.18 -2.13,-23.34 -2.21,-23.54 -2.28,-23.74 -2.29,-23.95 -2.30,-24.17 -2.24,-24.37 -2.17,-24.57 -2.05,-24.75 -1.93,-24.92 -1.76,-25.04 -1.58,-25.17 -1.38,-25.23 -1.18,-25.30 -0.97,-25.29 -0.75,-25.29 -0.55,-25.21 -0.35,-25.14 -0.19,-25.01 -0.02,-24.88 0.08,-24.70 0.20,-24.52 0.20,-24.52 0.20,-24.52 2.03,-21.77 3.87,-19.01 5.26,-16.17 6.66,-13.32 7.17,-10.07 7.69,-6.82 7.37,-4.46 7.05,-2.09 6.07,-0.32 5.09,1.44 3.45,2.50 1.81,3.57 0.19,4.07 -1.42,4.58 -3.13,4.86 -4.84,5.14 -7.00,6.08 -9.16,7.02 -11.77,7.88 -14.38,8.73 -15.34,9.59 -16.31,10.44 -16.66,10.53 -17.02,10.62 -17.38,10.62 -17.75,10.62 -18.10,10.53 -18.46,10.44 -18.78,10.27 -19.11,10.10 -19.38,9.86 -19.66,9.62 -19.87,9.32 -20.07,9.02 -20.20,8.67 -20.33,8.33 -20.38,7.97 -20.42,7.61 -20.38,7.24 -20.34,6.88 -20.21,6.54 -20.08,6.19 -19.87,5.89 -19.66,5.59 -19.39,5.35 -19.12,5.11 -18.79,4.93 -18.47,4.76 -18.05,4.53 -17.64,4.29 -16.07,3.72 -14.51,3.15 -11.26,1.67 -8.01,0.18 -4.36,-0.76 -0.71,-1.71 -0.50,-1.78 -0.28,-1.84 -0.05,-1.84 0.16,-1.85 0.38,-1.80 0.60,-1.76 0.80,-1.66 1.00,-1.56 1.18,-1.42 1.35,-1.27 1.48,-1.09 1.62,-0.91 1.70,-0.71 1.79,-0.50 1.82,-0.28 1.86,-0.06 1.84,0.16 1.82,0.38 1.74,0.59 1.67,0.81 1.55,1.00 1.43,1.18 1.27,1.34 1.10,1.49 0.91,1.60 0.71,1.71 0.71,1.71 L 0.71,1.71 Z"></path></g><g transform="translate(737.3747567981015 212) rotate(0 13 -6.5)" stroke="none"><path fill="#e03131" d="M -1.89,-0.94 Q -1.89,-0.94 -1.64,-2.26 -1.39,-3.57 -0.92,-4.81 -0.46,-6.05 -0.01,-8.13 0.43,-10.22 0.66,-11.49 0.88,-12.75 0.99,-13.07 1.11,-13.40 1.30,-13.69 1.49,-13.98 1.74,-14.21 2.00,-14.44 2.30,-14.61 2.60,-14.78 2.93,-14.87 3.27,-14.96 3.61,-14.97 3.96,-14.97 4.29,-14.90 4.63,-14.82 4.94,-14.67 5.25,-14.52 5.51,-14.29 5.77,-14.07 5.97,-13.79 6.18,-13.51 6.31,-13.19 6.44,-12.87 6.48,-12.53 6.53,-12.19 6.50,-11.84 6.47,-11.50 6.46,-9.00 6.45,-6.50 6.84,-4.87 7.22,-3.25 9.97,-3.42 12.73,-3.59 16.52,-3.38 20.32,-3.17 23.03,-3.72 25.73,-4.28 25.94,-4.29 26.15,-4.30 26.36,-4.24 26.56,-4.18 26.74,-4.06 26.91,-3.94 27.04,-3.77 27.16,-3.59 27.23,-3.39 27.29,-3.19 27.29,-2.98 27.29,-2.76 27.22,-2.56 27.15,-2.36 27.02,-2.20 26.89,-2.03 26.71,-1.91 26.53,-1.80 26.32,-1.74 26.12,-1.69 25.91,-1.70 25.70,-1.72 25.50,-1.80 25.30,-1.88 25.14,-2.02 24.98,-2.16 24.88,-2.34 24.77,-2.53 24.73,-2.73 24.68,-2.94 24.71,-3.15 24.73,-3.36 24.83,-3.56 24.92,-3.75 25.07,-3.90 25.21,-4.05 25.40,-4.15 25.59,-4.25 25.80,-4.28 26.01,-4.31 26.22,-4.27 26.43,-4.23 26.62,-4.13 26.80,-4.03 26.95,-3.87 27.09,-3.72 27.18,-3.52 27.27,-3.33 27.29,-3.12 27.31,-2.91 27.26,-2.70 27.21,-2.49 27.10,-2.31 26.98,-2.13 26.82,-2.00 26.66,-1.86 26.46,-1.78 26.26,-1.71 26.26,-1.71 26.26,-1.71 23.55,-1.15 20.85,-0.59 17.32,1.11 13.80,2.83 10.61,3.23 7.42,3.62 5.51,2.86 3.60,2.10 2.41,0.69 1.21,-0.71 0.63,-2.76 0.05,-4.82 0.20,-6.08 0.34,-7.34 1.05,-9.06 1.77,-10.78 1.32,-11.76 0.88,-12.75 0.99,-13.07 1.11,-13.40 1.30,-13.69 1.49,-13.98 1.74,-14.21 2.00,-14.44 2.30,-14.61 2.60,-14.78 2.93,-14.87 3.27,-14.96 3.61,-14.97 3.95,-14.97 4.29,-14.90 4.63,-14.82 4.94,-14.67 5.25,-14.52 5.51,-14.29 5.77,-14.07 5.97,-13.79 6.18,-13.51 6.31,-13.19 6.44,-12.87 6.48,-12.53 6.53,-12.19 6.50,-11.84 6.47,-11.50 6.25,-10.24 6.04,-8.97 5.46,-6.46 4.89,-3.95 4.29,-2.49 3.69,-1.02 2.79,-0.03 1.89,0.94 1.75,1.16 1.61,1.37 1.42,1.55 1.24,1.72 1.01,1.84 0.79,1.97 0.54,2.03 0.29,2.10 0.04,2.10 -0.21,2.11 -0.46,2.05 -0.71,1.99 -0.94,1.88 -1.17,1.77 -1.36,1.60 -1.56,1.43 -1.71,1.23 -1.86,1.02 -1.95,0.78 -2.05,0.54 -2.08,0.29 -2.12,0.04 -2.09,-0.21 -2.07,-0.46 -1.98,-0.70 -1.89,-0.94 -1.89,-0.94 L -1.89,-0.94 Z"></path></g><g transform="translate(805.3747567981015 103) rotate(0 -8 -10)" stroke="none"><path fill="#e03131" d="M 0.74,2.24 Q 0.74,2.24 -0.89,3.05 -2.54,3.86 -5.20,4.95 -7.86,6.03 -9.92,6.81 -11.98,7.59 -13.23,7.94 -14.47,8.29 -14.68,8.48 -14.89,8.67 -15.25,8.73 -15.60,8.78 -15.96,8.75 -16.32,8.72 -16.66,8.60 -17.00,8.48 -17.31,8.29 -17.61,8.09 -17.86,7.83 -18.10,7.57 -18.28,7.25 -18.46,6.94 -18.55,6.59 -18.65,6.25 -18.66,5.89 -18.67,5.53 -18.60,5.17 -18.52,4.82 -18.37,4.50 -18.21,4.17 -17.98,3.90 -17.75,3.62 -17.46,3.40 -17.17,3.19 -16.84,3.05 -16.50,2.91 -14.67,2.10 -12.84,1.29 -11.08,0.44 -9.32,-0.39 -7.33,-1.34 -5.34,-2.29 -4.29,-3.26 -3.24,-4.23 -3.00,-5.30 -2.76,-6.37 -3.13,-8.17 -3.51,-9.97 -4.36,-12.11 -5.22,-14.25 -6.16,-16.41 -7.09,-18.57 -8.14,-22.01 -9.19,-25.44 -9.24,-25.65 -9.30,-25.85 -9.29,-26.06 -9.28,-26.28 -9.20,-26.47 -9.12,-26.67 -8.98,-26.83 -8.85,-27.00 -8.66,-27.10 -8.48,-27.21 -8.27,-27.26 -8.07,-27.31 -7.86,-27.28 -7.64,-27.26 -7.45,-27.17 -7.26,-27.08 -7.10,-26.94 -6.95,-26.79 -6.85,-26.60 -6.75,-26.42 -6.72,-26.21 -6.68,-26.00 -6.72,-25.79 -6.75,-25.58 -6.85,-25.39 -6.95,-25.20 -7.10,-25.05 -7.26,-24.91 -7.45,-24.82 -7.64,-24.73 -7.85,-24.71 -8.07,-24.68 -8.27,-24.73 -8.48,-24.77 -8.66,-24.88 -8.84,-24.99 -8.98,-25.16 -9.12,-25.32 -9.20,-25.51 -9.28,-25.71 -9.29,-25.92 -9.30,-26.14 -9.24,-26.34 -9.19,-26.55 -9.07,-26.72 -8.95,-26.90 -8.78,-27.03 -8.61,-27.15 -8.41,-27.22 -8.21,-27.29 -8.00,-27.29 -7.78,-27.29 -7.58,-27.22 -7.38,-27.16 -7.21,-27.03 -7.04,-26.90 -6.92,-26.72 -6.80,-26.55 -6.80,-26.55 -6.80,-26.55 -4.95,-23.73 -3.10,-20.91 -1.46,-18.66 0.16,-16.42 1.30,-13.61 2.44,-10.79 2.69,-7.71 2.95,-4.62 1.96,-2.31 0.98,0.00 -0.84,1.58 -2.67,3.16 -4.76,4.15 -6.84,5.15 -9.97,6.25 -13.09,7.34 -13.99,8.01 -14.89,8.67 -15.25,8.73 -15.60,8.78 -15.96,8.75 -16.32,8.72 -16.66,8.60 -17.00,8.48 -17.31,8.29 -17.61,8.09 -17.86,7.83 -18.10,7.57 -18.28,7.25 -18.46,6.94 -18.55,6.59 -18.65,6.25 -18.66,5.89 -18.67,5.53 -18.60,5.17 -18.52,4.82 -18.37,4.50 -18.21,4.17 -17.98,3.90 -17.75,3.62 -17.46,3.40 -17.17,3.19 -16.84,3.05 -16.50,2.91 -16.31,2.83 -16.12,2.75 -15.06,2.45 -14.01,2.16 -12.01,1.42 -10.01,0.68 -7.18,-0.44 -4.35,-1.56 -2.55,-1.90 -0.74,-2.24 -0.46,-2.29 -0.18,-2.35 0.09,-2.34 0.38,-2.33 0.65,-2.25 0.92,-2.17 1.17,-2.03 1.42,-1.88 1.62,-1.69 1.83,-1.49 1.98,-1.25 2.13,-1.01 2.22,-0.74 2.31,-0.47 2.33,-0.18 2.36,0.09 2.31,0.37 2.26,0.65 2.15,0.92 2.04,1.18 1.87,1.41 1.70,1.63 1.48,1.81 1.26,1.99 1.00,2.11 0.74,2.24 0.74,2.24 L 0.74,2.24 Z"></path></g><g transform="translate(550.3747567981015 161) rotate(0 10 5.5)" stroke="none"><path fill="#e03131" d="M 2.23,1.34 Q 2.23,1.34 1.55,2.88 0.87,4.43 -0.17,5.78 -1.23,7.13 -2.15,8.44 -3.07,9.75 -4.04,11.16 -5.01,12.58 -7.41,14.26 -9.81,15.94 -11.06,13.83 -12.31,11.71 -10.48,9.26 -8.65,6.81 -6.65,3.82 -4.65,0.83 -2.46,-1.56 -0.26,-3.97 2.43,-5.53 5.13,-7.10 7.69,-7.34 10.25,-7.57 14.06,-4.54 17.87,-1.50 20.36,1.20 22.85,3.91 25.14,6.56 27.43,9.22 28.24,11.47 29.05,13.72 30.03,14.95 31.02,16.17 31.12,16.36 31.23,16.54 31.27,16.75 31.31,16.96 31.28,17.17 31.25,17.38 31.16,17.57 31.06,17.76 30.91,17.91 30.76,18.06 30.57,18.16 30.38,18.25 30.17,18.28 29.96,18.31 29.75,18.27 29.54,18.23 29.36,18.12 29.17,18.02 29.03,17.86 28.89,17.70 28.80,17.51 28.72,17.31 28.70,17.10 28.69,16.89 28.74,16.68 28.79,16.48 28.90,16.30 29.02,16.12 29.18,15.98 29.35,15.85 29.55,15.78 29.75,15.71 29.96,15.70 30.17,15.69 30.38,15.76 30.58,15.82 30.75,15.94 30.92,16.07 31.05,16.24 31.17,16.41 31.23,16.61 31.30,16.82 31.29,17.03 31.28,17.24 31.21,17.44 31.14,17.64 31.00,17.81 30.87,17.97 30.69,18.09 30.51,18.20 30.31,18.25 30.10,18.30 29.89,18.29 29.68,18.27 29.48,18.19 29.29,18.10 29.13,17.96 28.97,17.82 28.97,17.82 28.97,17.82 27.99,16.59 27.00,15.37 25.14,14.30 23.28,13.23 20.65,10.78 18.02,8.34 15.70,5.81 13.37,3.28 10.71,0.99 8.05,-1.30 6.15,-0.44 4.24,0.40 2.36,2.36 0.48,4.31 -1.68,7.51 -3.85,10.71 -5.47,12.68 -7.09,14.65 -7.95,12.78 -8.80,10.91 -9.93,11.09 -11.06,11.26 -10.56,10.20 -10.06,9.14 -9.05,7.67 -8.03,6.20 -7.01,4.78 -5.98,3.35 -5.15,2.33 -4.32,1.31 -3.27,-0.01 -2.23,-1.34 -2.04,-1.58 -1.84,-1.83 -1.60,-2.03 -1.35,-2.22 -1.06,-2.35 -0.78,-2.48 -0.47,-2.54 -0.16,-2.60 0.14,-2.58 0.46,-2.56 0.76,-2.47 1.06,-2.37 1.33,-2.21 1.60,-2.05 1.82,-1.83 2.04,-1.61 2.20,-1.34 2.37,-1.07 2.46,-0.77 2.56,-0.47 2.58,-0.16 2.60,0.14 2.54,0.45 2.49,0.76 2.36,1.05 2.23,1.34 2.23,1.34 L 2.23,1.34 Z"></path></g><g transform="translate(876.3747567981015 463) rotate(0 13.5 -8.5)" stroke="none"><path fill="#e03131" d="M -1.84,-1.38 Q -1.84,-1.38 -0.38,-3.88 1.06,-6.38 2.03,-7.86 2.99,-9.34 3.67,-10.51 4.34,-11.68 5.19,-13.30 6.04,-14.91 6.79,-16.74 7.54,-18.56 7.71,-18.88 7.87,-19.20 8.11,-19.47 8.35,-19.74 8.64,-19.95 8.94,-20.15 9.27,-20.28 9.61,-20.41 9.97,-20.46 10.32,-20.50 10.68,-20.46 11.04,-20.42 11.37,-20.29 11.71,-20.16 12.01,-19.96 12.30,-19.76 12.54,-19.49 12.78,-19.22 12.95,-18.90 13.12,-18.59 13.21,-18.24 13.30,-17.89 13.30,-17.53 13.30,-17.17 13.21,-16.82 13.13,-16.47 12.17,-15.28 11.21,-14.09 10.63,-12.46 10.06,-10.82 9.76,-9.79 9.46,-8.77 9.06,-7.49 8.66,-6.21 9.13,-4.96 9.59,-3.71 11.63,-2.90 13.66,-2.09 16.15,-2.07 18.63,-2.05 20.75,-1.45 22.87,-0.84 24.93,-0.58 26.99,-0.31 27.20,-0.27 27.41,-0.24 27.60,-0.14 27.79,-0.04 27.93,0.10 28.08,0.25 28.17,0.45 28.26,0.64 28.28,0.85 28.31,1.06 28.26,1.27 28.22,1.48 28.11,1.66 28.00,1.84 27.84,1.98 27.68,2.12 27.48,2.20 27.28,2.28 27.07,2.29 26.86,2.30 26.65,2.25 26.45,2.19 26.27,2.07 26.10,1.95 25.97,1.78 25.84,1.62 25.77,1.41 25.70,1.21 25.70,1.00 25.70,0.79 25.77,0.59 25.83,0.38 25.96,0.22 26.09,0.05 26.26,-0.06 26.44,-0.18 26.64,-0.24 26.85,-0.30 27.06,-0.29 27.27,-0.28 27.47,-0.20 27.67,-0.12 27.83,0.00 27.99,0.14 28.10,0.32 28.21,0.50 28.26,0.71 28.31,0.92 28.28,1.13 28.26,1.34 28.17,1.53 28.09,1.73 27.94,1.88 27.79,2.04 27.61,2.14 27.42,2.24 27.21,2.27 27.00,2.31 27.00,2.31 27.00,2.31 24.95,2.59 22.89,2.88 20.79,3.51 18.69,4.14 15.32,4.22 11.94,4.29 9.05,3.20 6.17,2.10 4.71,-0.06 3.25,-2.23 2.94,-5.00 2.63,-7.78 3.12,-9.20 3.61,-10.63 4.04,-11.90 4.48,-13.18 6.01,-15.87 7.54,-18.56 7.71,-18.88 7.87,-19.20 8.11,-19.47 8.35,-19.74 8.64,-19.95 8.94,-20.15 9.27,-20.28 9.61,-20.41 9.97,-20.46 10.32,-20.50 10.68,-20.46 11.04,-20.42 11.37,-20.29 11.71,-20.16 12.01,-19.96 12.30,-19.76 12.54,-19.49 12.78,-19.22 12.95,-18.90 13.12,-18.59 13.21,-18.24 13.30,-17.89 13.30,-17.53 13.30,-17.17 13.21,-16.82 13.13,-16.47 12.68,-15.47 12.24,-14.47 11.79,-13.30 11.35,-12.13 10.43,-10.39 9.51,-8.66 8.75,-7.36 7.98,-6.06 6.90,-4.44 5.83,-2.81 3.83,-0.71 1.84,1.38 1.64,1.58 1.45,1.78 1.22,1.92 0.98,2.07 0.72,2.16 0.46,2.25 0.18,2.27 -0.09,2.29 -0.36,2.25 -0.63,2.21 -0.89,2.10 -1.14,1.99 -1.37,1.82 -1.59,1.66 -1.76,1.44 -1.94,1.23 -2.06,0.98 -2.18,0.73 -2.23,0.45 -2.29,0.18 -2.28,-0.09 -2.27,-0.36 -2.19,-0.63 -2.11,-0.89 -1.97,-1.14 -1.84,-1.38 -1.84,-1.38 L -1.84,-1.38 Z"></path></g><g transform="translate(440.37475679810154 268) rotate(0 10.5 5)" stroke="none"><path fill="#e03131" d="M 2.01,-0.80 Q 2.01,-0.80 2.90,0.50 3.79,1.81 4.38,3.68 4.98,5.56 5.53,7.49 6.09,9.42 6.73,10.70 7.37,11.99 7.45,12.33 7.52,12.66 7.52,13.01 7.52,13.36 7.43,13.69 7.34,14.02 7.18,14.33 7.02,14.63 6.78,14.89 6.55,15.14 6.27,15.34 5.98,15.53 5.65,15.65 5.33,15.77 4.99,15.80 4.64,15.84 4.30,15.80 3.96,15.75 3.64,15.62 3.32,15.50 3.03,15.30 2.75,15.10 2.53,14.84 2.30,14.58 2.14,14.27 1.99,13.96 1.63,11.48 1.26,9.01 0.97,7.50 0.68,6.00 0.25,3.23 -0.17,0.46 -0.39,-1.08 -0.61,-2.63 1.25,-4.72 3.11,-6.81 5.68,-6.34 8.25,-5.86 10.53,-4.59 12.81,-3.33 15.05,-1.99 17.29,-0.65 18.54,0.35 19.79,1.36 20.66,2.58 21.53,3.80 21.71,3.91 21.89,4.03 22.02,4.20 22.15,4.37 22.22,4.57 22.29,4.77 22.29,4.98 22.29,5.19 22.23,5.39 22.16,5.60 22.04,5.77 21.91,5.94 21.74,6.06 21.56,6.18 21.36,6.24 21.15,6.30 20.94,6.29 20.73,6.28 20.53,6.20 20.33,6.13 20.17,5.99 20.00,5.86 19.89,5.68 19.78,5.50 19.73,5.29 19.68,5.08 19.70,4.87 19.73,4.66 19.81,4.47 19.90,4.27 20.04,4.12 20.19,3.96 20.37,3.86 20.56,3.76 20.77,3.72 20.98,3.68 21.19,3.71 21.40,3.75 21.59,3.84 21.78,3.94 21.92,4.09 22.07,4.24 22.16,4.44 22.26,4.63 22.28,4.84 22.31,5.05 22.26,5.26 22.22,5.47 22.11,5.65 22.01,5.83 21.85,5.97 21.69,6.11 21.49,6.19 21.29,6.27 21.08,6.29 20.87,6.30 20.66,6.25 20.46,6.19 20.46,6.19 20.46,6.19 18.50,6.14 16.54,6.09 15.32,5.39 14.09,4.69 11.86,3.36 9.62,2.02 8.15,1.05 6.67,0.08 4.46,-0.63 2.25,-1.36 3.70,-2.23 5.15,-3.09 5.28,-1.75 5.42,-0.41 5.84,2.26 6.26,4.93 6.62,6.77 6.97,8.61 7.17,10.30 7.37,11.99 7.45,12.33 7.52,12.66 7.52,13.01 7.52,13.35 7.43,13.69 7.34,14.02 7.18,14.33 7.02,14.63 6.78,14.89 6.55,15.14 6.27,15.34 5.98,15.53 5.65,15.65 5.33,15.77 4.99,15.80 4.64,15.84 4.30,15.80 3.96,15.75 3.64,15.62 3.32,15.50 3.03,15.30 2.75,15.10 2.53,14.84 2.30,14.58 2.14,14.27 1.99,13.96 2.51,14.56 3.03,15.15 1.71,13.06 0.38,10.96 -0.08,9.09 -0.55,7.23 -1.02,5.58 -1.49,3.93 -1.75,2.36 -2.01,0.80 -2.08,0.55 -2.14,0.30 -2.15,0.03 -2.15,-0.22 -2.10,-0.47 -2.04,-0.73 -1.92,-0.96 -1.80,-1.20 -1.63,-1.39 -1.46,-1.59 -1.25,-1.75 -1.04,-1.90 -0.80,-2.00 -0.55,-2.09 -0.29,-2.13 -0.03,-2.17 0.22,-2.14 0.48,-2.11 0.72,-2.02 0.97,-1.93 1.19,-1.79 1.41,-1.65 1.58,-1.45 1.76,-1.26 1.88,-1.03 2.01,-0.80 2.01,-0.80 L 2.01,-0.80 Z"></path></g><g transform="translate(188.37475679810154 315) rotate(0 7.5 -9.5)" stroke="none"><path fill="#e03131" d="M -1.99,0.39 Q -1.99,0.39 -2.69,-0.95 -3.39,-2.30 -4.04,-4.17 -4.70,-6.04 -5.83,-8.85 -6.96,-11.65 -7.68,-13.05 -8.41,-14.44 -9.23,-15.66 -10.06,-16.87 -10.14,-17.21 -10.21,-17.55 -10.20,-17.89 -10.20,-18.24 -10.11,-18.57 -10.02,-18.91 -9.85,-19.21 -9.69,-19.51 -9.45,-19.76 -9.22,-20.02 -8.93,-20.21 -8.64,-20.40 -8.32,-20.51 -7.99,-20.63 -7.65,-20.66 -7.30,-20.70 -6.96,-20.65 -6.62,-20.60 -6.30,-20.47 -5.98,-20.34 -5.70,-20.14 -5.42,-19.94 -5.20,-19.68 -4.97,-19.41 -4.82,-19.11 -4.66,-18.80 -4.73,-16.25 -4.80,-13.71 -4.32,-12.59 -3.83,-11.47 -2.77,-10.51 -1.71,-9.54 0.89,-8.70 3.50,-7.87 5.45,-7.36 7.40,-6.86 10.29,-8.65 13.17,-10.45 15.91,-11.46 18.66,-12.48 20.44,-13.77 22.23,-15.06 22.42,-15.15 22.61,-15.25 22.82,-15.28 23.03,-15.31 23.24,-15.27 23.44,-15.23 23.63,-15.13 23.81,-15.02 23.96,-14.86 24.10,-14.71 24.18,-14.51 24.27,-14.32 24.29,-14.10 24.30,-13.89 24.25,-13.69 24.20,-13.48 24.09,-13.30 23.98,-13.12 23.81,-12.99 23.64,-12.85 23.45,-12.78 23.25,-12.71 23.03,-12.70 22.82,-12.69 22.62,-12.75 22.41,-12.82 22.24,-12.94 22.07,-13.06 21.94,-13.24 21.82,-13.41 21.76,-13.61 21.69,-13.81 21.70,-14.03 21.70,-14.24 21.78,-14.44 21.85,-14.64 21.98,-14.80 22.12,-14.97 22.29,-15.09 22.47,-15.20 22.68,-15.25 22.88,-15.30 23.10,-15.29 23.31,-15.27 23.50,-15.19 23.70,-15.10 23.86,-14.96 24.02,-14.82 24.12,-14.64 24.23,-14.45 24.27,-14.24 24.31,-14.03 24.28,-13.82 24.25,-13.61 24.16,-13.42 24.06,-13.23 23.91,-13.08 23.76,-12.93 23.76,-12.93 23.76,-12.93 21.98,-11.64 20.20,-10.35 18.12,-7.88 16.04,-5.41 11.62,-3.06 7.21,-0.70 4.17,-1.26 1.13,-1.81 -2.58,-3.47 -6.30,-5.13 -7.97,-7.34 -9.63,-9.54 -10.14,-11.82 -10.65,-14.10 -10.36,-15.49 -10.06,-16.87 -10.14,-17.21 -10.21,-17.55 -10.20,-17.89 -10.20,-18.24 -10.11,-18.57 -10.02,-18.90 -9.85,-19.21 -9.69,-19.51 -9.45,-19.76 -9.22,-20.02 -8.93,-20.21 -8.64,-20.40 -8.32,-20.51 -7.99,-20.63 -7.65,-20.66 -7.30,-20.70 -6.96,-20.65 -6.62,-20.60 -6.30,-20.47 -5.98,-20.34 -5.70,-20.14 -5.42,-19.94 -5.20,-19.68 -4.97,-19.41 -4.82,-19.11 -4.66,-18.80 -4.69,-19.09 -4.71,-19.37 -3.99,-18.23 -3.28,-17.08 -2.44,-15.44 -1.60,-13.81 -0.42,-10.85 0.76,-7.90 1.50,-5.67 2.24,-3.44 2.12,-1.92 1.99,-0.39 2.01,-0.15 2.03,0.09 1.99,0.33 1.95,0.57 1.85,0.80 1.76,1.02 1.61,1.22 1.46,1.41 1.27,1.57 1.08,1.72 0.86,1.83 0.63,1.93 0.39,1.98 0.15,2.03 -0.08,2.02 -0.33,2.01 -0.57,1.94 -0.80,1.87 -1.01,1.74 -1.23,1.62 -1.40,1.45 -1.58,1.28 -1.71,1.07 -1.84,0.86 -1.92,0.63 -1.99,0.39 -1.99,0.39 L -1.99,0.39 Z"></path></g></svg>