<svg version="1.1" xmlns="http://www.w3.org/2000/svg" viewBox="0 0 1234 754" width="1234" height="754">
  <!-- svg-source:excalidraw -->
  
  <defs>
    <style class="style-fonts">
      @font-face {
        font-family: "Virgil";
        src: url("https://excalidraw.com/Virgil.woff2");
      }
      @font-face {
        font-family: "Cascadia";
        src: url("https://excalidraw.com/Cascadia.woff2");
      }
      @font-face {
        font-family: "Assistant";
        src: url("https://excalidraw.com/Assistant-Regular.woff2");
      }
    </style>
    
  </defs>
  <g transform="translate(651 153) rotate(0 -204.5 244)" stroke="none"><path fill="#1e1e1e" d="M -2.41,0.48 Q -2.41,0.48 -2.95,-0.90 -3.50,-2.29 -3.66,-3.93 -3.81,-5.57 -4.16,-8.18 -4.52,-10.79 -4.89,-11.94 -5.26,-13.10 -5.76,-15.22 -6.25,-17.34 -7.28,-20.35 -8.30,-23.36 -9.55,-25.98 -10.80,-28.59 -12.74,-31.96 -14.68,-35.33 -17.71,-39.23 -20.75,-43.12 -24.56,-47.02 -28.37,-50.92 -31.95,-53.97 -35.53,-57.03 -40.15,-60.29 -44.77,-63.56 -49.04,-66.39 -53.31,-69.23 -58.59,-72.75 -63.87,-76.26 -70.83,-79.67 -77.79,-83.08 -81.90,-84.83 -86.00,-86.57 -92.55,-88.72 -99.09,-90.86 -104.64,-92.04 -110.19,-93.22 -118.03,-94.59 -125.86,-95.96 -130.66,-96.83 -135.46,-97.71 -142.54,-98.35 -149.61,-98.99 -153.79,-99.27 -157.97,-99.54 -163.43,-99.66 -168.89,-99.77 -176.68,-99.82 -184.47,-99.87 -190.30,-99.61 -196.12,-99.35 -201.98,-98.66 -207.83,-97.98 -212.36,-97.40 -216.89,-96.82 -223.06,-95.72 -229.23,-94.63 -233.92,-93.86 -238.61,-93.10 -242.82,-92.21 -247.04,-91.33 -251.74,-90.37 -256.44,-89.42 -261.23,-88.16 -266.02,-86.91 -270.94,-85.52 -275.85,-84.13 -279.65,-82.96 -283.44,-81.80 -287.63,-80.45 -291.83,-79.09 -295.33,-77.94 -298.84,-76.79 -302.51,-75.20 -306.17,-73.61 -309.90,-72.30 -313.62,-70.99 -317.68,-69.32 -321.73,-67.66 -325.16,-66.11 -328.59,-64.55 -332.58,-62.47 -336.57,-60.40 -340.87,-58.08 -345.16,-55.75 -348.41,-53.92 -351.65,-52.08 -355.30,-49.87 -358.96,-47.66 -362.75,-45.04 -366.53,-42.42 -369.65,-40.40 -372.77,-38.38 -376.33,-35.84 -379.88,-33.30 -383.16,-31.04 -386.44,-28.79 -391.88,-25.23 -397.32,-21.67 -401.01,-19.05 -404.70,-16.42 -409.44,-13.00 -414.18,-9.58 -417.61,-6.99 -421.04,-4.40 -424.01,-2.39 -426.98,-0.37 -429.59,1.57 -432.21,3.52 -434.76,5.49 -437.31,7.47 -440.04,9.96 -442.76,12.45 -445.66,15.24 -448.55,18.03 -452.04,21.76 -455.52,25.49 -458.77,28.84 -462.02,32.20 -465.30,36.37 -468.58,40.55 -470.84,43.74 -473.09,46.94 -476.05,51.45 -479.02,55.95 -480.52,58.65 -482.02,61.35 -484.11,65.13 -486.21,68.90 -488.49,73.86 -490.76,78.81 -492.30,82.61 -493.84,86.42 -495.30,91.91 -496.77,97.41 -498.00,101.84 -499.22,106.28 -500.00,110.34 -500.78,114.40 -501.98,121.88 -503.17,129.36 -503.68,133.64 -504.18,137.93 -504.68,144.88 -505.17,151.83 -505.38,157.64 -505.60,163.45 -505.69,171.65 -505.78,179.85 -505.82,186.22 -505.86,192.59 -505.87,198.45 -505.89,204.32 -505.33,214.78 -504.77,225.24 -504.24,232.86 -503.71,240.48 -502.62,251.45 -501.54,262.41 -500.51,269.91 -499.48,277.41 -498.47,283.75 -497.46,290.09 -495.61,299.05 -493.75,308.02 -492.10,314.98 -490.46,321.94 -488.06,329.70 -485.65,337.47 -483.21,344.19 -480.77,350.91 -477.18,358.55 -473.60,366.20 -469.82,372.54 -466.04,378.87 -461.26,386.78 -456.47,394.70 -446.73,408.32 -436.99,421.94 -429.73,430.86 -422.46,439.77 -416.21,447.01 -409.96,454.25 -400.49,463.27 -391.03,472.29 -383.26,479.30 -375.49,486.32 -364.77,494.70 -354.06,503.09 -345.23,509.22 -336.40,515.34 -324.35,522.82 -312.30,530.29 -302.91,535.46 -293.51,540.62 -285.22,544.82 -276.93,549.02 -266.83,553.67 -256.73,558.32 -241.59,564.00 -226.45,569.67 -215.72,573.24 -204.98,576.80 -191.92,579.72 -178.86,582.64 -169.59,584.17 -160.32,585.70 -148.75,586.33 -137.18,586.97 -128.54,586.96 -119.90,586.95 -109.45,585.81 -99.01,584.67 -89.41,583.04 -79.82,581.41 -70.57,579.57 -61.33,577.72 -52.27,575.52 -43.20,573.31 -34.82,570.67 -26.44,568.03 -18.63,564.92 -10.82,561.81 -3.24,558.21 4.34,554.62 11.92,551.05 19.50,547.49 26.37,543.72 33.24,539.96 39.23,535.83 45.22,531.70 51.48,526.81 57.75,521.91 62.99,517.54 68.23,513.17 72.33,508.57 76.43,503.98 80.16,498.91 83.89,493.85 86.56,488.95 89.23,484.05 91.19,479.17 93.16,474.30 94.24,468.71 95.32,463.11 95.20,456.61 95.09,450.10 94.49,445.07 93.90,440.03 92.53,435.17 91.17,430.32 89.45,425.37 87.73,420.43 85.84,415.14 83.95,409.85 81.50,404.88 79.04,399.91 76.02,394.97 73.00,390.04 68.41,384.94 63.81,379.85 58.78,375.74 53.76,371.62 48.01,368.21 42.25,364.80 35.59,361.94 28.92,359.09 21.82,356.73 14.73,354.37 7.45,352.52 0.17,350.66 -8.94,348.73 -18.05,346.80 -25.37,345.40 -32.69,344.00 -42.32,342.84 -51.96,341.68 -59.24,340.90 -66.52,340.12 -75.60,339.50 -84.69,338.88 -92.03,338.33 -99.38,337.78 -106.17,337.55 -112.96,337.32 -125.68,336.65 -138.40,335.97 -146.92,335.69 -155.45,335.40 -165.95,335.28 -176.45,335.15 -184.14,334.81 -191.83,334.47 -201.41,334.04 -210.98,333.61 -217.89,333.43 -224.81,333.24 -234.15,332.59 -243.49,331.94 -253.58,330.50 -263.66,329.05 -270.87,327.57 -278.08,326.09 -286.07,324.01 -294.05,321.93 -299.84,319.86 -305.63,317.80 -313.68,313.70 -321.72,309.60 -326.90,306.39 -332.08,303.18 -337.57,298.55 -343.07,293.93 -346.60,290.17 -350.14,286.41 -353.44,281.84 -356.74,277.27 -359.65,271.45 -362.56,265.63 -364.37,261.12 -366.18,256.61 -367.84,251.17 -369.49,245.73 -371.07,238.76 -372.65,231.80 -373.87,226.91 -375.09,222.01 -376.21,216.70 -377.33,211.38 -378.10,205.89 -378.88,200.39 -379.21,195.11 -379.54,189.82 -379.69,182.96 -379.83,176.10 -379.60,171.38 -379.37,166.66 -378.99,162.89 -378.60,159.12 -377.55,154.50 -376.50,149.87 -375.46,146.44 -374.42,143.00 -372.45,139.29 -370.47,135.58 -368.19,132.00 -365.91,128.43 -361.63,123.85 -357.35,119.27 -354.11,116.20 -350.86,113.13 -346.19,109.72 -341.53,106.30 -337.70,104.21 -333.88,102.12 -328.33,100.30 -322.78,98.48 -318.40,97.44 -314.02,96.40 -309.21,95.65 -304.40,94.91 -297.35,94.58 -290.30,94.26 -283.75,94.70 -277.19,95.15 -270.88,96.22 -264.56,97.29 -258.42,98.61 -252.29,99.93 -246.23,101.35 -240.17,102.78 -232.94,104.84 -225.70,106.89 -220.30,108.64 -214.90,110.38 -209.17,112.27 -203.45,114.15 -197.29,116.10 -191.14,118.04 -182.56,120.29 -173.98,122.53 -167.13,124.36 -160.28,126.19 -154.00,127.52 -147.72,128.85 -143.05,129.70 -138.38,130.55 -133.31,131.19 -128.23,131.83 -122.14,132.09 -116.05,132.35 -111.32,132.77 -106.60,133.18 -101.64,133.06 -96.67,132.94 -92.37,132.33 -88.07,131.73 -84.27,130.91 -80.47,130.09 -77.28,128.92 -74.10,127.76 -70.37,126.39 -66.64,125.01 -64.33,123.90 -62.01,122.80 -59.47,121.00 -56.93,119.20 -55.26,117.87 -53.59,116.54 -51.93,115.32 -50.27,114.11 -47.73,111.72 -45.18,109.34 -43.09,107.63 -41.01,105.92 -39.08,104.14 -37.15,102.35 -35.85,100.83 -34.55,99.32 -33.43,97.84 -32.32,96.36 -31.27,94.87 -30.23,93.39 -29.11,92.05 -27.99,90.72 -27.05,89.42 -26.10,88.13 -25.46,87.07 -24.81,86.01 -23.91,84.63 -23.01,83.24 -22.46,82.01 -21.91,80.77 -21.33,79.56 -20.75,78.35 -20.22,77.26 -19.68,76.17 -19.17,75.13 -18.65,74.09 -18.24,72.73 -17.82,71.36 -17.28,70.01 -16.74,68.65 -15.89,65.70 -15.03,62.75 -14.81,61.58 -14.58,60.40 -14.16,58.61 -13.74,56.83 -13.59,55.67 -13.45,54.51 -13.05,52.91 -12.66,51.31 -12.54,50.06 -12.43,48.82 -12.02,47.34 -11.62,45.86 -11.11,43.86 -10.61,41.87 -10.09,39.69 -9.57,37.50 -9.43,36.14 -9.29,34.77 -8.93,33.33 -8.57,31.89 -8.09,29.51 -7.60,27.14 -7.08,24.85 -6.55,22.56 -5.98,20.33 -5.41,18.11 -4.85,16.11 -4.29,14.12 -4.17,12.87 -4.05,11.63 -4.03,10.27 -4.02,8.90 -4.02,7.42 -4.01,5.94 -4.00,4.63 -3.98,3.31 -2.59,1.92 -1.19,0.54 -1.24,0.39 -1.29,0.24 -1.30,0.08 -1.31,-0.07 -1.28,-0.23 -1.25,-0.38 -1.19,-0.53 -1.12,-0.67 -1.02,-0.80 -0.93,-0.92 -0.80,-1.02 -0.68,-1.12 -0.53,-1.18 -0.39,-1.25 -0.23,-1.28 -0.08,-1.31 0.07,-1.30 0.23,-1.29 0.38,-1.24 0.53,-1.19 0.67,-1.11 0.80,-1.03 0.91,-0.92 1.03,-0.81 1.11,-0.67 1.19,-0.54 0.87,-0.86 0.56,-1.18 0.73,-1.06 0.91,-0.94 1.03,-0.77 1.16,-0.60 1.23,-0.40 1.29,-0.20 1.29,0.01 1.29,0.22 1.22,0.42 1.15,0.62 1.02,0.79 0.89,0.96 0.71,1.07 0.54,1.19 0.33,1.25 0.13,1.30 -0.08,1.29 -0.29,1.28 -0.48,1.19 -0.68,1.11 -0.84,0.98 -1.00,0.84 -1.11,0.65 -1.22,0.47 -1.26,0.26 -1.31,0.06 -1.28,-0.15 -1.26,-0.36 -1.17,-0.55 -1.08,-0.74 -0.93,-0.89 -0.78,-1.05 -0.59,-1.15 -0.40,-1.24 -0.19,-1.28 0.01,-1.31 0.22,-1.27 0.42,-1.24 0.61,-1.13 0.80,-1.03 0.94,-0.88 1.09,-0.72 1.18,-0.53 1.26,-0.34 1.28,-0.12 1.31,0.08 1.26,0.28 1.21,0.49 1.10,0.67 0.99,0.85 0.83,0.99 0.66,1.13 0.46,1.20 0.27,1.28 0.05,1.29 -0.15,1.30 -0.67,0.92 -1.19,0.54 -1.24,0.39 -1.29,0.24 -1.30,0.08 -1.31,-0.07 -1.28,-0.23 -1.25,-0.38 -1.19,-0.53 -1.12,-0.67 -1.02,-0.80 -0.93,-0.92 -0.80,-1.02 -0.68,-1.12 -0.53,-1.18 -0.39,-1.25 -0.23,-1.28 -0.08,-1.31 0.07,-1.30 0.23,-1.29 0.38,-1.24 0.53,-1.19 0.67,-1.11 0.80,-1.03 0.91,-0.92 1.03,-0.81 1.11,-0.67 1.19,-0.54 1.18,0.07 1.17,0.70 1.58,1.89 1.98,3.09 2.00,4.52 2.01,5.95 2.01,7.45 2.00,8.94 1.99,10.42 1.98,11.91 1.88,13.23 1.77,14.55 1.36,15.85 0.95,17.16 0.71,18.75 0.48,20.33 0.20,21.52 -0.08,22.72 -0.56,24.40 -1.04,26.09 -1.22,27.42 -1.40,28.75 -1.70,29.87 -2.00,30.98 -2.18,32.27 -2.35,33.55 -2.69,35.26 -3.03,36.96 -3.53,39.01 -4.03,41.05 -4.22,42.36 -4.42,43.67 -4.73,44.72 -5.05,45.77 -5.53,47.64 -6.01,49.51 -6.21,51.20 -6.40,52.89 -6.73,54.12 -7.05,55.36 -7.25,56.83 -7.46,58.30 -7.85,60.00 -8.24,61.69 -8.59,63.28 -8.93,64.88 -9.53,66.56 -10.14,68.25 -10.44,69.64 -10.73,71.04 -11.20,72.18 -11.66,73.32 -12.26,75.14 -12.85,76.95 -13.36,77.98 -13.87,79.01 -14.40,80.08 -14.92,81.15 -15.48,82.31 -16.03,83.47 -16.81,85.12 -17.58,86.76 -18.44,88.09 -19.31,89.41 -20.10,90.68 -20.89,91.95 -21.97,93.42 -23.05,94.89 -24.00,96.00 -24.95,97.12 -26.05,98.69 -27.16,100.25 -28.41,101.90 -29.66,103.55 -31.21,105.32 -32.76,107.10 -34.84,109.01 -36.92,110.92 -38.85,112.49 -40.78,114.07 -43.62,116.70 -46.47,119.33 -48.02,120.46 -49.57,121.58 -51.41,123.04 -53.24,124.50 -56.24,126.56 -59.23,128.63 -61.82,129.84 -64.41,131.06 -68.16,132.45 -71.91,133.84 -75.51,135.11 -79.11,136.39 -83.14,137.25 -87.18,138.11 -91.85,138.75 -96.52,139.39 -101.84,139.50 -107.16,139.61 -111.75,139.21 -116.34,138.81 -122.69,138.52 -129.04,138.23 -134.29,137.56 -139.54,136.90 -144.30,136.02 -149.06,135.15 -155.50,133.78 -161.94,132.40 -168.78,130.58 -175.61,128.76 -184.35,126.47 -193.08,124.18 -199.27,122.22 -205.46,120.27 -211.17,118.38 -216.88,116.50 -222.17,114.78 -227.46,113.06 -234.55,111.04 -241.64,109.02 -247.64,107.60 -253.64,106.19 -259.64,104.89 -265.64,103.59 -271.64,102.56 -277.64,101.53 -283.83,101.08 -290.02,100.63 -296.73,100.92 -303.44,101.20 -308.00,101.89 -312.56,102.58 -316.70,103.56 -320.84,104.53 -325.86,106.12 -330.88,107.70 -334.35,109.56 -337.81,111.41 -342.18,114.57 -346.55,117.72 -349.67,120.65 -352.79,123.58 -356.73,127.70 -360.68,131.82 -362.86,135.18 -365.04,138.54 -366.80,141.68 -368.56,144.82 -369.54,148.03 -370.52,151.25 -371.52,155.51 -372.53,159.76 -372.91,163.37 -373.30,166.97 -373.52,171.47 -373.75,175.98 -373.63,182.72 -373.50,189.45 -373.19,194.50 -372.88,199.55 -372.15,204.85 -371.42,210.15 -370.33,215.35 -369.25,220.55 -368.01,225.51 -366.77,230.47 -365.25,237.23 -363.74,243.99 -362.17,249.19 -360.61,254.38 -358.90,258.67 -357.19,262.96 -354.53,268.38 -351.87,273.79 -348.82,278.06 -345.77,282.33 -342.49,285.85 -339.20,289.37 -334.06,293.74 -328.92,298.11 -323.96,301.20 -319.00,304.29 -311.31,308.23 -303.62,312.18 -298.08,314.17 -292.55,316.16 -284.71,318.20 -276.87,320.25 -269.85,321.70 -262.82,323.16 -252.95,324.57 -243.07,325.98 -233.86,326.64 -224.65,327.29 -217.68,327.47 -210.71,327.66 -201.14,328.09 -191.57,328.52 -183.98,328.86 -176.39,329.20 -165.82,329.32 -155.25,329.44 -146.66,329.73 -138.08,330.01 -125.42,330.69 -112.76,331.36 -105.84,331.60 -98.93,331.84 -91.61,332.39 -84.28,332.94 -75.08,333.57 -65.88,334.19 -58.57,334.98 -51.25,335.77 -41.41,336.96 -31.57,338.14 -24.19,339.55 -16.81,340.96 -7.58,342.93 1.64,344.89 9.12,346.80 16.61,348.71 23.94,351.16 31.28,353.60 38.29,356.63 45.31,359.66 51.43,363.32 57.56,366.99 62.91,371.42 68.26,375.84 73.19,381.37 78.12,386.89 81.27,392.07 84.43,397.24 87.03,402.53 89.63,407.82 91.53,413.13 93.43,418.45 95.21,423.57 96.99,428.70 98.44,434.01 99.90,439.32 100.52,444.67 101.15,450.02 101.20,457.14 101.26,464.25 100.03,470.41 98.80,476.57 96.68,481.76 94.56,486.95 91.68,492.20 88.80,497.46 84.88,502.75 80.97,508.05 76.56,512.94 72.14,517.84 66.82,522.28 61.50,526.71 55.09,531.72 48.68,536.73 42.43,541.02 36.18,545.31 29.14,549.16 22.10,553.02 14.52,556.57 6.95,560.13 -0.80,563.80 -8.57,567.48 -16.59,570.67 -24.61,573.85 -33.18,576.55 -41.76,579.25 -50.95,581.49 -60.13,583.73 -69.47,585.58 -78.80,587.43 -88.57,589.08 -98.35,590.73 -109.12,591.90 -119.89,593.06 -128.70,593.07 -137.52,593.07 -149.42,592.40 -161.32,591.73 -170.75,590.16 -180.19,588.60 -193.55,585.60 -206.91,582.60 -217.75,579.00 -228.60,575.40 -243.94,569.63 -259.28,563.86 -269.49,559.17 -279.70,554.48 -288.08,550.23 -296.46,545.98 -305.99,540.73 -315.52,535.48 -327.71,527.93 -339.90,520.37 -348.86,514.14 -357.83,507.90 -368.70,499.38 -379.58,490.85 -387.41,483.78 -395.25,476.72 -404.92,467.48 -414.58,458.24 -420.89,450.94 -427.20,443.63 -434.58,434.56 -441.97,425.50 -451.84,411.68 -461.70,397.87 -466.51,389.93 -471.32,382.00 -475.23,375.40 -479.15,368.80 -482.84,360.90 -486.53,353.00 -489.02,346.14 -491.52,339.28 -493.97,331.31 -496.43,323.35 -498.10,316.31 -499.77,309.26 -501.65,300.16 -503.53,291.06 -504.55,284.65 -505.57,278.25 -506.62,270.63 -507.66,263.02 -508.76,251.96 -509.85,240.91 -510.38,233.24 -510.90,225.57 -511.48,214.94 -512.05,204.31 -512.04,198.43 -512.02,192.55 -511.98,186.16 -511.94,179.78 -511.85,171.50 -511.76,163.22 -511.54,157.31 -511.32,151.39 -510.81,144.30 -510.29,137.21 -509.77,132.79 -509.26,128.38 -508.04,120.81 -506.82,113.23 -505.99,108.94 -505.15,104.64 -503.93,100.23 -502.70,95.81 -501.11,89.97 -499.53,84.12 -497.93,80.18 -496.34,76.24 -493.95,71.08 -491.57,65.92 -489.47,62.15 -487.36,58.37 -485.75,55.48 -484.13,52.59 -481.11,48.00 -478.10,43.41 -475.75,40.08 -473.40,36.75 -469.91,32.34 -466.42,27.93 -463.21,24.62 -459.99,21.31 -456.40,17.47 -452.80,13.62 -449.85,10.78 -446.89,7.93 -443.98,5.28 -441.07,2.62 -438.47,0.61 -435.88,-1.40 -433.15,-3.42 -430.42,-5.45 -427.57,-7.37 -424.73,-9.29 -421.25,-11.92 -417.77,-14.55 -413.01,-17.98 -408.25,-21.42 -404.46,-24.10 -400.67,-26.79 -395.30,-30.32 -389.92,-33.84 -386.68,-36.07 -383.44,-38.30 -379.77,-40.91 -376.11,-43.52 -373.06,-45.49 -370.02,-47.47 -366.07,-50.19 -362.12,-52.91 -358.39,-55.15 -354.67,-57.40 -351.37,-59.27 -348.07,-61.14 -343.73,-63.48 -339.39,-65.83 -335.26,-67.97 -331.12,-70.12 -327.58,-71.72 -324.05,-73.33 -319.85,-75.04 -315.65,-76.76 -312.13,-78.00 -308.60,-79.23 -304.68,-80.92 -300.75,-82.61 -297.23,-83.77 -293.71,-84.92 -289.47,-86.28 -285.23,-87.65 -281.38,-88.83 -277.52,-90.01 -272.54,-91.42 -267.57,-92.83 -262.61,-94.12 -257.66,-95.40 -252.98,-96.36 -248.29,-97.32 -243.94,-98.23 -239.59,-99.14 -234.94,-99.89 -230.30,-100.64 -223.98,-101.76 -217.66,-102.88 -213.10,-103.46 -208.53,-104.04 -202.47,-104.74 -196.40,-105.43 -190.41,-105.70 -184.43,-105.97 -176.59,-105.92 -168.76,-105.87 -163.16,-105.74 -157.56,-105.62 -153.31,-105.33 -149.06,-105.05 -141.71,-104.37 -134.37,-103.70 -129.59,-102.82 -124.81,-101.95 -116.87,-100.56 -108.92,-99.17 -103.06,-97.91 -97.19,-96.64 -90.41,-94.40 -83.63,-92.16 -79.37,-90.35 -75.11,-88.54 -67.81,-84.93 -60.50,-81.33 -55.22,-77.81 -49.94,-74.30 -45.60,-71.41 -41.25,-68.53 -36.41,-65.09 -31.58,-61.65 -27.80,-58.41 -24.01,-55.16 -19.97,-51.01 -15.93,-46.85 -12.67,-42.61 -9.41,-38.37 -7.36,-34.78 -5.31,-31.19 -3.93,-28.24 -2.55,-25.30 -1.46,-22.00 -0.36,-18.70 0.07,-16.80 0.50,-14.89 0.97,-13.35 1.43,-11.80 1.80,-8.94 2.17,-6.07 2.26,-4.76 2.35,-3.45 2.38,-1.97 2.41,-0.48 2.43,-0.18 2.46,0.10 2.41,0.40 2.36,0.69 2.24,0.96 2.12,1.23 1.94,1.47 1.76,1.71 1.53,1.89 1.30,2.08 1.03,2.21 0.77,2.33 0.47,2.39 0.18,2.45 -0.10,2.44 -0.40,2.42 -0.68,2.34 -0.97,2.26 -1.23,2.11 -1.48,1.96 -1.70,1.75 -1.91,1.54 -2.07,1.29 -2.22,1.04 -2.32,0.76 -2.41,0.48 -2.41,0.48 L -2.41,0.48 Z"></path></g><g transform="translate(971 599) rotate(0 -232 -241)" stroke="none"><path fill="#e03131" d="M 1.72,-0.57 Q 1.72,-0.57 2.25,0.27 2.79,1.12 2.68,2.57 2.57,4.01 1.47,6.57 0.37,9.14 -0.84,11.19 -2.05,13.24 -4.12,15.72 -6.19,18.20 -8.14,20.61 -10.10,23.03 -12.38,25.79 -14.66,28.56 -16.30,30.13 -17.95,31.70 -20.93,34.37 -23.90,37.04 -25.72,38.72 -27.53,40.40 -29.51,42.03 -31.49,43.67 -33.84,45.28 -36.18,46.89 -38.79,48.94 -41.41,50.99 -45.13,53.90 -48.85,56.80 -51.93,58.94 -55.01,61.08 -58.36,63.17 -61.72,65.25 -66.69,67.63 -71.67,70.02 -75.52,71.60 -79.38,73.19 -83.62,74.73 -87.87,76.28 -91.39,77.51 -94.92,78.75 -100.24,80.16 -105.57,81.58 -109.48,82.73 -113.39,83.89 -118.02,84.98 -122.64,86.08 -127.48,87.12 -132.31,88.15 -139.33,89.19 -146.35,90.23 -150.41,90.94 -154.46,91.65 -162.62,92.55 -170.77,93.45 -176.49,94.12 -182.21,94.78 -189.53,95.65 -196.85,96.52 -201.36,97.17 -205.87,97.82 -211.90,98.39 -217.92,98.97 -225.91,99.79 -233.89,100.61 -239.87,101.24 -245.85,101.88 -253.21,103.01 -260.58,104.14 -266.35,104.91 -272.12,105.69 -279.47,106.60 -286.81,107.50 -291.42,107.89 -296.03,108.28 -301.78,108.45 -307.53,108.62 -314.80,108.98 -322.07,109.34 -327.57,109.20 -333.08,109.07 -340.07,108.43 -347.06,107.80 -351.21,107.23 -355.35,106.67 -363.18,105.27 -371.01,103.87 -375.49,102.99 -379.97,102.11 -385.16,100.56 -390.35,99.00 -395.78,96.88 -401.20,94.76 -406.40,92.40 -411.60,90.05 -416.74,87.30 -421.89,84.55 -428.16,80.45 -434.44,76.36 -439.10,73.20 -443.76,70.03 -448.11,66.62 -452.46,63.21 -455.83,59.97 -459.19,56.72 -462.60,53.36 -466.01,50.00 -469.04,45.80 -472.08,41.61 -474.23,38.09 -476.38,34.57 -478.47,30.42 -480.56,26.27 -482.27,23.16 -483.98,20.05 -485.37,16.53 -486.75,13.00 -487.66,9.38 -488.56,5.77 -489.23,1.30 -489.91,-3.16 -490.20,-6.83 -490.49,-10.50 -490.61,-14.67 -490.73,-18.85 -490.78,-22.05 -490.83,-25.25 -490.56,-29.59 -490.29,-33.93 -489.89,-37.25 -489.48,-40.57 -488.71,-44.36 -487.95,-48.14 -486.73,-51.88 -485.50,-55.62 -484.13,-59.48 -482.76,-63.33 -481.30,-67.01 -479.84,-70.70 -478.03,-74.37 -476.22,-78.03 -474.27,-81.36 -472.32,-84.69 -470.61,-87.28 -468.91,-89.88 -466.70,-92.76 -464.50,-95.65 -461.49,-98.94 -458.49,-102.24 -457.02,-104.11 -455.56,-105.97 -452.98,-108.16 -450.39,-110.35 -446.78,-113.23 -443.16,-116.11 -440.04,-118.01 -436.92,-119.91 -432.72,-122.15 -428.51,-124.39 -425.02,-126.20 -421.52,-128.01 -417.65,-129.69 -413.78,-131.36 -410.49,-132.90 -407.20,-134.45 -401.98,-136.58 -396.76,-138.72 -392.49,-140.21 -388.21,-141.71 -381.18,-143.80 -374.15,-145.88 -368.87,-147.35 -363.58,-148.81 -357.27,-150.31 -350.96,-151.80 -346.31,-153.00 -341.67,-154.20 -336.68,-155.03 -331.68,-155.87 -327.29,-156.51 -322.89,-157.14 -316.94,-157.72 -310.98,-158.29 -306.11,-158.53 -301.24,-158.77 -295.99,-158.87 -290.74,-158.98 -285.55,-158.74 -280.36,-158.49 -275.37,-158.40 -270.38,-158.30 -265.29,-157.96 -260.20,-157.63 -256.00,-157.20 -251.80,-156.77 -246.12,-156.59 -240.45,-156.42 -234.78,-156.05 -229.10,-155.68 -222.75,-155.53 -216.40,-155.39 -211.68,-155.32 -206.96,-155.25 -202.17,-155.51 -197.39,-155.77 -192.39,-155.88 -187.39,-156.00 -182.27,-156.61 -177.15,-157.21 -172.02,-157.77 -166.90,-158.32 -162.01,-159.39 -157.13,-160.46 -153.02,-161.49 -148.91,-162.52 -143.84,-164.35 -138.78,-166.18 -134.91,-167.81 -131.05,-169.44 -126.63,-171.81 -122.21,-174.18 -118.86,-176.06 -115.52,-177.94 -112.77,-179.82 -110.01,-181.70 -106.26,-184.50 -102.51,-187.30 -99.94,-190.05 -97.37,-192.81 -95.14,-195.67 -92.90,-198.53 -91.78,-200.71 -90.65,-202.89 -89.61,-205.73 -88.57,-208.58 -87.84,-210.94 -87.10,-213.30 -86.83,-216.88 -86.57,-220.46 -86.72,-223.06 -86.86,-225.66 -87.74,-228.85 -88.61,-232.04 -89.27,-234.01 -89.92,-235.98 -91.58,-239.57 -93.23,-243.16 -94.72,-245.42 -96.21,-247.69 -97.51,-249.96 -98.81,-252.22 -100.68,-254.73 -102.54,-257.24 -104.51,-259.78 -106.47,-262.32 -108.62,-264.41 -110.76,-266.50 -112.70,-267.88 -114.64,-269.27 -118.34,-271.58 -122.04,-273.90 -125.30,-275.73 -128.56,-277.57 -134.69,-280.01 -140.81,-282.44 -144.58,-283.78 -148.35,-285.12 -154.41,-286.52 -160.47,-287.92 -165.35,-288.80 -170.22,-289.68 -175.33,-290.04 -180.43,-290.40 -186.84,-290.27 -193.25,-290.14 -198.56,-289.80 -203.86,-289.46 -209.87,-289.03 -215.88,-288.60 -220.70,-288.14 -225.52,-287.68 -232.39,-286.62 -239.26,-285.56 -244.15,-284.55 -249.04,-283.54 -253.42,-282.53 -257.80,-281.53 -264.55,-279.95 -271.31,-278.36 -281.06,-275.97 -290.82,-273.59 -297.82,-271.71 -304.82,-269.84 -310.42,-268.46 -316.03,-267.07 -324.14,-265.05 -332.26,-263.03 -338.61,-261.59 -344.97,-260.14 -354.08,-258.66 -363.18,-257.17 -370.22,-256.25 -377.26,-255.33 -384.60,-254.64 -391.94,-253.96 -397.98,-253.67 -404.02,-253.38 -411.50,-253.25 -418.97,-253.13 -425.44,-253.66 -431.91,-254.19 -441.95,-256.16 -451.99,-258.13 -460.37,-260.72 -468.75,-263.31 -476.13,-266.46 -483.51,-269.61 -491.62,-274.16 -499.73,-278.71 -505.23,-282.40 -510.73,-286.10 -517.20,-291.78 -523.68,-297.47 -528.19,-302.24 -532.70,-307.00 -536.75,-312.91 -540.79,-318.82 -544.53,-325.69 -548.28,-332.56 -550.77,-338.44 -553.25,-344.32 -555.79,-353.56 -558.32,-362.80 -559.96,-370.17 -561.60,-377.54 -562.90,-389.14 -564.20,-400.75 -564.46,-408.89 -564.72,-417.04 -563.67,-426.99 -562.63,-436.94 -561.31,-444.35 -559.99,-451.76 -557.10,-461.09 -554.20,-470.42 -550.64,-478.77 -547.07,-487.12 -542.92,-494.49 -538.77,-501.87 -533.78,-508.83 -528.80,-515.78 -521.69,-523.17 -514.58,-530.55 -508.64,-535.73 -502.71,-540.90 -494.30,-546.36 -485.90,-551.82 -475.64,-557.04 -465.39,-562.26 -455.50,-566.24 -445.62,-570.21 -435.86,-573.07 -426.11,-575.93 -418.19,-577.73 -410.27,-579.52 -397.08,-581.73 -383.89,-583.95 -373.99,-585.45 -364.09,-586.96 -355.80,-587.90 -347.51,-588.84 -334.18,-589.81 -320.85,-590.79 -306.77,-590.92 -292.69,-591.05 -280.95,-590.81 -269.21,-590.58 -258.42,-589.90 -247.64,-589.22 -237.01,-588.36 -226.39,-587.50 -218.10,-586.55 -209.81,-585.60 -199.63,-584.05 -189.46,-582.49 -180.25,-580.97 -171.04,-579.45 -160.76,-577.35 -150.47,-575.25 -141.76,-573.21 -133.05,-571.16 -125.25,-568.84 -117.45,-566.51 -110.11,-564.09 -102.76,-561.66 -95.83,-558.87 -88.89,-556.09 -81.89,-552.87 -74.88,-549.66 -68.10,-545.95 -61.32,-542.25 -54.70,-538.37 -48.08,-534.49 -40.25,-528.74 -32.42,-522.98 -25.67,-517.67 -18.91,-512.36 -12.00,-506.64 -5.09,-500.91 2.25,-493.50 9.60,-486.08 15.00,-480.36 20.41,-474.63 26.54,-466.63 32.67,-458.62 37.24,-452.68 41.81,-446.75 46.99,-438.65 52.18,-430.55 56.95,-422.82 61.72,-415.09 66.92,-406.33 72.12,-397.56 75.24,-391.14 78.37,-384.72 81.72,-376.79 85.07,-368.86 87.66,-361.71 90.25,-354.55 92.20,-348.94 94.16,-343.33 95.89,-336.20 97.63,-329.07 98.38,-323.94 99.12,-318.81 99.72,-313.49 100.32,-308.16 100.87,-300.68 101.41,-293.19 101.64,-287.98 101.87,-282.77 101.68,-277.57 101.50,-272.37 101.12,-266.72 100.75,-261.07 100.00,-255.97 99.26,-250.87 98.35,-246.91 97.44,-242.94 95.90,-237.23 94.36,-231.52 93.14,-226.83 91.91,-222.14 90.51,-217.49 89.11,-212.85 87.65,-208.54 86.18,-204.24 84.68,-200.36 83.18,-196.48 81.07,-191.89 78.97,-187.30 77.20,-183.88 75.42,-180.46 74.14,-177.67 72.86,-174.88 70.49,-170.92 68.13,-166.96 66.01,-163.35 63.90,-159.74 61.31,-154.81 58.72,-149.88 57.06,-146.38 55.39,-142.88 53.22,-138.47 51.06,-134.07 48.97,-130.14 46.88,-126.22 44.55,-121.97 42.23,-117.72 40.71,-114.56 39.19,-111.39 37.37,-107.70 35.55,-104.01 34.20,-101.30 32.85,-98.58 31.49,-94.73 30.13,-90.88 29.25,-88.07 28.37,-85.27 27.43,-81.81 26.49,-78.35 25.44,-75.81 24.39,-73.26 24.06,-71.66 23.72,-70.05 22.62,-67.04 21.52,-64.03 20.51,-61.15 19.50,-58.26 18.46,-55.78 17.42,-53.29 16.76,-51.01 16.11,-48.73 15.51,-46.80 14.91,-44.87 14.05,-42.54 13.20,-40.22 12.53,-38.63 11.87,-37.03 11.36,-35.37 10.85,-33.71 10.01,-31.43 9.17,-29.16 8.56,-27.16 7.96,-25.16 7.41,-23.17 6.86,-21.18 6.66,-19.89 6.46,-18.61 6.06,-16.53 5.66,-14.44 5.16,-12.82 4.66,-11.20 4.19,-9.49 3.72,-7.78 3.19,-6.32 2.65,-4.87 2.16,-3.47 1.67,-2.08 0.81,-0.01 -0.03,2.06 -2.05,4.60 -4.07,7.15 -5.96,9.89 -7.84,12.63 -7.97,12.79 -8.10,12.96 -8.28,13.08 -8.46,13.19 -8.67,13.25 -8.87,13.30 -9.08,13.29 -9.29,13.27 -9.49,13.19 -9.69,13.11 -9.85,12.97 -10.01,12.83 -10.11,12.65 -10.22,12.46 -10.26,12.26 -10.31,12.05 -10.28,11.84 -10.26,11.63 -10.16,11.43 -10.07,11.24 -9.92,11.09 -9.78,10.94 -9.59,10.84 -9.40,10.74 -9.19,10.71 -8.98,10.68 -8.77,10.72 -8.56,10.76 -8.37,10.86 -8.19,10.96 -8.04,11.12 -7.90,11.27 -7.81,11.47 -7.72,11.66 -7.70,11.87 -7.68,12.08 -7.73,12.29 -7.78,12.50 -7.89,12.68 -8.01,12.86 -8.17,12.99 -8.33,13.13 -8.53,13.21 -8.73,13.28 -8.94,13.29 -9.15,13.30 -9.36,13.24 -9.56,13.18 -9.74,13.06 -9.91,12.94 -10.04,12.77 -10.16,12.59 -10.23,12.39 -10.29,12.19 -10.29,11.98 -10.29,11.76 -10.22,11.56 -10.15,11.36 -10.15,11.36 -10.15,11.36 -8.84,8.27 -7.53,5.17 -6.58,2.53 -5.64,-0.10 -4.92,-2.11 -4.20,-4.13 -3.70,-5.58 -3.20,-7.04 -2.75,-8.23 -2.30,-9.43 -1.81,-11.25 -1.32,-13.07 -0.92,-14.34 -0.51,-15.61 -0.13,-17.62 0.23,-19.64 0.50,-21.24 0.77,-22.84 1.34,-24.92 1.90,-27.00 2.56,-29.17 3.22,-31.35 4.01,-33.47 4.79,-35.60 5.40,-37.54 6.01,-39.48 6.62,-40.95 7.24,-42.41 8.03,-44.58 8.83,-46.75 9.41,-48.63 10.00,-50.51 10.77,-53.14 11.55,-55.76 12.52,-58.06 13.49,-60.36 14.52,-63.30 15.54,-66.25 16.52,-68.85 17.50,-71.45 18.00,-73.57 18.50,-75.70 19.41,-77.87 20.33,-80.03 21.30,-83.61 22.27,-87.18 23.19,-90.10 24.10,-93.02 25.61,-97.22 27.12,-101.42 28.46,-104.13 29.80,-106.84 31.61,-110.51 33.41,-114.17 35.01,-117.48 36.61,-120.79 38.91,-125.01 41.22,-129.23 43.27,-133.06 45.31,-136.89 47.45,-141.26 49.60,-145.63 51.32,-149.25 53.04,-152.87 55.70,-157.92 58.36,-162.98 60.49,-166.62 62.62,-170.27 64.82,-173.92 67.02,-177.57 68.37,-180.50 69.71,-183.43 71.42,-186.71 73.13,-189.99 75.16,-194.39 77.19,-198.80 78.64,-202.56 80.09,-206.32 81.53,-210.51 82.96,-214.70 84.33,-219.23 85.69,-223.76 86.92,-228.48 88.15,-233.19 89.66,-238.79 91.17,-244.39 92.03,-248.10 92.89,-251.81 93.61,-256.65 94.33,-261.49 94.69,-267.05 95.06,-272.61 95.25,-277.55 95.44,-282.49 95.21,-287.61 94.98,-292.73 94.45,-300.08 93.92,-307.44 93.33,-312.67 92.74,-317.89 92.05,-322.72 91.36,-327.55 89.71,-334.38 88.07,-341.20 86.12,-346.78 84.18,-352.36 81.64,-359.35 79.11,-366.35 75.84,-374.12 72.56,-381.90 69.55,-388.08 66.55,-394.26 61.38,-402.97 56.20,-411.69 51.46,-419.37 46.72,-427.05 41.69,-434.92 36.67,-442.79 32.09,-448.74 27.52,-454.68 21.60,-462.43 15.69,-470.19 10.34,-475.85 4.99,-481.52 -2.12,-488.71 -9.24,-495.91 -16.09,-501.58 -22.93,-507.24 -29.61,-512.50 -36.28,-517.75 -43.82,-523.32 -51.36,-528.89 -57.90,-532.71 -64.43,-536.54 -71.02,-540.14 -77.60,-543.74 -84.46,-546.89 -91.32,-550.04 -98.07,-552.76 -104.81,-555.47 -112.06,-557.88 -119.32,-560.28 -126.93,-562.56 -134.54,-564.85 -143.15,-566.87 -151.76,-568.90 -161.93,-570.97 -172.11,-573.04 -181.27,-574.56 -190.44,-576.08 -200.49,-577.62 -210.54,-579.17 -218.73,-580.10 -226.92,-581.04 -237.48,-581.90 -248.04,-582.76 -258.69,-583.43 -269.34,-584.10 -280.98,-584.34 -292.63,-584.57 -306.50,-584.45 -320.38,-584.34 -333.58,-583.37 -346.79,-582.41 -354.95,-581.49 -363.11,-580.57 -372.97,-579.07 -382.83,-577.57 -395.84,-575.40 -408.85,-573.24 -416.57,-571.49 -424.30,-569.75 -433.76,-566.99 -443.23,-564.23 -452.86,-560.39 -462.49,-556.54 -472.46,-551.49 -482.43,-546.44 -490.48,-541.27 -498.54,-536.09 -504.28,-531.11 -510.01,-526.13 -516.84,-519.11 -523.67,-512.08 -528.48,-505.43 -533.29,-498.77 -537.30,-491.70 -541.30,-484.64 -544.77,-476.59 -548.23,-468.55 -551.05,-459.60 -553.86,-450.65 -555.16,-443.46 -556.45,-436.27 -557.49,-426.75 -558.53,-417.23 -558.29,-409.33 -558.05,-401.43 -556.82,-390.15 -555.59,-378.87 -553.98,-371.65 -552.38,-364.42 -549.98,-355.56 -547.58,-346.70 -545.23,-341.10 -542.88,-335.49 -539.29,-328.88 -535.71,-322.26 -531.98,-316.73 -528.25,-311.20 -523.94,-306.63 -519.63,-302.06 -513.47,-296.61 -507.31,-291.17 -502.02,-287.60 -496.73,-284.04 -488.92,-279.63 -481.10,-275.22 -474.02,-272.17 -466.94,-269.13 -458.87,-266.61 -450.81,-264.10 -441.11,-262.18 -431.40,-260.26 -425.23,-259.74 -419.07,-259.22 -411.69,-259.34 -404.31,-259.46 -398.41,-259.75 -392.51,-260.03 -385.28,-260.70 -378.05,-261.36 -371.11,-262.27 -364.16,-263.17 -355.24,-264.63 -346.32,-266.09 -340.02,-267.51 -333.73,-268.94 -325.61,-270.96 -317.48,-272.98 -311.94,-274.35 -306.39,-275.71 -299.33,-277.60 -292.27,-279.49 -282.48,-281.89 -272.69,-284.30 -265.92,-285.87 -259.15,-287.45 -254.71,-288.47 -250.27,-289.49 -245.22,-290.53 -240.18,-291.57 -233.14,-292.64 -226.11,-293.71 -221.21,-294.19 -216.31,-294.66 -210.28,-295.10 -204.25,-295.53 -198.81,-295.88 -193.37,-296.22 -186.68,-296.34 -179.99,-296.46 -174.57,-296.05 -169.14,-295.65 -164.12,-294.73 -159.11,-293.82 -152.71,-292.34 -146.32,-290.86 -142.43,-289.48 -138.55,-288.10 -132.06,-285.49 -125.58,-282.89 -122.18,-280.98 -118.79,-279.07 -114.93,-276.64 -111.08,-274.21 -108.78,-272.54 -106.49,-270.86 -104.06,-268.47 -101.64,-266.08 -99.63,-263.48 -97.62,-260.89 -95.55,-258.09 -93.47,-255.28 -92.26,-253.16 -91.06,-251.04 -89.35,-248.39 -87.65,-245.74 -85.85,-241.83 -84.05,-237.92 -83.35,-235.77 -82.64,-233.62 -81.66,-229.82 -80.68,-226.01 -80.53,-222.99 -80.38,-219.96 -80.76,-215.72 -81.14,-211.47 -81.93,-208.95 -82.72,-206.43 -83.92,-203.20 -85.12,-199.97 -86.54,-197.32 -87.96,-194.68 -90.38,-191.59 -92.80,-188.51 -95.77,-185.39 -98.74,-182.28 -102.60,-179.39 -106.47,-176.51 -109.45,-174.48 -112.43,-172.45 -115.84,-170.54 -119.24,-168.62 -123.92,-166.13 -128.60,-163.64 -132.62,-161.94 -136.64,-160.25 -142.01,-158.32 -147.37,-156.39 -151.58,-155.34 -155.79,-154.29 -161.00,-153.16 -166.21,-152.04 -171.31,-151.49 -176.41,-150.94 -181.83,-150.30 -187.24,-149.67 -192.15,-149.56 -197.05,-149.45 -202.05,-149.19 -207.04,-148.93 -211.80,-149.00 -216.55,-149.06 -223.03,-149.22 -229.51,-149.39 -235.08,-149.75 -240.65,-150.11 -246.55,-150.30 -252.44,-150.49 -256.53,-150.92 -260.62,-151.34 -265.56,-151.67 -270.51,-152.00 -275.58,-152.11 -280.66,-152.22 -285.64,-152.47 -290.63,-152.72 -295.78,-152.62 -300.94,-152.53 -305.67,-152.30 -310.40,-152.07 -316.20,-151.53 -322.01,-150.99 -326.34,-150.38 -330.68,-149.76 -335.41,-148.99 -340.13,-148.23 -344.84,-147.02 -349.54,-145.81 -355.75,-144.35 -361.95,-142.89 -367.18,-141.45 -372.42,-140.01 -379.31,-137.98 -386.20,-135.95 -390.33,-134.51 -394.46,-133.07 -399.55,-131.01 -404.64,-128.95 -408.01,-127.39 -411.39,-125.82 -415.08,-124.24 -418.76,-122.67 -422.23,-120.88 -425.70,-119.10 -429.77,-116.95 -433.84,-114.80 -436.66,-113.12 -439.47,-111.45 -443.04,-108.63 -446.62,-105.81 -448.79,-104.05 -450.96,-102.30 -452.55,-100.29 -454.15,-98.28 -457.00,-95.18 -459.84,-92.07 -461.93,-89.36 -464.02,-86.64 -465.65,-84.19 -467.28,-81.73 -469.13,-78.58 -470.98,-75.44 -472.70,-71.99 -474.41,-68.54 -475.84,-64.96 -477.26,-61.37 -478.62,-57.58 -479.97,-53.80 -481.11,-50.39 -482.25,-46.98 -482.97,-43.42 -483.70,-39.86 -484.09,-36.71 -484.49,-33.56 -484.75,-29.45 -485.02,-25.34 -484.97,-22.17 -484.92,-19.01 -484.81,-14.98 -484.69,-10.94 -484.43,-7.48 -484.17,-4.01 -483.55,0.18 -482.94,4.39 -482.15,7.65 -481.36,10.90 -480.13,14.09 -478.90,17.27 -477.15,20.48 -475.41,23.68 -473.42,27.62 -471.44,31.57 -469.42,34.90 -467.39,38.24 -464.67,42.07 -461.95,45.90 -458.57,49.24 -455.18,52.58 -452.04,55.63 -448.90,58.68 -444.71,61.98 -440.52,65.27 -435.91,68.40 -431.29,71.54 -425.23,75.50 -419.16,79.46 -414.19,82.14 -409.22,84.81 -404.16,87.10 -399.09,89.40 -393.89,91.44 -388.69,93.49 -383.77,94.98 -378.86,96.47 -374.43,97.34 -370.00,98.22 -362.29,99.59 -354.57,100.97 -350.56,101.52 -346.54,102.07 -339.74,102.69 -332.94,103.32 -327.64,103.46 -322.35,103.60 -315.02,103.24 -307.69,102.89 -302.10,102.73 -296.51,102.58 -292.01,102.20 -287.51,101.82 -280.19,100.93 -272.88,100.03 -267.16,99.27 -261.44,98.51 -253.94,97.37 -246.45,96.24 -240.45,95.61 -234.46,94.97 -226.46,94.16 -218.45,93.35 -212.56,92.80 -206.67,92.25 -202.08,91.59 -197.50,90.94 -190.17,90.10 -182.85,89.25 -177.11,88.59 -171.37,87.93 -163.39,87.07 -155.42,86.22 -151.28,85.49 -147.15,84.77 -140.30,83.78 -133.46,82.79 -128.67,81.77 -123.89,80.75 -119.41,79.71 -114.93,78.66 -110.94,77.50 -106.96,76.33 -101.83,74.98 -96.70,73.63 -93.20,72.42 -89.71,71.21 -85.56,69.71 -81.42,68.21 -77.70,66.68 -73.98,65.16 -69.25,62.93 -64.53,60.71 -61.28,58.71 -58.04,56.71 -55.08,54.66 -52.11,52.61 -48.38,49.72 -44.65,46.82 -41.89,44.69 -39.13,42.56 -36.96,41.10 -34.80,39.64 -32.92,38.11 -31.05,36.59 -29.20,34.88 -27.35,33.17 -24.41,30.57 -21.47,27.98 -20.03,26.63 -18.59,25.29 -16.30,22.55 -14.02,19.81 -12.01,17.39 -9.99,14.96 -8.13,12.82 -6.26,10.68 -5.00,8.64 -3.73,6.59 -2.98,5.61 -2.22,4.64 -1.93,3.48 -1.64,2.32 -1.68,1.44 -1.72,0.57 -1.76,0.35 -1.81,0.14 -1.80,-0.07 -1.79,-0.29 -1.73,-0.50 -1.67,-0.71 -1.56,-0.90 -1.45,-1.09 -1.30,-1.24 -1.14,-1.40 -0.96,-1.52 -0.77,-1.64 -0.57,-1.71 -0.36,-1.78 -0.14,-1.79 0.07,-1.81 0.29,-1.77 0.50,-1.74 0.70,-1.65 0.90,-1.57 1.08,-1.44 1.25,-1.30 1.39,-1.13 1.53,-0.97 1.62,-0.77 1.72,-0.57 1.72,-0.57 L 1.72,-0.57 Z"></path></g><g transform="translate(653 624) rotate(0 -41.5 -40.5)" stroke="none"><path fill="#1971c2" d="M 0.34,2.40 Q 0.34,2.40 -1.60,3.16 -3.54,3.92 -5.38,4.07 -7.21,4.22 -14.89,4.59 -22.56,4.96 -29.58,5.11 -36.60,5.26 -44.35,5.89 -52.10,6.52 -60.29,7.37 -68.48,8.21 -72.76,8.85 -77.04,9.50 -79.24,9.79 -81.44,10.09 -83.01,9.86 -84.59,9.64 -86.01,7.84 -87.43,6.04 -87.23,3.94 -87.04,1.84 -86.28,-0.45 -85.53,-2.75 -83.46,-8.38 -81.39,-14.00 -79.67,-18.93 -77.95,-23.86 -75.54,-33.57 -73.12,-43.28 -71.51,-50.31 -69.89,-57.35 -68.94,-63.95 -67.99,-70.54 -67.28,-74.35 -66.56,-78.15 -65.96,-80.69 -65.36,-83.22 -64.74,-84.80 -64.13,-86.38 -62.22,-88.44 -60.30,-90.51 -58.93,-90.57 -57.56,-90.64 -55.39,-89.17 -53.22,-87.70 -51.98,-86.37 -50.74,-85.04 -49.22,-83.48 -47.70,-81.92 -44.46,-78.66 -41.22,-75.40 -38.69,-72.87 -36.15,-70.33 -33.29,-67.17 -30.43,-64.02 -27.17,-60.05 -23.90,-56.08 -21.30,-52.28 -18.69,-48.49 -16.24,-45.28 -13.79,-42.07 -12.06,-39.41 -10.34,-36.74 -8.46,-33.59 -6.59,-30.44 -4.94,-27.69 -3.29,-24.94 -2.28,-23.16 -1.26,-21.37 -0.44,-19.22 0.38,-17.07 0.73,-15.84 1.07,-14.60 1.69,-12.84 2.31,-11.07 3.09,-10.12 3.88,-9.17 4.20,-6.79 4.52,-4.40 3.65,-3.12 2.78,-1.84 1.31,-1.28 -0.15,-0.73 -2.44,-0.20 -4.73,0.32 -6.26,0.62 -7.79,0.92 -9.46,1.34 -11.14,1.75 -14.35,1.99 -17.55,2.23 -17.76,2.27 -17.97,2.31 -18.18,2.28 -18.39,2.25 -18.58,2.15 -18.77,2.06 -18.92,1.91 -19.07,1.75 -19.16,1.56 -19.25,1.37 -19.28,1.16 -19.31,0.95 -19.27,0.74 -19.22,0.53 -19.12,0.35 -19.01,0.17 -18.85,0.02 -18.69,-0.11 -18.50,-0.19 -18.30,-0.27 -18.09,-0.29 -17.88,-0.30 -17.67,-0.25 -17.47,-0.20 -17.29,-0.08 -17.11,0.02 -16.98,0.19 -16.85,0.36 -16.78,0.56 -16.70,0.76 -16.70,0.97 -16.69,1.18 -16.76,1.38 -16.82,1.59 -16.95,1.76 -17.07,1.93 -17.25,2.05 -17.42,2.18 -17.62,2.24 -17.83,2.30 -18.04,2.29 -18.25,2.28 -18.45,2.21 -18.65,2.13 -18.81,2.00 -18.98,1.87 -19.09,1.69 -19.20,1.51 -19.25,1.30 -19.30,1.09 -19.29,0.88 -19.27,0.67 -19.18,0.47 -19.10,0.28 -18.95,0.12 -18.81,-0.02 -18.63,-0.13 -18.44,-0.23 -18.44,-0.23 -18.44,-0.23 -15.89,-2.06 -13.34,-3.89 -11.29,-4.93 -9.25,-5.96 -6.61,-6.41 -3.98,-6.85 -2.52,-6.89 -1.07,-6.93 -1.33,-5.63 -1.59,-4.34 -2.68,-5.80 -3.76,-7.26 -4.29,-8.82 -4.83,-10.39 -5.65,-12.45 -6.47,-14.51 -7.06,-16.14 -7.65,-17.78 -8.61,-19.48 -9.57,-21.18 -11.22,-23.94 -12.86,-26.70 -14.68,-29.74 -16.50,-32.78 -18.05,-35.21 -19.61,-37.63 -22.17,-41.00 -24.72,-44.36 -27.14,-47.90 -29.56,-51.44 -32.70,-55.28 -35.84,-59.12 -38.58,-62.15 -41.32,-65.17 -43.86,-67.72 -46.39,-70.26 -49.66,-73.55 -52.92,-76.84 -54.54,-78.50 -56.15,-80.17 -56.87,-81.01 -57.58,-81.86 -58.67,-82.80 -59.76,-83.75 -58.60,-83.72 -57.44,-83.68 -57.91,-82.61 -58.37,-81.54 -58.94,-79.18 -59.50,-76.82 -60.19,-73.17 -60.88,-69.51 -61.89,-62.63 -62.89,-55.74 -64.52,-48.64 -66.14,-41.54 -68.65,-31.51 -71.15,-21.49 -72.90,-16.50 -74.64,-11.52 -76.66,-6.01 -78.68,-0.50 -79.42,1.75 -80.17,4.00 -81.20,3.54 -82.23,3.09 -80.15,2.83 -78.07,2.58 -73.63,1.93 -69.19,1.28 -60.93,0.43 -52.67,-0.41 -44.71,-1.05 -36.75,-1.69 -29.81,-1.83 -22.87,-1.96 -15.28,-2.27 -7.70,-2.58 -6.10,-2.67 -4.50,-2.77 -2.42,-2.58 -0.34,-2.40 -0.05,-2.40 0.24,-2.41 0.52,-2.35 0.81,-2.28 1.07,-2.15 1.33,-2.02 1.55,-1.83 1.78,-1.64 1.95,-1.41 2.12,-1.17 2.23,-0.90 2.34,-0.63 2.38,-0.34 2.42,-0.05 2.39,0.24 2.36,0.53 2.27,0.80 2.17,1.08 2.01,1.32 1.85,1.57 1.63,1.76 1.42,1.96 1.16,2.10 0.90,2.25 0.62,2.32 0.34,2.40 0.34,2.40 L 0.34,2.40 Z"></path></g><g transform="translate(740 612) rotate(0 -52 45.5)" stroke="none"><path fill="#1971c2" d="M 1.47,1.22 Q 1.47,1.22 0.17,3.07 -1.11,4.92 -2.69,6.36 -4.27,7.81 -7.13,10.65 -10.00,13.48 -12.66,16.15 -15.32,18.81 -21.90,25.41 -28.48,32.02 -38.24,40.62 -48.00,49.23 -58.20,57.50 -68.40,65.76 -76.17,72.13 -83.93,78.49 -89.31,82.61 -94.68,86.74 -96.99,87.80 -99.29,88.87 -100.75,89.96 -102.21,91.05 -102.40,91.14 -102.59,91.24 -102.80,91.28 -103.01,91.31 -103.21,91.27 -103.42,91.24 -103.61,91.14 -103.80,91.03 -103.94,90.88 -104.09,90.72 -104.18,90.53 -104.26,90.34 -104.28,90.13 -104.31,89.91 -104.26,89.71 -104.21,89.50 -104.10,89.32 -103.99,89.14 -103.83,89.00 -103.66,88.86 -103.47,88.79 -103.27,88.71 -103.06,88.70 -102.84,88.69 -102.64,88.75 -102.43,88.81 -102.26,88.93 -102.08,89.05 -101.96,89.22 -101.83,89.39 -101.76,89.59 -101.70,89.79 -101.70,90.01 -101.70,90.22 -101.77,90.42 -101.84,90.62 -101.97,90.79 -102.10,90.96 -102.28,91.07 -102.45,91.19 -102.66,91.25 -102.86,91.30 -103.08,91.29 -103.29,91.28 -103.48,91.20 -103.68,91.11 -103.84,90.98 -104.00,90.84 -104.11,90.65 -104.22,90.47 -104.26,90.26 -104.31,90.06 -104.28,89.84 -104.26,89.63 -104.17,89.44 -104.08,89.25 -103.93,89.10 -103.78,88.94 -103.78,88.94 -103.78,88.94 -102.32,87.85 -100.87,86.76 -99.23,84.88 -97.60,82.99 -92.34,78.82 -87.09,74.65 -79.31,68.27 -71.54,61.88 -61.42,53.68 -51.30,45.48 -41.64,36.99 -31.99,28.49 -25.37,21.92 -18.74,15.35 -16.04,12.70 -13.34,10.06 -10.35,7.19 -7.37,4.32 -6.00,3.14 -4.63,1.97 -3.05,0.37 -1.47,-1.22 -1.30,-1.38 -1.13,-1.54 -0.93,-1.65 -0.73,-1.76 -0.51,-1.83 -0.28,-1.89 -0.05,-1.90 0.17,-1.90 0.39,-1.85 0.62,-1.81 0.83,-1.70 1.03,-1.60 1.21,-1.46 1.39,-1.31 1.53,-1.12 1.66,-0.94 1.75,-0.72 1.84,-0.51 1.87,-0.28 1.91,-0.05 1.89,0.17 1.87,0.40 1.79,0.62 1.72,0.83 1.59,1.03 1.47,1.22 1.47,1.22 L 1.47,1.22 Z"></path></g><g transform="translate(729 567) rotate(0 -56.5 60)" stroke="none"><path fill="#1971c2" d="M 1.45,0.97 Q 1.45,0.97 -1.31,5.35 -4.09,9.73 -9.59,16.86 -15.09,24.00 -21.50,31.07 -27.92,38.15 -35.26,45.47 -42.61,52.80 -52.36,62.22 -62.10,71.64 -69.69,79.08 -77.27,86.52 -81.61,91.10 -85.96,95.68 -91.01,100.55 -96.07,105.41 -99.96,109.15 -103.85,112.88 -106.08,115.24 -108.31,117.61 -110.17,119.24 -112.02,120.87 -112.18,121.01 -112.35,121.14 -112.55,121.21 -112.75,121.28 -112.96,121.29 -113.17,121.30 -113.38,121.23 -113.58,121.17 -113.75,121.05 -113.92,120.92 -114.05,120.75 -114.17,120.58 -114.23,120.38 -114.30,120.17 -114.29,119.96 -114.28,119.75 -114.21,119.55 -114.14,119.35 -114.00,119.18 -113.87,119.02 -113.69,118.90 -113.51,118.79 -113.31,118.74 -113.10,118.69 -112.89,118.70 -112.68,118.72 -112.48,118.80 -112.29,118.89 -112.13,119.03 -111.97,119.17 -111.87,119.36 -111.76,119.54 -111.72,119.75 -111.68,119.96 -111.71,120.17 -111.74,120.38 -111.83,120.57 -111.93,120.76 -112.08,120.91 -112.23,121.06 -112.42,121.16 -112.61,121.25 -112.82,121.28 -113.03,121.31 -113.24,121.27 -113.45,121.23 -113.63,121.12 -113.82,121.02 -113.96,120.86 -114.10,120.70 -114.19,120.51 -114.27,120.31 -114.29,120.10 -114.30,119.89 -114.25,119.68 -114.20,119.48 -114.09,119.30 -113.97,119.12 -113.97,119.12 -113.97,119.12 -112.55,117.10 -111.13,115.08 -108.93,112.51 -106.73,109.94 -102.90,106.11 -99.08,102.29 -94.09,97.49 -89.11,92.69 -84.71,88.06 -80.31,83.43 -72.73,75.96 -65.15,68.49 -55.46,59.07 -45.76,49.64 -38.49,42.39 -31.22,35.14 -24.88,28.21 -18.54,21.27 -12.97,14.39 -7.40,7.51 -4.43,3.27 -1.45,-0.97 -1.32,-1.13 -1.18,-1.29 -1.01,-1.41 -0.83,-1.53 -0.64,-1.61 -0.44,-1.69 -0.23,-1.72 -0.02,-1.75 0.18,-1.73 0.39,-1.70 0.59,-1.63 0.78,-1.56 0.96,-1.44 1.14,-1.33 1.28,-1.17 1.42,-1.01 1.52,-0.83 1.62,-0.64 1.68,-0.44 1.73,-0.23 1.73,-0.02 1.74,0.18 1.69,0.38 1.64,0.59 1.55,0.78 1.45,0.97 1.45,0.97 L 1.45,0.97 Z"></path></g><g transform="translate(707 526) rotate(0 -72 77.5)" stroke="none"><path fill="#1971c2" d="M 1.52,1.05 Q 1.52,1.05 -0.98,4.84 -3.48,8.64 -5.40,11.65 -7.33,14.67 -9.65,17.51 -11.97,20.36 -17.77,27.58 -23.58,34.80 -32.42,44.79 -41.25,54.79 -49.33,63.63 -57.40,72.48 -65.17,80.29 -72.95,88.10 -83.74,98.58 -94.54,109.07 -100.55,114.96 -106.57,120.85 -112.06,125.67 -117.55,130.50 -120.68,133.63 -123.80,136.77 -126.89,139.84 -129.98,142.91 -133.07,146.12 -136.16,149.32 -138.22,151.14 -140.28,152.96 -141.66,154.42 -143.04,155.89 -143.21,156.02 -143.37,156.15 -143.57,156.22 -143.78,156.29 -143.99,156.29 -144.20,156.29 -144.40,156.23 -144.60,156.16 -144.77,156.03 -144.94,155.90 -145.06,155.73 -145.18,155.55 -145.24,155.35 -145.30,155.14 -145.29,154.93 -145.28,154.72 -145.20,154.52 -145.12,154.32 -144.99,154.16 -144.85,154.00 -144.67,153.89 -144.49,153.78 -144.28,153.73 -144.07,153.68 -143.86,153.71 -143.65,153.73 -143.46,153.82 -143.26,153.90 -143.11,154.05 -142.95,154.20 -142.85,154.38 -142.75,154.57 -142.72,154.78 -142.68,154.99 -142.72,155.20 -142.75,155.41 -142.85,155.60 -142.95,155.78 -143.10,155.93 -143.25,156.08 -143.45,156.17 -143.64,156.26 -143.85,156.28 -144.06,156.31 -144.27,156.26 -144.48,156.22 -144.66,156.11 -144.84,156.00 -144.98,155.84 -145.12,155.68 -145.20,155.48 -145.28,155.28 -145.29,155.07 -145.30,154.86 -145.25,154.65 -145.19,154.45 -145.07,154.27 -144.95,154.10 -144.95,154.10 -144.95,154.10 -143.58,152.63 -142.20,151.16 -140.54,149.00 -138.87,146.85 -135.90,143.41 -132.93,139.97 -129.87,136.88 -126.81,133.78 -123.60,130.53 -120.39,127.28 -115.02,122.50 -109.65,117.71 -103.64,111.80 -97.63,105.90 -86.90,95.39 -76.17,84.89 -68.47,77.15 -60.77,69.40 -52.72,60.58 -44.68,51.76 -35.90,41.84 -27.11,31.92 -21.21,24.75 -15.31,17.58 -13.08,14.98 -10.86,12.37 -8.86,9.34 -6.86,6.30 -4.19,2.62 -1.52,-1.05 -1.37,-1.21 -1.22,-1.38 -1.04,-1.51 -0.85,-1.63 -0.64,-1.71 -0.44,-1.79 -0.21,-1.82 0.00,-1.85 0.22,-1.82 0.44,-1.79 0.65,-1.71 0.86,-1.63 1.04,-1.51 1.22,-1.38 1.37,-1.21 1.52,-1.04 1.62,-0.85 1.73,-0.65 1.78,-0.43 1.83,-0.22 1.83,0.00 1.83,0.22 1.78,0.44 1.72,0.65 1.62,0.85 1.52,1.05 1.52,1.05 L 1.52,1.05 Z"></path></g><g transform="translate(659 510) rotate(0 -65.5 72.5)" stroke="none"><path fill="#1971c2" d="M 1.61,1.15 Q 1.61,1.15 0.27,3.23 -1.05,5.32 -3.65,8.82 -6.25,12.33 -8.80,15.56 -11.35,18.78 -22.53,30.33 -33.72,41.87 -40.74,49.30 -47.77,56.72 -55.66,64.79 -63.56,72.85 -72.66,82.02 -81.77,91.20 -89.35,99.38 -96.92,107.56 -103.00,114.74 -109.07,121.92 -113.13,126.68 -117.20,131.45 -119.49,134.30 -121.79,137.14 -124.22,139.35 -126.65,141.55 -128.28,143.65 -129.92,145.74 -130.06,145.90 -130.21,146.05 -130.40,146.15 -130.59,146.24 -130.80,146.28 -131.01,146.31 -131.22,146.27 -131.43,146.23 -131.61,146.13 -131.80,146.03 -131.95,145.88 -132.09,145.72 -132.18,145.53 -132.26,145.33 -132.28,145.12 -132.31,144.91 -132.26,144.70 -132.21,144.50 -132.10,144.31 -131.99,144.13 -131.82,144.00 -131.66,143.86 -131.46,143.79 -131.26,143.71 -131.05,143.70 -130.84,143.69 -130.63,143.75 -130.43,143.81 -130.26,143.93 -130.08,144.05 -129.95,144.22 -129.83,144.39 -129.76,144.59 -129.70,144.80 -129.70,145.01 -129.70,145.22 -129.77,145.42 -129.84,145.62 -129.97,145.79 -130.10,145.96 -130.28,146.08 -130.46,146.19 -130.66,146.25 -130.87,146.30 -131.08,146.29 -131.29,146.27 -131.49,146.19 -131.68,146.11 -131.84,145.97 -132.01,145.83 -132.11,145.65 -132.22,145.47 -132.26,145.26 -132.31,145.05 -132.28,144.84 -132.26,144.63 -132.17,144.44 -132.07,144.25 -132.07,144.25 -132.07,144.25 -130.57,141.82 -129.07,139.40 -127.25,136.83 -125.43,134.27 -123.15,131.32 -120.87,128.36 -116.87,123.53 -112.87,118.71 -106.73,111.43 -100.59,104.16 -92.95,95.92 -85.32,87.68 -76.23,78.51 -67.14,69.34 -59.28,61.31 -51.41,53.27 -44.36,45.82 -37.31,38.36 -26.20,27.07 -15.09,15.78 -12.54,12.63 -9.98,9.48 -7.34,6.10 -4.69,2.72 -3.15,0.78 -1.61,-1.15 -1.45,-1.33 -1.29,-1.50 -1.09,-1.63 -0.89,-1.77 -0.66,-1.85 -0.44,-1.93 -0.20,-1.95 0.03,-1.98 0.26,-1.95 0.50,-1.91 0.72,-1.83 0.95,-1.74 1.14,-1.60 1.33,-1.46 1.49,-1.28 1.65,-1.10 1.75,-0.88 1.86,-0.67 1.92,-0.44 1.97,-0.20 1.96,0.03 1.96,0.27 1.90,0.50 1.84,0.73 1.72,0.94 1.61,1.15 1.61,1.15 L 1.61,1.15 Z"></path></g><g transform="translate(597 516) rotate(0 -52.5 56)" stroke="none"><path fill="#1971c2" d="M 1.37,1.37 Q 1.37,1.37 -1.34,4.40 -4.05,7.44 -6.41,9.82 -8.76,12.21 -10.86,14.61 -12.95,17.02 -16.73,21.25 -20.50,25.49 -25.58,30.77 -30.66,36.05 -36.22,42.27 -41.79,48.48 -49.95,57.19 -58.11,65.89 -64.74,73.27 -71.37,80.65 -78.52,88.41 -85.66,96.18 -89.88,100.60 -94.10,105.03 -97.15,107.17 -100.20,109.31 -102.15,111.13 -104.10,112.95 -104.28,113.07 -104.45,113.19 -104.66,113.25 -104.86,113.30 -105.07,113.29 -105.29,113.28 -105.48,113.20 -105.68,113.12 -105.84,112.98 -106.00,112.84 -106.11,112.66 -106.22,112.47 -106.26,112.26 -106.31,112.06 -106.28,111.85 -106.26,111.63 -106.17,111.44 -106.08,111.25 -105.93,111.10 -105.78,110.94 -105.59,110.85 -105.41,110.75 -105.20,110.71 -104.99,110.68 -104.78,110.72 -104.57,110.75 -104.38,110.85 -104.19,110.96 -104.05,111.11 -103.90,111.27 -103.81,111.46 -103.73,111.65 -103.71,111.86 -103.68,112.08 -103.73,112.28 -103.78,112.49 -103.89,112.67 -104.00,112.85 -104.16,112.99 -104.33,113.13 -104.52,113.20 -104.72,113.28 -104.93,113.29 -105.15,113.30 -105.35,113.24 -105.55,113.18 -105.73,113.06 -105.90,112.94 -106.03,112.77 -106.16,112.60 -106.23,112.40 -106.29,112.20 -106.29,111.99 -106.29,111.77 -106.22,111.57 -106.15,111.37 -106.02,111.20 -105.89,111.04 -105.89,111.04 -105.89,111.04 -103.94,109.21 -101.99,107.39 -99.76,104.60 -97.53,101.81 -93.40,97.34 -89.26,92.87 -82.16,85.12 -75.06,77.37 -68.45,69.88 -61.84,62.40 -53.74,53.71 -45.64,45.03 -40.01,38.74 -34.37,32.46 -29.32,27.27 -24.28,22.08 -20.47,17.91 -16.66,13.74 -14.44,11.25 -12.21,8.76 -9.82,6.41 -7.44,4.05 -4.40,1.34 -1.37,-1.37 -1.19,-1.52 -1.00,-1.66 -0.79,-1.76 -0.57,-1.86 -0.34,-1.90 -0.11,-1.94 0.11,-1.93 0.35,-1.91 0.57,-1.84 0.79,-1.77 1.00,-1.65 1.20,-1.53 1.36,-1.36 1.53,-1.20 1.65,-1.00 1.77,-0.79 1.84,-0.57 1.91,-0.35 1.93,-0.11 1.94,0.11 1.90,0.34 1.86,0.57 1.76,0.79 1.66,1.00 1.52,1.19 1.37,1.37 1.37,1.37 L 1.37,1.37 Z"></path></g><g transform="translate(557 498) rotate(0 -31 36)" stroke="none"><path fill="#1971c2" d="M 1.14,1.14 Q 1.14,1.14 -1.65,4.67 -4.45,8.19 -8.64,12.43 -12.84,16.68 -18.08,21.92 -23.32,27.17 -26.95,31.08 -30.58,35.00 -35.01,39.84 -39.44,44.67 -44.52,50.89 -49.60,57.11 -53.33,61.44 -57.05,65.77 -59.48,69.26 -61.92,72.75 -62.07,72.90 -62.21,73.05 -62.40,73.15 -62.59,73.25 -62.80,73.28 -63.01,73.31 -63.22,73.27 -63.43,73.23 -63.62,73.13 -63.80,73.03 -63.95,72.87 -64.09,72.72 -64.18,72.52 -64.27,72.33 -64.29,72.12 -64.31,71.91 -64.26,71.70 -64.21,71.49 -64.10,71.31 -63.98,71.13 -63.82,71.00 -63.66,70.86 -63.46,70.78 -63.26,70.71 -63.05,70.70 -62.84,70.69 -62.63,70.75 -62.43,70.81 -62.25,70.93 -62.08,71.05 -61.95,71.22 -61.83,71.40 -61.76,71.60 -61.70,71.80 -61.70,72.01 -61.70,72.23 -61.77,72.43 -61.84,72.63 -61.97,72.79 -62.11,72.96 -62.28,73.08 -62.46,73.19 -62.67,73.25 -62.87,73.30 -63.08,73.29 -63.30,73.27 -63.49,73.19 -63.69,73.11 -63.85,72.97 -64.01,72.83 -64.11,72.65 -64.22,72.46 -64.26,72.26 -64.31,72.05 -64.28,71.84 -64.26,71.63 -64.16,71.43 -64.07,71.24 -64.07,71.24 -64.07,71.24 -61.64,67.75 -59.20,64.27 -56.33,59.16 -53.47,54.05 -48.46,47.53 -43.45,41.00 -39.01,36.15 -34.57,31.30 -30.87,27.31 -27.17,23.32 -21.92,18.08 -16.68,12.84 -12.43,8.64 -8.19,4.45 -4.67,1.65 -1.14,-1.14 -0.99,-1.27 -0.84,-1.39 -0.66,-1.47 -0.48,-1.55 -0.29,-1.58 -0.09,-1.62 0.09,-1.61 0.29,-1.59 0.48,-1.54 0.66,-1.48 0.83,-1.38 1.00,-1.27 1.14,-1.14 1.27,-1.00 1.38,-0.83 1.48,-0.66 1.54,-0.47 1.59,-0.29 1.61,-0.09 1.62,0.09 1.58,0.29 1.55,0.48 1.47,0.66 1.39,0.84 1.26,0.99 1.14,1.14 1.14,1.14 L 1.14,1.14 Z"></path></g><g transform="translate(583 631) rotate(0 28.5 -49)" stroke="none"><path fill="#1971c2" d="M -0.73,-1.47 Q -0.73,-1.47 -0.49,-2.43 -0.25,-3.38 1.00,-3.90 2.25,-4.41 3.58,-4.67 4.92,-4.93 6.76,-5.31 8.59,-5.69 11.46,-6.15 14.32,-6.62 18.34,-7.38 22.37,-8.14 26.45,-8.76 30.54,-9.39 34.46,-10.22 38.38,-11.04 42.15,-11.70 45.93,-12.36 50.16,-12.93 54.38,-13.51 58.46,-14.04 62.54,-14.57 65.97,-15.08 69.39,-15.58 71.19,-15.81 72.98,-16.03 74.02,-16.10 75.06,-16.16 75.46,-16.16 75.86,-16.16 76.25,-16.07 76.64,-15.97 77.00,-15.79 77.35,-15.60 77.65,-15.34 77.95,-15.07 78.18,-14.74 78.41,-14.41 78.55,-14.04 78.70,-13.66 78.75,-13.26 78.80,-12.87 78.75,-12.47 78.70,-12.07 78.56,-11.69 78.42,-11.32 78.19,-10.99 77.96,-10.66 77.66,-10.39 77.36,-10.12 77.01,-9.93 76.65,-9.75 76.26,-9.65 75.88,-9.55 73.37,-9.32 70.86,-9.08 67.88,-8.68 64.89,-8.28 58.55,-6.97 52.21,-5.66 45.98,-4.51 39.76,-3.37 31.04,-2.02 22.33,-0.66 17.43,-0.08 12.54,0.49 6.70,1.03 0.86,1.56 -2.79,1.79 -6.45,2.02 -8.58,2.12 -10.72,2.22 -11.93,2.26 -13.13,2.31 -14.58,2.34 -16.03,2.37 -17.65,2.12 -19.26,1.87 -20.42,0.58 -21.58,-0.69 -21.58,-2.28 -21.58,-3.87 -21.15,-5.79 -20.72,-7.71 -19.44,-11.55 -18.16,-15.39 -17.06,-19.25 -15.96,-23.12 -14.63,-27.94 -13.29,-32.77 -12.44,-35.96 -11.59,-39.15 -10.35,-43.42 -9.12,-47.69 -7.42,-52.72 -5.73,-57.76 -4.47,-62.10 -3.20,-66.44 -1.75,-70.19 -0.29,-73.93 1.47,-78.09 3.24,-82.26 4.23,-85.06 5.22,-87.86 6.22,-91.04 7.21,-94.22 7.62,-95.81 8.03,-97.40 8.22,-97.81 8.41,-98.23 8.56,-98.61 8.71,-99.00 8.95,-99.33 9.19,-99.67 9.50,-99.94 9.81,-100.21 10.18,-100.40 10.55,-100.58 10.95,-100.68 11.35,-100.77 11.76,-100.77 12.17,-100.76 12.57,-100.66 12.97,-100.56 13.34,-100.36 13.70,-100.17 14.00,-99.89 14.31,-99.61 14.54,-99.27 14.77,-98.93 14.91,-98.54 15.05,-98.15 15.10,-97.74 15.14,-97.33 15.09,-96.93 15.04,-96.52 14.24,-95.67 13.44,-94.82 12.69,-92.01 11.95,-89.20 10.25,-85.52 8.56,-81.85 5.59,-74.64 2.62,-67.43 -0.09,-60.89 -2.80,-54.35 -4.79,-48.77 -6.77,-43.20 -9.04,-35.70 -11.30,-28.20 -12.57,-24.11 -13.84,-20.01 -14.71,-17.85 -15.59,-15.69 -15.90,-14.65 -16.21,-13.62 -16.44,-13.48 -16.67,-13.34 -16.83,-12.98 -16.99,-12.63 -17.23,-12.32 -17.47,-12.01 -17.77,-11.76 -18.08,-11.52 -18.43,-11.36 -18.79,-11.20 -19.18,-11.12 -19.56,-11.05 -19.95,-11.07 -20.34,-11.09 -20.72,-11.21 -21.09,-11.32 -21.43,-11.52 -21.76,-11.72 -22.04,-12.00 -22.32,-12.27 -22.52,-12.61 -22.73,-12.94 -22.85,-13.31 -22.97,-13.69 -22.99,-14.08 -23.02,-14.47 -22.95,-14.85 -22.88,-15.24 -22.19,-16.07 -21.50,-16.90 -20.68,-18.86 -19.86,-20.81 -19.15,-22.21 -18.44,-23.60 -17.34,-26.01 -16.24,-28.42 -16.14,-28.61 -16.04,-28.79 -15.88,-28.94 -15.73,-29.08 -15.53,-29.17 -15.34,-29.26 -15.13,-29.28 -14.92,-29.31 -14.71,-29.26 -14.50,-29.21 -14.32,-29.10 -14.14,-28.99 -14.00,-28.83 -13.87,-28.67 -13.79,-28.47 -13.71,-28.27 -13.70,-28.06 -13.69,-27.85 -13.75,-27.64 -13.81,-27.44 -13.93,-27.26 -14.05,-27.09 -14.21,-26.96 -14.38,-26.83 -14.59,-26.77 -14.79,-26.70 -15.00,-26.70 -15.21,-26.70 -15.41,-26.77 -15.61,-26.84 -15.78,-26.97 -15.95,-27.10 -16.07,-27.27 -16.19,-27.45 -16.25,-27.65 -16.30,-27.86 -16.29,-28.07 -16.28,-28.28 -16.20,-28.48 -16.12,-28.68 -15.98,-28.84 -15.84,-29.00 -15.66,-29.11 -15.48,-29.22 -15.27,-29.26 -15.06,-29.31 -14.85,-29.28 -14.64,-29.26 -14.45,-29.17 -14.25,-29.08 -14.10,-28.93 -13.95,-28.79 -13.85,-28.60 -13.75,-28.41 -13.72,-28.20 -13.68,-27.99 -13.72,-27.78 -13.75,-27.57 -13.75,-27.57 -13.75,-27.57 -14.36,-24.97 -14.97,-22.38 -15.21,-21.06 -15.46,-19.73 -15.73,-17.65 -16.00,-15.57 -16.34,-14.45 -16.67,-13.34 -16.83,-12.98 -16.99,-12.63 -17.23,-12.32 -17.46,-12.01 -17.77,-11.76 -18.08,-11.52 -18.43,-11.36 -18.79,-11.20 -19.18,-11.12 -19.56,-11.05 -19.95,-11.07 -20.34,-11.09 -20.72,-11.21 -21.09,-11.32 -21.43,-11.52 -21.76,-11.72 -22.04,-12.00 -22.32,-12.27 -22.52,-12.61 -22.73,-12.94 -22.85,-13.31 -22.97,-13.69 -22.99,-14.08 -23.02,-14.47 -22.95,-14.85 -22.88,-15.24 -22.81,-15.50 -22.75,-15.76 -22.36,-17.02 -21.97,-18.28 -21.19,-20.17 -20.42,-22.05 -19.16,-26.12 -17.90,-30.20 -15.58,-37.85 -13.26,-45.51 -11.21,-51.25 -9.16,-56.98 -6.45,-63.52 -3.74,-70.06 -0.70,-77.39 2.32,-84.73 3.94,-88.22 5.56,-91.71 6.98,-94.97 8.41,-98.23 8.56,-98.61 8.71,-99.00 8.95,-99.33 9.19,-99.67 9.50,-99.94 9.81,-100.21 10.18,-100.40 10.55,-100.58 10.95,-100.68 11.35,-100.77 11.76,-100.77 12.17,-100.76 12.57,-100.66 12.97,-100.56 13.34,-100.36 13.70,-100.17 14.00,-99.89 14.31,-99.61 14.54,-99.27 14.77,-98.93 14.91,-98.54 15.05,-98.15 15.10,-97.74 15.14,-97.33 15.09,-96.93 15.04,-96.52 14.86,-96.09 14.69,-95.66 14.24,-93.92 13.78,-92.17 12.75,-88.86 11.72,-85.55 10.65,-82.56 9.58,-79.56 7.85,-75.49 6.12,-71.42 4.76,-67.96 3.40,-64.51 2.09,-60.04 0.79,-55.56 -0.85,-50.67 -2.50,-45.77 -3.72,-41.57 -4.94,-37.37 -5.80,-34.15 -6.66,-30.93 -8.00,-26.08 -9.35,-21.23 -10.49,-17.22 -11.63,-13.21 -13.17,-8.79 -14.71,-4.36 -14.85,-3.21 -14.98,-2.06 -15.55,-3.23 -16.11,-4.39 -14.74,-4.41 -13.36,-4.43 -12.19,-4.47 -11.03,-4.50 -8.95,-4.60 -6.87,-4.69 -3.30,-4.91 0.25,-5.13 6.00,-5.65 11.75,-6.18 16.52,-6.74 21.30,-7.31 29.92,-8.64 38.54,-9.98 44.71,-11.11 50.87,-12.24 57.44,-13.57 64.01,-14.90 67.05,-15.30 70.10,-15.71 72.58,-15.94 75.06,-16.16 75.46,-16.16 75.86,-16.17 76.25,-16.07 76.64,-15.97 77.00,-15.79 77.35,-15.60 77.65,-15.34 77.95,-15.07 78.18,-14.74 78.41,-14.41 78.55,-14.04 78.70,-13.66 78.75,-13.26 78.80,-12.87 78.75,-12.47 78.70,-12.07 78.56,-11.69 78.42,-11.32 78.19,-10.99 77.96,-10.66 77.66,-10.39 77.36,-10.12 77.01,-9.94 76.65,-9.75 76.26,-9.65 75.88,-9.55 74.84,-9.44 73.81,-9.32 72.10,-9.11 70.38,-8.89 66.90,-8.38 63.41,-7.87 59.35,-7.34 55.28,-6.82 51.18,-6.28 47.07,-5.73 43.41,-5.11 39.75,-4.48 35.64,-3.64 31.54,-2.79 27.56,-2.19 23.59,-1.60 19.47,-0.83 15.35,-0.07 12.59,0.34 9.83,0.76 7.91,1.10 5.98,1.45 4.27,1.84 2.55,2.23 1.64,1.85 0.73,1.47 0.55,1.54 0.36,1.61 0.16,1.63 -0.03,1.65 -0.22,1.62 -0.42,1.59 -0.61,1.52 -0.79,1.44 -0.95,1.33 -1.12,1.21 -1.25,1.06 -1.37,0.91 -1.46,0.73 -1.55,0.55 -1.60,0.36 -1.64,0.16 -1.64,-0.03 -1.63,-0.23 -1.58,-0.42 -1.53,-0.61 -1.43,-0.79 -1.34,-0.96 -1.20,-1.11 -1.07,-1.25 -0.90,-1.36 -0.73,-1.47 -0.73,-1.47 L -0.73,-1.47 Z"></path></g><g transform="translate(590 533) rotate(0 21.5 44)" stroke="none"><path fill="#1971c2" d="M 1.33,-1.77 Q 1.33,-1.77 2.80,-1.30 4.26,-0.83 5.95,1.25 7.64,3.34 8.59,4.16 9.55,4.98 11.61,7.26 13.67,9.55 15.61,11.57 17.54,13.60 19.59,15.98 21.64,18.36 23.39,20.53 25.14,22.70 27.86,25.86 30.57,29.01 32.77,31.12 34.97,33.22 36.37,34.87 37.77,36.53 39.68,38.53 41.59,40.53 43.10,42.37 44.61,44.22 46.69,47.04 48.78,49.85 50.30,52.29 51.82,54.73 53.31,57.16 54.79,59.60 55.79,61.64 56.78,63.68 57.45,65.05 58.12,66.42 59.03,68.53 59.93,70.64 60.38,72.33 60.83,74.01 61.26,75.41 61.69,76.81 62.38,78.40 63.07,79.99 63.66,81.27 64.25,82.55 65.17,83.63 66.08,84.71 67.68,86.05 69.28,87.39 69.82,88.31 70.37,89.24 69.18,91.30 67.99,93.36 66.93,93.76 65.86,94.16 64.09,94.51 62.31,94.86 57.83,95.04 53.35,95.23 49.22,95.29 45.10,95.35 39.31,95.38 33.53,95.41 28.78,95.42 24.02,95.44 18.94,95.72 13.85,96.01 10.76,96.13 7.67,96.26 4.76,96.59 1.86,96.93 -1.55,97.08 -4.97,97.23 -7.26,97.29 -9.55,97.35 -11.69,97.38 -13.83,97.41 -15.02,97.42 -16.21,97.43 -17.64,97.44 -19.06,97.45 -20.19,97.45 -21.33,97.45 -23.13,97.27 -24.93,97.09 -26.25,95.33 -27.56,93.58 -27.52,92.42 -27.48,91.26 -27.19,89.11 -26.91,86.96 -26.47,85.00 -26.04,83.04 -25.27,79.90 -24.51,76.76 -23.92,73.79 -23.32,70.81 -22.80,66.48 -22.28,62.16 -21.75,58.50 -21.23,54.85 -19.82,49.38 -18.41,43.91 -17.56,40.01 -16.70,36.11 -16.05,33.00 -15.39,29.89 -14.53,26.22 -13.67,22.55 -13.02,19.85 -12.36,17.15 -11.51,13.70 -10.66,10.24 -9.99,7.87 -9.33,5.49 -8.76,3.60 -8.19,1.71 -7.61,0.21 -7.03,-1.28 -5.72,-3.13 -4.41,-4.97 -2.55,-6.71 -0.70,-8.45 1.01,-8.30 2.73,-8.15 3.71,-7.24 4.68,-6.34 5.86,-4.04 7.04,-1.73 7.93,0.03 8.82,1.80 9.97,3.53 11.11,5.26 13.39,8.99 15.67,12.71 17.14,14.75 18.60,16.78 20.21,19.56 21.81,22.34 22.93,23.89 24.05,25.43 25.49,27.67 26.93,29.90 29.23,33.38 31.53,36.86 33.89,39.99 36.24,43.12 38.63,45.81 41.01,48.51 43.51,51.45 46.02,54.38 48.57,57.71 51.12,61.03 52.79,63.31 54.45,65.59 56.11,68.42 57.76,71.25 58.73,73.00 59.70,74.74 60.41,76.07 61.12,77.40 61.71,78.55 62.30,79.69 62.18,81.47 62.07,83.24 62.16,83.44 62.26,83.63 62.28,83.84 62.31,84.05 62.26,84.26 62.22,84.47 62.11,84.65 62.01,84.83 61.85,84.97 61.69,85.11 61.49,85.19 61.29,85.27 61.08,85.29 60.87,85.30 60.66,85.25 60.46,85.19 60.28,85.08 60.10,84.96 59.97,84.79 59.84,84.62 59.77,84.42 59.70,84.22 59.70,84.01 59.70,83.80 59.76,83.60 59.83,83.39 59.95,83.22 60.08,83.05 60.25,82.93 60.43,82.81 60.63,82.75 60.84,82.69 61.05,82.70 61.26,82.71 61.46,82.79 61.66,82.86 61.82,83.00 61.99,83.13 62.10,83.31 62.21,83.49 62.26,83.70 62.31,83.91 62.29,84.12 62.26,84.33 62.18,84.52 62.09,84.72 61.95,84.87 61.80,85.03 61.62,85.13 61.43,85.23 61.22,85.27 61.01,85.31 60.80,85.28 60.59,85.24 60.40,85.15 60.21,85.05 60.07,84.90 59.92,84.75 59.92,84.75 59.92,84.75 57.95,83.85 55.98,82.96 55.40,81.85 54.83,80.73 54.16,79.46 53.48,78.18 52.55,76.50 51.62,74.82 50.17,72.29 48.71,69.77 47.10,67.56 45.49,65.35 43.06,62.16 40.62,58.98 38.16,56.09 35.69,53.19 33.14,50.28 30.59,47.37 28.11,44.07 25.62,40.76 23.30,37.24 20.98,33.71 19.66,31.63 18.33,29.55 17.02,27.70 15.70,25.86 14.28,23.37 12.86,20.88 11.26,18.64 9.66,16.39 7.44,12.75 5.22,9.10 3.88,7.03 2.54,4.96 1.66,3.19 0.77,1.43 0.29,-0.39 -0.19,-2.21 1.08,-2.59 2.35,-2.96 1.77,-1.86 1.20,-0.76 0.34,0.27 -0.52,1.31 -0.99,2.53 -1.47,3.75 -2.02,5.57 -2.58,7.38 -3.22,9.65 -3.85,11.93 -4.70,15.36 -5.55,18.80 -6.20,21.48 -6.85,24.16 -7.69,27.75 -8.54,31.33 -9.20,34.47 -9.86,37.61 -10.74,41.64 -11.63,45.67 -12.96,50.76 -14.30,55.84 -14.81,59.43 -15.33,63.01 -15.90,67.59 -16.46,72.18 -17.09,75.30 -17.71,78.41 -18.46,81.49 -19.21,84.56 -19.61,86.39 -20.02,88.22 -20.84,90.74 -21.66,93.26 -21.49,91.90 -21.33,90.54 -20.21,90.54 -19.08,90.54 -17.68,90.53 -16.28,90.53 -15.10,90.52 -13.91,90.50 -11.83,90.48 -9.74,90.46 -7.50,90.40 -5.27,90.34 -2.09,90.20 1.08,90.06 4.23,89.71 7.38,89.36 10.42,89.24 13.46,89.12 18.73,88.82 24.01,88.52 28.75,88.51 33.50,88.50 39.24,88.47 44.99,88.45 49.05,88.39 53.10,88.32 57.06,88.21 61.01,88.09 63.49,87.84 65.97,87.58 64.58,89.47 63.19,91.35 61.89,90.21 60.59,89.06 59.26,87.28 57.93,85.51 57.29,84.13 56.66,82.75 55.83,80.79 54.99,78.83 54.53,77.28 54.07,75.74 53.79,74.55 53.51,73.37 52.69,71.43 51.87,69.49 51.19,68.10 50.51,66.71 49.67,64.97 48.84,63.22 47.37,60.81 45.91,58.40 44.54,56.20 43.18,53.99 41.19,51.30 39.20,48.60 37.88,46.95 36.55,45.30 34.51,43.13 32.46,40.97 31.32,39.58 30.18,38.19 27.75,35.84 25.33,33.49 22.56,30.23 19.80,26.97 18.14,24.87 16.48,22.78 14.55,20.52 12.63,18.26 10.63,16.14 8.63,14.02 6.83,11.95 5.04,9.89 3.70,8.60 2.36,7.32 1.34,5.80 0.33,4.28 -0.50,3.03 -1.33,1.77 -1.52,1.59 -1.72,1.40 -1.86,1.18 -2.00,0.95 -2.09,0.70 -2.17,0.44 -2.19,0.17 -2.22,-0.08 -2.17,-0.35 -2.13,-0.61 -2.03,-0.86 -1.92,-1.10 -1.76,-1.32 -1.60,-1.53 -1.39,-1.70 -1.18,-1.87 -0.94,-1.99 -0.70,-2.10 -0.44,-2.16 -0.18,-2.21 0.08,-2.20 0.35,-2.19 0.61,-2.11 0.86,-2.04 1.10,-1.91 1.33,-1.77 1.33,-1.77 L 1.33,-1.77 Z"></path></g><g transform="translate(11 430) rotate(0 46.5 -34)" stroke="none"><path fill="#1e1e1e" d="M -0.76,-2.29 Q -0.76,-2.29 1.68,-3.56 4.13,-4.84 5.98,-5.25 7.82,-5.67 10.51,-5.86 13.19,-6.06 15.39,-5.84 17.59,-5.61 19.03,-5.15 20.47,-4.69 20.10,-3.66 19.73,-2.63 18.74,-3.36 17.75,-4.09 16.75,-5.55 15.74,-7.02 14.57,-8.43 13.39,-9.84 11.54,-11.73 9.69,-13.62 8.53,-14.80 7.37,-15.97 5.78,-18.48 4.19,-21.00 3.06,-22.78 1.92,-24.56 0.76,-26.93 -0.39,-29.30 -1.18,-31.20 -1.96,-33.10 -2.37,-35.36 -2.78,-37.63 -3.18,-39.23 -3.58,-40.82 -3.21,-43.88 -2.84,-46.93 -2.32,-48.53 -1.80,-50.12 -0.63,-52.38 0.53,-54.64 3.32,-57.35 6.10,-60.06 8.22,-61.49 10.34,-62.92 13.68,-64.45 17.03,-65.98 19.11,-67.09 21.20,-68.21 23.83,-69.11 26.45,-70.01 30.28,-70.69 34.12,-71.37 37.25,-71.64 40.39,-71.92 44.78,-70.84 49.18,-69.75 52.12,-68.68 55.06,-67.61 58.68,-64.94 62.30,-62.26 64.60,-60.30 66.90,-58.34 68.67,-56.08 70.45,-53.82 71.66,-49.24 72.87,-44.66 73.30,-41.34 73.72,-38.03 73.32,-33.73 72.92,-29.44 71.84,-25.23 70.76,-21.01 69.72,-17.79 68.68,-14.57 67.04,-10.79 65.40,-7.02 64.06,-4.72 62.72,-2.42 61.66,-2.96 60.59,-3.49 61.67,-4.03 62.75,-4.56 64.54,-4.57 66.33,-4.58 69.97,-4.60 73.61,-4.63 77.32,-4.34 81.02,-4.05 84.34,-3.63 87.67,-3.22 90.01,-1.74 92.36,-0.26 92.55,-0.16 92.75,-0.07 92.90,0.07 93.05,0.21 93.15,0.40 93.24,0.59 93.28,0.80 93.31,1.01 93.27,1.22 93.23,1.43 93.13,1.62 93.03,1.80 92.87,1.95 92.72,2.09 92.52,2.18 92.33,2.26 92.12,2.29 91.91,2.31 91.70,2.26 91.49,2.21 91.31,2.10 91.13,1.99 91.00,1.82 90.86,1.66 90.79,1.46 90.71,1.26 90.70,1.05 90.69,0.84 90.75,0.63 90.81,0.43 90.93,0.25 91.05,0.08 91.22,-0.04 91.39,-0.16 91.60,-0.23 91.80,-0.29 92.01,-0.29 92.22,-0.29 92.42,-0.22 92.62,-0.15 92.79,-0.02 92.96,0.10 93.08,0.28 93.19,0.46 93.25,0.66 93.30,0.87 93.29,1.08 93.27,1.29 93.19,1.49 93.11,1.69 92.97,1.85 92.83,2.01 92.65,2.11 92.47,2.22 92.26,2.26 92.05,2.31 91.84,2.28 91.63,2.26 91.63,2.26 91.63,2.26 89.19,3.13 86.75,4.01 83.59,3.60 80.44,3.19 77.02,2.90 73.60,2.62 69.95,2.59 66.30,2.56 64.46,2.54 62.61,2.51 60.62,2.38 58.62,2.26 57.22,1.12 55.82,-0.01 56.39,-2.92 56.95,-5.83 58.11,-7.76 59.26,-9.70 60.79,-13.17 62.31,-16.65 63.30,-19.68 64.29,-22.70 65.28,-26.42 66.27,-30.14 66.68,-33.69 67.09,-37.23 66.73,-40.19 66.36,-43.14 65.71,-46.55 65.05,-49.96 63.79,-51.62 62.53,-53.27 60.38,-55.11 58.24,-56.95 55.47,-59.17 52.69,-61.38 50.07,-62.34 47.44,-63.30 44.14,-64.30 40.84,-65.29 38.04,-65.04 35.25,-64.79 31.90,-64.23 28.54,-63.66 26.44,-62.99 24.33,-62.32 22.05,-61.10 19.77,-59.88 16.88,-58.61 14.00,-57.35 12.31,-56.26 10.62,-55.17 8.48,-53.30 6.33,-51.44 5.39,-49.70 4.45,-47.95 4.06,-46.90 3.67,-45.85 3.25,-44.03 2.82,-42.21 3.27,-40.46 3.71,-38.70 3.93,-37.13 4.14,-35.57 4.84,-33.87 5.54,-32.17 6.51,-30.13 7.47,-28.09 8.64,-26.26 9.81,-24.43 10.93,-22.50 12.05,-20.57 13.21,-19.41 14.37,-18.25 15.78,-16.83 17.19,-15.40 18.40,-14.05 19.62,-12.70 20.39,-11.72 21.16,-10.74 22.13,-9.33 23.09,-7.93 24.18,-6.39 25.26,-4.86 25.60,-3.52 25.93,-2.19 25.50,-0.83 25.06,0.52 23.91,1.18 22.75,1.85 21.47,1.92 20.19,2.00 18.49,1.48 16.79,0.95 15.19,0.74 13.59,0.52 11.41,0.64 9.22,0.75 7.71,1.07 6.21,1.39 3.48,1.84 0.76,2.29 0.47,2.35 0.19,2.41 -0.09,2.39 -0.38,2.38 -0.66,2.30 -0.94,2.22 -1.20,2.07 -1.45,1.93 -1.66,1.73 -1.87,1.52 -2.03,1.28 -2.18,1.03 -2.27,0.75 -2.37,0.48 -2.39,0.19 -2.41,-0.09 -2.37,-0.38 -2.32,-0.67 -2.20,-0.94 -2.09,-1.21 -1.91,-1.44 -1.74,-1.67 -1.51,-1.86 -1.29,-2.04 -1.02,-2.17 -0.76,-2.29 -0.76,-2.29 L -0.76,-2.29 Z"></path></g><g transform="translate(1079 449) rotate(0 72.5 -51)" stroke="none"><path fill="#e03131" d="M 0,-2.62 Q 0,-2.62 1.15,-2.86 2.3,-3.09 5.37,-3.21 8.45,-3.33 10.62,-3.33 12.79,-3.34 15.72,-3.36 18.66,-3.39 24.79,-3.40 30.93,-3.41 34.25,-3.69 37.58,-3.98 39.67,-4.10 41.76,-4.23 43.55,-4.28 45.33,-4.34 46.96,-4.36 48.58,-4.39 50.26,-4.38 51.93,-4.37 51.95,-4.36 51.96,-4.35 52.36,-4.30 52.77,-4.25 53.14,-4.11 53.52,-3.97 53.86,-3.74 54.19,-3.52 54.46,-3.21 54.73,-2.91 54.92,-2.56 55.11,-2.20 55.21,-1.81 55.31,-1.42 55.31,-1.01 55.31,-0.61 55.22,-0.21 55.12,0.17 54.94,0.53 54.75,0.89 54.49,1.19 54.22,1.50 53.89,1.73 53.56,1.96 53.18,2.10 52.80,2.25 52.40,2.30 52.00,2.35 50.51,1.56 49.02,0.77 48.16,-0.08 47.30,-0.94 46.30,-1.95 45.29,-2.97 44.76,-3.95 44.22,-4.93 43.14,-6.01 42.07,-7.10 40.60,-9.20 39.14,-11.29 37.21,-13.73 35.29,-16.17 32.70,-19.57 30.11,-22.96 27.57,-26.44 25.02,-29.91 22.70,-33.81 20.38,-37.72 18.74,-41.86 17.10,-46.01 16.10,-49.87 15.10,-53.74 14.67,-56.66 14.24,-59.58 14.95,-63.32 15.66,-67.05 17.77,-72.14 19.88,-77.23 22.02,-80.67 24.16,-84.10 26.92,-87.15 29.69,-90.19 34.23,-93.35 38.77,-96.51 42.41,-98.68 46.05,-100.84 51.38,-102.47 56.71,-104.11 60.75,-104.78 64.79,-105.45 68.73,-105.44 72.67,-105.44 78.12,-103.92 83.56,-102.40 87.43,-100.51 91.30,-98.62 95.55,-94.38 99.81,-90.14 102.24,-86.14 104.67,-82.15 106.63,-75.91 108.59,-69.67 109.40,-64.64 110.22,-59.61 110.28,-54.73 110.33,-49.85 109.18,-42.71 108.03,-35.57 106.35,-29.60 104.68,-23.62 102.48,-18.38 100.27,-13.14 98.75,-10.04 97.23,-6.94 95.99,-4.73 94.74,-2.53 94.49,-3.57 94.23,-4.61 99.08,-5.29 103.94,-5.97 108.45,-6.42 112.97,-6.88 117.76,-7.36 122.55,-7.85 126.26,-8.34 129.97,-8.83 132.82,-9.05 135.67,-9.27 138.01,-9.07 140.34,-8.87 141.73,-7.59 143.12,-6.30 143.28,-6.27 143.43,-6.23 143.57,-6.16 143.72,-6.09 143.84,-5.99 143.96,-5.89 144.05,-5.76 144.14,-5.63 144.20,-5.49 144.26,-5.34 144.29,-5.18 144.31,-5.03 144.29,-4.87 144.28,-4.71 144.22,-4.56 144.17,-4.41 144.08,-4.28 144.00,-4.15 143.88,-4.04 143.77,-3.93 143.63,-3.85 143.49,-3.78 143.34,-3.74 143.18,-3.70 143.03,-3.69 142.87,-3.69 142.79,-3.70 142.70,-3.71 142.51,-3.79 142.31,-3.87 142.15,-4.01 141.99,-4.15 141.88,-4.33 141.77,-4.52 141.73,-4.73 141.68,-4.93 141.71,-5.14 141.73,-5.36 141.82,-5.55 141.91,-5.74 142.06,-5.89 142.21,-6.05 142.40,-6.14 142.58,-6.24 142.79,-6.28 143.00,-6.31 143.21,-6.27 143.42,-6.24 143.61,-6.14 143.80,-6.03 143.94,-5.88 144.09,-5.72 144.18,-5.53 144.26,-5.34 144.28,-5.13 144.31,-4.91 144.26,-4.71 144.21,-4.50 144.10,-4.32 143.99,-4.14 143.83,-4.00 143.66,-3.86 143.47,-3.79 143.27,-3.71 143.06,-3.70 142.84,-3.69 142.64,-3.75 142.44,-3.81 142.26,-3.93 142.09,-4.05 141.96,-4.22 141.83,-4.39 141.76,-4.59 141.70,-4.79 141.70,-5.00 141.70,-5.22 141.77,-5.42 141.84,-5.62 141.97,-5.79 142.10,-5.95 142.28,-6.07 142.45,-6.19 142.66,-6.25 142.86,-6.30 142.99,-6.30 143.12,-6.30 143.28,-6.27 143.43,-6.23 143.57,-6.16 143.72,-6.09 143.84,-5.99 143.96,-5.89 144.05,-5.76 144.14,-5.63 144.20,-5.49 144.26,-5.34 144.29,-5.18 144.31,-5.03 144.29,-4.87 144.28,-4.71 144.22,-4.56 144.17,-4.41 144.08,-4.28 144.00,-4.15 143.88,-4.04 143.77,-3.93 143.63,-3.85 143.49,-3.78 143.34,-3.74 143.18,-3.70 143.03,-3.69 142.87,-3.69 141.25,-2.70 139.64,-1.71 137.92,-1.90 136.19,-2.10 133.55,-1.90 130.90,-1.71 127.08,-1.22 123.26,-0.72 118.47,-0.25 113.67,0.20 109.15,0.65 104.63,1.09 100.83,1.46 97.03,1.83 94.67,1.98 92.31,2.12 91.22,1.66 90.14,1.21 89.37,0.04 88.60,-1.11 88.70,-3.45 88.81,-5.79 89.97,-7.87 91.14,-9.94 92.58,-12.86 94.02,-15.78 96.08,-20.63 98.13,-25.48 99.73,-31.08 101.32,-36.68 102.43,-43.25 103.55,-49.82 103.53,-54.19 103.51,-58.56 102.80,-63.12 102.09,-67.69 100.46,-73.20 98.83,-78.71 96.87,-82.07 94.91,-85.42 91.54,-89.01 88.16,-92.59 84.91,-94.23 81.65,-95.86 77.10,-97.24 72.56,-98.62 69.22,-98.66 65.88,-98.70 62.26,-98.12 58.64,-97.55 54.07,-96.24 49.49,-94.94 46.06,-92.91 42.63,-90.87 38.65,-88.21 34.68,-85.54 32.29,-83.00 29.90,-80.46 28.02,-77.52 26.14,-74.58 24.21,-70.08 22.28,-65.58 21.60,-62.99 20.92,-60.40 21.29,-57.90 21.65,-55.40 22.52,-51.93 23.39,-48.45 24.79,-44.79 26.19,-41.14 28.32,-37.51 30.45,-33.89 32.96,-30.47 35.47,-27.05 38.03,-23.69 40.58,-20.34 42.63,-17.72 44.69,-15.10 45.82,-13.41 46.94,-11.72 48.09,-10.50 49.23,-9.28 50.16,-7.97 51.09,-6.66 51.52,-5.50 51.96,-4.35 52.36,-4.30 52.76,-4.25 53.14,-4.11 53.52,-3.97 53.86,-3.74 54.19,-3.52 54.46,-3.21 54.73,-2.91 54.92,-2.56 55.11,-2.20 55.21,-1.81 55.31,-1.42 55.31,-1.01 55.31,-0.61 55.22,-0.21 55.12,0.17 54.94,0.53 54.75,0.89 54.49,1.19 54.22,1.50 53.89,1.73 53.56,1.96 53.18,2.10 52.80,2.25 52.40,2.30 52.00,2.35 52.00,2.37 51.99,2.38 50.33,2.42 48.68,2.45 47.11,2.47 45.53,2.49 43.85,2.54 42.17,2.59 40.16,2.71 38.15,2.83 34.54,3.12 30.93,3.41 24.79,3.40 18.66,3.39 15.72,3.36 12.79,3.34 10.62,3.33 8.45,3.33 5.37,3.21 2.3,3.09 1.15,2.86 0,2.62 -0.31,2.58 -0.62,2.54 -0.92,2.43 -1.21,2.32 -1.47,2.14 -1.73,1.96 -1.94,1.72 -2.15,1.48 -2.30,1.20 -2.45,0.92 -2.52,0.62 -2.60,0.31 -2.60,-0.00 -2.60,-0.31 -2.52,-0.62 -2.45,-0.92 -2.30,-1.20 -2.15,-1.48 -1.94,-1.72 -1.73,-1.96 -1.47,-2.14 -1.21,-2.32 -0.92,-2.43 -0.62,-2.54 -0.31,-2.58 0.00,-2.62 0.00,-2.62 L 0,-2.62 Z"></path></g><g transform="translate(1095 326) rotate(0 45 -11)" stroke="none"><path fill="#e03131" d="M -2.23,-0.44 Q -2.23,-0.44 -2.07,-3.40 -1.91,-6.36 -1.07,-8.96 -0.24,-11.55 0.77,-13.45 1.79,-15.35 3.15,-16.75 4.51,-18.15 7.68,-18.96 10.84,-19.77 12.58,-19.96 14.31,-20.15 15.81,-19.91 17.30,-19.66 19.37,-18.95 21.44,-18.23 24.45,-16.73 27.46,-15.23 31.04,-13.15 34.63,-11.07 38.12,-9.08 41.61,-7.08 44.51,-6.08 47.41,-5.07 51.08,-4.96 54.76,-4.85 61.07,-7.49 67.37,-10.13 72.16,-12.85 76.95,-15.57 80.64,-17.31 84.34,-19.06 86.75,-21.03 89.16,-23.01 89.35,-23.12 89.53,-23.22 89.74,-23.27 89.95,-23.31 90.16,-23.28 90.37,-23.25 90.56,-23.16 90.75,-23.07 90.90,-22.92 91.05,-22.77 91.15,-22.58 91.25,-22.39 91.28,-22.18 91.31,-21.97 91.27,-21.76 91.23,-21.55 91.13,-21.37 91.03,-21.18 90.87,-21.04 90.71,-20.89 90.52,-20.81 90.32,-20.72 90.11,-20.70 89.90,-20.69 89.69,-20.73 89.49,-20.78 89.31,-20.90 89.13,-21.01 88.99,-21.17 88.86,-21.34 88.78,-21.54 88.71,-21.74 88.70,-21.95 88.69,-22.16 88.75,-22.36 88.81,-22.57 88.94,-22.74 89.06,-22.92 89.23,-23.04 89.40,-23.17 89.60,-23.23 89.81,-23.29 90.02,-23.29 90.23,-23.29 90.43,-23.22 90.63,-23.14 90.80,-23.01 90.96,-22.88 91.08,-22.70 91.20,-22.52 91.25,-22.32 91.30,-22.11 91.29,-21.90 91.27,-21.69 91.19,-21.49 91.11,-21.30 90.97,-21.14 90.83,-20.98 90.83,-20.98 90.83,-20.98 88.41,-19.00 86.00,-17.03 83.16,-13.42 80.33,-9.82 75.16,-6.71 69.99,-3.61 62.34,-0.67 54.69,2.26 49.89,1.97 45.09,1.68 41.57,0.40 38.05,-0.88 34.55,-2.92 31.05,-4.97 27.65,-6.98 24.26,-8.99 21.67,-10.36 19.09,-11.72 17.01,-12.53 14.93,-13.33 13.46,-13.17 11.98,-13.01 9.73,-12.49 7.47,-11.96 6.64,-10.70 5.81,-9.43 5.01,-7.28 4.21,-5.13 3.22,-2.34 2.23,0.44 2.15,0.70 2.06,0.96 1.91,1.20 1.77,1.43 1.57,1.62 1.37,1.81 1.13,1.95 0.90,2.09 0.63,2.17 0.37,2.24 0.10,2.26 -0.17,2.27 -0.44,2.22 -0.71,2.16 -0.96,2.04 -1.21,1.93 -1.42,1.75 -1.63,1.58 -1.80,1.36 -1.97,1.14 -2.07,0.89 -2.18,0.64 -2.23,0.37 -2.27,0.10 -2.25,-0.17 -2.23,-0.44 -2.23,-0.44 L -2.23,-0.44 Z"></path></g><g transform="translate(514 140) rotate(0 -0.5 25)" stroke="none"><path fill="#2f9e44" d="M 1.18,-1.57 Q 1.18,-1.57 3.88,-0.39 6.59,0.79 10.59,4.50 14.59,8.21 17.69,11.20 20.78,14.19 22.96,16.32 25.14,18.45 26.93,20.23 28.72,22.00 32.07,25.34 35.43,28.68 38.29,31.53 41.15,34.39 43.58,37.11 46.01,39.83 47.93,42.16 49.84,44.49 51.64,46.16 53.44,47.83 54.69,49.33 55.94,50.83 57.06,53.50 58.18,56.16 57.64,57.32 57.10,58.48 55.55,59.37 54.00,60.26 51.32,61.14 48.65,62.02 44.18,62.71 39.71,63.40 34.89,63.67 30.08,63.95 19.68,64.07 9.29,64.18 1.73,64.23 -5.82,64.28 -14.44,64.59 -23.06,64.90 -28.69,65.32 -34.33,65.73 -39.30,66.19 -44.28,66.65 -47.32,66.86 -50.35,67.06 -52.27,67.15 -54.19,67.24 -56.29,65.92 -58.40,64.60 -58.88,63.10 -59.36,61.59 -58.64,58.89 -57.93,56.20 -56.54,53.39 -55.15,50.58 -53.30,47.77 -51.45,44.96 -48.95,41.49 -46.45,38.01 -43.97,34.55 -41.49,31.09 -39.25,28.15 -37.02,25.20 -34.10,21.13 -31.18,17.05 -29.36,14.45 -27.54,11.86 -25.52,9.47 -23.49,7.08 -21.60,4.49 -19.71,1.91 -18.70,0.08 -17.69,-1.74 -16.28,-3.86 -14.87,-5.99 -13.51,-7.39 -12.15,-8.79 -11.09,-9.85 -10.03,-10.91 -8.66,-12.26 -7.30,-13.62 -5.79,-13.95 -4.28,-14.27 -4.20,-14.47 -4.12,-14.67 -3.99,-14.83 -3.85,-14.99 -3.67,-15.10 -3.49,-15.21 -3.28,-15.26 -3.07,-15.31 -2.86,-15.28 -2.65,-15.26 -2.46,-15.17 -2.26,-15.09 -2.11,-14.94 -1.95,-14.79 -1.85,-14.61 -1.75,-14.42 -1.72,-14.21 -1.68,-14.00 -1.72,-13.79 -1.75,-13.58 -1.85,-13.39 -1.95,-13.20 -2.10,-13.06 -2.25,-12.91 -2.45,-12.82 -2.64,-12.73 -2.85,-12.71 -3.06,-12.68 -3.27,-12.73 -3.48,-12.77 -3.66,-12.88 -3.84,-12.99 -3.98,-13.15 -4.12,-13.31 -4.20,-13.51 -4.28,-13.71 -4.29,-13.92 -4.30,-14.13 -4.25,-14.34 -4.19,-14.54 -4.07,-14.72 -3.95,-14.89 -3.78,-15.02 -3.62,-15.15 -3.41,-15.22 -3.21,-15.29 -3.00,-15.29 -2.79,-15.29 -2.59,-15.22 -2.38,-15.16 -2.22,-15.03 -2.05,-14.90 -1.93,-14.73 -1.81,-14.55 -1.75,-14.35 -1.69,-14.14 -1.70,-13.93 -1.71,-13.72 -1.71,-13.72 -1.71,-13.72 -2.09,-11.16 -2.47,-8.59 -3.78,-7.27 -5.10,-5.95 -6.16,-4.90 -7.23,-3.84 -8.16,-2.96 -9.09,-2.08 -10.36,-0.21 -11.62,1.66 -12.86,3.84 -14.10,6.02 -16.15,8.81 -18.20,11.59 -20.02,13.72 -21.85,15.85 -23.69,18.47 -25.53,21.10 -28.51,25.24 -31.50,29.39 -33.67,32.26 -35.85,35.14 -38.34,38.61 -40.83,42.07 -43.26,45.43 -45.69,48.79 -47.32,51.23 -48.96,53.67 -50.34,56.45 -51.73,59.22 -53.04,59.86 -54.34,60.51 -52.57,60.42 -50.80,60.34 -47.85,60.15 -44.90,59.96 -39.86,59.49 -34.82,59.02 -29.06,58.60 -23.30,58.18 -14.58,57.87 -5.86,57.57 1.67,57.52 9.21,57.47 19.46,57.37 29.70,57.26 34.21,57.00 38.72,56.75 42.67,56.19 46.61,55.63 49.73,54.94 52.86,54.26 52.82,55.52 52.78,56.77 51.77,55.96 50.76,55.16 49.78,53.95 48.80,52.75 46.71,50.76 44.63,48.77 42.81,46.55 40.98,44.32 38.69,41.74 36.39,39.16 33.53,36.30 30.67,33.44 27.33,30.11 24.00,26.77 22.22,25.01 20.44,23.25 18.28,21.14 16.11,19.02 13.06,16.06 10.01,13.11 6.30,9.61 2.60,6.10 0.71,3.84 -1.18,1.57 -1.35,1.41 -1.52,1.24 -1.65,1.04 -1.77,0.84 -1.85,0.62 -1.92,0.39 -1.94,0.15 -1.96,-0.07 -1.92,-0.31 -1.89,-0.54 -1.79,-0.76 -1.70,-0.98 -1.56,-1.17 -1.42,-1.36 -1.23,-1.51 -1.05,-1.66 -0.83,-1.76 -0.62,-1.86 -0.39,-1.91 -0.16,-1.96 0.07,-1.95 0.31,-1.94 0.54,-1.87 0.77,-1.81 0.97,-1.69 1.18,-1.57 1.18,-1.57 L 1.18,-1.57 Z"></path></g><g transform="translate(507 129) rotate(0 8 8)" stroke="none"><path fill="#2f9e44" d="M 1.46,-1.17 Q 1.46,-1.17 2.97,-0.02 4.48,1.12 5.61,2.63 6.73,4.15 8.54,6.06 10.35,7.98 11.71,9.41 13.07,10.84 14.06,11.60 15.05,12.36 15.81,13.59 16.58,14.82 16.75,14.94 16.92,15.06 17.05,15.24 17.17,15.41 17.23,15.61 17.30,15.81 17.29,16.03 17.29,16.24 17.21,16.44 17.14,16.64 17.01,16.80 16.87,16.97 16.70,17.09 16.52,17.20 16.31,17.25 16.11,17.30 15.89,17.29 15.68,17.27 15.49,17.19 15.29,17.10 15.13,16.96 14.97,16.82 14.87,16.64 14.76,16.45 14.72,16.24 14.68,16.03 14.71,15.82 14.74,15.61 14.83,15.42 14.93,15.23 15.08,15.08 15.23,14.93 15.42,14.84 15.61,14.74 15.82,14.71 16.03,14.68 16.24,14.72 16.44,14.76 16.63,14.87 16.82,14.97 16.96,15.13 17.10,15.28 17.18,15.48 17.27,15.67 17.29,15.89 17.30,16.10 17.25,16.30 17.20,16.51 17.09,16.69 16.97,16.87 16.81,17.00 16.64,17.14 16.45,17.21 16.25,17.28 16.03,17.29 15.82,17.30 15.62,17.23 15.41,17.17 15.41,17.17 15.41,17.17 13.46,17.06 11.51,16.95 10.18,15.91 8.85,14.86 7.45,13.39 6.05,11.91 4.08,9.70 2.11,7.49 1.11,6.05 0.11,4.62 -0.67,2.89 -1.46,1.17 -1.58,0.97 -1.70,0.78 -1.77,0.57 -1.84,0.35 -1.85,0.13 -1.87,-0.09 -1.83,-0.31 -1.79,-0.53 -1.70,-0.74 -1.61,-0.95 -1.47,-1.13 -1.33,-1.31 -1.16,-1.45 -0.98,-1.59 -0.78,-1.68 -0.57,-1.78 -0.35,-1.82 -0.13,-1.87 0.09,-1.85 0.31,-1.84 0.53,-1.78 0.75,-1.71 0.94,-1.60 1.14,-1.48 1.30,-1.32 1.46,-1.17 1.46,-1.17 L 1.46,-1.17 Z"></path></g><g transform="translate(457 126) rotate(0 44 -20.5)" stroke="none"><path fill="#2f9e44" d="M -1.64,-0.14 Q -1.64,-0.14 -1.96,-3.36 -2.28,-6.58 -1.86,-8.67 -1.44,-10.76 -1.29,-11.84 -1.15,-12.91 -0.34,-14.49 0.45,-16.06 1.40,-17.28 2.36,-18.49 3.78,-19.74 5.21,-20.99 6.71,-21.66 8.21,-22.33 9.98,-22.87 11.75,-23.41 15.50,-23.40 19.24,-23.39 21.76,-23.35 24.29,-23.31 27.51,-23.00 30.74,-22.69 34.12,-22.86 37.51,-23.03 40.22,-23.10 42.94,-23.16 45.05,-23.47 47.17,-23.77 51.87,-23.64 56.57,-23.51 59.86,-23.44 63.15,-23.38 66.89,-23.91 70.63,-24.44 73.43,-25.43 76.22,-26.43 78.92,-28.50 81.62,-30.57 82.89,-31.95 84.17,-33.33 84.52,-34.73 84.88,-36.13 84.36,-37.10 83.85,-38.06 83.23,-38.46 82.62,-38.86 82.56,-39.02 82.49,-39.18 82.47,-39.35 82.45,-39.53 82.47,-39.70 82.49,-39.87 82.55,-40.03 82.61,-40.20 82.71,-40.34 82.81,-40.48 82.94,-40.60 83.07,-40.72 83.22,-40.80 83.37,-40.88 83.54,-40.92 83.71,-40.96 83.88,-40.96 84.06,-40.97 84.23,-40.93 84.39,-40.88 84.55,-40.80 84.70,-40.72 84.83,-40.61 84.96,-40.50 85.06,-40.35 85.16,-40.21 85.70,-37.81 86.24,-35.42 86.27,-35.21 86.31,-35.00 86.27,-34.79 86.24,-34.58 86.14,-34.39 86.04,-34.20 85.89,-34.06 85.73,-33.91 85.54,-33.82 85.35,-33.73 85.14,-33.71 84.93,-33.68 84.72,-33.73 84.51,-33.77 84.33,-33.88 84.15,-33.99 84.01,-34.15 83.87,-34.32 83.79,-34.51 83.71,-34.71 83.70,-34.92 83.69,-35.13 83.75,-35.34 83.80,-35.54 83.92,-35.72 84.04,-35.90 84.21,-36.03 84.38,-36.15 84.58,-36.22 84.78,-36.29 84.99,-36.29 85.21,-36.29 85.41,-36.22 85.61,-36.16 85.78,-36.03 85.95,-35.90 86.07,-35.72 86.19,-35.55 86.24,-35.34 86.30,-35.14 86.29,-34.93 86.28,-34.71 86.20,-34.52 86.12,-34.32 85.98,-34.16 85.85,-34.00 85.67,-33.89 85.48,-33.78 85.28,-33.73 85.07,-33.68 84.86,-33.71 84.65,-33.73 84.45,-33.82 84.26,-33.91 84.11,-34.05 83.95,-34.20 83.85,-34.39 83.75,-34.57 83.75,-34.57 83.75,-34.57 83.19,-36.72 82.62,-38.86 82.56,-39.02 82.49,-39.18 82.47,-39.35 82.45,-39.53 82.47,-39.70 82.49,-39.87 82.55,-40.03 82.61,-40.20 82.71,-40.34 82.81,-40.48 82.94,-40.60 83.07,-40.72 83.22,-40.80 83.37,-40.88 83.54,-40.92 83.71,-40.96 83.88,-40.96 84.06,-40.97 84.23,-40.93 84.39,-40.88 84.55,-40.80 84.70,-40.72 84.83,-40.61 84.96,-40.50 85.06,-40.35 85.16,-40.21 85.76,-39.98 86.36,-39.76 87.34,-37.91 88.33,-36.06 88.16,-33.53 87.98,-31.00 86.66,-28.55 85.33,-26.10 81.91,-23.21 78.49,-20.32 75.02,-19.13 71.54,-17.93 67.29,-17.37 63.03,-16.81 59.69,-16.87 56.34,-16.94 52.19,-17.11 48.05,-17.28 45.58,-16.96 43.11,-16.63 40.45,-16.56 37.80,-16.49 33.95,-16.34 30.11,-16.19 27.15,-16.49 24.19,-16.79 21.63,-16.83 19.07,-16.86 16.26,-17.03 13.46,-17.19 11.31,-16.61 9.17,-16.02 8.14,-15.26 7.12,-14.49 5.87,-13.15 4.63,-11.82 4.43,-10.68 4.22,-9.55 3.83,-7.81 3.43,-6.06 2.54,-2.95 1.64,0.14 1.60,0.34 1.56,0.53 1.47,0.71 1.38,0.89 1.25,1.04 1.13,1.20 0.97,1.31 0.81,1.43 0.62,1.51 0.44,1.58 0.24,1.61 0.04,1.64 -0.14,1.63 -0.34,1.61 -0.53,1.54 -0.72,1.48 -0.88,1.37 -1.05,1.26 -1.19,1.12 -1.32,0.97 -1.42,0.80 -1.52,0.63 -1.57,0.43 -1.63,0.24 -1.63,0.04 -1.64,-0.14 -1.64,-0.14 L -1.64,-0.14 Z"></path></g><g transform="translate(634 204) rotate(0 -46.5 41.5)" stroke="none"><path fill="#2f9e44" d="M 1.11,0.92 Q 1.11,0.92 -0.09,2.84 -1.30,4.75 -2.79,6.41 -4.27,8.06 -7.18,11.11 -10.09,14.15 -16.84,20.09 -23.59,26.03 -30.77,31.99 -37.96,37.95 -45.00,44.19 -52.05,50.43 -58.51,55.98 -64.98,61.53 -70.00,66.15 -75.01,70.77 -79.54,74.69 -84.07,78.61 -87.09,79.79 -90.12,80.97 -90.25,81.06 -90.38,81.15 -90.52,81.21 -90.67,81.27 -90.83,81.29 -90.99,81.31 -91.14,81.29 -91.30,81.27 -91.45,81.22 -91.60,81.16 -91.73,81.07 -91.86,80.98 -91.97,80.87 -92.07,80.75 -92.15,80.61 -92.22,80.47 -92.26,80.32 -92.30,80.16 -92.30,80.00 -92.30,79.85 -92.26,79.69 -92.23,79.54 -92.15,79.40 -92.08,79.26 -91.98,79.14 -91.87,79.02 -92.05,79.27 -92.22,79.52 -92.11,79.34 -92.01,79.16 -91.85,79.02 -91.69,78.88 -91.49,78.80 -91.29,78.72 -91.08,78.70 -90.87,78.69 -90.66,78.74 -90.46,78.80 -90.28,78.91 -90.10,79.03 -89.97,79.20 -89.84,79.37 -89.77,79.57 -89.70,79.77 -89.70,79.98 -89.70,80.19 -89.76,80.39 -89.83,80.60 -89.95,80.77 -90.08,80.94 -90.26,81.06 -90.43,81.18 -90.63,81.24 -90.84,81.30 -91.05,81.29 -91.26,81.28 -91.46,81.20 -91.66,81.13 -91.82,80.99 -91.99,80.86 -92.10,80.68 -92.21,80.49 -92.26,80.29 -92.31,80.08 -92.28,79.87 -92.26,79.66 -92.18,79.46 -92.09,79.27 -91.95,79.11 -91.80,78.96 -91.61,78.86 -91.43,78.76 -91.22,78.72 -91.01,78.68 -90.80,78.71 -90.59,78.75 -90.40,78.84 -90.21,78.94 -90.06,79.09 -89.92,79.25 -89.82,79.44 -89.73,79.63 -89.71,79.84 -89.68,80.05 -89.90,80.51 -90.12,80.97 -90.25,81.06 -90.38,81.15 -90.52,81.21 -90.67,81.27 -90.83,81.29 -90.99,81.31 -91.14,81.29 -91.30,81.27 -91.45,81.22 -91.60,81.16 -91.73,81.07 -91.86,80.98 -91.96,80.87 -92.07,80.75 -92.15,80.61 -92.22,80.47 -92.26,80.32 -92.30,80.16 -92.30,80.00 -92.30,79.85 -92.26,79.69 -92.23,79.54 -92.15,79.40 -92.08,79.26 -91.98,79.14 -91.87,79.02 -89.33,77.30 -86.78,75.59 -82.43,71.52 -78.07,67.46 -73.00,62.78 -67.93,58.09 -61.49,52.57 -55.04,47.04 -47.95,40.75 -40.85,34.46 -33.71,28.54 -26.57,22.62 -19.91,16.83 -13.25,11.04 -10.31,8.12 -7.36,5.21 -5.90,3.67 -4.44,2.14 -2.77,0.60 -1.11,-0.92 -0.98,-1.04 -0.85,-1.16 -0.70,-1.25 -0.55,-1.33 -0.38,-1.38 -0.21,-1.43 -0.04,-1.43 0.13,-1.44 0.30,-1.40 0.47,-1.36 0.62,-1.29 0.78,-1.21 0.92,-1.10 1.05,-0.99 1.15,-0.85 1.26,-0.71 1.32,-0.55 1.39,-0.38 1.42,-0.21 1.44,-0.04 1.43,0.13 1.41,0.30 1.35,0.46 1.30,0.63 1.20,0.78 1.11,0.92 1.11,0.92 L 1.11,0.92 Z"></path></g><g transform="translate(641 121) rotate(0 -73 73.5)" stroke="none"><path fill="#2f9e44" d="M 1.74,1.09 Q 1.74,1.09 0.34,3.41 -1.05,5.73 -2.49,8.15 -3.93,10.58 -7.15,15.15 -10.37,19.72 -18.11,28.63 -25.85,37.53 -34.31,46.76 -42.76,56.00 -51.55,65.11 -60.33,74.21 -68.65,82.95 -76.97,91.70 -85.15,99.48 -93.33,107.26 -100.86,114.01 -108.38,120.75 -113.31,125.05 -118.23,129.36 -123.31,132.95 -128.38,136.54 -131.33,138.84 -134.28,141.15 -137.17,142.87 -140.06,144.59 -142.63,146.32 -145.20,148.04 -145.39,148.14 -145.58,148.24 -145.79,148.27 -146.00,148.31 -146.21,148.27 -146.42,148.24 -146.61,148.14 -146.79,148.04 -146.94,147.88 -147.08,147.73 -147.17,147.53 -147.26,147.34 -147.28,147.13 -147.31,146.92 -147.26,146.71 -147.21,146.50 -147.10,146.32 -146.99,146.14 -146.83,146.00 -146.67,145.87 -146.47,145.79 -146.27,145.71 -146.06,145.70 -145.85,145.69 -145.64,145.75 -145.44,145.81 -145.26,145.93 -145.09,146.04 -144.96,146.21 -144.83,146.38 -144.77,146.59 -144.70,146.79 -144.70,147.00 -144.70,147.21 -144.77,147.41 -144.84,147.61 -144.97,147.78 -145.10,147.95 -145.27,148.07 -145.45,148.19 -145.65,148.25 -145.86,148.30 -146.07,148.29 -146.28,148.28 -146.48,148.20 -146.68,148.12 -146.84,147.98 -147.00,147.84 -147.11,147.66 -147.22,147.48 -147.26,147.27 -147.31,147.06 -147.28,146.85 -147.26,146.64 -147.17,146.45 -147.08,146.25 -146.93,146.10 -146.79,145.95 -146.79,145.95 -146.79,145.95 -144.37,143.91 -141.95,141.87 -139.44,139.85 -136.93,137.83 -133.94,135.39 -130.95,132.95 -126.10,129.43 -121.25,125.91 -116.37,121.61 -111.48,117.31 -104.04,110.57 -96.60,103.83 -88.50,96.13 -80.41,88.43 -72.08,79.67 -63.75,70.91 -55.01,61.85 -46.26,52.78 -37.83,43.61 -29.40,34.43 -21.76,25.73 -14.12,17.03 -10.91,12.65 -7.70,8.27 -6.20,5.87 -4.69,3.46 -3.22,1.18 -1.74,-1.09 -1.58,-1.28 -1.43,-1.47 -1.23,-1.62 -1.03,-1.77 -0.81,-1.87 -0.58,-1.97 -0.33,-2.01 -0.09,-2.05 0.15,-2.03 0.40,-2.01 0.63,-1.94 0.87,-1.86 1.08,-1.73 1.29,-1.60 1.46,-1.42 1.63,-1.24 1.76,-1.03 1.88,-0.81 1.95,-0.57 2.02,-0.34 2.03,-0.09 2.05,0.15 2.00,0.39 1.95,0.64 1.84,0.86 1.74,1.09 1.74,1.09 L 1.74,1.09 Z"></path></g><g transform="translate(596 83) rotate(0 -68 75)" stroke="none"><path fill="#2f9e44" d="M 1.68,0.98 Q 1.68,0.98 -0.28,4.45 -2.26,7.92 -5.68,13.21 -9.10,18.50 -13.70,25.34 -18.30,32.19 -29.81,46.10 -41.33,60.00 -54.96,73.92 -68.58,87.84 -81.94,100.82 -95.29,113.81 -106.79,124.44 -118.29,135.07 -126.69,143.01 -135.09,150.95 -135.27,151.07 -135.44,151.19 -135.65,151.24 -135.85,151.30 -136.07,151.29 -136.28,151.28 -136.48,151.20 -136.67,151.12 -136.83,150.98 -137.00,150.84 -137.11,150.66 -137.22,150.48 -137.26,150.27 -137.31,150.06 -137.28,149.85 -137.26,149.64 -137.17,149.45 -137.08,149.26 -136.93,149.10 -136.79,148.95 -136.60,148.85 -136.41,148.75 -136.20,148.72 -135.99,148.68 -135.78,148.72 -135.57,148.75 -135.39,148.85 -135.20,148.95 -135.05,149.10 -134.91,149.26 -134.82,149.45 -134.73,149.65 -134.71,149.86 -134.68,150.07 -134.73,150.28 -134.78,150.48 -134.89,150.66 -134.99,150.85 -135.16,150.98 -135.32,151.12 -135.52,151.20 -135.71,151.28 -135.93,151.29 -136.14,151.30 -136.34,151.24 -136.55,151.19 -136.72,151.07 -136.90,150.95 -137.03,150.78 -137.16,150.61 -137.22,150.41 -137.29,150.21 -137.29,149.99 -137.29,149.78 -137.22,149.58 -137.15,149.38 -137.03,149.21 -136.90,149.04 -136.90,149.04 -136.90,149.04 -128.50,141.10 -120.10,133.16 -108.87,122.30 -97.64,111.44 -84.58,98.21 -71.52,84.99 -58.16,71.06 -44.80,57.13 -33.41,43.40 -22.02,29.66 -17.37,22.88 -12.71,16.11 -9.25,10.99 -5.78,5.87 -3.73,2.44 -1.68,-0.98 -1.54,-1.16 -1.39,-1.35 -1.21,-1.50 -1.03,-1.65 -0.82,-1.75 -0.60,-1.85 -0.37,-1.89 -0.14,-1.94 0.08,-1.93 0.32,-1.92 0.54,-1.85 0.77,-1.78 0.97,-1.67 1.17,-1.55 1.34,-1.38 1.51,-1.22 1.63,-1.02 1.76,-0.82 1.83,-0.60 1.91,-0.38 1.92,-0.14 1.94,0.08 1.90,0.31 1.86,0.55 1.77,0.76 1.68,0.98 1.68,0.98 L 1.68,0.98 Z"></path></g><g transform="translate(531 69) rotate(0 -49.5 62)" stroke="none"><path fill="#2f9e44" d="M 1.36,1.08 Q 1.36,1.08 -0.82,4.05 -3.00,7.02 -6.20,11.67 -9.40,16.32 -15.68,24.68 -21.95,33.04 -26.33,39.14 -30.70,45.24 -34.59,50.45 -38.48,55.65 -46.22,65.07 -53.96,74.48 -62.48,84.46 -71.00,94.45 -78.19,102.34 -85.38,110.23 -89.05,114.38 -92.72,118.54 -95.35,121.69 -97.99,124.84 -98.15,124.98 -98.31,125.12 -98.51,125.20 -98.70,125.28 -98.92,125.29 -99.13,125.30 -99.33,125.25 -99.54,125.19 -99.71,125.07 -99.89,124.96 -100.02,124.79 -100.15,124.62 -100.22,124.42 -100.29,124.22 -100.29,124.00 -100.29,123.79 -100.23,123.59 -100.16,123.39 -100.03,123.22 -99.91,123.05 -99.73,122.93 -99.56,122.81 -99.35,122.75 -99.15,122.69 -98.93,122.70 -98.72,122.71 -98.52,122.79 -98.33,122.86 -98.16,123.00 -98.00,123.14 -97.89,123.32 -97.78,123.50 -97.73,123.71 -97.68,123.91 -97.71,124.13 -97.73,124.34 -97.81,124.53 -97.90,124.72 -98.05,124.88 -98.19,125.03 -98.38,125.14 -98.57,125.24 -98.78,125.27 -98.99,125.31 -99.20,125.28 -99.41,125.24 -99.59,125.14 -99.78,125.05 -99.93,124.89 -100.08,124.74 -100.17,124.55 -100.26,124.36 -100.28,124.14 -100.31,123.93 -100.26,123.73 -100.22,123.52 -100.11,123.33 -100.00,123.15 -100.00,123.15 -100.00,123.15 -97.37,120.00 -94.73,116.85 -91.27,112.48 -87.80,108.10 -80.92,100.00 -74.03,91.89 -65.67,81.81 -57.31,71.74 -49.67,62.37 -42.03,53.00 -38.17,47.83 -34.30,42.66 -29.88,36.52 -25.47,30.38 -19.19,22.12 -12.90,13.86 -9.54,9.17 -6.19,4.47 -3.77,1.69 -1.36,-1.08 -1.21,-1.23 -1.06,-1.38 -0.88,-1.49 -0.69,-1.59 -0.49,-1.65 -0.29,-1.71 -0.08,-1.72 0.12,-1.73 0.32,-1.69 0.53,-1.65 0.72,-1.57 0.91,-1.48 1.08,-1.35 1.24,-1.22 1.37,-1.05 1.50,-0.88 1.58,-0.69 1.67,-0.50 1.70,-0.29 1.74,-0.08 1.72,0.12 1.71,0.33 1.64,0.53 1.58,0.73 1.47,0.91 1.36,1.08 1.36,1.08 L 1.36,1.08 Z"></path></g><g transform="translate(484 67) rotate(0 -35.5 53.5)" stroke="none"><path fill="#2f9e44" d="M 1.40,1.00 Q 1.40,1.00 0.13,3.13 -1.12,5.27 -3.44,8.46 -5.76,11.65 -9.06,15.90 -12.35,20.15 -16.34,25.12 -20.34,30.09 -25.72,37.88 -31.11,45.66 -38.13,56.08 -45.15,66.50 -50.18,74.35 -55.21,82.20 -58.83,88.09 -62.45,93.97 -64.28,97.56 -66.11,101.16 -67.21,103.03 -68.30,104.90 -69.08,106.27 -69.85,107.64 -69.99,107.81 -70.12,107.97 -70.30,108.09 -70.48,108.20 -70.68,108.25 -70.89,108.30 -71.10,108.29 -71.31,108.27 -71.51,108.19 -71.70,108.10 -71.86,107.96 -72.02,107.82 -72.12,107.63 -72.23,107.45 -72.27,107.24 -72.31,107.03 -72.28,106.82 -72.25,106.61 -72.16,106.42 -72.06,106.23 -71.91,106.08 -71.76,105.93 -71.57,105.83 -71.38,105.74 -71.17,105.71 -70.96,105.68 -70.75,105.72 -70.54,105.76 -70.36,105.87 -70.17,105.97 -70.03,106.13 -69.89,106.29 -69.80,106.48 -69.72,106.68 -69.70,106.89 -69.69,107.10 -69.74,107.31 -69.79,107.52 -69.90,107.69 -70.02,107.87 -70.18,108.01 -70.35,108.14 -70.55,108.21 -70.75,108.29 -70.96,108.29 -71.17,108.30 -71.38,108.23 -71.58,108.17 -71.75,108.05 -71.92,107.92 -72.05,107.75 -72.17,107.58 -72.23,107.37 -72.30,107.17 -72.29,106.96 -72.28,106.75 -72.21,106.55 -72.14,106.35 -72.14,106.35 -72.14,106.35 -71.36,104.98 -70.59,103.61 -69.58,101.78 -68.58,99.95 -66.83,96.18 -65.07,92.41 -61.61,86.39 -58.15,80.36 -53.28,72.36 -48.41,64.37 -41.61,53.73 -34.82,43.10 -29.34,35.18 -23.87,27.25 -19.88,22.31 -15.90,17.38 -12.61,13.20 -9.32,9.01 -6.97,5.89 -4.62,2.77 -3.01,0.88 -1.40,-1.00 -1.26,-1.15 -1.12,-1.31 -0.95,-1.42 -0.77,-1.54 -0.58,-1.61 -0.38,-1.68 -0.17,-1.70 0.02,-1.72 0.23,-1.69 0.44,-1.66 0.63,-1.59 0.82,-1.51 0.99,-1.39 1.16,-1.27 1.30,-1.11 1.43,-0.95 1.52,-0.77 1.62,-0.58 1.67,-0.38 1.71,-0.18 1.71,0.02 1.70,0.23 1.65,0.43 1.60,0.63 1.50,0.82 1.40,1.00 1.40,1.00 L 1.40,1.00 Z"></path></g></svg>