<svg version="1.1" xmlns="http://www.w3.org/2000/svg" viewBox="0 0 742.1363755978643 584.4078154422343" width="1484.2727511957287" height="1168.8156308844686">
  <!-- svg-source:excalidraw -->
  
  <defs>
    <style class="style-fonts">
      @font-face {
        font-family: "Virgil";
        src: url("https://excalidraw.com/Virgil.woff2");
      }
      @font-face {
        font-family: "Cascadia";
        src: url("https://excalidraw.com/Cascadia.woff2");
      }
      @font-face {
        font-family: "Assistant";
        src: url("https://excalidraw.com/Assistant-Regular.woff2");
      }
    </style>
    
  </defs>
  <g stroke-linecap="round"><g transform="translate(302.13637559786434 575) rotate(0 0 -275.5)"><path d="M-0.64 -0.59 C-0.64 -92.03, 2.19 -459.95, 2.66 -551.37 M4.21 -3.38 C3.84 -94.13, 2.3 -456.23, 1.86 -547.95" stroke="#1e1e1e" stroke-width="4" fill="none"></path></g><g transform="translate(302.13637559786434 575) rotate(0 0 -275.5)"><path d="M10.1 -522.59 C7.07 -532.18, 5.24 -541.3, 1.28 -548.65 M10.91 -524.9 C7.12 -531.64, 5.44 -538.21, 1.59 -548.88" stroke="#1e1e1e" stroke-width="4" fill="none"></path></g><g transform="translate(302.13637559786434 575) rotate(0 0 -275.5)"><path d="M-7 -522.52 C-3.29 -532.1, 1.62 -541.25, 1.28 -548.65 M-6.19 -524.82 C-4.82 -531.47, -1.36 -538.07, 1.59 -548.88" stroke="#1e1e1e" stroke-width="4" fill="none"></path></g></g><mask></mask><g stroke-linecap="round"><g transform="translate(12.136375597864344 299) rotate(0 321.5 0)"><path d="M0.85 -2.67 C108.17 -2.48, 536.62 0.82, 643.5 0.85 M-2.14 2.05 C104.9 1.39, 534.54 -3.23, 641.53 -3.71" stroke="#1e1e1e" stroke-width="4" fill="none"></path></g><g transform="translate(12.136375597864344 299) rotate(0 321.5 0)"><path d="M616.2 5.39 C625.36 1.84, 629.58 1.61, 641.89 -2.45 M618.08 5.02 C624.37 2.06, 628.82 0.29, 640.72 -2.84" stroke="#1e1e1e" stroke-width="4" fill="none"></path></g><g transform="translate(12.136375597864344 299) rotate(0 321.5 0)"><path d="M616.06 -11.71 C625.24 -10.41, 629.51 -5.79, 641.89 -2.45 M617.94 -12.08 C624.37 -11.07, 628.85 -8.88, 640.72 -2.84" stroke="#1e1e1e" stroke-width="4" fill="none"></path></g></g><mask></mask><g stroke-linecap="round" transform="translate(74.13637559786434 69) rotate(313.20017033486533 229 229)"><path d="M107.95 35.53 C121.59 22.42, 145.34 14.17, 163.53 8.42 C181.73 2.67, 198.15 1.41, 217.13 1.01 C236.11 0.62, 258.36 2.04, 277.41 6.07 C296.46 10.1, 314.42 16.83, 331.43 25.2 C348.44 33.58, 365.06 44.35, 379.47 56.31 C393.88 68.26, 407.47 81.68, 417.87 96.96 C428.27 112.24, 435.45 129.98, 441.86 147.97 C448.27 165.95, 454.21 185.94, 456.32 204.87 C458.43 223.81, 457.11 242.73, 454.53 261.56 C451.95 280.38, 447.71 300.24, 440.83 317.81 C433.95 335.37, 425.04 352.01, 413.25 366.94 C401.45 381.88, 384.89 395.51, 370.07 407.41 C355.25 419.3, 341.62 430.38, 324.33 438.31 C307.04 446.25, 285.38 451.97, 266.32 455.01 C247.26 458.06, 228.47 458.21, 209.97 456.58 C191.47 454.95, 173.17 451.04, 155.32 445.23 C137.46 439.43, 118.74 431.83, 102.83 421.75 C86.92 411.68, 72.49 399.39, 59.87 384.79 C47.25 370.18, 36.26 351.27, 27.11 334.13 C17.95 316.99, 9.45 300.31, 4.93 281.96 C0.42 263.61, -0.47 243.22, 0 224.02 C0.47 204.83, 2.58 185.02, 7.75 166.79 C12.92 148.55, 21.19 130.92, 31 114.6 C40.82 98.28, 47.95 85, 66.64 68.85 C85.32 52.69, 123.93 27.54, 143.13 17.68 C162.33 7.82, 180.54 6.08, 181.84 9.7 M168.8 10.31 C185.08 2.56, 205.77 3.14, 224.54 2.4 C243.31 1.66, 262.45 1.23, 281.44 5.86 C300.43 10.5, 321.66 20.89, 338.47 30.24 C355.29 39.58, 368.29 49.6, 382.31 61.94 C396.32 74.28, 411.43 88.35, 422.55 104.29 C433.68 120.23, 443.63 139.76, 449.04 157.56 C454.45 175.35, 454.13 192.1, 455 211.09 C455.87 230.07, 457.04 252.53, 454.26 271.45 C451.47 290.36, 446.44 307.16, 438.29 324.57 C430.13 341.99, 417.49 361.25, 405.32 375.94 C393.16 390.63, 380.39 401.39, 365.31 412.72 C350.24 424.04, 332.39 436.62, 314.87 443.89 C297.35 451.17, 278.69 454.52, 260.19 456.38 C241.69 458.23, 223.27 457.31, 203.88 455.03 C184.48 452.76, 161.8 448.86, 143.83 442.7 C125.86 436.55, 111.45 429.6, 96.06 418.11 C80.67 406.62, 63.7 388.48, 51.52 373.76 C39.33 359.05, 31.24 346.81, 22.97 329.8 C14.71 312.8, 5.84 291, 1.93 271.74 C-1.98 252.49, -1.75 232.4, -0.49 214.26 C0.78 196.11, 3.2 180.97, 9.51 162.88 C15.83 144.78, 27.41 122, 37.4 105.71 C47.39 89.43, 55.7 77.85, 69.44 65.18 C83.18 52.51, 103.09 39.65, 119.85 29.7 C136.6 19.75, 161.31 8.03, 169.99 5.49 C178.66 2.96, 170.88 10.29, 171.92 14.49" stroke="#1e1e1e" stroke-width="4" fill="none"></path></g><g transform="translate(306.13637559786434 115) rotate(0 -1 0.5)" stroke="none"><path fill="#e03131" d="M 0.71,1.42 Q 0.71,1.42 -0.15,2.56 -1.01,3.71 -2.77,4.53 -4.53,5.35 -5.99,5.04 -7.44,4.72 -8.28,3.85 -9.11,2.97 -9.40,1.72 -9.70,0.46 -9.57,-1.27 -9.44,-3.01 -8.86,-3.96 -8.27,-4.91 -6.97,-5.74 -5.67,-6.58 -4.29,-6.78 -2.91,-6.98 -1.84,-7.02 -0.77,-7.06 1.19,-6.16 3.16,-5.26 4.37,-3.54 5.59,-1.83 5.80,-0.38 6.02,1.05 5.77,2.14 5.53,3.24 4.89,4.19 4.26,5.13 2.97,5.89 1.67,6.65 0.16,6.80 -1.34,6.94 -2.55,6.51 -3.75,6.07 -4.80,5.19 -5.85,4.31 -7.10,2.73 -8.34,1.15 -9.00,-0.06 -9.65,-1.28 -9.54,-2.72 -9.42,-4.15 -8.88,-5.10 -8.35,-6.05 -7.02,-6.87 -5.69,-7.70 -3.63,-7.89 -1.57,-8.09 -0.28,-7.73 1.00,-7.37 2.44,-6.79 3.88,-6.20 5.21,-4.63 6.54,-3.06 7.20,-1.30 7.85,0.44 7.58,1.78 7.31,3.13 6.65,4.60 5.99,6.07 4.45,7.06 2.91,8.05 1.17,8.84 -0.55,9.63 -1.93,9.42 -3.30,9.22 -4.20,8.63 -5.10,8.04 -5.97,6.94 -6.83,5.84 -7.39,4.08 -7.95,2.32 -7.56,0.31 -7.17,-1.69 -6.56,-2.92 -5.95,-4.15 -4.97,-4.83 -4.00,-5.52 -2.49,-5.83 -0.97,-6.15 1.04,-5.58 3.06,-5.02 3.81,-4.04 4.57,-3.06 4.86,-1.51 5.16,0.03 5.15,1.23 5.15,2.44 4.57,3.74 3.99,5.05 3.01,5.79 2.03,6.53 0.94,6.73 -0.15,6.93 -1.45,6.56 -2.75,6.19 -4.16,4.60 -5.57,3.02 -6.63,1.44 -7.69,-0.14 -7.87,-1.72 -8.06,-3.31 -7.52,-4.66 -6.98,-6.00 -6.01,-6.76 -5.04,-7.52 -3.48,-7.84 -1.91,-8.15 -0.26,-7.81 1.37,-7.47 2.39,-6.77 3.41,-6.07 4.47,-5.07 5.54,-4.08 5.49,-1.58 5.44,0.91 4.80,1.93 4.17,2.96 2.73,3.71 1.29,4.46 -0.42,3.96 -2.14,3.45 -2.93,2.18 -3.72,0.90 -3.90,-0.87 -4.09,-2.65 -3.90,-4.35 -3.71,-6.04 -2.13,-7.22 -0.55,-8.39 0.92,-7.93 2.40,-7.46 3.15,-6.13 3.90,-4.79 4.02,-3.66 4.13,-2.54 4.16,-1.46 4.19,-0.38 3.80,0.89 3.42,2.18 2.74,3.50 2.06,4.83 0.29,5.62 -1.48,6.41 -2.10,6.52 -2.72,6.62 -2.87,6.67 -3.02,6.72 -3.18,6.73 -3.34,6.74 -3.49,6.72 -3.65,6.69 -3.80,6.63 -3.94,6.56 -4.07,6.47 -4.19,6.37 -4.29,6.25 -4.39,6.13 -4.46,5.98 -4.52,5.84 -4.55,5.68 -4.58,5.53 -4.58,5.37 -4.57,5.21 -4.52,5.06 -4.48,4.91 -4.40,4.77 -4.32,4.64 -4.21,4.52 -4.10,4.41 -3.96,4.33 -3.83,4.24 -2.47,1.78 -1.12,-0.67 -0.98,-0.84 -0.84,-1.00 -0.66,-1.11 -0.48,-1.22 -0.27,-1.26 -0.06,-1.31 0.14,-1.28 0.35,-1.26 0.54,-1.17 0.73,-1.08 0.89,-0.93 1.04,-0.79 1.14,-0.60 1.24,-0.41 1.27,-0.20 1.31,0.00 1.27,0.21 1.24,0.42 1.14,0.60 1.04,0.79 0.89,0.94 0.73,1.08 0.54,1.17 0.34,1.26 0.13,1.28 -0.07,1.31 -0.28,1.26 -0.48,1.21 -0.66,1.10 -0.85,0.99 -0.98,0.83 -1.12,0.67 -1.20,0.47 -1.28,0.28 -1.29,0.06 -1.30,-0.14 -1.24,-0.34 -1.19,-0.55 -1.07,-0.72 -0.95,-0.90 -0.78,-1.03 -0.61,-1.16 -0.41,-1.22 -0.21,-1.29 0.00,-1.29 0.21,-1.29 0.41,-1.22 0.61,-1.15 0.78,-1.03 0.95,-0.90 1.07,-0.72 1.19,-0.54 1.24,-0.34 1.30,-0.14 1.29,0.07 1.28,0.28 1.20,0.48 1.12,0.67 1.12,0.67 1.12,0.67 -0.80,3.65 -2.72,6.62 -2.87,6.67 -3.02,6.72 -3.18,6.73 -3.34,6.74 -3.49,6.72 -3.65,6.69 -3.80,6.63 -3.94,6.56 -4.07,6.47 -4.19,6.37 -4.29,6.25 -4.39,6.13 -4.46,5.98 -4.52,5.84 -4.55,5.68 -4.58,5.53 -4.58,5.37 -4.57,5.21 -4.52,5.06 -4.48,4.91 -4.40,4.77 -4.32,4.64 -4.21,4.52 -4.10,4.41 -3.96,4.33 -3.83,4.24 -3.60,3.32 -3.37,2.40 -2.83,1.00 -2.28,-0.38 -2.35,-1.76 -2.41,-3.13 -1.35,-3.02 -0.28,-2.90 0.95,-2.91 2.20,-2.93 1.48,-1.74 0.77,-0.54 -0.58,-1.44 -1.94,-2.34 -0.87,-1.01 0.19,0.32 -0.48,1.20 -1.17,2.08 -0.52,1.13 0.12,0.19 -0.82,0.73 -1.77,1.28 -1.75,2.47 -1.73,3.67 -0.84,3.05 0.04,2.44 0.95,1.77 1.86,1.10 1.15,0.01 0.43,-1.07 -0.57,-1.44 -1.57,-1.81 -2.77,-2.44 -3.96,-3.06 -2.89,-1.66 -1.81,-0.27 -0.97,0.60 -0.12,1.47 -0.41,0.27 -0.70,-0.91 -1.99,-0.91 -3.28,-0.91 -4.36,-0.53 -5.44,-0.15 -4.51,-0.78 -3.58,-1.41 -2.14,-1.41 -0.71,-1.42 -0.53,-1.49 -0.35,-1.55 -0.16,-1.57 0.03,-1.59 0.22,-1.57 0.41,-1.54 0.59,-1.47 0.77,-1.40 0.92,-1.28 1.08,-1.17 1.20,-1.02 1.33,-0.88 1.41,-0.70 1.50,-0.53 1.54,-0.34 1.59,-0.16 1.58,0.03 1.58,0.22 1.53,0.41 1.48,0.59 1.38,0.76 1.29,0.93 1.16,1.07 1.03,1.21 0.87,1.32 0.71,1.42 0.71,1.42 L 0.71,1.42 Z"></path></g><g transform="translate(300.13637559786434 488) rotate(0 1.5 -1.5)" stroke="none"><path fill="#e03131" d="M 1.22,-1.22 Q 1.22,-1.22 2.18,-0.99 3.14,-0.76 3.86,1.13 4.57,3.04 3.97,4.49 3.37,5.94 2.11,6.65 0.85,7.37 -0.57,7.56 -2.00,7.75 -3.57,7.55 -5.14,7.35 -6.06,6.69 -6.98,6.02 -7.39,4.47 -7.80,2.92 -7.37,1.10 -6.94,-0.72 -5.96,-2.15 -4.99,-3.58 -3.67,-4.43 -2.35,-5.27 -1.04,-6.13 0.26,-6.99 2.35,-7.49 4.43,-7.99 6.49,-7.62 8.55,-7.24 9.45,-6.52 10.35,-5.80 11.02,-4.40 11.69,-3.00 11.53,-0.64 11.36,1.72 10.45,3.10 9.55,4.49 7.77,6.11 6.00,7.72 4.11,8.32 2.23,8.91 0.75,8.63 -0.72,8.34 -1.77,7.73 -2.83,7.12 -3.56,6.19 -4.30,5.27 -5.04,3.50 -5.77,1.74 -5.90,0.62 -6.02,-0.49 -6.07,-2.15 -6.11,-3.81 -5.72,-5.07 -5.32,-6.32 -4.70,-7.23 -4.08,-8.15 -3.13,-8.83 -2.18,-9.50 -0.37,-10.21 1.42,-10.92 2.79,-10.66 4.15,-10.41 6.00,-9.44 7.84,-8.46 8.55,-7.51 9.27,-6.55 10.12,-4.01 10.97,-1.46 11.06,-0.17 11.14,1.11 10.84,2.65 10.54,4.20 10.00,5.32 9.46,6.44 7.72,8.15 5.99,9.86 4.86,10.29 3.74,10.71 2.13,10.58 0.52,10.44 -1.51,9.27 -3.56,8.09 -4.68,6.08 -5.80,4.06 -6.38,2.01 -6.97,-0.03 -7.05,-1.20 -7.14,-2.37 -6.83,-3.87 -6.53,-5.37 -5.98,-6.46 -5.43,-7.55 -3.82,-9.06 -2.20,-10.56 -0.56,-10.90 1.08,-11.24 2.51,-10.90 3.94,-10.55 4.97,-9.91 6.01,-9.28 6.78,-8.25 7.54,-7.23 7.85,-5.57 8.15,-3.91 8.20,-2.74 8.24,-1.56 7.88,-0.24 7.51,1.08 7.01,2.13 6.51,3.18 5.63,4.08 4.75,4.98 3.75,5.52 2.75,6.06 1.42,6.20 0.09,6.33 -1.47,5.74 -3.03,5.15 -3.98,4.02 -4.93,2.89 -5.53,0.08 -6.12,-2.72 -6.17,-4.68 -6.22,-6.64 -5.83,-7.93 -5.44,-9.22 -4.86,-10.12 -4.29,-11.02 -2.30,-12.37 -0.32,-13.71 1.09,-13.56 2.51,-13.40 3.41,-12.80 4.31,-12.20 5.17,-11.09 6.04,-9.97 7.02,-6.92 8.01,-3.86 7.79,-2.35 7.57,-0.83 7.12,0.42 6.66,1.68 6.03,2.71 5.40,3.74 4.26,4.72 3.12,5.71 1.58,6.67 0.03,7.63 -2.30,7.42 -4.64,7.22 -6.09,6.00 -7.53,4.79 -8.14,3.32 -8.75,1.85 -8.59,0.04 -8.42,-1.76 -7.53,-4.42 -6.63,-7.08 -5.99,-7.96 -5.35,-8.83 -3.77,-10.20 -2.19,-11.57 -1.09,-11.81 0.00,-12.04 1.43,-11.64 2.85,-11.25 3.92,-10.07 4.99,-8.90 5.46,-7.48 5.94,-6.07 6.07,-4.89 6.20,-3.71 6.23,-2.58 6.27,-1.46 5.89,-0.14 5.52,1.16 5.02,2.20 4.53,3.23 3.65,4.13 2.77,5.04 0.71,5.98 -1.34,6.91 -2.75,6.66 -4.16,6.41 -5.16,5.77 -6.16,5.13 -6.86,4.16 -7.56,3.19 -8.25,1.51 -8.95,-0.17 -8.73,-2.44 -8.50,-4.71 -7.80,-6.37 -7.11,-8.02 -5.56,-9.09 -4.01,-10.16 -2.04,-10.66 -0.08,-11.15 1.40,-10.68 2.89,-10.20 3.74,-9.25 4.59,-8.30 5.34,-6.57 6.08,-4.84 5.77,-2.61 5.45,-0.38 4.22,1.23 2.98,2.85 1.98,3.27 0.98,3.70 -0.56,3.72 -2.12,3.74 -3.40,3.09 -4.67,2.45 -5.09,1.35 -5.50,0.26 -5.64,0.19 -5.78,0.12 -5.90,0.02 -6.03,-0.07 -6.12,-0.20 -6.22,-0.33 -6.28,-0.47 -6.34,-0.62 -6.36,-0.78 -6.39,-0.93 -6.37,-1.09 -6.36,-1.25 -6.31,-1.40 -6.25,-1.55 -6.17,-1.68 -6.08,-1.81 -5.97,-1.92 -5.85,-2.03 -5.72,-2.11 -5.58,-2.19 -5.43,-2.23 -5.27,-2.27 -5.12,-2.28 -4.96,-2.28 -4.80,-2.25 -4.65,-2.22 -2.20,-1.75 0.24,-1.28 0.44,-1.21 0.64,-1.14 0.81,-1.00 0.97,-0.87 1.09,-0.69 1.20,-0.51 1.25,-0.31 1.30,-0.10 1.29,0.10 1.27,0.31 1.18,0.51 1.10,0.70 0.96,0.86 0.82,1.02 0.63,1.12 0.45,1.23 0.24,1.27 0.03,1.31 -0.17,1.28 -0.38,1.25 -0.57,1.16 -0.76,1.06 -0.91,0.91 -1.06,0.76 -1.16,0.57 -1.25,0.38 -1.28,0.17 -1.31,-0.03 -1.27,-0.24 -1.23,-0.45 -1.12,-0.63 -1.02,-0.82 -0.86,-0.96 -0.70,-1.10 -0.51,-1.19 -0.31,-1.27 -0.10,-1.29 0.10,-1.30 0.31,-1.25 0.52,-1.20 0.69,-1.09 0.87,-0.97 1.01,-0.81 1.14,-0.64 1.21,-0.44 1.29,-0.24 1.29,-0.03 1.30,0.17 1.23,0.38 1.17,0.58 1.05,0.75 0.92,0.92 0.75,1.05 0.58,1.17 0.37,1.23 0.17,1.30 -0.03,1.29 -0.24,1.28 -0.24,1.28 -0.24,1.28 -2.87,0.77 -5.50,0.26 -5.64,0.19 -5.78,0.12 -5.90,0.02 -6.03,-0.07 -6.12,-0.20 -6.22,-0.33 -6.28,-0.47 -6.34,-0.62 -6.36,-0.78 -6.39,-0.93 -6.37,-1.09 -6.36,-1.25 -6.31,-1.40 -6.26,-1.55 -6.17,-1.68 -6.08,-1.81 -5.97,-1.92 -5.85,-2.03 -5.72,-2.11 -5.58,-2.19 -5.43,-2.23 -5.27,-2.27 -5.12,-2.28 -4.96,-2.28 -4.80,-2.25 -4.65,-2.22 -2.77,-2.05 -0.89,-1.89 -0.28,-3.22 0.33,-4.56 -0.81,-4.49 -1.97,-4.42 -2.26,-2.97 -2.55,-1.52 -2.45,-0.36 -2.35,0.80 -1.36,-0.30 -0.38,-1.41 -0.32,-3.21 -0.26,-5.01 -1.13,-4.01 -1.99,-3.01 -2.07,-1.87 -2.15,-0.72 -2.17,0.50 -2.18,1.74 -0.87,0.54 0.43,-0.65 0.89,-1.89 1.35,-3.13 0.81,-4.84 0.27,-6.54 0.33,-4.84 0.39,-3.14 0.53,-1.26 0.67,0.61 1.14,-0.42 1.61,-1.46 1.21,-3.24 0.82,-5.03 0.08,-3.87 -0.65,-2.71 -0.53,-1.29 -0.42,0.12 -0.10,1.42 0.21,2.72 1.24,3.62 2.28,4.52 3.24,3.58 4.20,2.63 4.34,1.02 4.47,-0.59 4.12,-1.96 3.76,-3.34 2.97,-4.08 2.17,-4.82 1.18,-3.51 0.19,-2.20 0.28,-0.75 0.38,0.69 1.40,1.62 2.42,2.56 3.44,1.66 4.45,0.76 5.27,-0.31 6.08,-1.38 5.02,-1.55 3.96,-1.73 2.89,-1.29 1.83,-0.86 0.73,-0.47 -0.36,-0.08 -1.85,1.03 -3.33,2.15 -2.09,2.60 -0.84,3.06 -1.03,2.14 -1.22,1.22 -1.34,1.05 -1.47,0.89 -1.56,0.70 -1.64,0.51 -1.68,0.30 -1.72,0.10 -1.71,-0.10 -1.69,-0.31 -1.63,-0.50 -1.57,-0.70 -1.46,-0.88 -1.35,-1.06 -1.21,-1.21 -1.06,-1.35 -0.88,-1.46 -0.70,-1.57 -0.50,-1.63 -0.31,-1.69 -0.10,-1.71 0.10,-1.72 0.30,-1.68 0.51,-1.64 0.70,-1.56 0.89,-1.47 1.05,-1.34 1.22,-1.22 1.22,-1.22 L 1.22,-1.22 Z"></path></g><g transform="translate(326.13637559786434 120) rotate(0 0 14)" stroke="none"><path fill="#e03131" d="M 1.49,0 Q 1.49,0 2.29,1.15 3.09,2.3 3.15,4.00 3.21,5.70 2.88,7.10 2.56,8.50 2.49,10.50 2.41,12.50 2.40,13.79 2.39,15.08 2.39,16.49 2.38,17.90 2.38,19.37 2.38,20.83 2.38,22.03 2.38,23.23 2.38,24.31 2.38,25.39 2.50,26.46 2.61,27.53 2.57,27.89 2.53,28.25 2.40,28.60 2.27,28.94 2.06,29.24 1.85,29.54 1.57,29.79 1.30,30.03 0.97,30.20 0.65,30.37 0.29,30.46 -0.05,30.55 -0.42,30.55 -0.79,30.55 -1.14,30.46 -1.50,30.37 -1.83,30.20 -2.15,30.03 -2.42,29.79 -2.70,29.54 -2.91,29.24 -3.12,28.94 -3.25,28.59 -3.38,28.25 -3.42,27.89 -3.46,27.52 -2.71,26.65 -1.95,25.77 -1.09,24.16 -0.23,22.54 -0.12,22.36 -0.02,22.17 0.13,22.03 0.29,21.89 0.48,21.81 0.68,21.72 0.89,21.70 1.10,21.69 1.31,21.74 1.51,21.79 1.69,21.90 1.87,22.02 2.00,22.18 2.14,22.35 2.21,22.55 2.28,22.75 2.29,22.96 2.30,23.17 2.23,23.37 2.17,23.58 2.05,23.75 1.93,23.92 1.75,24.05 1.58,24.17 1.38,24.23 1.17,24.30 0.96,24.29 0.75,24.29 0.55,24.21 0.35,24.14 0.18,24.01 0.02,23.87 -0.09,23.69 -0.20,23.52 -0.25,23.31 -0.30,23.10 -0.29,22.89 -0.27,22.68 -0.19,22.48 -0.10,22.29 0.03,22.13 0.17,21.97 0.36,21.87 0.54,21.76 0.75,21.72 0.96,21.68 1.17,21.71 1.38,21.74 1.57,21.83 1.76,21.93 1.91,22.08 2.06,22.23 2.16,22.42 2.25,22.61 2.28,22.82 2.31,23.03 2.27,23.24 2.23,23.45 2.23,23.45 2.23,23.45 2.42,25.49 2.61,27.53 2.57,27.89 2.53,28.25 2.40,28.60 2.27,28.94 2.06,29.24 1.85,29.54 1.57,29.79 1.30,30.03 0.97,30.20 0.65,30.37 0.29,30.46 -0.05,30.55 -0.42,30.55 -0.79,30.55 -1.14,30.46 -1.50,30.37 -1.83,30.20 -2.15,30.03 -2.42,29.79 -2.70,29.54 -2.91,29.24 -3.12,28.94 -3.25,28.60 -3.38,28.25 -3.42,27.89 -3.46,27.52 -3.92,26.46 -4.37,25.39 -4.37,24.30 -4.37,23.22 -4.37,22.01 -4.37,20.81 -4.36,19.34 -4.36,17.86 -4.34,16.41 -4.33,14.96 -4.29,13.58 -4.26,12.19 -4.19,11.00 -4.12,9.80 -3.66,7.71 -3.21,5.62 -3.15,3.96 -3.09,2.3 -2.29,1.15 -1.49,0 -1.47,-0.17 -1.44,-0.35 -1.38,-0.52 -1.32,-0.69 -1.21,-0.84 -1.11,-0.98 -0.98,-1.10 -0.84,-1.22 -0.68,-1.31 -0.52,-1.39 -0.35,-1.43 -0.17,-1.48 0.00,-1.48 0.17,-1.48 0.35,-1.43 0.52,-1.39 0.68,-1.31 0.84,-1.22 0.98,-1.10 1.11,-0.98 1.21,-0.84 1.32,-0.69 1.38,-0.52 1.44,-0.35 1.47,-0.17 1.49,0.00 1.49,0.00 L 1.49,0 Z"></path></g><g transform="translate(337.13637559786434 127) rotate(0 1 9.5)" stroke="none"><path fill="#e03131" d="M 1.80,-0.30 Q 1.80,-0.30 2.68,1.32 3.57,2.95 3.73,4.36 3.90,5.77 3.97,6.98 4.05,8.18 4.31,9.43 4.57,10.67 4.83,12.60 5.08,14.53 4.20,16.22 3.31,17.91 3.30,18.07 3.29,18.23 3.24,18.38 3.19,18.53 3.11,18.67 3.03,18.80 2.92,18.92 2.81,19.03 2.67,19.11 2.54,19.19 2.39,19.24 2.23,19.29 2.08,19.30 1.92,19.31 1.76,19.28 1.61,19.25 1.46,19.18 1.32,19.12 1.19,19.02 1.07,18.93 0.97,18.80 0.87,18.68 0.81,18.53 0.74,18.39 0.71,18.23 0.68,18.08 0.72,17.81 0.76,17.54 0.87,17.36 0.97,17.17 1.13,17.03 1.29,16.89 1.48,16.80 1.68,16.72 1.89,16.70 2.10,16.69 2.31,16.74 2.51,16.79 2.69,16.90 2.87,17.02 3.01,17.18 3.14,17.35 3.21,17.55 3.28,17.75 3.29,17.96 3.30,18.17 3.23,18.38 3.17,18.58 3.05,18.75 2.92,18.92 2.75,19.05 2.58,19.17 2.37,19.23 2.17,19.30 1.96,19.29 1.75,19.28 1.55,19.21 1.35,19.14 1.18,19.00 1.02,18.87 0.90,18.69 0.79,18.51 0.74,18.31 0.69,18.10 0.70,17.89 0.72,17.68 0.80,17.48 0.89,17.29 1.03,17.13 1.17,16.97 1.36,16.87 1.54,16.76 1.75,16.72 1.96,16.68 2.17,16.71 2.38,16.74 2.57,16.83 2.76,16.93 2.91,17.08 3.06,17.23 3.16,17.42 3.25,17.61 3.28,17.82 3.31,18.03 3.31,17.97 3.31,17.91 3.30,18.07 3.29,18.23 3.24,18.38 3.19,18.53 3.11,18.67 3.03,18.80 2.92,18.92 2.81,19.03 2.67,19.11 2.54,19.19 2.39,19.24 2.23,19.29 2.08,19.30 1.92,19.31 1.76,19.28 1.61,19.25 1.46,19.18 1.32,19.12 1.19,19.02 1.07,18.93 0.97,18.80 0.87,18.68 0.81,18.53 0.74,18.39 0.71,18.23 0.68,18.08 -0.27,16.50 -1.24,14.92 -1.35,13.79 -1.45,12.65 -1.82,11.32 -2.18,9.99 -2.22,8.17 -2.26,6.35 -2.34,5.15 -2.42,3.94 -2.11,2.12 -1.80,0.30 -1.81,0.08 -1.82,-0.13 -1.77,-0.35 -1.73,-0.57 -1.64,-0.77 -1.54,-0.96 -1.40,-1.14 -1.26,-1.31 -1.09,-1.44 -0.91,-1.57 -0.71,-1.66 -0.51,-1.75 -0.29,-1.78 -0.08,-1.82 0.13,-1.80 0.35,-1.79 0.56,-1.72 0.77,-1.65 0.96,-1.53 1.14,-1.41 1.30,-1.26 1.45,-1.10 1.56,-0.91 1.67,-0.72 1.73,-0.51 1.80,-0.29 1.80,-0.30 L 1.80,-0.30 Z"></path></g><g transform="translate(319.13637559786434 124) rotate(0 12.5 0.5)" stroke="none"><path fill="#e03131" d="M 0,-1.72 Q 0,-1.72 1.15,-2.53 2.3,-3.33 3.36,-3.33 4.42,-3.34 6.39,-3.59 8.35,-3.84 9.66,-4.00 10.97,-4.16 12.42,-4.23 13.88,-4.29 15.35,-4.33 16.82,-4.36 18.02,-4.37 19.22,-4.38 20.34,-4.38 21.47,-4.38 22.79,-3.98 24.10,-3.59 23.68,-1.44 23.25,0.71 23.40,0.76 23.55,0.81 23.69,0.89 23.82,0.98 23.93,1.09 24.04,1.20 24.12,1.34 24.20,1.48 24.25,1.63 24.29,1.78 24.30,1.94 24.30,2.10 24.27,2.25 24.24,2.41 24.17,2.55 24.11,2.69 24.01,2.82 23.91,2.94 23.78,3.03 23.66,3.13 23.51,3.19 23.36,3.26 23.21,3.28 23.05,3.31 22.89,3.29 22.74,3.28 22.96,3.29 23.18,3.29 22.97,3.29 22.76,3.29 22.56,3.21 22.36,3.14 22.19,3.01 22.02,2.88 21.91,2.70 21.79,2.52 21.74,2.32 21.69,2.11 21.70,1.90 21.72,1.69 21.80,1.49 21.88,1.30 22.02,1.14 22.16,0.98 22.35,0.87 22.53,0.77 22.74,0.72 22.95,0.68 23.16,0.71 23.37,0.74 23.56,0.83 23.75,0.92 23.90,1.07 24.06,1.22 24.15,1.41 24.25,1.60 24.28,1.81 24.31,2.02 24.27,2.23 24.23,2.44 24.13,2.62 24.02,2.81 23.87,2.95 23.71,3.10 23.52,3.18 23.32,3.27 23.11,3.29 22.90,3.30 22.69,3.25 22.48,3.21 22.30,3.09 22.12,2.98 21.99,2.81 21.86,2.65 21.78,2.45 21.71,2.25 21.70,2.04 21.69,1.83 21.75,1.62 21.81,1.42 21.94,1.25 22.06,1.07 22.23,0.95 22.40,0.82 22.83,0.76 23.25,0.71 23.40,0.76 23.55,0.81 23.69,0.89 23.82,0.98 23.93,1.09 24.04,1.20 24.12,1.34 24.20,1.48 24.25,1.63 24.29,1.78 24.30,1.94 24.30,2.10 24.27,2.25 24.24,2.41 24.17,2.55 24.11,2.69 24.01,2.82 23.91,2.94 23.78,3.03 23.66,3.13 23.51,3.19 23.36,3.26 23.21,3.28 23.05,3.31 22.89,3.29 22.74,3.28 22.21,3.01 21.68,2.75 20.48,2.58 19.27,2.41 18.10,2.42 16.93,2.42 15.54,2.43 14.14,2.45 11.97,2.57 9.80,2.69 7.11,3.01 4.42,3.34 3.36,3.33 2.3,3.33 1.15,2.53 0,1.72 -0.20,1.69 -0.41,1.67 -0.60,1.60 -0.80,1.52 -0.97,1.40 -1.14,1.29 -1.28,1.13 -1.41,0.97 -1.51,0.79 -1.61,0.61 -1.66,0.40 -1.71,0.20 -1.71,-0.00 -1.71,-0.20 -1.66,-0.40 -1.61,-0.61 -1.51,-0.79 -1.41,-0.97 -1.28,-1.13 -1.14,-1.29 -0.97,-1.40 -0.80,-1.52 -0.60,-1.60 -0.41,-1.67 -0.20,-1.69 0.00,-1.72 0.00,-1.72 L 0,-1.72 Z"></path></g><g transform="translate(357.13637559786434 133) rotate(0 3.5 6.5)" stroke="none"><path fill="#e03131" d="M 1.38,0 Q 1.38,0 2.22,1.15 3.06,2.3 3.10,3.36 3.14,4.42 3.22,6.46 3.31,8.50 4.57,7.43 5.84,6.36 5.97,6.20 6.11,6.03 6.28,5.91 6.46,5.80 6.67,5.74 6.87,5.69 7.08,5.70 7.30,5.72 7.49,5.80 7.69,5.88 7.85,6.02 8.01,6.16 8.11,6.34 8.22,6.53 8.26,6.73 8.31,6.94 8.28,7.15 8.26,7.36 8.16,7.56 8.07,7.75 7.92,7.90 7.77,8.05 7.59,8.15 7.40,8.25 7.19,8.28 6.98,8.31 6.77,8.27 6.56,8.23 6.37,8.13 6.19,8.03 6.04,7.87 5.90,7.72 5.81,7.52 5.72,7.33 5.70,7.12 5.68,6.90 5.73,6.70 5.78,6.49 5.89,6.31 6.01,6.13 6.17,6.00 6.33,5.86 6.53,5.78 6.73,5.71 6.94,5.70 7.16,5.69 7.36,5.75 7.56,5.81 7.74,5.93 7.91,6.05 8.04,6.23 8.16,6.40 8.23,6.60 8.29,6.80 8.29,7.01 8.29,7.23 8.22,7.43 8.15,7.63 8.15,7.63 8.15,7.63 6.58,10.88 5.01,14.13 3.94,14.72 2.86,15.32 1.57,15.09 0.27,14.87 -1.07,13.73 -2.42,12.59 -2.86,10.54 -3.31,8.50 -3.22,6.46 -3.14,4.42 -3.10,3.36 -3.06,2.3 -2.22,1.15 -1.38,0 -1.36,-0.16 -1.34,-0.33 -1.28,-0.48 -1.23,-0.64 -1.13,-0.78 -1.03,-0.92 -0.91,-1.03 -0.78,-1.14 -0.64,-1.22 -0.49,-1.29 -0.33,-1.33 -0.16,-1.37 0.00,-1.37 0.16,-1.37 0.33,-1.33 0.49,-1.29 0.64,-1.22 0.78,-1.14 0.91,-1.03 1.04,-0.92 1.13,-0.78 1.23,-0.64 1.28,-0.48 1.34,-0.33 1.36,-0.16 1.38,0.00 1.38,0.00 L 1.38,0 Z"></path></g><g transform="translate(357.13637559786434 119) rotate(0 -0.5 -2)" stroke="none"><path fill="#e03131" d="M 0,-2.55 Q 0,-2.55 0.28,-2.73 0.57,-2.91 0.92,-2.86 1.27,-2.82 1.59,-2.70 1.92,-2.57 2.21,-2.37 2.50,-2.17 2.73,-1.91 2.97,-1.65 3.13,-1.34 3.29,-1.03 3.38,-0.69 3.46,-0.35 3.46,0.00 3.46,0.35 3.38,0.69 3.29,1.03 3.13,1.34 2.97,1.65 2.73,1.91 2.50,2.17 2.21,2.37 1.92,2.57 1.59,2.70 1.27,2.82 0.92,2.86 0.57,2.91 -0.66,2.06 -1.90,1.21 -2.39,0.01 -2.87,-1.18 -2.31,-3.06 -1.75,-4.94 -0.39,-5.66 0.96,-6.37 2.95,-4.76 4.93,-3.16 4.61,-0.93 4.28,1.28 3.16,2.65 2.04,4.02 0.81,4.39 -0.41,4.77 -1.73,4.09 -3.06,3.42 -3.75,2.12 -4.43,0.82 -4.57,-0.29 -4.71,-1.42 -4.37,-3.42 -4.03,-5.42 -1.49,-7.20 1.04,-8.99 2.82,-7.89 4.60,-6.80 4.82,-5.57 5.04,-4.34 4.71,-2.28 4.39,-0.22 3.40,1.37 2.40,2.98 0.99,3.43 -0.42,3.87 -1.52,3.20 -2.62,2.52 -3.04,2.14 -3.46,1.76 -3.62,1.72 -3.77,1.68 -3.91,1.61 -4.05,1.53 -4.17,1.43 -4.29,1.32 -4.38,1.19 -4.47,1.06 -4.53,0.92 -4.58,0.77 -4.60,0.61 -4.62,0.45 -4.60,0.30 -4.58,0.14 -4.53,-0.00 -4.47,-0.15 -4.38,-0.28 -4.29,-0.41 -4.18,-0.51 -4.06,-0.62 -3.92,-0.69 -3.78,-0.77 -3.62,-0.80 -3.47,-0.84 -3.31,-0.84 -3.15,-0.84 -1.66,-1.07 -0.17,-1.30 0.03,-1.29 0.24,-1.29 0.44,-1.21 0.64,-1.14 0.81,-1.01 0.97,-0.87 1.09,-0.69 1.20,-0.52 1.25,-0.31 1.30,-0.10 1.29,0.10 1.27,0.31 1.19,0.51 1.10,0.70 0.96,0.86 0.82,1.02 0.63,1.12 0.45,1.23 0.24,1.27 0.03,1.31 -0.17,1.28 -0.38,1.25 -0.57,1.16 -0.76,1.06 -0.91,0.91 -1.06,0.76 -1.16,0.57 -1.25,0.38 -1.28,0.17 -1.31,-0.03 -1.27,-0.24 -1.23,-0.45 -1.12,-0.63 -1.02,-0.82 -0.86,-0.96 -0.70,-1.10 -0.51,-1.18 -0.31,-1.27 -0.10,-1.29 0.10,-1.30 0.31,-1.25 0.51,-1.20 0.69,-1.09 0.87,-0.97 1.00,-0.81 1.14,-0.64 1.21,-0.44 1.28,-0.24 1.29,-0.03 1.30,0.17 1.23,0.37 1.17,0.58 1.05,0.75 0.92,0.92 0.75,1.05 0.58,1.17 0.38,1.23 0.17,1.30 0.17,1.30 0.17,1.30 -1.64,1.53 -3.46,1.76 -3.62,1.72 -3.77,1.68 -3.91,1.61 -4.05,1.53 -4.17,1.43 -4.29,1.32 -4.38,1.19 -4.47,1.06 -4.53,0.92 -4.58,0.77 -4.60,0.61 -4.62,0.45 -4.60,0.30 -4.58,0.14 -4.53,-0.00 -4.47,-0.15 -4.38,-0.28 -4.29,-0.41 -4.18,-0.51 -4.06,-0.62 -3.92,-0.69 -3.78,-0.77 -3.62,-0.80 -3.47,-0.84 -3.31,-0.84 -3.15,-0.84 -2.39,-0.90 -1.62,-0.96 -1.35,-2.54 -1.07,-4.12 -0.09,-3.56 0.89,-3.01 0.96,-1.89 1.04,-0.78 -0.17,-0.58 -1.38,-0.39 -0.84,-1.91 -0.29,-3.43 1.04,-2.32 2.39,-1.21 1.48,-2.06 0.57,-2.91 0.92,-2.86 1.27,-2.82 1.59,-2.70 1.92,-2.57 2.21,-2.37 2.50,-2.17 2.73,-1.91 2.97,-1.65 3.13,-1.34 3.29,-1.03 3.38,-0.69 3.46,-0.35 3.46,-0.00 3.46,0.35 3.38,0.69 3.29,1.03 3.13,1.34 2.97,1.65 2.73,1.91 2.50,2.17 2.21,2.37 1.92,2.57 1.59,2.70 1.27,2.82 0.92,2.86 0.57,2.91 0.28,2.73 0,2.55 -0.30,2.51 -0.61,2.47 -0.89,2.37 -1.18,2.26 -1.44,2.08 -1.69,1.91 -1.89,1.68 -2.10,1.45 -2.24,1.17 -2.38,0.90 -2.46,0.60 -2.53,0.30 -2.53,-0.00 -2.53,-0.30 -2.46,-0.60 -2.38,-0.90 -2.24,-1.17 -2.10,-1.45 -1.89,-1.68 -1.69,-1.91 -1.44,-2.08 -1.18,-2.26 -0.89,-2.37 -0.61,-2.48 -0.30,-2.51 0.00,-2.55 0.00,-2.55 L 0,-2.55 Z"></path></g><g transform="translate(334.13637559786434 485) rotate(0 -6 0.5)" stroke="none"><path fill="#e03131" d="M 0.62,2.51 Q 0.62,2.51 -0.44,3.09 -1.52,3.66 -3.50,3.88 -5.47,4.10 -7.47,3.67 -9.47,3.24 -11.26,2.27 -13.05,1.31 -13.25,1.26 -13.46,1.22 -13.65,1.12 -13.83,1.01 -13.97,0.85 -14.11,0.69 -14.19,0.49 -14.27,0.30 -14.29,0.09 -14.30,-0.12 -14.25,-0.32 -14.20,-0.53 -14.08,-0.71 -13.96,-0.88 -13.80,-1.01 -13.63,-1.15 -13.43,-1.22 -13.23,-1.29 -13.02,-1.29 -12.80,-1.29 -12.60,-1.23 -12.40,-1.16 -12.23,-1.04 -12.06,-0.91 -11.93,-0.74 -11.81,-0.57 -11.75,-0.36 -11.69,-0.16 -11.70,0.04 -11.71,0.26 -11.78,0.46 -11.86,0.65 -11.99,0.82 -12.13,0.98 -12.31,1.09 -12.49,1.21 -12.70,1.26 -12.90,1.31 -13.11,1.29 -13.33,1.27 -13.52,1.18 -13.71,1.09 -13.87,0.95 -14.03,0.81 -14.13,0.62 -14.23,0.43 -14.27,0.22 -14.31,0.02 -14.28,-0.18 -14.25,-0.39 -14.15,-0.58 -14.05,-0.77 -13.90,-0.92 -13.75,-1.07 -13.56,-1.16 -13.37,-1.25 -13.16,-1.28 -12.94,-1.31 -12.94,-1.31 -12.94,-1.31 -11.15,-2.08 -9.35,-2.85 -7.59,-2.55 -5.84,-2.25 -4.45,-2.38 -3.07,-2.51 -1.85,-2.51 -0.62,-2.51 -0.31,-2.54 -0.00,-2.58 0.30,-2.55 0.61,-2.51 0.90,-2.40 1.19,-2.29 1.45,-2.11 1.71,-1.94 1.91,-1.71 2.12,-1.47 2.27,-1.20 2.41,-0.92 2.49,-0.62 2.56,-0.32 2.56,-0.00 2.57,0.30 2.49,0.60 2.42,0.91 2.27,1.18 2.13,1.46 1.92,1.69 1.72,1.93 1.46,2.11 1.21,2.28 0.91,2.39 0.62,2.51 0.62,2.51 L 0.62,2.51 Z"></path></g><g transform="translate(347.13637559786434 476) rotate(0 -1.5 11)" stroke="none"><path fill="#e03131" d="M 2.57,0 Q 2.57,0 2.82,1.15 3.07,2.3 3.10,3.37 3.13,4.45 2.82,5.89 2.50,7.33 2.42,9.42 2.34,11.50 1.98,12.93 1.61,14.36 1.49,16.02 1.37,17.68 0.34,18.38 -0.68,19.07 -0.71,19.22 -0.74,19.38 -0.80,19.52 -0.87,19.67 -0.96,19.79 -1.06,19.92 -1.19,20.02 -1.31,20.12 -1.45,20.18 -1.60,20.25 -1.75,20.28 -1.91,20.31 -2.07,20.30 -2.23,20.29 -2.38,20.24 -2.53,20.20 -2.66,20.11 -2.80,20.03 -2.91,19.92 -3.02,19.81 -3.11,19.68 -3.19,19.54 -3.24,19.39 -3.29,19.24 -3.30,19.08 -3.31,18.92 -3.17,18.56 -3.03,18.19 -2.88,18.05 -2.72,17.90 -2.53,17.81 -2.33,17.73 -2.12,17.71 -1.91,17.68 -1.70,17.73 -1.50,17.78 -1.32,17.89 -1.14,18.00 -1.00,18.17 -0.86,18.33 -0.79,18.53 -0.71,18.72 -0.70,18.94 -0.69,19.15 -0.75,19.35 -0.81,19.56 -0.93,19.73 -1.05,19.91 -1.22,20.03 -1.39,20.16 -1.59,20.23 -1.79,20.29 -2.01,20.29 -2.22,20.29 -2.42,20.22 -2.62,20.15 -2.79,20.02 -2.96,19.89 -3.07,19.71 -3.19,19.54 -3.25,19.33 -3.30,19.12 -3.29,18.91 -3.27,18.70 -3.19,18.50 -3.11,18.31 -2.97,18.15 -2.84,17.99 -2.65,17.88 -2.47,17.77 -2.26,17.73 -2.05,17.68 -1.84,17.71 -1.63,17.73 -1.44,17.82 -1.25,17.91 -1.09,18.06 -0.94,18.21 -0.84,18.40 -0.75,18.59 -0.71,18.80 -0.68,19.01 -0.72,19.22 -0.75,19.43 -0.72,19.25 -0.68,19.07 -0.71,19.22 -0.74,19.38 -0.80,19.52 -0.87,19.67 -0.96,19.79 -1.06,19.92 -1.19,20.02 -1.31,20.12 -1.45,20.18 -1.60,20.25 -1.75,20.28 -1.91,20.31 -2.07,20.30 -2.23,20.29 -2.38,20.24 -2.53,20.20 -2.66,20.11 -2.80,20.03 -2.91,19.92 -3.02,19.81 -3.11,19.68 -3.19,19.54 -3.24,19.39 -3.29,19.24 -3.30,19.08 -3.31,18.92 -4.26,18.12 -5.21,17.32 -5.14,16.19 -5.07,15.06 -4.63,13.11 -4.19,11.16 -4.11,9.96 -4.04,8.77 -3.85,7.20 -3.65,5.62 -3.36,3.96 -3.07,2.3 -2.82,1.15 -2.57,0 -2.54,-0.30 -2.50,-0.61 -2.39,-0.90 -2.28,-1.19 -2.10,-1.45 -1.92,-1.70 -1.69,-1.91 -1.46,-2.12 -1.18,-2.26 -0.91,-2.41 -0.61,-2.48 -0.31,-2.55 0.00,-2.55 0.31,-2.55 0.61,-2.48 0.91,-2.41 1.18,-2.26 1.46,-2.12 1.69,-1.91 1.92,-1.70 2.10,-1.45 2.28,-1.19 2.39,-0.90 2.50,-0.61 2.54,-0.30 2.57,0.00 2.57,0.00 L 2.57,0 Z"></path></g><g transform="translate(355.13637559786434 479) rotate(0 -1 9)" stroke="none"><path fill="#e03131" d="M 2.39,0 Q 2.39,0 2.68,1.15 2.96,2.3 3.00,3.36 3.04,4.42 3.09,6.17 3.14,7.92 3.15,9.76 3.16,11.59 0.61,14.95 -1.94,18.31 -2.15,18.28 -2.36,18.26 -2.56,18.16 -2.75,18.07 -2.90,17.92 -3.05,17.78 -3.15,17.59 -3.25,17.40 -3.28,17.19 -3.31,16.98 -3.27,16.77 -3.23,16.56 -3.13,16.37 -3.03,16.19 -2.87,16.04 -2.72,15.90 -2.52,15.81 -2.33,15.72 -2.12,15.70 -1.91,15.68 -1.70,15.73 -1.49,15.78 -1.31,15.89 -1.13,16.01 -1.00,16.17 -0.86,16.33 -0.78,16.53 -0.71,16.73 -0.70,16.94 -0.69,17.16 -0.75,17.36 -0.81,17.56 -0.93,17.74 -1.05,17.91 -1.23,18.04 -1.40,18.16 -1.60,18.23 -1.80,18.29 -2.01,18.29 -2.23,18.29 -2.43,18.22 -2.63,18.15 -2.79,18.02 -2.96,17.88 -3.08,17.71 -3.19,17.53 -3.25,17.32 -3.30,17.12 -3.29,16.91 -3.27,16.69 -3.19,16.50 -3.11,16.30 -2.97,16.14 -2.83,15.98 -2.65,15.88 -2.46,15.77 -2.26,15.73 -2.05,15.68 -2.05,15.68 -2.05,15.68 -2.61,13.64 -3.16,11.59 -3.15,9.76 -3.14,7.92 -3.09,6.17 -3.04,4.42 -3.00,3.36 -2.96,2.3 -2.68,1.15 -2.39,0 -2.36,-0.28 -2.32,-0.57 -2.22,-0.84 -2.12,-1.11 -1.95,-1.35 -1.79,-1.58 -1.57,-1.77 -1.36,-1.97 -1.10,-2.10 -0.84,-2.23 -0.56,-2.30 -0.28,-2.37 0.00,-2.37 0.28,-2.37 0.56,-2.30 0.84,-2.23 1.10,-2.10 1.36,-1.97 1.57,-1.77 1.79,-1.58 1.95,-1.35 2.12,-1.11 2.22,-0.84 2.32,-0.57 2.36,-0.28 2.39,0.00 2.39,0.00 L 2.39,0 Z"></path></g><g transform="translate(335.13637559786434 470) rotate(0 15 -2.5)" stroke="none"><path fill="#e03131" d="M -2.12,-0.53 Q -2.12,-0.53 -2.25,-1.85 -2.39,-3.18 -1.68,-4.31 -0.97,-5.45 0.00,-6.10 0.99,-6.75 2.22,-7.00 3.45,-7.24 5.78,-7.44 8.11,-7.64 9.20,-7.60 10.29,-7.55 11.36,-7.53 12.43,-7.50 13.74,-7.49 15.05,-7.48 16.18,-7.48 17.32,-7.47 18.69,-7.46 20.06,-7.46 21.44,-7.08 22.81,-6.70 24.04,-6.56 25.26,-6.41 26.53,-5.96 27.80,-5.52 29.24,-3.82 30.68,-2.12 30.84,-1.98 31.00,-1.84 31.11,-1.66 31.22,-1.48 31.26,-1.27 31.31,-1.06 31.28,-0.85 31.26,-0.64 31.17,-0.45 31.08,-0.25 30.93,-0.10 30.79,0.04 30.60,0.14 30.41,0.24 30.20,0.27 29.99,0.31 29.78,0.27 29.57,0.24 29.38,0.14 29.20,0.04 29.05,-0.11 28.91,-0.26 28.82,-0.46 28.73,-0.65 28.71,-0.86 28.68,-1.07 28.73,-1.28 28.78,-1.49 28.89,-1.67 29.00,-1.85 29.16,-1.99 29.32,-2.12 29.52,-2.20 29.72,-2.28 29.93,-2.29 30.14,-2.30 30.35,-2.24 30.55,-2.18 30.73,-2.07 30.90,-1.95 31.03,-1.78 31.16,-1.61 31.22,-1.40 31.29,-1.20 31.29,-0.99 31.29,-0.78 31.22,-0.58 31.15,-0.38 31.02,-0.21 30.89,-0.04 30.72,0.07 30.54,0.19 30.34,0.25 30.13,0.30 29.92,0.29 29.71,0.28 29.51,0.20 29.31,0.12 29.31,0.12 29.31,0.12 27.47,0.36 25.62,0.60 24.39,0.40 23.16,0.20 21.55,-0.16 19.94,-0.54 18.62,-0.54 17.29,-0.53 16.14,-0.54 14.99,-0.54 13.63,-0.56 12.26,-0.57 11.10,-0.60 9.94,-0.63 8.28,-0.94 6.62,-1.25 5.08,-1.33 3.54,-1.41 2.83,-0.44 2.12,0.53 2.02,0.77 1.93,1.02 1.78,1.23 1.63,1.45 1.43,1.62 1.23,1.80 1.00,1.92 0.76,2.04 0.51,2.10 0.25,2.17 -0.00,2.16 -0.27,2.16 -0.52,2.10 -0.78,2.04 -1.01,1.91 -1.24,1.79 -1.44,1.61 -1.64,1.44 -1.78,1.22 -1.93,1.00 -2.03,0.76 -2.12,0.51 -2.15,0.25 -2.18,-0.00 -2.15,-0.26 -2.12,-0.53 -2.12,-0.53 L -2.12,-0.53 Z"></path></g><g transform="translate(371.13637559786434 481) rotate(0 0.5 7)" stroke="none"><path fill="#e03131" d="M 2.15,-0.53 Q 2.15,-0.53 2.93,0.53 3.70,1.61 3.58,3.27 3.46,4.92 3.40,6.49 3.34,8.06 3.32,9.55 3.31,11.04 2.31,11.52 1.31,12.01 1.29,12.16 1.27,12.32 1.21,12.47 1.15,12.61 1.06,12.74 0.97,12.87 0.85,12.98 0.73,13.08 0.59,13.15 0.45,13.23 0.30,13.26 0.14,13.30 -0.01,13.30 -0.16,13.30 -0.32,13.26 -0.47,13.22 -0.61,13.14 -0.75,13.07 -0.87,12.96 -0.99,12.86 -1.07,12.73 -1.16,12.60 -1.22,12.45 -1.27,12.30 -1.29,12.14 -1.31,11.98 -1.27,11.78 -1.24,11.58 -1.14,11.39 -1.04,11.20 -0.89,11.05 -0.73,10.91 -0.54,10.82 -0.35,10.73 -0.14,10.71 0.07,10.68 0.27,10.73 0.48,10.77 0.66,10.88 0.84,10.99 0.98,11.16 1.12,11.32 1.20,11.51 1.28,11.71 1.29,11.92 1.30,12.14 1.24,12.34 1.19,12.55 1.07,12.72 0.95,12.90 0.78,13.03 0.61,13.16 0.41,13.22 0.21,13.29 0.00,13.29 -0.21,13.29 -0.41,13.22 -0.61,13.16 -0.78,13.03 -0.95,12.90 -1.07,12.72 -1.19,12.55 -1.24,12.34 -1.30,12.14 -1.29,11.93 -1.28,11.71 -1.20,11.52 -1.12,11.32 -0.98,11.16 -0.85,10.99 -0.66,10.88 -0.48,10.78 -0.27,10.73 -0.07,10.68 0.13,10.71 0.35,10.73 0.54,10.82 0.73,10.91 0.89,11.05 1.04,11.20 1.14,11.39 1.24,11.58 1.27,11.78 1.31,11.99 1.31,12.00 1.31,12.01 1.29,12.16 1.27,12.32 1.21,12.47 1.15,12.61 1.06,12.74 0.97,12.87 0.85,12.98 0.73,13.08 0.59,13.15 0.45,13.23 0.30,13.26 0.14,13.30 -0.01,13.30 -0.16,13.30 -0.32,13.26 -0.47,13.22 -0.61,13.14 -0.75,13.07 -0.87,12.96 -0.99,12.86 -1.07,12.73 -1.16,12.60 -1.22,12.45 -1.27,12.30 -1.29,12.14 -1.31,11.98 -2.29,10.81 -3.28,9.64 -3.22,7.95 -3.17,6.25 -2.86,4.61 -2.55,2.98 -2.35,1.76 -2.15,0.53 -2.19,0.27 -2.22,0.00 -2.19,-0.25 -2.16,-0.52 -2.06,-0.77 -1.97,-1.02 -1.82,-1.24 -1.67,-1.47 -1.47,-1.64 -1.27,-1.82 -1.03,-1.95 -0.79,-2.07 -0.53,-2.14 -0.27,-2.20 -0.00,-2.20 0.26,-2.21 0.52,-2.14 0.78,-2.08 1.02,-1.96 1.25,-1.83 1.46,-1.65 1.66,-1.48 1.81,-1.26 1.96,-1.04 2.06,-0.79 2.15,-0.53 2.15,-0.53 L 2.15,-0.53 Z"></path></g><g transform="translate(372.13637559786434 468) rotate(0 1 1)" stroke="none"><path fill="#e03131" d="M -1.13,-1.70 Q -1.13,-1.70 -0.27,-2.69 0.57,-3.67 2.18,-3.45 3.78,-3.23 4.56,-2.47 5.34,-1.71 5.10,0.47 4.86,2.66 4.27,3.81 3.67,4.96 2.74,5.56 1.81,6.16 0.30,6.10 -1.20,6.04 -2.38,4.60 -3.56,3.15 -3.64,1.97 -3.73,0.79 -2.90,-1.07 -2.08,-2.94 0.09,-3.46 2.27,-3.98 3.34,-2.55 4.41,-1.11 3.90,0.36 3.38,1.84 3.34,2.45 3.30,3.06 3.28,3.22 3.27,3.38 3.21,3.53 3.16,3.68 3.07,3.81 2.99,3.94 2.87,4.05 2.75,4.15 2.61,4.23 2.48,4.31 2.32,4.35 2.17,4.39 2.01,4.39 1.85,4.40 1.70,4.36 1.54,4.33 1.40,4.25 1.26,4.18 1.14,4.08 1.02,3.98 0.93,3.85 0.83,3.72 0.78,3.57 0.72,3.43 0.69,3.27 0.67,3.11 -0.21,1.91 -1.10,0.71 -1.18,0.51 -1.27,0.32 -1.29,0.10 -1.30,-0.10 -1.25,-0.30 -1.20,-0.51 -1.09,-0.69 -0.98,-0.87 -0.81,-1.00 -0.64,-1.14 -0.45,-1.21 -0.25,-1.28 -0.03,-1.29 0.17,-1.30 0.37,-1.24 0.58,-1.17 0.75,-1.05 0.92,-0.93 1.05,-0.75 1.17,-0.58 1.23,-0.38 1.30,-0.18 1.29,0.03 1.29,0.24 1.21,0.44 1.14,0.64 1.01,0.80 0.87,0.97 0.70,1.09 0.52,1.20 0.31,1.25 0.11,1.30 -0.10,1.29 -0.31,1.27 -0.50,1.19 -0.70,1.10 -0.86,0.96 -1.02,0.82 -1.12,0.64 -1.23,0.45 -1.27,0.24 -1.31,0.03 -1.28,-0.17 -1.25,-0.38 -1.16,-0.57 -1.06,-0.76 -0.91,-0.91 -0.76,-1.06 -0.57,-1.15 -0.38,-1.25 -0.17,-1.28 0.03,-1.31 0.24,-1.27 0.44,-1.23 0.63,-1.12 0.82,-1.02 0.96,-0.86 1.10,-0.71 1.10,-0.71 1.10,-0.71 2.20,1.17 3.30,3.06 3.28,3.22 3.27,3.38 3.21,3.53 3.16,3.68 3.07,3.81 2.99,3.94 2.87,4.05 2.75,4.15 2.61,4.23 2.48,4.31 2.32,4.35 2.17,4.39 2.01,4.39 1.85,4.40 1.70,4.36 1.54,4.33 1.40,4.25 1.26,4.18 1.14,4.08 1.02,3.98 0.93,3.85 0.83,3.72 0.78,3.57 0.72,3.43 0.69,3.27 0.67,3.11 0.43,1.96 0.19,0.80 1.53,1.09 2.87,1.37 2.00,1.54 1.13,1.70 0.91,1.81 0.69,1.92 0.45,1.98 0.21,2.03 -0.03,2.03 -0.27,2.02 -0.51,1.96 -0.75,1.90 -0.97,1.78 -1.19,1.66 -1.37,1.50 -1.55,1.33 -1.69,1.12 -1.82,0.92 -1.91,0.69 -1.99,0.45 -2.02,0.21 -2.04,-0.03 -2.01,-0.27 -1.98,-0.52 -1.88,-0.75 -1.79,-0.98 -1.65,-1.18 -1.51,-1.38 -1.32,-1.54 -1.13,-1.70 -1.13,-1.70 L -1.13,-1.70 Z"></path></g><g transform="translate(526.1363755978643 143) rotate(0 12.5 10)" stroke="none"><path fill="#1e1e1e" d="M 0,-2.36 Q 0,-2.36 1.42,-2.81 2.85,-3.27 4.94,-3.67 7.03,-4.08 8.81,-4.16 10.59,-4.25 12.27,-4.26 13.95,-4.28 15.57,-4.05 17.18,-3.81 18.32,-2.67 19.46,-1.53 19.47,0.32 19.48,2.17 19.04,3.42 18.60,4.66 18.12,5.76 17.63,6.85 17.14,7.89 16.65,8.93 15.79,10.35 14.94,11.78 14.36,12.85 13.77,13.92 13.12,14.84 12.46,15.77 11.84,17.05 11.22,18.32 10.46,19.16 9.69,20.00 10.05,18.78 10.40,17.55 12.37,17.54 14.34,17.52 16.42,17.56 18.49,17.60 20.50,17.62 22.51,17.64 23.60,17.75 24.69,17.87 24.74,17.66 24.80,17.46 24.91,17.28 25.03,17.10 25.20,16.97 25.37,16.84 25.57,16.77 25.77,16.70 25.98,16.70 26.19,16.70 26.40,16.76 26.60,16.83 26.77,16.96 26.94,17.08 27.06,17.26 27.18,17.43 27.24,17.64 27.30,17.84 27.29,18.05 27.28,18.26 27.20,18.46 27.13,18.66 26.99,18.82 26.86,18.99 26.67,19.10 26.49,19.21 26.29,19.26 26.08,19.31 25.87,19.28 25.66,19.26 25.46,19.18 25.27,19.09 25.11,18.94 24.96,18.80 24.86,18.61 24.75,18.43 24.72,18.22 24.68,18.01 24.71,17.80 24.75,17.59 24.84,17.40 24.94,17.21 25.09,17.06 25.25,16.92 25.44,16.82 25.63,16.73 25.84,16.71 26.05,16.68 26.26,16.73 26.47,16.77 26.65,16.88 26.84,16.99 26.97,17.15 27.11,17.31 27.19,17.50 27.27,17.70 27.29,17.91 27.30,18.12 27.30,18.12 27.30,18.12 26.60,20.89 25.90,23.66 24.20,24.00 22.50,24.34 20.46,24.35 18.41,24.36 17.35,24.35 16.28,24.33 15.13,24.30 13.98,24.27 12.54,24.18 11.09,24.09 8.99,23.40 6.89,22.70 5.91,21.89 4.94,21.07 4.56,19.54 4.17,18.01 5.05,16.02 5.93,14.04 6.99,12.40 8.05,10.76 8.70,9.58 9.35,8.40 10.05,7.26 10.75,6.11 11.21,5.15 11.67,4.19 12.37,2.55 13.07,0.91 14.11,1.60 15.14,2.29 13.88,2.29 12.62,2.30 10.87,2.32 9.12,2.35 7.57,2.48 6.01,2.60 4.45,2.93 2.89,3.27 1.44,2.81 0,2.36 -0.28,2.33 -0.56,2.29 -0.83,2.19 -1.10,2.09 -1.33,1.93 -1.57,1.77 -1.75,1.55 -1.94,1.34 -2.08,1.09 -2.21,0.83 -2.28,0.56 -2.35,0.28 -2.35,-0.00 -2.35,-0.28 -2.28,-0.56 -2.21,-0.83 -2.08,-1.09 -1.94,-1.34 -1.75,-1.55 -1.56,-1.77 -1.33,-1.93 -1.10,-2.09 -0.83,-2.19 -0.56,-2.29 -0.28,-2.33 0.00,-2.36 0.00,-2.36 L 0,-2.36 Z"></path></g><g transform="translate(545.1363755978643 153) rotate(0 -8.5 -0.5)" stroke="none"><path fill="#1e1e1e" d="M -0.38,2.31 Q -0.38,2.31 -2.15,2.27 -3.91,2.22 -5.12,2.12 -6.33,2.01 -7.39,1.96 -8.45,1.91 -10.20,1.83 -11.94,1.75 -14.47,1.03 -17.00,0.31 -17.21,0.27 -17.42,0.24 -17.60,0.14 -17.79,0.04 -17.94,-0.10 -18.08,-0.26 -18.17,-0.45 -18.26,-0.65 -18.28,-0.86 -18.31,-1.07 -18.26,-1.28 -18.21,-1.48 -18.10,-1.66 -17.99,-1.85 -17.83,-1.98 -17.67,-2.12 -17.47,-2.20 -17.28,-2.28 -17.06,-2.29 -16.85,-2.30 -16.65,-2.24 -16.44,-2.19 -16.27,-2.07 -16.09,-1.95 -15.96,-1.78 -15.83,-1.61 -15.77,-1.41 -15.70,-1.21 -15.70,-0.99 -15.70,-0.78 -15.77,-0.58 -15.84,-0.38 -15.96,-0.21 -16.09,-0.04 -16.27,0.07 -16.45,0.19 -16.65,0.24 -16.85,0.30 -17.07,0.29 -17.28,0.28 -17.48,0.20 -17.67,0.12 -17.84,-0.01 -18.00,-0.15 -18.11,-0.33 -18.22,-0.51 -18.26,-0.72 -18.31,-0.93 -18.28,-1.14 -18.26,-1.35 -18.17,-1.54 -18.08,-1.73 -17.93,-1.89 -17.79,-2.04 -17.60,-2.14 -17.41,-2.24 -17.20,-2.27 -16.99,-2.31 -16.99,-2.31 -16.99,-2.31 -15.33,-2.97 -13.67,-3.63 -12.02,-3.70 -10.38,-3.77 -9.28,-3.77 -8.19,-3.76 -6.99,-3.70 -5.80,-3.65 -4.39,-3.51 -2.98,-3.37 -1.29,-2.84 0.38,-2.31 0.65,-2.23 0.92,-2.15 1.17,-2.01 1.41,-1.87 1.62,-1.67 1.82,-1.47 1.97,-1.23 2.12,-0.99 2.21,-0.72 2.30,-0.46 2.32,-0.17 2.34,0.10 2.29,0.38 2.25,0.66 2.14,0.92 2.02,1.18 1.85,1.40 1.68,1.63 1.46,1.81 1.24,1.98 0.99,2.10 0.73,2.23 0.45,2.28 0.17,2.34 -0.10,2.32 -0.38,2.31 -0.38,2.31 L -0.38,2.31 Z"></path></g><g transform="translate(556.1363755978643 133) rotate(0 1 15.5)" stroke="none"><path fill="#1e1e1e" d="M 2.07,-1.03 Q 2.07,-1.03 2.87,0.00 3.67,1.04 4.19,3.18 4.71,5.33 4.80,6.99 4.90,8.64 4.93,9.89 4.95,11.14 4.97,12.53 4.98,13.93 4.99,15.39 5.00,16.84 5.00,18.32 5.00,19.81 5.00,21.30 5.00,22.79 5.00,24.00 5.00,25.21 4.99,26.30 4.98,27.39 4.14,29.19 3.31,30.99 3.27,31.20 3.24,31.41 3.14,31.60 3.04,31.79 2.89,31.94 2.73,32.08 2.54,32.17 2.35,32.26 2.14,32.28 1.92,32.31 1.72,32.26 1.51,32.22 1.33,32.11 1.14,32.00 1.01,31.83 0.87,31.67 0.79,31.47 0.71,31.28 0.70,31.07 0.69,30.85 0.75,30.65 0.80,30.44 0.92,30.27 1.04,30.09 1.21,29.96 1.38,29.83 1.58,29.77 1.78,29.70 2.00,29.70 2.21,29.70 2.41,29.77 2.61,29.83 2.78,29.96 2.95,30.09 3.07,30.27 3.19,30.44 3.24,30.65 3.30,30.85 3.29,31.07 3.28,31.28 3.20,31.47 3.12,31.67 2.98,31.83 2.85,32.00 2.66,32.11 2.48,32.22 2.27,32.26 2.07,32.31 1.85,32.28 1.64,32.26 1.45,32.17 1.26,32.08 1.10,31.94 0.95,31.79 0.85,31.60 0.75,31.41 0.72,31.20 0.68,30.99 0.68,30.99 0.68,31.00 -0.14,29.19 -0.98,27.39 -0.99,26.30 -1.00,25.21 -1.00,24.00 -1.00,22.79 -1.00,21.30 -1.00,19.81 -1.00,18.33 -1.01,16.86 -1.01,15.41 -1.00,13.97 -1.01,12.60 -1.01,11.23 -1.02,10.02 -1.03,8.81 -1.02,7.40 -1.02,5.99 -1.19,4.77 -1.37,3.55 -1.72,2.29 -2.07,1.03 -2.17,0.77 -2.26,0.51 -2.29,0.23 -2.32,-0.04 -2.28,-0.32 -2.24,-0.59 -2.13,-0.85 -2.03,-1.11 -1.87,-1.34 -1.70,-1.57 -1.49,-1.75 -1.28,-1.93 -1.03,-2.06 -0.78,-2.18 -0.50,-2.24 -0.23,-2.31 0.04,-2.30 0.32,-2.29 0.59,-2.22 0.86,-2.15 1.11,-2.01 1.35,-1.88 1.56,-1.69 1.76,-1.50 1.92,-1.27 2.07,-1.03 2.07,-1.03 L 2.07,-1.03 Z"></path></g><g transform="translate(520.1363755978643 135) rotate(0 0 16)" stroke="none"><path fill="#1e1e1e" d="M 1.54,-1.54 Q 1.54,-1.54 2.19,-1.39 2.84,-1.24 3.31,0.16 3.78,1.57 3.53,3.03 3.28,4.49 3.21,6.77 3.14,9.04 3.13,10.47 3.13,11.90 2.81,13.66 2.49,15.42 2.39,16.73 2.29,18.05 2.25,19.47 2.20,20.89 2.18,22.93 2.15,24.96 2.13,26.41 2.11,27.86 1.66,30.68 1.21,33.49 1.26,33.70 1.31,33.91 1.28,34.12 1.26,34.33 1.18,34.53 1.09,34.72 0.95,34.88 0.80,35.03 0.62,35.13 0.43,35.23 0.22,35.27 0.01,35.31 -0.19,35.28 -0.40,35.24 -0.59,35.15 -0.78,35.05 -0.93,34.90 -1.07,34.74 -1.16,34.55 -1.26,34.36 -1.28,34.15 -1.31,33.94 -1.26,33.73 -1.22,33.52 -1.11,33.34 -1.01,33.16 -0.85,33.02 -0.69,32.88 -0.49,32.80 -0.29,32.72 -0.08,32.70 0.12,32.69 0.33,32.74 0.53,32.80 0.71,32.91 0.89,33.03 1.02,33.20 1.15,33.37 1.22,33.57 1.29,33.77 1.29,33.98 1.29,34.19 1.23,34.39 1.16,34.60 1.04,34.77 0.91,34.94 0.73,35.06 0.56,35.18 0.36,35.24 0.15,35.30 -0.05,35.29 -0.26,35.28 -0.46,35.20 -0.66,35.13 -0.82,34.99 -0.99,34.86 -1.10,34.68 -1.21,34.50 -1.21,34.50 -1.21,34.50 -2.65,31.16 -4.08,27.82 -4.09,26.36 -4.09,24.90 -4.06,22.78 -4.04,20.67 -3.98,19.10 -3.92,17.53 -3.77,15.86 -3.62,14.20 -3.35,13.00 -3.07,11.80 -3.04,10.33 -3.01,8.85 -2.95,7.39 -2.89,5.93 -2.29,4.16 -1.69,2.39 -1.61,1.97 -1.54,1.54 -1.71,1.34 -1.87,1.13 -1.98,0.89 -2.09,0.65 -2.13,0.39 -2.18,0.13 -2.16,-0.13 -2.15,-0.39 -2.07,-0.64 -1.99,-0.89 -1.85,-1.12 -1.72,-1.35 -1.53,-1.53 -1.35,-1.72 -1.12,-1.85 -0.89,-1.99 -0.64,-2.07 -0.39,-2.15 -0.13,-2.16 0.13,-2.18 0.39,-2.13 0.65,-2.09 0.89,-1.98 1.13,-1.87 1.34,-1.71 1.54,-1.54 1.54,-1.54 L 1.54,-1.54 Z"></path></g><g transform="translate(585.1363755978643 159) rotate(0 -5 0.5)" stroke="none"><path fill="#1e1e1e" d="M 0.47,2.38 Q 0.47,2.38 -0.92,2.86 -2.31,3.35 -4.05,3.51 -5.79,3.67 -7.89,2.99 -9.98,2.31 -10.19,2.28 -10.40,2.24 -10.59,2.14 -10.78,2.05 -10.93,1.89 -11.08,1.74 -11.17,1.55 -11.26,1.36 -11.28,1.15 -11.31,0.93 -11.26,0.73 -11.22,0.52 -11.11,0.34 -11.00,0.15 -10.84,0.01 -10.68,-0.12 -10.48,-0.20 -10.29,-0.28 -10.08,-0.29 -9.86,-0.30 -9.66,-0.25 -9.45,-0.19 -9.28,-0.07 -9.10,0.03 -8.97,0.20 -8.84,0.37 -8.77,0.57 -8.70,0.77 -8.70,0.99 -8.70,1.20 -8.76,1.40 -8.83,1.60 -8.96,1.77 -9.08,1.94 -9.26,2.06 -9.43,2.18 -9.64,2.24 -9.84,2.30 -10.06,2.29 -10.27,2.28 -10.47,2.20 -10.66,2.13 -10.83,1.99 -10.99,1.85 -11.10,1.67 -11.21,1.49 -11.26,1.28 -11.31,1.08 -11.28,0.86 -11.26,0.65 -11.18,0.46 -11.09,0.27 -10.94,0.11 -10.80,-0.03 -10.61,-0.14 -10.42,-0.24 -10.21,-0.27 -10.00,-0.31 -10.01,-0.31 -10.01,-0.31 -8.11,-1.07 -6.22,-1.83 -4.82,-2.02 -3.43,-2.20 -1.95,-2.29 -0.47,-2.38 -0.18,-2.40 0.10,-2.42 0.39,-2.37 0.68,-2.32 0.95,-2.21 1.22,-2.09 1.45,-1.92 1.68,-1.74 1.87,-1.51 2.05,-1.28 2.18,-1.02 2.30,-0.75 2.36,-0.47 2.42,-0.18 2.40,0.10 2.39,0.39 2.31,0.67 2.22,0.96 2.08,1.21 1.93,1.46 1.73,1.67 1.52,1.88 1.27,2.04 1.03,2.19 0.75,2.28 0.47,2.38 0.47,2.38 L 0.47,2.38 Z"></path></g><g transform="translate(584.1363755978643 150) rotate(0 -7 0.5)" stroke="none"><path fill="#1e1e1e" d="M 0,2.30 Q 0,2.30 -1.43,2.56 -2.87,2.83 -4.04,2.82 -5.22,2.81 -7.25,3.03 -9.27,3.26 -10.43,2.83 -11.58,2.40 -12.86,1.85 -14.14,1.30 -14.35,1.24 -14.55,1.18 -14.73,1.06 -14.90,0.94 -15.03,0.77 -15.16,0.60 -15.23,0.40 -15.29,0.20 -15.29,-0.00 -15.29,-0.21 -15.22,-0.41 -15.15,-0.62 -15.02,-0.78 -14.89,-0.95 -14.72,-1.07 -14.54,-1.19 -14.34,-1.25 -14.13,-1.30 -13.92,-1.29 -13.71,-1.28 -13.51,-1.20 -13.31,-1.12 -13.15,-0.98 -12.99,-0.84 -12.88,-0.66 -12.77,-0.48 -12.73,-0.27 -12.68,-0.06 -12.71,0.14 -12.73,0.35 -12.82,0.54 -12.91,0.74 -13.06,0.89 -13.21,1.04 -13.39,1.14 -13.58,1.24 -13.79,1.27 -14.00,1.31 -14.21,1.27 -14.42,1.24 -14.61,1.14 -14.79,1.04 -14.94,0.88 -15.09,0.73 -15.17,0.53 -15.26,0.34 -15.28,0.13 -15.31,-0.07 -15.26,-0.28 -15.21,-0.49 -15.10,-0.67 -14.99,-0.85 -14.83,-0.99 -14.67,-1.12 -14.47,-1.20 -14.27,-1.28 -14.06,-1.29 -13.85,-1.30 -13.85,-1.30 -13.85,-1.30 -12.06,-1.50 -10.26,-1.70 -9.18,-1.87 -8.09,-2.03 -6.68,-2.42 -5.27,-2.81 -4.07,-2.82 -2.87,-2.83 -1.43,-2.56 0,-2.30 0.27,-2.27 0.55,-2.23 0.81,-2.13 1.07,-2.04 1.30,-1.88 1.52,-1.72 1.71,-1.51 1.89,-1.30 2.02,-1.06 2.15,-0.81 2.22,-0.54 2.28,-0.27 2.28,0.00 2.28,0.27 2.22,0.54 2.15,0.81 2.02,1.06 1.89,1.30 1.71,1.51 1.52,1.72 1.29,1.88 1.07,2.04 0.81,2.13 0.55,2.23 0.27,2.27 -0.00,2.30 -0.00,2.30 L 0,2.30 Z"></path></g><g transform="translate(594.1363755978643 134) rotate(0 10 18.5)" stroke="none"><path fill="#1e1e1e" d="M 2.26,0.37 Q 2.26,0.37 2.28,2.15 2.31,3.93 2.21,5.13 2.12,6.34 2.09,7.67 2.06,9.01 2.07,10.72 2.08,12.43 2.49,14.69 2.90,16.95 3.79,17.79 4.69,18.63 5.72,17.69 6.75,16.76 7.64,15.95 8.53,15.13 9.28,13.89 10.04,12.65 10.80,11.62 11.57,10.59 14.08,8.85 16.60,7.12 17.76,8.61 18.91,10.11 18.98,12.18 19.04,14.26 19.06,15.62 19.08,16.98 19.38,19.09 19.68,21.20 20.06,22.90 20.45,24.59 20.65,26.41 20.85,28.23 21.48,30.24 22.11,32.25 22.15,34.35 22.19,36.45 22.25,36.66 22.30,36.86 22.29,37.08 22.28,37.29 22.19,37.48 22.11,37.68 21.98,37.84 21.84,38.00 21.65,38.11 21.47,38.22 21.26,38.26 21.06,38.31 20.84,38.28 20.63,38.26 20.44,38.17 20.25,38.08 20.10,37.93 19.94,37.78 19.84,37.59 19.75,37.40 19.71,37.19 19.68,36.98 19.72,36.77 19.75,36.57 19.86,36.38 19.96,36.19 20.11,36.05 20.27,35.90 20.46,35.81 20.65,35.73 20.87,35.71 21.08,35.68 21.28,35.73 21.49,35.78 21.67,35.89 21.85,36.00 21.99,36.16 22.13,36.33 22.20,36.53 22.28,36.72 22.29,36.94 22.30,37.15 22.24,37.35 22.18,37.56 22.06,37.73 21.94,37.91 21.77,38.03 21.60,38.16 21.40,38.23 21.20,38.29 20.98,38.29 20.77,38.29 20.57,38.22 20.37,38.15 20.20,38.02 20.03,37.89 19.92,37.71 19.80,37.54 19.80,37.54 19.80,37.54 18.19,35.99 16.58,34.44 16.02,33.20 15.46,31.96 15.04,30.43 14.62,28.90 14.48,27.43 14.33,25.95 13.89,23.97 13.46,21.98 13.18,19.49 12.90,17.00 12.91,15.65 12.93,14.30 12.93,12.64 12.94,10.98 13.80,11.78 14.66,12.59 16.04,12.75 17.42,12.91 16.25,14.38 15.08,15.86 13.89,17.67 12.70,19.47 11.72,20.43 10.74,21.39 9.66,22.30 8.59,23.21 7.54,23.75 6.48,24.29 4.88,24.44 3.28,24.60 2.17,24.17 1.06,23.74 -0.05,22.84 -1.16,21.93 -1.76,21.03 -2.35,20.12 -2.88,17.90 -3.42,15.68 -3.72,14.03 -4.01,12.38 -3.96,10.59 -3.91,8.79 -3.83,7.29 -3.76,5.79 -3.61,4.38 -3.46,2.96 -2.86,1.29 -2.26,-0.37 -2.18,-0.64 -2.10,-0.90 -1.96,-1.14 -1.82,-1.38 -1.63,-1.58 -1.44,-1.78 -1.20,-1.92 -0.97,-2.07 -0.71,-2.16 -0.44,-2.24 -0.17,-2.26 0.10,-2.29 0.37,-2.24 0.64,-2.19 0.90,-2.08 1.15,-1.98 1.37,-1.81 1.59,-1.64 1.76,-1.43 1.94,-1.21 2.05,-0.96 2.17,-0.71 2.23,-0.44 2.28,-0.17 2.27,0.10 2.26,0.37 2.26,0.37 L 2.26,0.37 Z"></path></g><g transform="translate(669.1363755978643 259) rotate(0 13 8)" stroke="none"><path fill="#1e1e1e" d="M 2.22,0 Q 2.22,0 2.75,1.43 3.28,2.87 3.28,4.06 3.29,5.24 3.29,6.90 3.29,8.55 3.29,10.12 3.29,11.68 3.29,13.50 3.29,15.31 3.29,16.94 3.29,18.57 3.55,19.83 3.81,21.10 3.95,22.47 4.10,23.84 4.15,25.03 4.21,26.21 4.18,27.61 4.14,29.00 4.11,29.38 4.07,29.76 3.95,30.12 3.82,30.48 3.62,30.80 3.41,31.12 3.13,31.38 2.85,31.64 2.52,31.83 2.19,32.02 1.82,32.12 1.45,32.22 1.07,32.23 0.69,32.24 0.32,32.16 -0.04,32.08 -0.39,31.92 -0.73,31.75 -1.02,31.50 -1.31,31.26 -1.54,30.95 -1.76,30.65 -1.91,30.29 -2.06,29.94 -2.11,29.56 -2.17,29.19 -1.95,27.70 -1.72,26.21 -1.70,24.03 -1.69,21.85 -1.68,20.46 -1.67,19.06 -1.66,17.32 -1.65,15.57 -1.64,13.68 -1.64,11.79 -1.92,10.03 -2.19,8.27 -2.32,6.48 -2.45,4.69 -2.77,3.29 -3.09,1.89 -3.27,0.52 -3.46,-0.84 -3.56,-2.33 -3.66,-3.82 -3.71,-5.01 -3.76,-6.21 -3.80,-7.92 -3.84,-9.64 -3.44,-11.71 -3.03,-13.79 -2.24,-14.72 -1.45,-15.66 0.21,-16.23 1.88,-16.81 3.04,-16.87 4.19,-16.94 6.37,-16.60 8.55,-16.26 9.65,-15.81 10.75,-15.35 11.78,-14.87 12.81,-14.39 14.61,-13.64 16.40,-12.89 17.65,-12.19 18.89,-11.49 20.12,-10.52 21.34,-9.54 22.16,-8.78 22.97,-8.01 23.64,-6.55 24.31,-5.10 24.21,-3.26 24.10,-1.43 23.71,0.11 23.32,1.67 22.85,3.19 22.39,4.71 21.47,6.25 20.54,7.79 19.54,9.01 18.53,10.23 17.51,11.34 16.49,12.44 14.89,13.42 13.29,14.40 12.25,14.81 11.21,15.22 8.33,13.99 5.44,12.76 6.09,13.58 6.75,14.40 6.42,14.22 6.10,14.04 5.83,13.78 5.56,13.53 5.36,13.22 5.16,12.91 5.04,12.56 4.92,12.21 4.89,11.84 4.85,11.47 4.91,11.11 4.97,10.74 5.11,10.40 5.25,10.06 5.47,9.76 5.69,9.46 5.97,9.22 6.26,8.99 6.59,8.83 6.92,8.66 7.28,8.59 7.64,8.51 8.01,8.52 8.38,8.53 8.74,8.63 9.10,8.73 10.58,9.32 12.06,9.91 13.30,10.74 14.55,11.58 15.59,12.69 16.63,13.81 17.40,14.61 18.17,15.42 19.08,16.34 19.99,17.27 21.86,18.74 23.74,20.22 24.67,21.40 25.59,22.58 26.00,24.70 26.40,26.82 26.60,26.76 26.81,26.70 27.02,26.70 27.23,26.70 27.43,26.77 27.63,26.85 27.80,26.98 27.96,27.11 28.08,27.29 28.20,27.46 28.25,27.67 28.30,27.88 28.29,28.09 28.27,28.30 28.19,28.50 28.11,28.69 27.97,28.85 27.83,29.01 27.64,29.12 27.46,29.22 27.25,29.27 27.04,29.31 26.83,29.28 26.62,29.25 26.43,29.16 26.24,29.07 26.09,28.92 25.94,28.77 25.84,28.58 25.74,28.39 25.71,28.18 25.68,27.97 25.72,27.76 25.76,27.55 25.86,27.37 25.96,27.18 26.12,27.04 26.28,26.89 26.47,26.81 26.67,26.72 26.88,26.70 27.09,26.69 27.30,26.73 27.50,26.78 27.68,26.90 27.86,27.01 28.00,27.17 28.13,27.34 28.21,27.54 28.28,27.74 28.29,27.95 28.30,28.16 28.24,28.36 28.18,28.57 28.05,28.74 27.93,28.92 27.76,29.04 27.59,29.17 27.59,29.17 27.59,29.17 25.12,28.88 22.64,28.59 20.99,26.89 19.33,25.19 18.47,24.43 17.62,23.67 16.44,22.78 15.25,21.89 14.30,20.89 13.34,19.90 12.24,18.47 11.13,17.03 9.99,16.01 8.84,14.98 7.80,14.69 6.75,14.40 6.42,14.22 6.10,14.04 5.83,13.78 5.56,13.53 5.36,13.22 5.16,12.91 5.04,12.56 4.92,12.21 4.89,11.84 4.85,11.47 4.91,11.11 4.97,10.74 5.11,10.40 5.25,10.06 5.47,9.76 5.69,9.46 5.97,9.23 6.26,8.99 6.59,8.83 6.92,8.66 7.28,8.59 7.64,8.51 8.01,8.52 8.38,8.53 8.74,8.63 9.10,8.73 9.65,10.32 10.20,11.92 9.71,10.89 9.22,9.86 10.78,9.17 12.33,8.49 13.22,7.53 14.11,6.56 15.50,4.77 16.89,2.99 17.31,1.61 17.72,0.23 18.03,-0.96 18.35,-2.17 17.97,-3.55 17.59,-4.92 15.85,-6.15 14.10,-7.38 12.19,-8.17 10.27,-8.97 8.51,-9.77 6.76,-10.57 5.54,-10.79 4.33,-11.01 3.09,-10.34 1.86,-9.67 1.85,-8.00 1.84,-6.33 1.84,-5.20 1.84,-4.06 1.86,-2.76 1.88,-1.46 1.99,-0.34 2.09,0.78 2.45,2.54 2.82,4.30 2.93,5.90 3.04,7.50 3.34,9.64 3.64,11.79 3.64,13.68 3.65,15.57 3.66,17.32 3.67,19.06 3.68,20.46 3.69,21.85 3.70,24.03 3.72,26.22 3.93,27.61 4.14,29.00 4.11,29.38 4.07,29.76 3.95,30.12 3.82,30.48 3.62,30.80 3.41,31.12 3.13,31.38 2.85,31.64 2.52,31.83 2.19,32.02 1.82,32.12 1.45,32.22 1.07,32.23 0.69,32.24 0.32,32.16 -0.04,32.08 -0.39,31.92 -0.73,31.75 -1.02,31.50 -1.31,31.26 -1.54,30.95 -1.76,30.65 -1.91,30.29 -2.06,29.94 -2.11,29.56 -2.17,29.19 -2.25,28.58 -2.32,27.97 -2.39,26.23 -2.46,24.49 -2.56,23.39 -2.66,22.29 -2.98,20.44 -3.29,18.59 -3.29,16.95 -3.29,15.31 -3.29,13.50 -3.29,11.68 -3.29,10.12 -3.29,8.55 -3.29,6.90 -3.29,5.24 -3.28,4.06 -3.28,2.87 -2.75,1.43 -2.22,0 -2.19,-0.26 -2.16,-0.53 -2.06,-0.78 -1.97,-1.03 -1.81,-1.25 -1.66,-1.47 -1.46,-1.65 -1.26,-1.83 -1.02,-1.95 -0.78,-2.08 -0.52,-2.14 -0.26,-2.21 0.00,-2.21 0.26,-2.21 0.52,-2.14 0.79,-2.08 1.02,-1.95 1.26,-1.83 1.46,-1.65 1.66,-1.47 1.82,-1.25 1.97,-1.03 2.06,-0.78 2.16,-0.53 2.19,-0.26 2.22,0.00 2.22,0.00 L 2.22,0 Z"></path></g><g transform="translate(706.1363755978643 277) rotate(0 13 -1.5)" stroke="none"><path fill="#1e1e1e" d="M 0.57,-2.28 Q 0.57,-2.28 1.73,-2.31 2.89,-2.35 3.83,-3.27 4.77,-4.18 5.91,-6.38 7.04,-8.57 7.33,-9.67 7.63,-10.76 8.74,-10.46 9.85,-10.15 8.70,-8.51 7.55,-6.87 6.98,-5.93 6.41,-5.00 5.97,-3.88 5.53,-2.75 5.04,-1.64 4.55,-0.54 5.28,1.09 6.00,2.73 7.45,3.94 8.90,5.14 10.07,5.64 11.23,6.14 12.56,6.30 13.90,6.45 15.36,6.60 16.82,6.75 18.03,6.61 19.24,6.48 20.47,6.12 21.70,5.75 23.40,4.89 25.10,4.03 25.28,3.91 25.46,3.80 25.66,3.74 25.87,3.69 26.08,3.70 26.29,3.72 26.49,3.80 26.69,3.88 26.85,4.02 27.01,4.16 27.11,4.34 27.22,4.52 27.26,4.73 27.31,4.94 27.28,5.15 27.26,5.36 27.16,5.55 27.07,5.74 26.93,5.90 26.78,6.05 26.59,6.15 26.40,6.24 26.19,6.28 25.98,6.31 25.77,6.27 25.56,6.23 25.37,6.13 25.19,6.03 25.04,5.87 24.90,5.72 24.81,5.53 24.73,5.33 24.70,5.12 24.68,4.91 24.73,4.70 24.78,4.49 24.89,4.31 25.00,4.13 25.17,4.00 25.33,3.86 25.53,3.79 25.73,3.71 25.94,3.70 26.15,3.69 26.36,3.75 26.56,3.81 26.74,3.93 26.91,4.05 27.04,4.22 27.16,4.39 27.23,4.60 27.29,4.80 27.29,5.01 27.29,5.22 27.22,5.42 27.15,5.62 27.02,5.79 26.89,5.96 26.89,5.96 26.89,5.96 25.34,8.10 23.80,10.24 21.99,11.23 20.19,12.22 18.31,12.57 16.43,12.92 14.70,12.84 12.96,12.77 10.82,12.40 8.68,12.04 7.09,11.32 5.49,10.60 3.87,9.46 2.25,8.33 1.23,6.92 0.21,5.51 -0.51,3.65 -1.24,1.80 -1.11,-0.49 -0.97,-2.80 -0.39,-3.96 0.18,-5.11 0.89,-6.61 1.61,-8.11 2.41,-9.29 3.22,-10.46 4.40,-11.82 5.59,-13.18 6.96,-14.04 8.34,-14.90 9.56,-14.83 10.79,-14.76 12.16,-13.24 13.52,-11.72 13.41,-10.48 13.30,-9.25 12.87,-7.65 12.44,-6.06 11.46,-3.99 10.49,-1.92 9.62,-0.79 8.75,0.33 7.67,1.23 6.60,2.13 5.56,2.65 4.52,3.17 3.11,3.34 1.70,3.50 0.56,2.89 -0.57,2.28 -0.83,2.18 -1.10,2.08 -1.33,1.91 -1.56,1.75 -1.75,1.54 -1.94,1.33 -2.07,1.07 -2.20,0.82 -2.27,0.55 -2.33,0.27 -2.33,-0.00 -2.33,-0.29 -2.26,-0.56 -2.19,-0.84 -2.06,-1.09 -1.93,-1.34 -1.74,-1.55 -1.55,-1.76 -1.32,-1.92 -1.08,-2.08 -0.82,-2.18 -0.55,-2.28 -0.27,-2.32 0.00,-2.35 0.28,-2.31 0.57,-2.28 0.57,-2.28 L 0.57,-2.28 Z"></path></g><g transform="translate(348.13637559786434 44) rotate(0 -11 0.5)" stroke="none"><path fill="#1e1e1e" d="M 0,2.54 Q 0,2.54 -1.43,2.76 -2.87,2.99 -4.04,2.99 -5.22,2.99 -7.49,3.40 -9.77,3.81 -11.27,3.87 -12.78,3.93 -13.99,3.95 -15.19,3.97 -16.29,3.98 -17.38,3.99 -19.68,3.15 -21.99,2.31 -22.15,2.29 -22.30,2.27 -22.45,2.22 -22.60,2.16 -22.73,2.07 -22.86,1.98 -22.97,1.86 -23.07,1.75 -23.15,1.61 -23.22,1.47 -23.26,1.31 -23.30,1.16 -23.30,1.00 -23.30,0.84 -23.26,0.69 -23.23,0.54 -23.15,0.40 -23.08,0.25 -22.98,0.14 -22.87,0.02 -22.74,-0.06 -22.61,-0.15 -22.46,-0.21 -22.32,-0.27 -22.16,-0.29 -22.00,-0.31 -21.79,-0.27 -21.57,-0.24 -21.39,-0.14 -21.20,-0.04 -21.05,0.11 -20.91,0.26 -20.82,0.45 -20.73,0.65 -20.71,0.86 -20.68,1.07 -20.73,1.28 -20.78,1.48 -20.89,1.67 -21.00,1.85 -21.16,1.98 -21.32,2.12 -21.52,2.20 -21.72,2.28 -21.93,2.29 -22.14,2.30 -22.34,2.24 -22.55,2.19 -22.72,2.07 -22.90,1.95 -23.03,1.78 -23.16,1.61 -23.22,1.41 -23.29,1.20 -23.29,0.99 -23.29,0.78 -23.22,0.58 -23.15,0.38 -23.03,0.21 -22.90,0.04 -22.72,-0.07 -22.54,-0.19 -22.34,-0.24 -22.13,-0.30 -21.92,-0.29 -21.71,-0.28 -21.51,-0.20 -21.32,-0.12 -21.15,0.01 -20.99,0.15 -20.88,0.33 -20.77,0.51 -20.73,0.72 -20.68,0.93 -20.71,1.14 -20.73,1.35 -20.82,1.54 -20.91,1.73 -21.06,1.89 -21.20,2.04 -21.39,2.14 -21.58,2.24 -21.79,2.27 -22.00,2.31 -21.99,2.31 -21.99,2.31 -22.15,2.29 -22.30,2.27 -22.45,2.22 -22.60,2.16 -22.73,2.07 -22.86,1.98 -22.97,1.86 -23.07,1.75 -23.15,1.61 -23.22,1.47 -23.26,1.31 -23.30,1.16 -23.30,1.00 -23.30,0.84 -23.26,0.69 -23.23,0.54 -23.15,0.40 -23.08,0.25 -22.98,0.14 -22.87,0.02 -22.74,-0.06 -22.61,-0.15 -22.46,-0.21 -22.32,-0.27 -22.16,-0.29 -22.00,-0.31 -20.46,-1.16 -18.91,-2.01 -17.11,-2.02 -15.31,-2.04 -14.15,-2.06 -13.00,-2.08 -11.66,-2.13 -10.32,-2.17 -9.24,-2.25 -8.17,-2.33 -6.72,-2.66 -5.27,-2.99 -4.07,-2.99 -2.87,-2.99 -1.43,-2.76 0,-2.54 0.30,-2.50 0.60,-2.46 0.89,-2.35 1.18,-2.24 1.43,-2.07 1.68,-1.90 1.88,-1.67 2.09,-1.44 2.23,-1.17 2.37,-0.90 2.44,-0.60 2.52,-0.30 2.52,0.00 2.52,0.30 2.44,0.60 2.37,0.90 2.23,1.17 2.09,1.44 1.88,1.67 1.68,1.90 1.43,2.07 1.18,2.24 0.89,2.35 0.60,2.46 0.30,2.50 -0.00,2.54 -0.00,2.54 L 0,2.54 Z"></path></g><g transform="translate(335.13637559786434 43) rotate(0 -5.5 -16.5)" stroke="none"><path fill="#1e1e1e" d="M -1.57,-1.18 Q -1.57,-1.18 -0.92,-2.48 -0.26,-3.78 0.38,-5.27 1.03,-6.76 0.86,-7.88 0.70,-9.00 0.57,-10.14 0.45,-11.28 0.15,-12.36 -0.14,-13.44 -0.31,-14.72 -0.48,-16.00 -1.17,-17.72 -1.86,-19.44 -2.13,-20.72 -2.39,-22.01 -3.03,-23.27 -3.66,-24.52 -4.21,-26.41 -4.76,-28.29 -4.49,-29.39 -4.22,-30.49 -3.25,-31.07 -2.29,-31.65 -1.04,-31.77 0.19,-31.89 1.87,-31.91 3.55,-31.94 4.92,-32.40 6.29,-32.86 7.31,-33.28 8.33,-33.69 8.71,-33.68 9.10,-33.66 9.46,-33.56 9.83,-33.45 10.16,-33.26 10.49,-33.07 10.76,-32.80 11.04,-32.54 11.24,-32.21 11.45,-31.89 11.57,-31.53 11.69,-31.17 11.72,-30.79 11.75,-30.41 11.69,-30.03 11.62,-29.65 11.47,-29.30 11.32,-28.95 11.10,-28.65 10.87,-28.34 10.57,-28.10 10.27,-27.86 9.93,-27.70 9.58,-27.53 9.21,-27.46 8.84,-27.38 7.71,-27.79 6.58,-28.21 5.04,-27.76 3.50,-27.32 1.58,-27.17 -0.32,-27.01 -2.23,-27.26 -4.14,-27.51 -5.54,-27.60 -6.95,-27.69 -8.69,-28.05 -10.43,-28.41 -11.49,-28.53 -12.56,-28.64 -14.95,-29.10 -17.35,-29.56 -18.03,-29.66 -18.70,-29.77 -18.77,-29.57 -18.84,-29.36 -18.97,-29.20 -19.10,-29.03 -19.28,-28.91 -19.46,-28.80 -19.66,-28.74 -19.87,-28.69 -20.08,-28.70 -20.29,-28.72 -20.49,-28.80 -20.69,-28.88 -20.85,-29.02 -21.01,-29.16 -21.11,-29.34 -21.22,-29.52 -21.26,-29.73 -21.31,-29.94 -21.28,-30.15 -21.26,-30.36 -21.16,-30.55 -21.07,-30.75 -20.92,-30.90 -20.78,-31.05 -20.59,-31.15 -20.40,-31.24 -20.19,-31.28 -19.98,-31.31 -19.77,-31.27 -19.56,-31.23 -19.37,-31.13 -19.19,-31.03 -19.04,-30.87 -18.90,-30.72 -18.81,-30.52 -18.73,-30.33 -18.70,-30.12 -18.68,-29.91 -18.73,-29.70 -18.78,-29.49 -18.89,-29.31 -19.01,-29.13 -19.17,-29.00 -19.33,-28.86 -19.53,-28.78 -19.73,-28.71 -19.94,-28.70 -20.15,-28.69 -20.36,-28.75 -20.56,-28.81 -20.74,-28.93 -20.91,-29.05 -21.04,-29.22 -21.16,-29.40 -21.23,-29.60 -21.29,-29.80 -21.29,-30.01 -21.29,-30.22 -21.29,-30.22 -21.29,-30.22 -20.71,-32.43 -20.13,-34.63 -19.13,-35.09 -18.12,-35.56 -16.15,-35.31 -14.19,-35.06 -13.01,-35.00 -11.83,-34.93 -10.46,-34.77 -9.08,-34.60 -7.80,-34.30 -6.52,-34.00 -4.86,-33.89 -3.20,-33.77 -1.97,-33.55 -0.73,-33.32 0.68,-33.41 2.11,-33.49 3.71,-33.80 5.32,-34.11 6.82,-33.90 8.33,-33.69 8.71,-33.68 9.09,-33.66 9.46,-33.56 9.83,-33.45 10.16,-33.26 10.49,-33.07 10.76,-32.80 11.04,-32.54 11.24,-32.21 11.45,-31.89 11.57,-31.53 11.69,-31.17 11.72,-30.79 11.75,-30.41 11.69,-30.03 11.62,-29.65 11.47,-29.30 11.33,-28.95 11.10,-28.65 10.87,-28.34 10.57,-28.10 10.27,-27.86 9.93,-27.70 9.58,-27.53 9.21,-27.46 8.84,-27.38 8.84,-27.24 8.85,-27.09 7.51,-26.94 6.17,-26.79 4.02,-26.42 1.88,-26.05 0.57,-26.05 -0.72,-26.05 0.12,-26.70 0.97,-27.35 1.53,-26.40 2.08,-25.45 2.61,-23.49 3.14,-21.53 3.61,-20.41 4.09,-19.29 4.59,-17.02 5.10,-14.76 5.50,-12.42 5.90,-10.09 6.09,-8.62 6.28,-7.16 5.51,-4.96 4.74,-2.77 4.23,-1.79 3.71,-0.81 2.64,0.18 1.57,1.18 1.41,1.35 1.24,1.52 1.04,1.65 0.84,1.77 0.62,1.85 0.39,1.92 0.15,1.94 -0.07,1.96 -0.31,1.92 -0.54,1.89 -0.76,1.79 -0.98,1.70 -1.17,1.56 -1.36,1.42 -1.51,1.23 -1.66,1.05 -1.76,0.83 -1.86,0.62 -1.91,0.39 -1.96,0.16 -1.95,-0.07 -1.94,-0.31 -1.87,-0.54 -1.81,-0.77 -1.69,-0.97 -1.57,-1.18 -1.57,-1.18 L -1.57,-1.18 Z"></path></g><g transform="translate(362.13637559786434 37) rotate(0 15.5 2)" stroke="none"><path fill="#1e1e1e" d="M 2.39,-0.39 Q 2.39,-0.39 2.89,1.29 3.39,2.98 3.55,4.38 3.70,5.79 1.67,6.79 -0.35,7.79 0.42,6.25 1.19,4.71 1.94,3.32 2.69,1.94 3.28,0.55 3.87,-0.82 4.30,-1.85 4.74,-2.89 5.36,-3.83 5.99,-4.77 6.89,-5.45 7.79,-6.13 9.31,-6.86 10.84,-7.59 12.30,-7.21 13.76,-6.84 14.55,-5.94 15.34,-5.04 16.04,-2.97 16.74,-0.89 17.23,0.24 17.72,1.37 16.14,1.32 14.56,1.27 15.13,-0.11 15.71,-1.50 16.69,-3.25 17.68,-5.00 18.81,-6.12 19.94,-7.24 21.32,-7.84 22.71,-8.44 24.51,-8.67 26.31,-8.90 27.92,-8.15 29.53,-7.40 30.39,-6.62 31.24,-5.85 31.92,-4.10 32.61,-2.35 33.09,-0.12 33.57,2.09 33.16,3.56 32.76,5.03 31.45,6.83 30.14,8.63 30.01,8.80 29.88,8.96 29.70,9.08 29.53,9.20 29.32,9.25 29.12,9.30 28.90,9.29 28.69,9.27 28.50,9.19 28.30,9.11 28.14,8.97 27.98,8.83 27.87,8.64 27.77,8.46 27.72,8.25 27.68,8.04 27.71,7.83 27.74,7.62 27.83,7.43 27.92,7.24 28.07,7.09 28.22,6.94 28.41,6.84 28.60,6.74 28.81,6.71 29.02,6.68 29.23,6.72 29.44,6.76 29.62,6.86 29.81,6.96 29.95,7.12 30.09,7.28 30.18,7.47 30.27,7.66 30.29,7.88 30.31,8.09 30.26,8.29 30.21,8.50 30.09,8.68 29.98,8.86 29.82,9.00 29.65,9.13 29.45,9.21 29.26,9.28 29.04,9.29 28.83,9.30 28.63,9.24 28.42,9.18 28.25,9.06 28.08,8.93 27.95,8.76 27.82,8.59 27.76,8.39 27.70,8.19 27.70,7.97 27.70,7.76 27.77,7.56 27.85,7.36 27.85,7.36 27.85,7.36 27.86,5.67 27.87,3.99 27.73,2.76 27.59,1.54 27.09,0.34 26.59,-0.85 26.07,-1.81 25.56,-2.78 24.15,-2.45 22.75,-2.11 22.21,-1.11 21.67,-0.10 20.60,1.35 19.53,2.81 18.86,4.05 18.19,5.28 16.73,5.79 15.28,6.29 13.53,4.36 11.77,2.43 11.27,1.35 10.77,0.27 11.45,-0.89 12.12,-2.06 11.13,-1.29 10.14,-0.53 9.51,1.11 8.88,2.75 8.38,3.74 7.87,4.72 7.35,5.69 6.83,6.66 6.19,7.65 5.56,8.65 4.76,9.44 3.96,10.24 2.39,10.81 0.83,11.38 -0.61,8.85 -2.06,6.33 -2.15,5.12 -2.24,3.91 -2.32,2.15 -2.39,0.39 -2.40,0.10 -2.42,-0.18 -2.36,-0.47 -2.30,-0.75 -2.18,-1.02 -2.05,-1.28 -1.87,-1.51 -1.68,-1.74 -1.45,-1.92 -1.22,-2.09 -0.95,-2.21 -0.68,-2.32 -0.39,-2.37 -0.10,-2.42 0.18,-2.40 0.47,-2.38 0.75,-2.28 1.03,-2.19 1.27,-2.04 1.52,-1.88 1.73,-1.67 1.93,-1.46 2.08,-1.21 2.22,-0.96 2.31,-0.67 2.39,-0.39 2.39,-0.39 L 2.39,-0.39 Z"></path></g></svg>