<svg xmlns="http://www.w3.org/2000/svg" xmlns:xlink="http://www.w3.org/1999/xlink" version="1.1" width="158.191pt" height="138.417pt" viewBox="0 0 158.191 138.417">
<defs>
<clipPath id="clip_0">
<path transform="matrix(1,0,0,-1,-231.354,185.932)" d="M0 0H612V792H0Z"/>
</clipPath>
</defs>
<g clip-path="url(#clip_0)">
<text xml:space="preserve" transform="matrix(1 0 -0 1 -231.354 185.932)" font-size="11.9552" font-family="SFBX1200" font-weight="bold"><tspan y="-717.247" x="47.854 57.956148 64.316318 71.788318 79.260318 88.96794 95.32811 105.035739 116.99094 124.46294 131.00243 138.47443 145.01392 152.48592 159.95792 166.09093 173.56293 181.03493 188.50693 195.97893 203.45093 209.58394">&#x041e;&#x0442;&#x043a;&#x0440;&#x044b;&#x0442;&#x044b;&#x0439;&#x043f;&#x0430;&#x0440;&#x0430;&#x043b;&#x043b;&#x0435;&#x043b;&#x0438;&#x043f;&#x0438;&#x043f;&#x0435;&#x0434;</tspan></text>
<text xml:space="preserve" transform="matrix(1 0 -0 1 -231.354 185.932)" font-size="11.9552" font-family="SFRM1200"><tspan y="-717.247" x="220.94 226.14052 232.64415 237.84467 244.3483 250.52913 259.30427 268.7369 275.24055 286.94468 292.80274 298.6608 305.16444 311.0225 316.223 322.08106 329.8878">&#x0441;&#x043b;&#x0435;&#x0434;&#x0443;&#x044e;&#x0449;&#x0438;&#x043c;&#x043e;&#x0431;&#x0440;&#x0430;&#x0437;&#x043e;&#x043c;:</tspan></text>
<text xml:space="preserve" transform="matrix(1 0 -0 1 -231.354 185.932)" font-size="11.9552" font-family="CMR12"><tspan y="-695.83206" x="202.31801">(</tspan></text>
<text xml:space="preserve" transform="matrix(1 0 -0 1 -231.354 185.932)" font-size="11.9552" font-family="CMMI12" font-style="italic"><tspan y="-695.83206" x="206.871 213.01598 218.26432">a,b</tspan></text>
<text xml:space="preserve" transform="matrix(1 0 -0 1 -231.354 185.932)" font-size="11.9552" font-family="CMR12"><tspan y="-695.83206" x="223.237 231.11548 243.53693">)=(</tspan></text>
<text xml:space="preserve" transform="matrix(1 0 -0 1 -231.354 185.932)" font-size="11.9552" font-family="CMMI12" font-style="italic"><tspan y="-695.83206" x="248.088">a</tspan></text>
<text xml:space="preserve" transform="matrix(1 0 -0 1 -231.354 185.932)" font-size="7.9701" font-family="CMR8"><tspan y="-694.039" x="254.233">1</tspan></text>
<text xml:space="preserve" transform="matrix(1 0 -0 1 -231.354 185.932)" font-size="11.9552" font-family="CMMI12" font-style="italic"><tspan y="-695.83206" x="258.965 264.21333">,b</tspan></text>
<text xml:space="preserve" transform="matrix(1 0 -0 1 -231.354 185.932)" font-size="7.9701" font-family="CMR8"><tspan y="-694.039" x="269.186">1</tspan></text>
<text xml:space="preserve" transform="matrix(1 0 -0 1 -231.354 185.932)" font-size="11.9552" font-family="CMR12"><tspan y="-695.83206" x="273.919">)</tspan></text>
<text xml:space="preserve" transform="matrix(1 0 -0 1 -231.354 185.932)" font-size="11.9552" font-family="CMSY10" font-style="italic"><tspan y="-695.83206" x="281.12803">&#x00d7;</tspan></text>
<text xml:space="preserve" transform="matrix(1 0 -0 1 -231.354 185.932)" font-size="11.9552" font-family="CMR12"><tspan y="-695.83206" x="293.083">(</tspan></text>
<text xml:space="preserve" transform="matrix(1 0 -0 1 -231.354 185.932)" font-size="11.9552" font-family="CMMI12" font-style="italic"><tspan y="-695.83206" x="297.635">a</tspan></text>
<text xml:space="preserve" transform="matrix(1 0 -0 1 -231.354 185.932)" font-size="7.9701" font-family="CMR8"><tspan y="-694.039" x="303.78">2</tspan></text>
<text xml:space="preserve" transform="matrix(1 0 -0 1 -231.354 185.932)" font-size="11.9552" font-family="CMMI12" font-style="italic"><tspan y="-695.83206" x="308.512 313.7603">,b</tspan></text>
<text xml:space="preserve" transform="matrix(1 0 -0 1 -231.354 185.932)" font-size="7.9701" font-family="CMR8"><tspan y="-694.039" x="318.734">2</tspan></text>
<text xml:space="preserve" transform="matrix(1 0 -0 1 -231.354 185.932)" font-size="11.9552" font-family="CMR12"><tspan y="-695.83206" x="323.466">)</tspan></text>
<text xml:space="preserve" transform="matrix(1 0 -0 1 -231.354 185.932)" font-size="11.9552" font-family="CMSY10" font-style="italic"><tspan y="-695.83206" x="330.67503 342.63023 347.9503 353.2584 359.24797">&#x00d7;&#x00b7;&#x00b7;&#x00b7;&#x00d7;</tspan></text>
<text xml:space="preserve" transform="matrix(1 0 -0 1 -231.354 185.932)" font-size="11.9552" font-family="CMR12"><tspan y="-695.83206" x="371.19">(</tspan></text>
<text xml:space="preserve" transform="matrix(1 0 -0 1 -231.354 185.932)" font-size="11.9552" font-family="CMMI12" font-style="italic"><tspan y="-695.83206" x="375.742">a</tspan></text>
<text xml:space="preserve" transform="matrix(1 0 -0 1 -231.354 185.932)" font-size="7.9701" font-family="CMMI8" font-style="italic"><tspan y="-694.039" x="381.887">n</tspan></text>
<text xml:space="preserve" transform="matrix(1 0 -0 1 -231.354 185.932)" font-size="11.9552" font-family="CMMI12" font-style="italic"><tspan y="-695.83206" x="387.52299 392.7713">,b</tspan></text>
<text xml:space="preserve" transform="matrix(1 0 -0 1 -231.354 185.932)" font-size="7.9701" font-family="CMMI8" font-style="italic"><tspan y="-694.039" x="397.745">n</tspan></text>
<text xml:space="preserve" transform="matrix(1 0 -0 1 -231.354 185.932)" font-size="11.9552" font-family="CMR12"><tspan y="-695.83206" x="403.38099">)</tspan></text>
<text xml:space="preserve" transform="matrix(1 0 -0 1 -231.354 185.932)" font-size="11.9552" font-family="SFRM1200"><tspan y="-674.418" x="47.853975">&#x0410;</tspan></text>
<text xml:space="preserve" transform="matrix(1 0 -0 1 -231.354 185.932)" font-size="11.9552" font-family="SFBX1200" font-weight="bold"><tspan y="-674.418" x="60.528974 67.63036 75.10236 81.23538 88.70738 96.17938">&#x044f;&#x0447;&#x0435;&#x0439;&#x043a;&#x0443;</tspan></text>
<text xml:space="preserve" transform="matrix(1 0 -0 1 -231.354 185.932)" font-size="11.9552" font-family="SFRM1200"><tspan y="-674.418" x="107.36197 112.562488 119.06612 124.26663 130.77027 136.9511 145.72621 155.15886 161.66249 173.36664 179.22469 185.08274 191.58637 197.44441 202.64493 208.50298 216.30973">&#x0441;&#x043b;&#x0435;&#x0434;&#x0443;&#x044e;&#x0449;&#x0438;&#x043c;&#x043e;&#x0431;&#x0440;&#x0430;&#x0437;&#x043e;&#x043c;:</tspan></text>
<text xml:space="preserve" transform="matrix(1 0 -0 1 -231.354 185.932)" font-size="11.9552" font-family="CMR12"><tspan y="-653.004" x="204.91997">[</tspan></text>
<text xml:space="preserve" transform="matrix(1 0 -0 1 -231.354 185.932)" font-size="11.9552" font-family="CMMI12" font-style="italic"><tspan y="-653.004" x="208.17098 214.31595 219.56429">a,b</tspan></text>
<text xml:space="preserve" transform="matrix(1 0 -0 1 -231.354 185.932)" font-size="11.9552" font-family="CMR12"><tspan y="-653.004" x="224.53798 232.41646 244.8379">)=[</tspan></text>
<text xml:space="preserve" transform="matrix(1 0 -0 1 -231.354 185.932)" font-size="11.9552" font-family="CMMI12" font-style="italic"><tspan y="-653.004" x="248.08798">a</tspan></text>
<text xml:space="preserve" transform="matrix(1 0 -0 1 -231.354 185.932)" font-size="7.9701" font-family="CMR8"><tspan y="-651.21" x="254.23299">1</tspan></text>
<text xml:space="preserve" transform="matrix(1 0 -0 1 -231.354 185.932)" font-size="11.9552" font-family="CMMI12" font-style="italic"><tspan y="-653.004" x="258.965 264.21333">,b</tspan></text>
<text xml:space="preserve" transform="matrix(1 0 -0 1 -231.354 185.932)" font-size="7.9701" font-family="CMR8"><tspan y="-651.21" x="269.186">1</tspan></text>
<text xml:space="preserve" transform="matrix(1 0 -0 1 -231.354 185.932)" font-size="11.9552" font-family="CMR12"><tspan y="-653.004" x="273.919">)</tspan></text>
<text xml:space="preserve" transform="matrix(1 0 -0 1 -231.354 185.932)" font-size="11.9552" font-family="CMSY10" font-style="italic"><tspan y="-653.004" x="281.12803">&#x00d7;</tspan></text>
<text xml:space="preserve" transform="matrix(1 0 -0 1 -231.354 185.932)" font-size="11.9552" font-family="CMR12"><tspan y="-653.004" x="293.083">[</tspan></text>
<text xml:space="preserve" transform="matrix(1 0 -0 1 -231.354 185.932)" font-size="11.9552" font-family="CMMI12" font-style="italic"><tspan y="-653.004" x="296.33503">a</tspan></text>
<text xml:space="preserve" transform="matrix(1 0 -0 1 -231.354 185.932)" font-size="7.9701" font-family="CMR8"><tspan y="-651.21" x="302.48">2</tspan></text>
<text xml:space="preserve" transform="matrix(1 0 -0 1 -231.354 185.932)" font-size="11.9552" font-family="CMMI12" font-style="italic"><tspan y="-653.004" x="307.212 312.46034">,b</tspan></text>
<text xml:space="preserve" transform="matrix(1 0 -0 1 -231.354 185.932)" font-size="7.9701" font-family="CMR8"><tspan y="-651.21" x="317.433">2</tspan></text>
<text xml:space="preserve" transform="matrix(1 0 -0 1 -231.354 185.932)" font-size="11.9552" font-family="CMR12"><tspan y="-653.004" x="322.165">)</tspan></text>
<text xml:space="preserve" transform="matrix(1 0 -0 1 -231.354 185.932)" font-size="11.9552" font-family="CMSY10" font-style="italic"><tspan y="-653.004" x="329.37403 341.32923 346.6493 351.96937 357.94697">&#x00d7;&#x00b7;&#x00b7;&#x00b7;&#x00d7;</tspan></text>
<text xml:space="preserve" transform="matrix(1 0 -0 1 -231.354 185.932)" font-size="11.9552" font-family="CMR12"><tspan y="-653.004" x="369.88905">[</tspan></text>
<text xml:space="preserve" transform="matrix(1 0 -0 1 -231.354 185.932)" font-size="11.9552" font-family="CMMI12" font-style="italic"><tspan y="-653.004" x="373.14106">a</tspan></text>
<text xml:space="preserve" transform="matrix(1 0 -0 1 -231.354 185.932)" font-size="7.9701" font-family="CMMI8" font-style="italic"><tspan y="-651.21" x="379.28605">n</tspan></text>
<text xml:space="preserve" transform="matrix(1 0 -0 1 -231.354 185.932)" font-size="11.9552" font-family="CMMI12" font-style="italic"><tspan y="-653.004" x="384.92204 390.17036">,b</tspan></text>
<text xml:space="preserve" transform="matrix(1 0 -0 1 -231.354 185.932)" font-size="7.9701" font-family="CMMI8" font-style="italic"><tspan y="-651.21" x="395.14305">n</tspan></text>
<text xml:space="preserve" transform="matrix(1 0 -0 1 -231.354 185.932)" font-size="11.9552" font-family="CMR12"><tspan y="-653.004" x="400.78004">)</tspan></text>
<text xml:space="preserve" transform="matrix(1 0 -0 1 -231.354 185.932)" font-size="11.9552" font-family="SFBX1200" font-weight="bold"><tspan y="-624.366" x="47.854036 56.079217 62.212236 68.93106 76.40306 82.53608 91.50248 98.04198">&#x0422;&#x0435;&#x043e;&#x0440;&#x0435;&#x043c;&#x0430;.</tspan></text>
<text xml:space="preserve" transform="matrix(1 0 -0 1 -231.354 185.932)" font-size="11.9552" font-family="SFTI1200" font-style="italic"><tspan y="-624.366" x="106.76604 115.75635 120.921 127.49636 133.47397 138.63861 148.20278 153.96518 164.42598 170.70246 176.97893 182.14357 188.71894 194.69654 204.64327 214.79323 219.95787 229.52204 235.0812">&#x041d;&#x0435;&#x043f;&#x0443;&#x0441;&#x0442;&#x0430;&#x044f;&#x044f;&#x0447;&#x0435;&#x0439;&#x043a;&#x0430;&#x2013;&#x044d;&#x0442;&#x043e;:</tspan></text>
<text xml:space="preserve" transform="matrix(1 0 -0 1 -231.354 185.932)" font-size="11.9552" font-family="SFTI1200" font-style="italic"><tspan y="-602.698" x="61.705038 67.68263">1.</tspan></text>
<text xml:space="preserve" transform="matrix(1 0 -0 1 -231.354 185.932)" font-size="11.9552" font-family="SFTI1200" font-style="italic"><tspan y="-602.698" x="77.12724 82.68641 88.245578 94.21122 99.37587 104.935039 111.5104 118.08576 123.25041 129.82578 136.40114 145.7501 151.51251 157.07169 162.45153 167.77159 173.534 178.69864 188.2628 194.0252 202.47754 212.10147 217.26612 228.0258 234.60117 240.16034 245.02611 251.30258 256.46723 262.0264 267.58558 273.348 279.1104 288.67457 293.5403 299.8168 305.7944 312.36976 317.92893 323.09358 332.6577 343.4174 348.79725 354.55967 363.22718 369.20478 375.78013 381.75773 391.32188 399.09275 409.5416 416.11695 421.87937 427.19944 432.96186 438.93946 445.21595 450.0817 456.3582 462.93354 469.50889 476.08424 482.65959 487.82423 493.3834 498.94258">&#x043e;&#x0431;&#x044c;&#x0435;&#x0434;&#x0438;&#x043d;&#x0435;&#x043d;&#x0438;&#x0435;&#x0432;&#x043e;&#x0437;&#x0440;&#x0430;&#x0441;&#x0442;&#x0430;&#x044e;&#x0449;&#x0435;&#x0439;&#x043f;&#x043e;&#x0441;&#x043b;&#x0435;&#x0434;&#x043e;&#x0432;&#x0430;&#x0442;&#x0435;&#x043b;&#x044c;&#x043d;&#x043e;&#x0441;&#x0442;&#x0438;&#x0437;&#x0430;&#x043c;&#x043a;&#x043d;&#x0443;&#x0442;&#x044b;&#x0445;&#x043f;&#x0430;&#x0440;&#x0430;&#x043b;&#x043b;&#x0435;&#x043b;&#x0438;&#x043f;&#x0438;&#x043f;&#x0435;&#x0434;&#x043e;&#x0432;</tspan></text>
<text xml:space="preserve" transform="matrix(1 0 -0 1 -231.354 185.932)" font-size="11.9552" font-family="SFTI1200" font-style="italic"><tspan y="-581.029" x="61.705038 67.68263">2.</tspan></text>
<text xml:space="preserve" transform="matrix(1 0 -0 1 -231.354 185.932)" font-size="11.9552" font-family="SFTI1200" font-style="italic"><tspan y="-581.029" x="77.12724 83.70261 88.8553 94.773128 99.937778 105.102428 110.267078 116.54356 121.708209 128.28357 134.85894 144.2079 150.1855 155.74468 163.51555 169.27796 175.04036 183.49269 193.11663 198.28127 209.04096 215.61632 221.17549 226.04126 232.31774 237.48238 243.04155 248.60073 254.36313 260.12556 269.6897 274.55546 280.83195 286.80955 293.3849 298.94407 304.1087 313.67286 324.43254 329.9917 339.55586 345.53346 351.45127 359.22215 368.7863 376.55717 387.01799 393.59333 399.35575 404.6758 410.43824 416.41584 422.69233 427.55809 433.8226 440.39796 446.9733 453.54866 460.124 465.28865 470.8478 476.40699">&#x043f;&#x0435;&#x0440;&#x0435;&#x0441;&#x0435;&#x0447;&#x0435;&#x043d;&#x0438;&#x0435;&#x0443;&#x0431;&#x044b;&#x0432;&#x0430;&#x044e;&#x0449;&#x0435;&#x0439;&#x043f;&#x043e;&#x0441;&#x043b;&#x0435;&#x0434;&#x043e;&#x0432;&#x0430;&#x0442;&#x0435;&#x043b;&#x044c;&#x043d;&#x043e;&#x0441;&#x0442;&#x0438;&#x043e;&#x0442;&#x043a;&#x0440;&#x044b;&#x0442;&#x044b;&#x0445;&#x043f;&#x0430;&#x0440;&#x0430;&#x043b;&#x043b;&#x0435;&#x043b;&#x0438;&#x043f;&#x0438;&#x043f;&#x0435;&#x0434;&#x043e;&#x0432;</tspan></text>
<text xml:space="preserve" transform="matrix(1 0 -0 1 -231.354 185.932)" font-size="11.9552" font-family="SFBX1200" font-weight="bold"><tspan y="-553.383" x="47.854036 58.386568 65.10539 72.20678 78.74628 84.72388 91.263378 97.62354 103.75656 111.22856 117.94739 123.92499 130.28516 137.00399 143.72281">&#x0414;&#x043e;&#x043a;&#x0430;&#x0437;&#x0430;&#x0442;&#x0435;&#x043b;&#x044c;&#x0441;&#x0442;&#x0432;&#x043e;.</tspan></text>
<text xml:space="preserve" transform="matrix(1 0 -0 1 -231.35399 185.932)" font-size="11.9552" font-family="CMR12"><tspan y="-502.28" x="154.79">1</tspan></text>
<text xml:space="preserve" transform="matrix(1 0 -0 1 -231.35399 185.932)" font-size="11.9552" font-family="CMMI12" font-style="italic"><tspan y="-502.28" x="160.64299">.</tspan></text>
<path transform="matrix(1,0,0,-1,-43.666,-277.681)" d="M-2.12595 12.04745H87.16636V72.99293H-2.12595Z" fill="#ff0000" fill-opacity=".1"/>
<path transform="matrix(1,0,0,-1,-43.666,-277.681)" stroke-width=".3985" stroke-linecap="butt" stroke-dasharray="2.98883,2.98883" stroke-miterlimit="10" stroke-linejoin="miter" fill="none" stroke="#000000" d="M-2.12595 12.04745H87.16636V72.99293H-2.12595Z"/>
<path transform="matrix(1,0,0,-1,-43.666,-277.681)" d="M-1.98448 12.1889H83.05596V68.88252H-1.98448Z" fill="#ffffff"/>
<path transform="matrix(1,0,0,-1,-43.666,-277.681)" stroke-width=".79701" stroke-linecap="butt" stroke-miterlimit="10" stroke-linejoin="miter" fill="none" stroke="#000000" d="M-1.98448 12.1889H83.05596V68.88252H-1.98448Z"/>
<text xml:space="preserve" transform="matrix(1 0 -0 1 -231.35399 185.932)" font-size="11.9552" font-family="CMR12"><tspan y="-502.28" x="339.041">2</tspan></text>
<text xml:space="preserve" transform="matrix(1 0 -0 1 -231.35399 185.932)" font-size="11.9552" font-family="CMMI12" font-style="italic"><tspan y="-502.28" x="344.89399">.</tspan></text>
<path transform="matrix(1,0,0,-1,-43.666,-277.681)" d="M182.12831 12.04745H271.42063V72.99293H182.12831Z" fill="#0000ff" fill-opacity=".1"/>
<path transform="matrix(1,0,0,-1,-43.666,-277.681)" stroke-width=".3985" stroke-linecap="butt" stroke-dasharray="2.98883,2.98883" stroke-miterlimit="10" stroke-linejoin="miter" fill="none" stroke="#000000" d="M182.12831 12.04745H271.42063V72.99293H182.12831Z"/>
<path transform="matrix(1,0,0,-1,-43.666,-277.681)" d="M186.23873 16.15787H271.27919V72.85149H186.23873Z" fill="#ffffff"/>
<path transform="matrix(1,0,0,-1,-43.666,-277.681)" stroke-width=".79701" stroke-linecap="butt" stroke-miterlimit="10" stroke-linejoin="miter" fill="none" stroke="#000000" d="M186.23873 16.15787H271.27919V72.85149H186.23873Z"/>
<text xml:space="preserve" transform="matrix(1 0 -0 1 -231.354 185.932)" font-size="11.9552" font-family="CMR12"><tspan y="-434.667" x="120.546">[</tspan></text>
<text xml:space="preserve" transform="matrix(1 0 -0 1 -231.354 185.932)" font-size="11.9552" font-family="CMMI12" font-style="italic"><tspan y="-434.667" x="123.798 129.94297 135.1913">a,b</tspan></text>
<text xml:space="preserve" transform="matrix(1 0 -0 1 -231.354 185.932)" font-size="11.9552" font-family="CMR12"><tspan y="-434.667" x="140.164 148.04248">)=</tspan></text>
<text xml:space="preserve" transform="matrix(1 0 -0 1 -231.354 185.932)" font-size="7.9701" font-family="CMSY8" font-style="italic"><tspan y="-449.611" x="165.384">&#x221e;</tspan></text>
<text xml:space="preserve" transform="matrix(1 0 -0 1 -231.354 185.932)" font-size="11.9552" font-family="CMEX10"><tspan y="-446.024" x="162.977">&#xfffd;</tspan></text>
<text xml:space="preserve" transform="matrix(1 0 -0 1 -231.354 185.932)" font-size="7.9701" font-family="CMMI8" font-style="italic"><tspan y="-420.918" x="160.46302">m</tspan></text>
<text xml:space="preserve" transform="matrix(1 0 -0 1 -231.354 185.932)" font-size="7.9701" font-family="CMR8"><tspan y="-420.918" x="167.95302 174.53632">=1</tspan></text>
<text xml:space="preserve" transform="matrix(1 0 -0 1 -231.354 185.932)" font-size="11.9552" font-family="CMR12"><tspan y="-434.667" x="178.77402">[</tspan></text>
<text xml:space="preserve" transform="matrix(1 0 -0 1 -231.354 185.932)" font-size="11.9552" font-family="CMMI12" font-style="italic"><tspan y="-434.667" x="182.02602 188.17099 193.41933">a,b</tspan></text>
<text xml:space="preserve" transform="matrix(1 0 -0 1 -231.354 185.932)" font-size="7.9701" font-family="CMR8"><tspan y="-439.603" x="198.39202">(</tspan></text>
<text xml:space="preserve" transform="matrix(1 0 -0 1 -231.354 185.932)" font-size="7.9701" font-family="CMMI8" font-style="italic"><tspan y="-439.603" x="201.68502">m</tspan></text>
<text xml:space="preserve" transform="matrix(1 0 -0 1 -231.354 185.932)" font-size="7.9701" font-family="CMR8"><tspan y="-439.603" x="209.17601">)</tspan></text>
<text xml:space="preserve" transform="matrix(1 0 -0 1 -231.354 185.932)" font-size="11.9552" font-family="CMR12"><tspan y="-434.667" x="212.96701">]</tspan></text>
<text xml:space="preserve" transform="matrix(1 0 -0 1 -231.354 185.932)" font-size="11.9552" font-family="CMMI12" font-style="italic"><tspan y="-434.667" x="290.079">b</tspan></text>
<text xml:space="preserve" transform="matrix(1 0 -0 1 -231.354 185.932)" font-size="7.9701" font-family="CMR8"><tspan y="-439.603" x="295.056">(</tspan></text>
<text xml:space="preserve" transform="matrix(1 0 -0 1 -231.354 185.932)" font-size="7.9701" font-family="CMMI8" font-style="italic"><tspan y="-439.603" x="298.349">m</tspan></text>
<text xml:space="preserve" transform="matrix(1 0 -0 1 -231.354 185.932)" font-size="7.9701" font-family="CMR8"><tspan y="-439.603" x="305.84">)</tspan></text>
<text xml:space="preserve" transform="matrix(1 0 -0 1 -231.354 185.932)" font-size="11.9552" font-family="CMR12"><tspan y="-434.667" x="312.952">=</tspan></text>
<text xml:space="preserve" transform="matrix(1 0 -0 1 -231.354 185.932)" font-size="11.9552" font-family="CMEX10"><tspan y="-451.52299" x="325.37699">&#xfffd;</tspan></text>
<text xml:space="preserve" transform="matrix(1 0 -0 1 -231.354 185.932)" font-size="11.9552" font-family="CMMI12" font-style="italic"><tspan y="-434.667" x="334.17799">b</tspan></text>
<text xml:space="preserve" transform="matrix(1 0 -0 1 -231.354 185.932)" font-size="7.9701" font-family="CMR8"><tspan y="-432.873" x="339.15498">1</tspan></text>
<text xml:space="preserve" transform="matrix(1 0 -0 1 -231.354 185.932)" font-size="11.9552" font-family="CMSY10" font-style="italic"><tspan y="-434.667" x="346.54399">&#x2212;</tspan></text>
<text xml:space="preserve" transform="matrix(1 0 -0 1 -231.354 185.932)" font-size="11.9552" font-family="CMR12"><tspan y="-442.754" x="361.88798">1</tspan></text>
<path transform="matrix(1,0,0,-1,128.34,-251.72299)" stroke-width=".478" stroke-linecap="butt" stroke-miterlimit="10" stroke-linejoin="miter" fill="none" stroke="#000000" d="M0 0H10.239"/>
<text xml:space="preserve" transform="matrix(1 0 -0 1 -231.354 185.932)" font-size="11.9552" font-family="CMMI12" font-style="italic"><tspan y="-426.466" x="359.694">m</tspan><tspan y="-434.667" x="371.129 376.37733">,b</tspan></text>
<text xml:space="preserve" transform="matrix(1 0 -0 1 -231.354 185.932)" font-size="7.9701" font-family="CMR8"><tspan y="-432.873" x="381.35">2</tspan></text>
<text xml:space="preserve" transform="matrix(1 0 -0 1 -231.354 185.932)" font-size="11.9552" font-family="CMSY10" font-style="italic"><tspan y="-434.667" x="388.739">&#x2212;</tspan></text>
<text xml:space="preserve" transform="matrix(1 0 -0 1 -231.354 185.932)" font-size="11.9552" font-family="CMR12"><tspan y="-442.754" x="404.083">1</tspan></text>
<path transform="matrix(1,0,0,-1,170.53601,-251.72299)" stroke-width=".478" stroke-linecap="butt" stroke-miterlimit="10" stroke-linejoin="miter" fill="none" stroke="#000000" d="M0 0H10.239"/>
<text xml:space="preserve" transform="matrix(1 0 -0 1 -231.354 185.932)" font-size="11.9552" font-family="CMMI12" font-style="italic"><tspan y="-426.466" x="401.89">m</tspan><tspan y="-434.667" x="413.325 418.57334 423.8097 429.058 434.30635 439.5427">,...,b</tspan></text>
<text xml:space="preserve" transform="matrix(1 0 -0 1 -231.354 185.932)" font-size="7.9701" font-family="CMMI8" font-style="italic"><tspan y="-432.873" x="444.523">n</tspan></text>
<text xml:space="preserve" transform="matrix(1 0 -0 1 -231.354 185.932)" font-size="11.9552" font-family="CMSY10" font-style="italic"><tspan y="-434.667" x="452.816">&#x2212;</tspan></text>
<text xml:space="preserve" transform="matrix(1 0 -0 1 -231.354 185.932)" font-size="11.9552" font-family="CMR12"><tspan y="-442.754" x="468.16">1</tspan></text>
<path transform="matrix(1,0,0,-1,234.612,-251.72299)" stroke-width=".478" stroke-linecap="butt" stroke-miterlimit="10" stroke-linejoin="miter" fill="none" stroke="#000000" d="M0 0H10.239"/>
<text xml:space="preserve" transform="matrix(1 0 -0 1 -231.354 185.932)" font-size="11.9552" font-family="CMMI12" font-style="italic"><tspan y="-426.466" x="465.966">m</tspan></text>
<text xml:space="preserve" transform="matrix(1 0 -0 1 -231.354 185.932)" font-size="11.9552" font-family="CMEX10"><tspan y="-451.523" x="477.401">&#xfffd;</tspan></text>
<text xml:space="preserve" transform="matrix(1 0 -0 1 -231.354 185.932)" font-size="11.9552" font-family="CMR12"><tspan y="-396.16603" x="120.54599">[</tspan></text>
<text xml:space="preserve" transform="matrix(1 0 -0 1 -231.354 185.932)" font-size="11.9552" font-family="CMMI12" font-style="italic"><tspan y="-396.16603" x="123.79799 129.94297 135.1913">a,b</tspan></text>
<text xml:space="preserve" transform="matrix(1 0 -0 1 -231.354 185.932)" font-size="11.9552" font-family="CMR12"><tspan y="-396.16603" x="140.16399 148.04247">)=</tspan></text>
<text xml:space="preserve" transform="matrix(1 0 -0 1 -231.354 185.932)" font-size="7.9701" font-family="CMSY8" font-style="italic"><tspan y="-411.11003" x="165.38399">&#x221e;</tspan></text>
<text xml:space="preserve" transform="matrix(1 0 -0 1 -231.354 185.932)" font-size="11.9552" font-family="CMEX10"><tspan y="-407.52403" x="162.97699">&#xfffd;</tspan></text>
<text xml:space="preserve" transform="matrix(1 0 -0 1 -231.354 185.932)" font-size="7.9701" font-family="CMMI8" font-style="italic"><tspan y="-382.41804" x="160.46298">m</tspan></text>
<text xml:space="preserve" transform="matrix(1 0 -0 1 -231.354 185.932)" font-size="7.9701" font-family="CMR8"><tspan y="-382.41804" x="167.95299 174.53629">=1</tspan></text>
<text xml:space="preserve" transform="matrix(1 0 -0 1 -231.354 185.932)" font-size="11.9552" font-family="CMR12"><tspan y="-396.16603" x="178.77399">[</tspan></text>
<text xml:space="preserve" transform="matrix(1 0 -0 1 -231.354 185.932)" font-size="11.9552" font-family="CMMI12" font-style="italic"><tspan y="-396.16603" x="182.02599">a</tspan></text>
<text xml:space="preserve" transform="matrix(1 0 -0 1 -231.354 185.932)" font-size="7.9701" font-family="CMR8"><tspan y="-401.10203" x="188.17099">(</tspan></text>
<text xml:space="preserve" transform="matrix(1 0 -0 1 -231.354 185.932)" font-size="7.9701" font-family="CMMI8" font-style="italic"><tspan y="-401.10203" x="191.46399">m</tspan></text>
<text xml:space="preserve" transform="matrix(1 0 -0 1 -231.354 185.932)" font-size="7.9701" font-family="CMR8"><tspan y="-401.10203" x="198.954">)</tspan></text>
<text xml:space="preserve" transform="matrix(1 0 -0 1 -231.354 185.932)" font-size="11.9552" font-family="CMMI12" font-style="italic"><tspan y="-396.16603" x="202.746 207.99434">,b</tspan></text>
<text xml:space="preserve" transform="matrix(1 0 -0 1 -231.354 185.932)" font-size="11.9552" font-family="CMR12"><tspan y="-396.16603" x="212.967">]</tspan></text>
<text xml:space="preserve" transform="matrix(1 0 -0 1 -231.354 185.932)" font-size="11.9552" font-family="CMMI12" font-style="italic"><tspan y="-396.16603" x="288.911">a</tspan></text>
<text xml:space="preserve" transform="matrix(1 0 -0 1 -231.354 185.932)" font-size="7.9701" font-family="CMR8"><tspan y="-401.10203" x="295.056">(</tspan></text>
<text xml:space="preserve" transform="matrix(1 0 -0 1 -231.354 185.932)" font-size="7.9701" font-family="CMMI8" font-style="italic"><tspan y="-401.10203" x="298.349">m</tspan></text>
<text xml:space="preserve" transform="matrix(1 0 -0 1 -231.354 185.932)" font-size="7.9701" font-family="CMR8"><tspan y="-401.10203" x="305.84">)</tspan></text>
<text xml:space="preserve" transform="matrix(1 0 -0 1 -231.354 185.932)" font-size="11.9552" font-family="CMR12"><tspan y="-396.16603" x="312.952">=</tspan></text>
<text xml:space="preserve" transform="matrix(1 0 -0 1 -231.354 185.932)" font-size="11.9552" font-family="CMEX10"><tspan y="-413.023" x="325.37699">&#xfffd;</tspan></text>
<text xml:space="preserve" transform="matrix(1 0 -0 1 -231.354 185.932)" font-size="11.9552" font-family="CMMI12" font-style="italic"><tspan y="-396.16603" x="334.17799">a</tspan></text>
<text xml:space="preserve" transform="matrix(1 0 -0 1 -231.354 185.932)" font-size="7.9701" font-family="CMR8"><tspan y="-394.37303" x="340.32298">1</tspan></text>
<text xml:space="preserve" transform="matrix(1 0 -0 1 -231.354 185.932)" font-size="11.9552" font-family="CMSY10" font-style="italic"><tspan y="-396.16603" x="347.71199">&#x2212;</tspan></text>
<text xml:space="preserve" transform="matrix(1 0 -0 1 -231.354 185.932)" font-size="11.9552" font-family="CMR12"><tspan y="-404.25404" x="363.05497">1</tspan></text>
<path transform="matrix(1,0,0,-1,129.508,-213.22299)" stroke-width=".478" stroke-linecap="butt" stroke-miterlimit="10" stroke-linejoin="miter" fill="none" stroke="#000000" d="M0 0H10.239"/>
<text xml:space="preserve" transform="matrix(1 0 -0 1 -231.354 185.932)" font-size="11.9552" font-family="CMMI12" font-style="italic"><tspan y="-387.966" x="360.862">m</tspan><tspan y="-396.16603" x="372.297 377.54533">,a</tspan></text>
<text xml:space="preserve" transform="matrix(1 0 -0 1 -231.354 185.932)" font-size="7.9701" font-family="CMR8"><tspan y="-394.37303" x="383.686">2</tspan></text>
<text xml:space="preserve" transform="matrix(1 0 -0 1 -231.354 185.932)" font-size="11.9552" font-family="CMSY10" font-style="italic"><tspan y="-396.16603" x="391.075">&#x2212;</tspan></text>
<text xml:space="preserve" transform="matrix(1 0 -0 1 -231.354 185.932)" font-size="11.9552" font-family="CMR12"><tspan y="-404.25404" x="406.419">1</tspan></text>
<path transform="matrix(1,0,0,-1,172.87201,-213.22299)" stroke-width=".478" stroke-linecap="butt" stroke-miterlimit="10" stroke-linejoin="miter" fill="none" stroke="#000000" d="M0 0H10.239"/>
<text xml:space="preserve" transform="matrix(1 0 -0 1 -231.354 185.932)" font-size="11.9552" font-family="CMMI12" font-style="italic"><tspan y="-387.966" x="404.226">m</tspan><tspan y="-396.16603" x="415.661 420.90934 426.1457 431.394 436.64234 441.8787">,...,a</tspan></text>
<text xml:space="preserve" transform="matrix(1 0 -0 1 -231.354 185.932)" font-size="7.9701" font-family="CMMI8" font-style="italic"><tspan y="-394.37303" x="448.026">n</tspan></text>
<text xml:space="preserve" transform="matrix(1 0 -0 1 -231.354 185.932)" font-size="11.9552" font-family="CMSY10" font-style="italic"><tspan y="-396.16603" x="456.319">&#x2212;</tspan></text>
<text xml:space="preserve" transform="matrix(1 0 -0 1 -231.354 185.932)" font-size="11.9552" font-family="CMR12"><tspan y="-404.25404" x="471.663">1</tspan></text>
<path transform="matrix(1,0,0,-1,238.116,-213.22299)" stroke-width=".478" stroke-linecap="butt" stroke-miterlimit="10" stroke-linejoin="miter" fill="none" stroke="#000000" d="M0 0H10.239"/>
<text xml:space="preserve" transform="matrix(1 0 -0 1 -231.354 185.932)" font-size="11.9552" font-family="CMMI12" font-style="italic"><tspan y="-387.966" x="469.47">m</tspan></text>
<text xml:space="preserve" transform="matrix(1 0 -0 1 -231.354 185.932)" font-size="11.9552" font-family="CMEX10"><tspan y="-413.023" x="480.905">&#xfffd;</tspan></text>
<text xml:space="preserve" transform="matrix(1 0 -0 1 -231.354 185.932)" font-size="11.9552" font-family="MSAM10"><tspan y="-365.18803" x="553.099">&#x25a0;</tspan></text>
<text xml:space="preserve" transform="matrix(1 0 -0 1 -231.354 185.932)" font-size="11.9552" font-family="SFRM1200"><tspan y="-337.54103" x="47.854005 56.951913 62.80996 68.66801 73.86852 80.372158 85.90741 92.41104 97.61156 104.11519 110.61882">&#x041e;&#x0431;&#x043e;&#x0437;&#x043d;&#x0430;&#x0447;&#x0435;&#x043d;&#x0438;&#x0435;</tspan></text>
<path transform="matrix(1,0,0,-1,-183.5,-149.936)" stroke-width=".478" stroke-linecap="butt" stroke-miterlimit="10" stroke-linejoin="miter" fill="none" stroke="#000000" d="M0 0H67.944"/>
<text xml:space="preserve" transform="matrix(1 0 -0 1 -231.354 185.932)" font-size="11.9552" font-family="SFRM1200"><tspan y="-337.541" x="115.798">:</tspan></text>
<text xml:space="preserve" transform="matrix(1 0 -0 1 -231.354 185.932)" font-size="11.9552" font-family="CMSY10" font-style="italic"><tspan y="-337.541" x="124.212">P</tspan></text>
<text xml:space="preserve" transform="matrix(1 0 -0 1 -231.354 185.932)" font-size="7.9701" font-family="CMMI8" font-style="italic"><tspan y="-341.87998" x="133.51">n</tspan></text>
<text xml:space="preserve" transform="matrix(1 0 -0 1 -231.354 185.932)" font-size="11.9552" font-family="SFRM1200"><tspan y="-337.541" x="144.306">&#x2013;</tspan></text>
<text xml:space="preserve" transform="matrix(1 0 -0 1 -231.354 185.932)" font-size="11.9552" font-family="SFBX1200" font-weight="bold"><tspan y="-337.541" x="155.316 162.788 169.50682 176.97882 184.08022 191.18161 197.90044 205.37244 212.09127 219.56327 232.21187 239.31327 246.78527 252.91828 259.0513">&#x043f;&#x043e;&#x043b;&#x0443;&#x043a;&#x043e;&#x043b;&#x044c;&#x0446;&#x043e;&#x044f;&#x0447;&#x0435;&#x0435;&#x043a;</tspan></text>
<text xml:space="preserve" transform="matrix(1 0 -0 1 -231.354 185.932)" font-size="11.9552" font-family="SFRM1200"><tspan y="-337.541" x="271.684">&#x0432;</tspan></text>
<text xml:space="preserve" transform="matrix(1 0 -0 1 -231.354 185.932)" font-size="11.9552" font-family="MSBM10"><tspan y="-337.541" x="282.694">R</tspan></text>
<text xml:space="preserve" transform="matrix(1 0 -0 1 -231.354 185.932)" font-size="7.9701" font-family="CMMI8" font-style="italic"><tspan y="-341.87998" x="291.329">n</tspan></text>
<text xml:space="preserve" transform="matrix(1 0 -0 1 -231.354 185.932)" font-size="11.9552" font-family="SFRM1200"><tspan y="-337.541" x="296.965 305.38145">.&#x0410;</tspan></text>
<text xml:space="preserve" transform="matrix(1 0 -0 1 -231.354 185.932)" font-size="11.9552" font-family="CMSY10" font-style="italic"><tspan y="-337.541" x="319.314">P</tspan></text>
<text xml:space="preserve" transform="matrix(1 0 -0 1 -231.354 185.932)" font-size="7.9701" font-family="CMMI8" font-style="italic"><tspan y="-341.87998" x="328.612">n</tspan></text>
<text xml:space="preserve" transform="matrix(1 0 -0 1 -231.354 185.932)" font-size="7.9701" font-family="MSBM10"><tspan y="-334.477" x="327.629">Q</tspan></text>
<text xml:space="preserve" transform="matrix(1 0 -0 1 -231.354 185.932)" font-size="11.9552" font-family="SFRM1200"><tspan y="-337.541" x="339.485">&#x2013;</tspan></text>
<text xml:space="preserve" transform="matrix(1 0 -0 1 -231.354 185.932)" font-size="11.9552" font-family="SFBX1200" font-weight="bold"><tspan y="-337.541" x="350.49598 357.96797 364.68678 372.15876 379.26014 386.3615 393.08033 400.5523 407.27113 414.7431 427.3917 434.49308 441.9651 448.0981 454.23115">&#x043f;&#x043e;&#x043b;&#x0443;&#x043a;&#x043e;&#x043b;&#x044c;&#x0446;&#x043e;&#x044f;&#x0447;&#x0435;&#x0435;&#x043a;</tspan></text>
<text xml:space="preserve" transform="matrix(1 0 -0 1 -231.354 185.932)" font-size="11.9552" font-family="SFRM1200"><tspan y="-337.541" x="466.86299 477.22813 483.73176 489.5898 496.09346 502.59709 508.45515 514.95877 520.8168 527.3204 533.1784 539.682 548.13436 555.9411">&#x0441;&#x0440;&#x0430;&#x0446;&#x0438;&#x043e;&#x043d;&#x0430;&#x043b;&#x044c;&#x043d;&#x044b;&#x043c;&#x0438;</tspan><tspan y="-323.09599" x="47.853975 54.03481 59.892858 65.75091 71.93175 78.43538 84.93901 91.44264 97.30069 102.835948 108.68204 116.50074 126.901767">&#x043a;&#x043e;&#x043e;&#x0440;&#x0434;&#x0438;&#x043d;&#x0430;&#x0442;&#x0430;&#x043c;&#x0438;&#x0432;</tspan></text>
<text xml:space="preserve" transform="matrix(1 0 -0 1 -231.354 185.932)" font-size="11.9552" font-family="MSBM10"><tspan y="-323.09599" x="136.60398">R</tspan></text>
<text xml:space="preserve" transform="matrix(1 0 -0 1 -231.354 185.932)" font-size="7.9701" font-family="CMMI8" font-style="italic"><tspan y="-327.434" x="145.23798">n</tspan></text>
<text xml:space="preserve" transform="matrix(1 0 -0 1 -231.354 185.932)" font-size="11.9552" font-family="SFRM1200"><tspan y="-323.09599" x="150.87497">.</tspan><tspan y="-301.42698" x="47.853967 56.62908 62.48713 68.34518 73.54569 79.72653 89.48198 95.98561 101.18613 107.68976 114.19339">&#x0423;&#x0442;&#x0432;&#x0435;&#x0440;&#x0436;&#x0434;&#x0435;&#x043d;&#x0438;&#x0435;</tspan></text>
<path transform="matrix(1,0,0,-1,-183.5,-111.49698)" stroke-width=".478" stroke-linecap="butt" stroke-miterlimit="10" stroke-linejoin="miter" fill="none" stroke="#000000" d="M0 0H71.516"/>
<text xml:space="preserve" transform="matrix(1 0 -0 1 -231.354 185.932)" font-size="11.9552" font-family="SFRM1200"><tspan y="-301.427" x="119.37 126.51921 134.97154 140.82959 150.59699 157.10062 162.30113 168.80477 174.00528 179.86333 185.72138 192.225 198.08306 203.28357 209.7872 215.64525 222.14888 231.90433 238.40796 244.266 250.76964 256.95048 263.13133 268.98939 275.493 281.35108 287.8547 293.71278">:&#x042d;&#x0442;&#x043e;&#x0434;&#x0435;&#x0439;&#x0441;&#x0442;&#x0432;&#x0438;&#x0442;&#x0435;&#x043b;&#x044c;&#x043d;&#x043e;&#x043f;&#x043e;&#x043b;&#x0443;&#x043a;&#x043e;&#x043b;&#x044c;&#x0446;&#x043e;.</tspan></text>
<text xml:space="preserve" transform="matrix(1 0 -0 1 -231.354 185.932)" font-size="11.9552" font-family="SFBX1200" font-weight="bold"><tspan y="-273.781" x="47.854005 58.386537 65.10536 72.20675 78.74625 84.72385 91.26334 97.62351 103.75653 111.22853 117.94736 123.92496 130.28513 137.00395 143.72278">&#x0414;&#x043e;&#x043a;&#x0430;&#x0437;&#x0430;&#x0442;&#x0435;&#x043b;&#x044c;&#x0441;&#x0442;&#x0432;&#x043e;.</tspan></text>
<text xml:space="preserve" transform="matrix(1 0 -0 1 -231.354 185.932)" font-size="11.9552" font-family="SFRM1200"><tspan y="-273.781" x="153.31601 161.76834 168.27198 173.47249 179.97612 185.83417 191.03469 200.79013 207.29376 216.39168 222.89531 229.41089 234.6114 241.11504 249.56737 256.07099 262.25184 271.68449 276.88499 287.286 293.14408 298.34458 304.20265 310.70628 315.90678 323.7135 336.06324 342.56687 349.0705 358.82597 365.34156 370.54206 376.71095 382.569 389.07264 394.9307 400.78877 406.64683 416.41426 422.91789 429.4215 435.27958 441.7832 446.9837 452.84178 458.04228 464.5459 469.7464 476.25004 482.75367 487.95417">&#x0421;&#x043b;&#x0435;&#x0434;&#x0443;&#x0435;&#x0442;&#x0438;&#x0437;&#x043f;&#x0440;&#x0435;&#x0434;&#x044b;&#x0434;&#x0443;&#x0449;&#x0435;&#x0439;&#x0442;&#x0435;&#x043e;&#x0440;&#x0435;&#x043c;&#x044b;&#x043f;&#x0440;&#x043e;&#x0434;&#x0435;&#x043a;&#x0430;&#x0440;&#x0442;&#x043e;&#x0432;&#x043e;&#x043f;&#x0440;&#x043e;&#x0438;&#x0437;&#x0432;&#x0435;&#x0434;&#x0435;&#x043d;&#x0438;&#x0435;.</tspan></text>
<text xml:space="preserve" transform="matrix(1 0 -0 1 -231.354 185.932)" font-size="11.9552" font-family="MSAM10"><tspan y="-273.781" x="553.099">&#x25a0;</tspan></text>
<text xml:space="preserve" transform="matrix(1 0 -0 1 -231.354 185.932)" font-size="11.9552" font-family="SFBX1200" font-weight="bold"><tspan y="-246.134" x="47.854005 56.079187 62.212205 68.93103 76.40303 82.53605 91.50245 98.04195">&#x0422;&#x0435;&#x043e;&#x0440;&#x0435;&#x043c;&#x0430;.</tspan></text>
<text xml:space="preserve" transform="matrix(1 0 -0 1 -231.354 185.932)" font-size="11.9552" font-family="SFTI1200" font-style="italic"><tspan y="-246.134" x="106.778 115.003177 120.16782 126.444309 132.4219 137.98108 147.35396 153.92932 159.08202 165.65738 171.63498 176.79962 186.36379 191.92296 201.29584 206.85501 216.41918 222.39678 228.3146 236.08548 245.64965 251.20882 260.5817 269.2492 275.82456 281.38374 293.63783 298.80247 303.9671 313.53126 319.29368">&#x0412;&#x0441;&#x044f;&#x043a;&#x043e;&#x0435;&#x043d;&#x0435;&#x043f;&#x0443;&#x0441;&#x0442;&#x043e;&#x0435;&#x043e;&#x0442;&#x043a;&#x0440;&#x044b;&#x0442;&#x043e;&#x0435;&#x043c;&#x043d;&#x043e;&#x0436;&#x0435;&#x0441;&#x0442;&#x0432;&#x043e;</tspan></text>
<text xml:space="preserve" transform="matrix(1 0 -0 1 -231.354 185.932)" font-size="11.9552" font-family="CMMI12" font-style="italic"><tspan y="-246.134" x="329.06599">G</tspan></text>
<text xml:space="preserve" transform="matrix(1 0 -0 1 -231.354 185.932)" font-size="11.9552" font-family="CMSY10" font-style="italic"><tspan y="-246.134" x="341.65998">&#x2208;</tspan></text>
<text xml:space="preserve" transform="matrix(1 0 -0 1 -231.354 185.932)" font-size="11.9552" font-family="MSBM10"><tspan y="-246.134" x="352.98997">R</tspan></text>
<text xml:space="preserve" transform="matrix(1 0 -0 1 -231.354 185.932)" font-size="7.9701" font-family="CMMI8" font-style="italic"><tspan y="-250.473" x="361.62397">n</tspan></text>
<text xml:space="preserve" transform="matrix(1 0 -0 1 -231.354 185.932)" font-size="11.9552" font-family="SFTI1200" font-style="italic"><tspan y="-246.134" x="371.46498 381.6508 386.81544 396.37959 406.13505 411.29969 417.57618 422.7408 432.30497 438.8803 444.43949 453.81236 459.37153 465.94688 471.32673 477.00544 485.45777 492.0331 498.0107 507.57487 514.1502 519.9126 526.488 532.0471 541.4081 546.9672 552.52639 558.2051">&#x2013;&#x044d;&#x0442;&#x043e;&#x0441;&#x0447;&#x0435;&#x0442;&#x043d;&#x043e;&#x0435;&#x0434;&#x0438;&#x0437;&#x044a;&#x044e;&#x043d;&#x043a;&#x0442;&#x0438;&#x0432;&#x043d;&#x043e;&#x0435;&#x043e;&#x0431;&#x044a;-</tspan><tspan y="-231.688" x="47.853975 53.01862 58.57779 65.15315 71.728519 76.893169 83.46853 90.04389 98.40058 104.67706 110.953548 116.118198 121.282848 127.260448 134.03903 142.2642 147.5245 153.80098 158.96562 167.31035 176.87451 182.43369 187.35923 192.9184 199.69699 208.36452 213.92369 226.17777 232.75313 241.50434 246.66898 252.94545 259.5208 269.08497 274.84739 284.41154 290.38914 297.16773 303.4442 313.00837">&#x0435;&#x0434;&#x0438;&#x043d;&#x0435;&#x043d;&#x0438;&#x0435;&#x044f;&#x0447;&#x0435;&#x0435;&#x043a;.&#x0411;&#x043e;&#x043b;&#x0435;&#x0435;&#x0442;&#x043e;&#x0433;&#x043e;,&#x043c;&#x043e;&#x0436;&#x043d;&#x043e;&#x0441;&#x0447;&#x0438;&#x0442;&#x0430;&#x0442;&#x044c;,&#x0447;&#x0442;&#x043e;</tspan></text>
<text xml:space="preserve" transform="matrix(1 0 -0 1 -231.354 185.932)" font-size="11.9552" font-family="CMR12"><tspan y="-231.688" x="321.76197 330.2143">Cl</tspan></text>
<text xml:space="preserve" transform="matrix(1 0 -0 1 -231.354 185.932)" font-size="11.9552" font-family="SFTI1200" font-style="italic"><tspan y="-231.688" x="336.65696 342.93345 349.20994 354.37458 359.5392">&#x044f;&#x0447;&#x0435;&#x0435;&#x043a;</tspan></text>
<text xml:space="preserve" transform="matrix(1 0 -0 1 -231.354 185.932)" font-size="11.9552" font-family="CMSY10" font-style="italic"><tspan y="-231.688" x="368.71095">&#x2282;</tspan></text>
<text xml:space="preserve" transform="matrix(1 0 -0 1 -231.354 185.932)" font-size="11.9552" font-family="CMMI12" font-style="italic"><tspan y="-231.688" x="381.32994">G</tspan></text>
<text xml:space="preserve" transform="matrix(1 0 -0 1 -231.354 185.932)" font-size="11.9552" font-family="SFTI1200" font-style="italic"><tspan y="-231.688" x="393.75294 403.52033 412.18785 417.747 430.0011 436.57646 445.3157 450.48036 456.75685 463.33219 472.89634 478.65876 488.2229 494.2005 500.9791 507.25559 516.81979 525.5709 531.8474 538.1239 543.2886 549.86398 555.84158">&#x0438;&#x043c;&#x043e;&#x0436;&#x043d;&#x043e;&#x0441;&#x0447;&#x0438;&#x0442;&#x0430;&#x0442;&#x044c;,&#x0447;&#x0442;&#x043e;&#x044f;&#x0447;&#x0435;&#x0439;&#x043a;&#x0438;</tspan><tspan y="-217.24301" x="47.853944 57.20291 62.522977 68.285388 74.920528 81.49589 87.05505 93.63042 99.39282 105.669307 111.646907 118.22227 125.99315 134.66068 145.42037 151.39797 156.95714 162.51631 168.43415 173.99332 180.55673 187.1321 192.8945 202.45867 210.22954">&#x0441;&#x0440;&#x0430;&#x0446;&#x0438;&#x043e;&#x043d;&#x0430;&#x043b;&#x044c;&#x043d;&#x044b;&#x043c;&#x0438;&#x043a;&#x043e;&#x043e;&#x0440;&#x0434;&#x0438;&#x043d;&#x0430;&#x0442;&#x044b;.</tspan></text>
<text xml:space="preserve" transform="matrix(1 0 -0 1 -231.354 185.932)" font-size="11.9552" font-family="SFBX1200" font-weight="bold"><tspan y="-189.59601" x="47.853944 58.386476 65.1053 72.20669 78.746189 84.723789 91.26328 97.62345 103.75647 111.22847 117.947299 123.9249 130.28507 137.00389 143.72272">&#x0414;&#x043e;&#x043a;&#x0430;&#x0437;&#x0430;&#x0442;&#x0435;&#x043b;&#x044c;&#x0441;&#x0442;&#x0432;&#x043e;.</tspan></text>
<text xml:space="preserve" transform="matrix(1 0 -0 1 -231.354 185.932)" font-size="11.9552" font-family="SFRM1200"><tspan y="-189.59601" x="153.31595 161.6009 167.45896 172.65947 178.51752 186.32427 191.52478">&#x0412;&#x043e;&#x0437;&#x044c;&#x043c;&#x0435;&#x043c;</tspan></text>
<text xml:space="preserve" transform="matrix(1 0 -0 1 -231.354 185.932)" font-size="11.9552" font-family="CMMI12" font-style="italic"><tspan y="-189.59601" x="203.21595">x</tspan></text>
<text xml:space="preserve" transform="matrix(1 0 -0 1 -231.354 185.932)" font-size="11.9552" font-family="CMSY10" font-style="italic"><tspan y="-189.59601" x="213.18795">&#x2208;</tspan></text>
<text xml:space="preserve" transform="matrix(1 0 -0 1 -231.354 185.932)" font-size="11.9552" font-family="CMMI12" font-style="italic"><tspan y="-189.59601" x="224.47895">G</tspan></text>
<text xml:space="preserve" transform="matrix(1 0 -0 1 -231.354 185.932)" font-size="11.9552" font-family="SFRM1200"><tspan y="-189.59601" x="233.71294">.</tspan></text>
<path transform="matrix(1,0,0,-1,74.922,72.31501)" stroke-width=".79701" stroke-linecap="butt" stroke-miterlimit="10" stroke-linejoin="miter" fill="none" stroke="#000000" d="M55.49083 4.79007 55.67896 4.4927C54.00436 7.13821 53.08325 11.78317 53.62155 14.86761L53.51366 14.24753C54.05197 17.33199 52.27673 21.07764 49.54851 22.61382L49.23337 22.79137C46.50514 24.32753 43.0907 27.80779 41.60689 30.56482L42.68152 28.56824C41.19772 31.32527 39.86354 36.09496 39.70154 39.22179L39.59973 41.18124C39.43773 44.30806 36.91428 47.69113 33.96335 48.73764L34.4717 48.55762C31.52078 49.60413 27.09518 51.97131 24.58669 53.84494L25.20648 53.38217C22.69798 55.2558 18.12819 56.67955 14.9994 56.56227L15.60478 56.58467C12.476 56.46739 7.48955 57.03502 4.46712 57.85252L5.47253 57.58058C2.4501 58.39809-2.5259 58.8127-5.64183 58.50665L-4.59457 58.60939C-7.71051 58.30334-11.88791 56.12794-13.92517 53.75046L-14.19403 53.4368C-16.2313 51.05931-20.05115 47.81288-22.726 46.1856L-20.7981 47.35858C-23.47295 45.7313-28.16714 44.66096-31.28304 44.96786L-32.67249 45.10466C-35.78838 45.41158-39.49759 43.41504-40.95737 40.6452L-40.60834 41.30806C-42.06812 38.53822-43.50032 33.76706-43.80728 30.65121L-43.75124 31.22227C-44.0582 28.10643-46.59103 24.47366-49.40855 23.10814L-50.34573 22.65382C-53.16325 21.28831-55.8363 17.67323-56.31621 14.57924L-56.14946 15.65572C-56.62936 12.56172-57.54085 7.5698-58.1853 4.5058L-57.96632 5.54779C-58.61078 2.4838-59.52853-2.50714-60.01619-5.59996L-59.94131-5.12468C-60.42897-8.2175-58.63991-12.01707-55.94528-13.6114L-53.75993-14.90465C-51.0653-16.49898-49.14847-20.3154-49.47852-23.42899L-49.46132-23.26385C-49.79135-26.37744-49.43678-31.36217-48.66934-34.39769L-48.715-34.21515C-47.94756-37.25067-45.34782-41.3023-42.90828-43.26485L-43.38286-42.8833C-40.9433-44.84584-36.42984-46.33084-33.30165-46.20018L-32.17368-46.15271C-29.04547-46.02205-24.40579-47.33604-21.81055-49.08765L-23.34348-48.05301C-20.74823-49.80461-16.4714-52.5361-13.79083-54.15402L-14.81015-53.53867C-12.12958-55.15659-7.63408-55.44441-4.76907-54.18152L-5.18748-54.3658C-2.3225-53.1029 2.50056-52.5142 5.58525-53.05089L3.88806-52.75568C6.97275-53.29236 11.98582-54.0869 15.08522-54.53035L14.49739-54.44626C17.59679-54.88971 21.77971-53.33826 23.84035-50.98094L23.4778-51.39551C25.53842-49.03818 29.73877-46.92421 32.85968-46.67378L33.11586-46.65306C36.23677-46.40262 40.82407-44.71321 43.36205-42.87962L42.92517-43.19507C45.46313-41.36148 47.13165-37.36696 46.652-34.27296L46.27055-31.81494C45.7909-28.72093 47.72292-25.18533 50.58589-23.91786L52.22713-23.19107C55.09012-21.92358 57.34976-18.35878 57.27423-15.22876L57.28645-15.74411C57.21094-12.61407 57.49236-7.56189 57.91502-4.45956L57.75758-5.61717C58.18025-2.51486 57.16542 2.14456 55.49083 4.79007Z"/>
<path transform="matrix(1,0,0,-1,74.922,72.31501)" stroke-width=".79701" stroke-linecap="butt" stroke-miterlimit="10" stroke-linejoin="miter" fill="none" stroke="#000000" d="M19.84267-28.3468C19.84267-17.38786 10.95894-8.50414 0-8.50414-10.95894-8.50414-19.84267-17.38786-19.84267-28.3468-19.84267-39.30574-10.95894-48.18947 0-48.18947 10.95894-48.18947 19.84267-39.30574 19.84267-28.3468ZM0-28.3468"/>
<path transform="matrix(1,0,0,-1,74.922,72.31501)" d="M1.98447-28.3468C1.98447-27.2508 1.096-26.36232 0-26.36232-1.096-26.36232-1.98447-27.2508-1.98447-28.3468-1.98447-29.44281-1.096-30.33128 0-30.33128 1.096-30.33128 1.98447-29.44281 1.98447-28.3468ZM0-28.3468"/>
<text xml:space="preserve" transform="matrix(1 0 -0 1 -231.35399 185.932)" font-size="11.9552" font-family="SFRM1200"><tspan y="-75.825" x="310.576">x</tspan></text>
<path transform="matrix(1,0,0,-1,74.922,72.31501)" d="M-13.46469-41.8115H13.46469V-14.88212H-13.46469Z" fill="#ffffff" fill-opacity="0"/>
<path transform="matrix(1,0,0,-1,74.922,72.31501)" stroke-width=".79701" stroke-linecap="butt" stroke-miterlimit="10" stroke-linejoin="miter" fill="none" stroke="#000000" d="M-13.46469-41.8115H13.46469V-14.88212H-13.46469Z"/>
<path transform="matrix(1,0,0,-1,74.922,72.31501)" d="M-11.33876-39.68556H11.33876V-17.008038H-11.33876Z" fill="#ffffff" fill-opacity="0"/>
<path transform="matrix(1,0,0,-1,74.922,72.31501)" stroke-width=".3985" stroke-linecap="butt" stroke-dasharray="2.98883,2.98883" stroke-miterlimit="10" stroke-linejoin="miter" fill="none" stroke="#000000" d="M-11.33876-39.68556H11.33876V-17.008038H-11.33876Z"/>
<path transform="matrix(1,0,0,-1,74.922,72.31501)" stroke-width=".79701" stroke-linecap="butt" stroke-dasharray="2.98883,2.98883" stroke-miterlimit="10" stroke-linejoin="miter" fill="none" stroke="#ffffff" d="M-12.75595-14.8819H12.75595"/>
<path transform="matrix(1,0,0,-1,74.922,72.31501)" stroke-width=".79701" stroke-linecap="butt" stroke-dasharray="2.98883,2.98883" stroke-miterlimit="10" stroke-linejoin="miter" fill="none" stroke="#ffffff" d="M13.43636-16.15787V-41.3865"/>
<text xml:space="preserve" transform="matrix(1 0 -0 1 -231.354 185.932)" font-size="11.9552" font-family="SFRM1200"><tspan y="-26.863" x="302.2">9</tspan></text>
</g>
</svg>
