<svg version="1.1" xmlns="http://www.w3.org/2000/svg" viewBox="0 0 1137.0291428379714 1007.7403579257493" width="1137.0291428379714" height="1007.7403579257493">
  <!-- svg-source:excalidraw -->
  
  <defs>
    <style class="style-fonts">
      @font-face {
        font-family: "Virgil";
        src: url("https://excalidraw.com/Virgil.woff2");
      }
      @font-face {
        font-family: "Cascadia";
        src: url("https://excalidraw.com/Cascadia.woff2");
      }
      @font-face {
        font-family: "Assistant";
        src: url("https://excalidraw.com/Assistant-Regular.woff2");
      }
    </style>
    
  </defs>
  <g stroke-linecap="round"><g transform="translate(309.52914283797145 941.25) rotate(0 102.35221737917914 -186.27534651187085)"><path d="M1.01 -0.76 C35.16 -62.8, 170.17 -310, 204.28 -371.94 M0.08 1.46 C34.09 -60.96, 168.89 -311.66, 203.11 -373.75" stroke="#1e1e1e" stroke-width="4" fill="none"></path></g><g transform="translate(309.52914283797145 941.25) rotate(0 102.35221737917914 -186.27534651187085)"><path d="M199.4 -349.02 C198.99 -355.83, 202.17 -359.63, 203.11 -373.75 M199.4 -349.02 C199.92 -357.34, 200.75 -365.02, 203.11 -373.75" stroke="#1e1e1e" stroke-width="4" fill="none"></path></g><g transform="translate(309.52914283797145 941.25) rotate(0 102.35221737917914 -186.27534651187085)"><path d="M184.38 -357.19 C187.67 -362.12, 194.54 -363.91, 203.11 -373.75 M184.38 -357.19 C189.57 -363.07, 195.06 -368.22, 203.11 -373.75" stroke="#1e1e1e" stroke-width="4" fill="none"></path></g></g><mask></mask><g stroke-linecap="round"><g transform="translate(10.779142837971449 552.5) rotate(0 538.125 0)"><path d="M-0.78 0.4 C178.7 0.4, 896.91 -0.09, 1076.46 -0.01 M1.01 -0.44 C180.39 -0.23, 896.48 1.62, 1075.63 1.52" stroke="#1e1e1e" stroke-width="4" fill="none"></path></g><g transform="translate(10.779142837971449 552.5) rotate(0 538.125 0)"><path d="M1052.12 10.04 C1059.05 8.27, 1064.63 6.1, 1075.63 1.52 M1052.12 10.04 C1060.27 7.53, 1070.07 4.23, 1075.63 1.52" stroke="#1e1e1e" stroke-width="4" fill="none"></path></g><g transform="translate(10.779142837971449 552.5) rotate(0 538.125 0)"><path d="M1052.14 -7.06 C1059.06 -4.27, 1064.63 -1.89, 1075.63 1.52 M1052.14 -7.06 C1060.43 -3.26, 1070.22 -0.26, 1075.63 1.52" stroke="#1e1e1e" stroke-width="4" fill="none"></path></g></g><mask></mask><g stroke-linecap="round"><g transform="translate(530.7791428379714 711.25) rotate(0 0 -344.375)"><path d="M1.1 0.84 C0.91 -113.97, -0.33 -574.42, -0.55 -689.16 M0.21 0.23 C-0.23 -114.38, -1.57 -572.9, -1.79 -687.84" stroke="#1e1e1e" stroke-width="4" fill="none"></path></g><g transform="translate(530.7791428379714 711.25) rotate(0 0 -344.375)"><path d="M6.82 -664.37 C5.29 -673.35, 0.23 -680.94, -1.79 -687.84 M6.82 -664.37 C2.88 -673.5, 0.86 -683.46, -1.79 -687.84" stroke="#1e1e1e" stroke-width="4" fill="none"></path></g><g transform="translate(530.7791428379714 711.25) rotate(0 0 -344.375)"><path d="M-10.28 -664.33 C-5.88 -673.47, -5.02 -681.09, -1.79 -687.84 M-10.28 -664.33 C-7.51 -673.6, -2.82 -683.58, -1.79 -687.84" stroke="#1e1e1e" stroke-width="4" fill="none"></path></g></g><mask></mask><g stroke-linecap="round" transform="translate(309.52914283797134 111.25) rotate(0 220.6250000000001 220.62500000000006)"><path d="M441.25 220.63 C441.25 225.43, 441.09 230.26, 440.78 235.05 C440.46 239.85, 439.99 244.65, 439.36 249.42 C438.73 254.19, 437.95 258.95, 437.01 263.67 C436.07 268.38, 434.98 273.08, 433.73 277.73 C432.49 282.37, 431.09 286.99, 429.54 291.54 C428 296.1, 426.3 300.61, 424.46 305.05 C422.62 309.5, 420.62 313.89, 418.5 318.2 C416.37 322.52, 414.1 326.77, 411.69 330.94 C409.29 335.1, 406.74 339.2, 404.07 343.2 C401.4 347.2, 398.59 351.12, 395.66 354.93 C392.73 358.75, 389.67 362.48, 386.5 366.09 C383.33 369.71, 380.03 373.23, 376.63 376.63 C373.23 380.03, 369.71 383.33, 366.09 386.5 C362.48 389.67, 358.75 392.73, 354.93 395.66 C351.12 398.59, 347.2 401.4, 343.2 404.07 C339.2 406.74, 335.1 409.29, 330.94 411.69 C326.77 414.1, 322.52 416.37, 318.2 418.5 C313.89 420.62, 309.5 422.62, 305.05 424.46 C300.61 426.3, 296.1 428, 291.54 429.54 C286.99 431.09, 282.37 432.49, 277.73 433.73 C273.08 434.98, 268.38 436.07, 263.67 437.01 C258.95 437.95, 254.19 438.73, 249.42 439.36 C244.65 439.99, 239.85 440.46, 235.05 440.78 C230.26 441.09, 225.43 441.25, 220.63 441.25 C215.82 441.25, 210.99 441.09, 206.2 440.78 C201.4 440.46, 196.6 439.99, 191.83 439.36 C187.06 438.73, 182.3 437.95, 177.58 437.01 C172.87 436.07, 168.17 434.98, 163.52 433.73 C158.88 432.49, 154.26 431.09, 149.71 429.54 C145.15 428, 140.64 426.3, 136.2 424.46 C131.75 422.62, 127.36 420.62, 123.05 418.5 C118.73 416.37, 114.48 414.1, 110.31 411.69 C106.15 409.29, 102.05 406.74, 98.05 404.07 C94.05 401.4, 90.13 398.59, 86.32 395.66 C82.5 392.73, 78.77 389.67, 75.16 386.5 C71.54 383.33, 68.02 380.03, 64.62 376.63 C61.22 373.23, 57.92 369.71, 54.75 366.09 C51.58 362.48, 48.52 358.75, 45.59 354.93 C42.66 351.12, 39.85 347.2, 37.18 343.2 C34.51 339.2, 31.96 335.1, 29.56 330.94 C27.15 326.77, 24.88 322.52, 22.75 318.2 C20.63 313.89, 18.63 309.5, 16.79 305.05 C14.95 300.61, 13.25 296.1, 11.71 291.54 C10.16 286.99, 8.76 282.37, 7.52 277.73 C6.27 273.08, 5.18 268.38, 4.24 263.67 C3.3 258.95, 2.52 254.19, 1.89 249.42 C1.26 244.65, 0.79 239.85, 0.47 235.05 C0.16 230.26, 0 225.43, 0 220.63 C0 215.82, 0.16 210.99, 0.47 206.2 C0.79 201.4, 1.26 196.6, 1.89 191.83 C2.52 187.06, 3.3 182.3, 4.24 177.58 C5.18 172.87, 6.27 168.17, 7.52 163.52 C8.76 158.88, 10.16 154.26, 11.71 149.71 C13.25 145.15, 14.95 140.64, 16.79 136.2 C18.63 131.75, 20.63 127.36, 22.75 123.05 C24.88 118.73, 27.15 114.48, 29.56 110.31 C31.96 106.15, 34.51 102.05, 37.18 98.05 C39.85 94.05, 42.66 90.13, 45.59 86.32 C48.52 82.5, 51.58 78.77, 54.75 75.16 C57.92 71.54, 61.22 68.02, 64.62 64.62 C68.02 61.22, 71.54 57.92, 75.16 54.75 C78.77 51.58, 82.5 48.52, 86.32 45.59 C90.13 42.66, 94.05 39.85, 98.05 37.18 C102.05 34.51, 106.15 31.96, 110.31 29.56 C114.48 27.15, 118.73 24.88, 123.05 22.75 C127.36 20.63, 131.75 18.63, 136.2 16.79 C140.64 14.95, 145.15 13.25, 149.71 11.71 C154.26 10.16, 158.88 8.76, 163.52 7.52 C168.17 6.27, 172.87 5.18, 177.58 4.24 C182.3 3.3, 187.06 2.52, 191.83 1.89 C196.6 1.26, 201.4 0.79, 206.2 0.47 C210.99 0.16, 215.82 0, 220.63 0 C225.43 0, 230.26 0.16, 235.05 0.47 C239.85 0.79, 244.65 1.26, 249.42 1.89 C254.19 2.52, 258.95 3.3, 263.67 4.24 C268.38 5.18, 273.08 6.27, 277.73 7.52 C282.37 8.76, 286.99 10.16, 291.54 11.71 C296.1 13.25, 300.61 14.95, 305.05 16.79 C309.5 18.63, 313.89 20.63, 318.2 22.75 C322.52 24.88, 326.77 27.15, 330.94 29.56 C335.1 31.96, 339.2 34.51, 343.2 37.18 C347.2 39.85, 351.12 42.66, 354.93 45.59 C358.75 48.52, 362.48 51.58, 366.09 54.75 C369.71 57.92, 373.23 61.22, 376.63 64.62 C380.03 68.02, 383.33 71.54, 386.5 75.16 C389.67 78.77, 392.73 82.5, 395.66 86.32 C398.59 90.13, 401.4 94.05, 404.07 98.05 C406.74 102.05, 409.29 106.15, 411.69 110.31 C414.1 114.48, 416.37 118.73, 418.5 123.05 C420.62 127.36, 422.62 131.75, 424.46 136.2 C426.3 140.64, 428 145.15, 429.54 149.71 C431.09 154.26, 432.49 158.88, 433.73 163.52 C434.98 168.17, 436.07 172.87, 437.01 177.58 C437.95 182.3, 438.73 187.06, 439.36 191.83 C439.99 196.6, 440.46 201.4, 440.78 206.2 C441.09 210.99, 441.25 215.82, 441.25 220.63" stroke="#e03131" stroke-width="4" fill="none"></path></g><g stroke-linecap="round" transform="translate(493.90414283797134 110.62499999999994) rotate(0 31.875000000000057 220.62500000000006)"><path d="M63.75 220.63 C63.75 226.12, 63.72 231.63, 63.66 237.11 C63.6 242.59, 63.51 248.07, 63.39 253.51 C63.28 258.94, 63.13 264.36, 62.95 269.72 C62.77 275.08, 62.57 280.4, 62.33 285.66 C62.1 290.91, 61.84 296.11, 61.55 301.23 C61.26 306.34, 60.94 311.4, 60.59 316.35 C60.25 321.3, 59.88 326.18, 59.48 330.94 C59.08 335.7, 58.66 340.37, 58.21 344.91 C57.76 349.45, 57.29 353.89, 56.8 358.18 C56.3 362.48, 55.78 366.66, 55.24 370.69 C54.7 374.72, 54.14 378.62, 53.56 382.35 C52.97 386.09, 52.37 389.69, 51.75 393.12 C51.13 396.54, 50.49 399.82, 49.83 402.91 C49.17 406.01, 48.5 408.94, 47.81 411.69 C47.12 414.44, 46.42 417.02, 45.71 419.4 C44.99 421.79, 44.26 423.99, 43.52 426 C42.78 428.01, 42.03 429.83, 41.27 431.45 C40.51 433.07, 39.74 434.5, 38.97 435.72 C38.19 436.94, 37.41 437.97, 36.63 438.79 C35.84 439.6, 35.05 440.22, 34.26 440.63 C33.47 441.04, 32.67 441.25, 31.88 441.25 C31.08 441.25, 30.28 441.04, 29.49 440.63 C28.7 440.22, 27.91 439.6, 27.12 438.79 C26.34 437.97, 25.56 436.94, 24.78 435.72 C24.01 434.5, 23.24 433.07, 22.48 431.45 C21.72 429.83, 20.97 428.01, 20.23 426 C19.49 423.99, 18.76 421.79, 18.04 419.4 C17.33 417.02, 16.63 414.44, 15.94 411.69 C15.25 408.94, 14.58 406.01, 13.92 402.91 C13.26 399.82, 12.62 396.54, 12 393.12 C11.38 389.69, 10.78 386.09, 10.19 382.35 C9.61 378.62, 9.05 374.72, 8.51 370.69 C7.97 366.66, 7.45 362.48, 6.95 358.18 C6.46 353.89, 5.99 349.45, 5.54 344.91 C5.09 340.37, 4.67 335.7, 4.27 330.94 C3.87 326.18, 3.5 321.3, 3.16 316.35 C2.81 311.4, 2.49 306.34, 2.2 301.23 C1.91 296.11, 1.65 290.91, 1.42 285.66 C1.18 280.4, 0.98 275.08, 0.8 269.72 C0.62 264.36, 0.47 258.94, 0.36 253.51 C0.24 248.07, 0.15 242.59, 0.09 237.11 C0.03 231.63, 0 226.12, 0 220.63 C0 215.13, 0.03 209.62, 0.09 204.14 C0.15 198.66, 0.24 193.18, 0.36 187.74 C0.47 182.31, 0.62 176.89, 0.8 171.53 C0.98 166.17, 1.18 160.85, 1.42 155.59 C1.65 150.34, 1.91 145.14, 2.2 140.02 C2.49 134.91, 2.81 129.85, 3.16 124.9 C3.5 119.95, 3.87 115.07, 4.27 110.31 C4.67 105.55, 5.09 100.88, 5.54 96.34 C5.99 91.8, 6.46 87.36, 6.95 83.07 C7.45 78.77, 7.97 74.59, 8.51 70.56 C9.05 66.53, 9.61 62.63, 10.19 58.9 C10.78 55.16, 11.38 51.56, 12 48.13 C12.62 44.71, 13.26 41.43, 13.92 38.34 C14.58 35.24, 15.25 32.31, 15.94 29.56 C16.63 26.81, 17.33 24.23, 18.04 21.85 C18.76 19.46, 19.49 17.26, 20.23 15.25 C20.97 13.24, 21.72 11.42, 22.48 9.8 C23.24 8.18, 24.01 6.75, 24.78 5.53 C25.56 4.31, 26.34 3.28, 27.12 2.46 C27.91 1.65, 28.7 1.03, 29.49 0.62 C30.28 0.21, 31.08 0, 31.88 0 C32.67 0, 33.47 0.21, 34.26 0.62 C35.05 1.03, 35.84 1.65, 36.63 2.46 C37.41 3.28, 38.19 4.31, 38.97 5.53 C39.74 6.75, 40.51 8.18, 41.27 9.8 C42.03 11.42, 42.78 13.24, 43.52 15.25 C44.26 17.26, 44.99 19.46, 45.71 21.85 C46.42 24.23, 47.12 26.81, 47.81 29.56 C48.5 32.31, 49.17 35.24, 49.83 38.34 C50.49 41.43, 51.13 44.71, 51.75 48.13 C52.37 51.56, 52.97 55.16, 53.56 58.9 C54.14 62.63, 54.7 66.53, 55.24 70.56 C55.78 74.59, 56.3 78.77, 56.8 83.07 C57.29 87.36, 57.76 91.8, 58.21 96.34 C58.66 100.88, 59.08 105.55, 59.48 110.31 C59.88 115.07, 60.25 119.95, 60.59 124.9 C60.94 129.85, 61.26 134.91, 61.55 140.02 C61.84 145.14, 62.1 150.34, 62.33 155.59 C62.57 160.85, 62.77 166.17, 62.95 171.53 C63.13 176.89, 63.28 182.31, 63.39 187.74 C63.51 193.18, 63.6 198.66, 63.66 204.14 C63.72 209.62, 63.75 215.13, 63.75 220.63" stroke="#e03131" stroke-width="4" fill="none"></path></g><g stroke-linecap="round" transform="translate(308.90414283797134 300.62499999999994) rotate(0 220.6250000000001 30.625000000000057)"><path d="M441.25 30.63 C441.25 31.39, 441.04 32.15, 440.63 32.91 C440.22 33.67, 439.6 34.44, 438.79 35.19 C437.97 35.94, 436.94 36.7, 435.72 37.44 C434.5 38.18, 433.07 38.92, 431.45 39.65 C429.83 40.38, 428.01 41.1, 426 41.81 C423.99 42.52, 421.79 43.23, 419.4 43.91 C417.02 44.6, 414.44 45.28, 411.69 45.94 C408.94 46.6, 406.01 47.25, 402.91 47.88 C399.82 48.51, 396.54 49.12, 393.12 49.72 C389.69 50.32, 386.09 50.9, 382.35 51.46 C378.62 52.01, 374.72 52.56, 370.69 53.07 C366.66 53.59, 362.48 54.09, 358.18 54.57 C353.89 55.04, 349.45 55.5, 344.91 55.93 C340.37 56.36, 335.7 56.77, 330.94 57.15 C326.18 57.53, 321.3 57.89, 316.35 58.22 C311.4 58.55, 306.34 58.85, 301.23 59.13 C296.11 59.41, 290.91 59.66, 285.66 59.89 C280.4 60.11, 275.08 60.31, 269.72 60.48 C264.36 60.65, 258.94 60.79, 253.51 60.91 C248.07 61.02, 242.59 61.11, 237.11 61.16 C231.63 61.22, 226.12 61.25, 220.63 61.25 C215.13 61.25, 209.62 61.22, 204.14 61.16 C198.66 61.11, 193.18 61.02, 187.74 60.91 C182.31 60.79, 176.89 60.65, 171.53 60.48 C166.17 60.31, 160.85 60.11, 155.59 59.89 C150.34 59.66, 145.14 59.41, 140.02 59.13 C134.91 58.85, 129.85 58.55, 124.9 58.22 C119.95 57.89, 115.07 57.53, 110.31 57.15 C105.55 56.77, 100.88 56.36, 96.34 55.93 C91.8 55.5, 87.36 55.04, 83.07 54.57 C78.77 54.09, 74.59 53.59, 70.56 53.07 C66.53 52.56, 62.63 52.01, 58.9 51.46 C55.16 50.9, 51.56 50.32, 48.13 49.72 C44.71 49.12, 41.43 48.51, 38.34 47.88 C35.24 47.25, 32.31 46.6, 29.56 45.94 C26.81 45.28, 24.23 44.6, 21.85 43.91 C19.46 43.23, 17.26 42.52, 15.25 41.81 C13.24 41.1, 11.42 40.38, 9.8 39.65 C8.18 38.92, 6.75 38.18, 5.53 37.44 C4.31 36.7, 3.28 35.94, 2.46 35.19 C1.65 34.44, 1.03 33.67, 0.62 32.91 C0.21 32.15, 0 31.39, 0 30.63 C0 29.86, 0.21 29.1, 0.62 28.34 C1.03 27.58, 1.65 26.81, 2.46 26.06 C3.28 25.31, 4.31 24.55, 5.53 23.81 C6.75 23.07, 8.18 22.33, 9.8 21.6 C11.42 20.87, 13.24 20.15, 15.25 19.44 C17.26 18.73, 19.46 18.02, 21.85 17.34 C24.23 16.65, 26.81 15.97, 29.56 15.31 C32.31 14.65, 35.24 14, 38.34 13.37 C41.43 12.74, 44.71 12.13, 48.13 11.53 C51.56 10.93, 55.16 10.35, 58.9 9.79 C62.63 9.24, 66.53 8.69, 70.56 8.18 C74.59 7.66, 78.77 7.16, 83.07 6.68 C87.36 6.21, 91.8 5.75, 96.34 5.32 C100.88 4.89, 105.55 4.48, 110.31 4.1 C115.07 3.72, 119.95 3.36, 124.9 3.03 C129.85 2.7, 134.91 2.4, 140.02 2.12 C145.14 1.84, 150.34 1.59, 155.59 1.36 C160.85 1.14, 166.17 0.94, 171.53 0.77 C176.89 0.6, 182.31 0.46, 187.74 0.34 C193.18 0.23, 198.66 0.14, 204.14 0.09 C209.62 0.03, 215.13 0, 220.63 0 C226.12 0, 231.63 0.03, 237.11 0.09 C242.59 0.14, 248.07 0.23, 253.51 0.34 C258.94 0.46, 264.36 0.6, 269.72 0.77 C275.08 0.94, 280.4 1.14, 285.66 1.36 C290.91 1.59, 296.11 1.84, 301.23 2.12 C306.34 2.4, 311.4 2.7, 316.35 3.03 C321.3 3.36, 326.18 3.72, 330.94 4.1 C335.7 4.48, 340.37 4.89, 344.91 5.32 C349.45 5.75, 353.89 6.21, 358.18 6.68 C362.48 7.16, 366.66 7.66, 370.69 8.18 C374.72 8.69, 378.62 9.24, 382.35 9.79 C386.09 10.35, 389.69 10.93, 393.12 11.53 C396.54 12.13, 399.82 12.74, 402.91 13.37 C406.01 14, 408.94 14.65, 411.69 15.31 C414.44 15.97, 417.02 16.65, 419.4 17.34 C421.79 18.02, 423.99 18.73, 426 19.44 C428.01 20.15, 429.83 20.87, 431.45 21.6 C433.07 22.33, 434.5 23.07, 435.72 23.81 C436.94 24.55, 437.97 25.31, 438.79 26.06 C439.6 26.81, 440.22 27.58, 440.63 28.34 C441.04 29.1, 441.25 29.86, 441.25 30.63" stroke="#e03131" stroke-width="4" fill="none"></path></g><g stroke-linecap="round" transform="translate(308.36468883797113 165.62499999999994) rotate(0 220.6250000000001 165.62500000000006)"><path d="M156.09 6.33 C172.96 -0.44, 194.9 -0.85, 214.88 -0.96 C234.86 -1.06, 256.76 1.94, 275.95 5.71 C295.14 9.49, 313.04 14.3, 330.01 21.7 C346.99 29.09, 363.93 39.37, 377.79 50.08 C391.65 60.8, 403.42 72.85, 413.15 85.98 C422.89 99.11, 431.68 114.37, 436.19 128.86 C440.7 143.35, 441.13 158.15, 440.22 172.93 C439.3 187.72, 436.72 203.44, 430.7 217.57 C424.69 231.71, 415.12 245.26, 404.12 257.75 C393.12 270.23, 379.86 282.89, 364.69 292.46 C349.51 302.03, 331.35 308.88, 313.05 315.15 C294.74 321.42, 274.48 327.5, 254.86 330.08 C235.24 332.65, 214.85 332.37, 195.32 330.62 C175.79 328.87, 155.95 325.12, 137.67 319.56 C119.4 314, 101.28 306.56, 85.69 297.27 C70.1 287.98, 55.86 275.86, 44.14 263.83 C32.43 251.8, 22.43 238.94, 15.37 225.09 C8.32 211.23, 3.93 195.53, 1.83 180.69 C-0.28 165.85, -0.77 150.79, 2.73 136.05 C6.24 121.31, 14.09 105.58, 22.84 92.25 C31.59 78.91, 42 67.12, 55.24 56.04 C68.48 44.96, 83.92 34.19, 102.28 25.76 C120.64 17.33, 153.2 8.54, 165.38 5.45 C177.56 2.35, 174.54 4.43, 175.37 7.18" stroke="#e03131" stroke-width="1.5" fill="none" stroke-dasharray="8 9"></path></g><g stroke-linecap="round" transform="translate(405.15414283797134 111.87499999999994) rotate(0 126.875 220.62500000000006)"><path d="M187.21 27.57 C198.17 33.79, 208.46 49.7, 217.06 64.11 C225.66 78.52, 233.24 95.94, 238.84 114.03 C244.43 132.12, 248.06 152.33, 250.62 172.65 C253.19 192.97, 254.99 215.21, 254.21 235.97 C253.44 256.74, 250.4 277.99, 245.99 297.26 C241.58 316.53, 234.84 335.05, 227.77 351.6 C220.7 368.14, 212.81 384.03, 203.56 396.51 C194.31 409, 183.48 419.01, 172.28 426.53 C161.07 434.05, 148.33 440.11, 136.35 441.62 C124.36 443.14, 112.15 440.14, 100.36 435.61 C88.57 431.09, 76.22 424.33, 65.61 414.46 C55.01 404.59, 44.96 391.15, 36.73 376.4 C28.49 361.66, 21.8 344.05, 16.18 326 C10.56 307.95, 5.8 288.16, 3 268.1 C0.19 248.05, -1.37 226.42, -0.65 205.66 C0.08 184.91, 2.95 163.12, 7.36 143.59 C11.76 124.05, 18.52 105, 25.81 88.47 C33.1 71.94, 41.72 56.69, 51.09 44.41 C60.47 32.14, 71.07 22.17, 82.08 14.82 C93.08 7.47, 105.28 2, 117.1 0.31 C128.92 -1.37, 139.71 -1.26, 153.01 4.72 C166.31 10.7, 188.72 28.73, 196.89 36.19 C205.06 43.66, 203.37 46.47, 202.04 49.5" stroke="#e03131" stroke-width="1.5" fill="none" stroke-dasharray="8 9"></path></g><g transform="translate(530.7791428379714 106.25) rotate(0 -3.125 9.375)" stroke="none"><path fill="#1e1e1e" d="M 1.12,-1.12 Q 1.12,-1.12 2.06,-0.59 3.00,-0.06 3.61,0.86 4.21,1.78 4.62,3.43 5.03,5.08 5.10,6.43 5.17,7.78 4.64,9.72 4.11,11.67 2.85,13.16 1.59,14.66 -0.09,15.88 -1.77,17.10 -3.84,17.37 -5.91,17.65 -7.51,17.66 -9.11,17.68 -10.36,17.18 -11.60,16.68 -13.20,15.31 -14.79,13.93 -15.40,12.44 -16.00,10.94 -16.68,9.49 -17.36,8.04 -17.10,5.48 -16.84,2.92 -15.67,1.57 -14.51,0.21 -12.72,-1.07 -10.93,-2.36 -9.53,-2.62 -8.12,-2.87 -5.76,-3.48 -3.40,-4.08 -1.63,-3.79 0.14,-3.49 2.17,-2.80 4.21,-2.12 5.25,-1.57 6.29,-1.02 7.22,-0.01 8.15,0.98 8.81,2.12 9.47,3.27 9.82,4.34 10.18,5.40 10.87,7.39 11.56,9.38 11.23,10.87 10.90,12.36 10.29,14.42 9.68,16.48 8.99,17.69 8.31,18.90 6.79,19.92 5.27,20.93 3.12,21.83 0.98,22.74 -0.42,22.87 -1.82,23.00 -3.54,22.63 -5.26,22.27 -6.68,21.72 -8.11,21.16 -9.28,20.43 -10.45,19.71 -11.56,18.40 -12.67,17.09 -14.09,15.14 -15.50,13.19 -15.93,11.95 -16.36,10.70 -16.16,8.90 -15.96,7.10 -15.27,5.10 -14.58,3.09 -13.25,1.95 -11.92,0.81 -10.30,0.27 -8.68,-0.26 -7.70,-0.68 -6.71,-1.10 -5.15,-1.41 -3.59,-1.72 -2.20,-1.83 -0.81,-1.94 1.26,-2.00 3.33,-2.06 6.21,-1.04 9.09,-0.01 9.98,1.10 10.87,2.23 11.30,3.81 11.73,5.39 11.43,8.04 11.14,10.69 10.47,11.87 9.81,13.04 9.26,14.05 8.70,15.06 7.36,16.33 6.02,17.60 4.88,18.17 3.73,18.75 2.58,19.26 1.43,19.77 -0.50,19.75 -2.44,19.73 -4.24,19.27 -6.04,18.80 -7.40,18.13 -8.76,17.46 -9.79,16.72 -10.81,15.98 -11.86,14.66 -12.90,13.33 -13.40,12.19 -13.90,11.05 -14.12,9.57 -14.34,8.10 -13.99,6.35 -13.64,4.60 -12.96,3.32 -12.28,2.04 -10.97,0.86 -9.66,-0.30 -7.28,-1.56 -4.90,-2.81 -3.04,-2.99 -1.17,-3.17 0.42,-2.79 2.02,-2.41 3.20,-1.74 4.37,-1.08 5.28,-0.33 6.18,0.40 6.89,1.54 7.60,2.68 7.87,4.15 8.14,5.63 8.20,7.36 8.26,9.10 7.73,10.48 7.21,11.87 6.47,12.80 5.73,13.73 4.61,14.43 3.49,15.12 1.70,15.43 -0.07,15.74 -2.27,15.20 -4.46,14.65 -5.31,13.99 -6.17,13.32 -7.54,11.51 -8.90,9.71 -9.20,7.94 -9.50,6.17 -9.25,4.88 -8.99,3.60 -8.26,2.53 -7.53,1.47 -5.99,0.54 -4.44,-0.37 -2.76,-0.23 -1.08,-0.09 0.14,0.70 1.38,1.49 2.16,2.88 2.95,4.27 3.12,5.93 3.28,7.60 2.73,9.77 2.18,11.95 1.45,12.86 0.72,13.76 -0.40,14.45 -1.52,15.13 -3.30,15.43 -5.08,15.72 -7.24,15.19 -9.41,14.65 -10.90,13.51 -12.39,12.38 -13.22,10.58 -14.04,8.78 -13.73,7.29 -13.42,5.81 -12.25,4.18 -11.08,2.55 -9.76,2.26 -8.44,1.96 -6.99,2.40 -5.53,2.83 -4.61,3.56 -3.69,4.29 -3.01,5.43 -2.32,6.57 -2.08,8.01 -1.84,9.45 -2.00,11.55 -2.16,13.66 -2.79,14.63 -3.43,15.61 -5.01,16.64 -6.58,17.66 -7.99,17.39 -9.41,17.11 -10.92,15.97 -12.44,14.83 -13.32,12.82 -14.19,10.82 -14.31,9.48 -14.42,8.15 -14.46,6.83 -14.49,5.50 -14.03,4.02 -13.58,2.54 -12.84,1.42 -12.10,0.31 -11.01,-0.44 -9.93,-1.21 -8.14,-2.02 -6.35,-2.82 -4.85,-2.51 -3.35,-2.21 -1.47,-0.84 0.40,0.51 1.64,3.72 2.89,6.94 3.00,8.19 3.11,9.45 2.60,11.08 2.10,12.70 1.21,13.58 0.31,14.45 -0.69,15.41 -1.70,16.37 -2.89,16.55 -4.09,16.73 -5.50,16.26 -6.91,15.79 -7.81,15.07 -8.71,14.35 -9.37,13.27 -10.03,12.19 -10.45,9.28 -10.87,6.37 -10.18,5.11 -9.49,3.86 -8.22,2.45 -6.94,1.03 -5.82,0.41 -4.70,-0.20 -2.93,-0.13 -1.17,-0.07 -0.11,0.52 0.93,1.12 1.89,2.71 2.85,4.31 2.96,5.41 3.08,6.52 2.58,7.93 2.09,9.34 1.50,10.49 0.91,11.63 -0.05,12.53 -1.02,13.42 -2.69,14.16 -4.36,14.89 -4.56,14.97 -4.76,15.04 -4.97,15.04 -5.18,15.04 -5.39,14.98 -5.59,14.92 -5.76,14.79 -5.93,14.66 -6.05,14.49 -6.18,14.32 -6.24,14.11 -6.30,13.91 -6.29,13.70 -6.28,13.48 -6.21,13.29 -6.13,13.09 -6.00,12.92 -5.86,12.76 -5.68,12.65 -5.50,12.53 -5.30,12.48 -5.09,12.44 -4.88,12.45 -4.67,12.47 -4.47,12.56 -4.28,12.65 -4.12,12.79 -3.96,12.93 -3.86,13.12 -3.76,13.30 -3.72,13.51 -3.68,13.72 -3.71,13.93 -3.74,14.14 -3.84,14.33 -3.94,14.52 -4.09,14.67 -4.24,14.82 -4.43,14.91 -4.62,15.00 -4.83,15.03 -5.04,15.06 -5.25,15.02 -5.46,14.97 -5.64,14.87 -5.83,14.76 -5.97,14.60 -6.11,14.44 -6.19,14.25 -6.27,14.05 -6.29,13.84 -6.30,13.63 -6.25,13.42 -6.20,13.21 -6.08,13.04 -5.96,12.86 -5.80,12.73 -5.63,12.60 -5.63,12.60 -5.63,12.60 -5.04,11.00 -4.45,9.40 -3.89,8.12 -3.33,6.85 -4.33,7.59 -5.32,8.34 -4.38,9.07 -3.44,9.81 -3.48,7.87 -3.52,5.93 -4.31,4.64 -5.10,3.34 -6.50,4.43 -7.90,5.52 -7.86,6.59 -7.82,7.65 -7.15,9.42 -6.49,11.18 -7.57,11.93 -8.65,12.67 -8.56,11.44 -8.48,10.20 -8.25,8.83 -8.02,7.45 -7.23,8.34 -6.43,9.22 -5.32,9.30 -4.21,9.37 -3.61,8.31 -3.01,7.25 -1.80,8.18 -0.60,9.11 0.48,8.47 1.57,7.83 1.66,6.62 1.76,5.41 0.47,4.47 -0.81,3.52 -1.99,3.58 -3.16,3.65 -4.36,4.29 -5.57,4.94 -6.41,5.64 -7.25,6.33 -7.49,7.53 -7.72,8.72 -7.27,9.73 -6.82,10.75 -5.56,11.59 -4.30,12.44 -2.57,13.08 -0.84,13.73 0.09,13.22 1.03,12.72 2.00,12.25 2.97,11.79 3.89,10.24 4.81,8.69 5.05,7.24 5.28,5.79 4.35,5.20 3.42,4.61 1.53,4.65 -0.34,4.69 -2.31,4.85 -4.28,5.01 -5.67,5.55 -7.05,6.08 -8.27,6.39 -9.49,6.69 -9.90,7.93 -10.32,9.17 -9.71,10.36 -9.11,11.55 -8.38,12.39 -7.64,13.24 -6.69,14.27 -5.73,15.29 -3.99,16.00 -2.24,16.70 -0.81,16.64 0.61,16.57 1.93,16.01 3.26,15.45 3.90,14.23 4.54,13.02 4.96,11.21 5.39,9.40 4.76,8.35 4.13,7.31 3.64,5.87 3.15,4.44 2.13,3.92 1.11,3.40 -0.08,3.03 -1.27,2.65 -2.83,2.47 -4.39,2.29 -6.71,2.76 -9.04,3.23 -10.32,4.12 -11.61,5.01 -11.77,6.11 -11.93,7.20 -11.38,8.73 -10.83,10.26 -9.84,11.27 -8.84,12.28 -7.51,12.24 -6.18,12.20 -4.83,12.17 -3.48,12.14 -2.40,11.00 -1.33,9.86 -0.77,8.86 -0.20,7.86 -0.20,6.70 -0.19,5.54 -0.16,4.24 -0.13,2.94 -0.62,2.03 -1.12,1.12 -1.23,0.97 -1.35,0.82 -1.43,0.64 -1.51,0.47 -1.54,0.28 -1.58,0.09 -1.57,-0.09 -1.55,-0.28 -1.50,-0.46 -1.44,-0.65 -1.34,-0.81 -1.24,-0.97 -1.11,-1.11 -0.97,-1.24 -0.81,-1.34 -0.65,-1.44 -0.46,-1.50 -0.28,-1.55 -0.09,-1.57 0.09,-1.58 0.28,-1.54 0.47,-1.51 0.64,-1.43 0.82,-1.35 0.97,-1.23 1.12,-1.12 1.12,-1.12 L 1.12,-1.12 Z"></path></g><g transform="translate(558.2791428379714 91.25) rotate(0 32.5 -38.75)" stroke="none"><path fill="#1e1e1e" d="M -1.49,-0.49 Q -1.49,-0.49 -1.63,-2.94 -1.78,-5.38 -1.12,-7.38 -0.45,-9.37 0.18,-11.30 0.82,-13.22 1.42,-15.40 2.03,-17.58 2.65,-19.95 3.27,-22.32 3.90,-24.76 4.52,-27.21 5.13,-29.99 5.74,-32.78 6.36,-35.76 6.99,-38.75 7.60,-42.14 8.22,-45.53 8.86,-48.48 9.49,-51.43 10.14,-53.82 10.78,-56.22 11.00,-58.06 11.22,-59.91 11.83,-61.59 12.44,-63.27 14.81,-64.55 17.19,-65.83 19.13,-64.32 21.07,-62.81 21.48,-60.81 21.88,-58.81 22.29,-57.33 22.70,-55.86 23.29,-52.48 23.88,-49.10 24.47,-45.96 25.07,-42.82 25.68,-40.09 26.29,-37.36 26.58,-34.54 26.88,-31.72 27.34,-29.31 27.80,-26.91 28.35,-24.45 28.91,-22.00 29.51,-19.52 30.11,-17.04 30.69,-15.43 31.27,-13.81 31.86,-12.45 32.46,-11.09 32.72,-10.02 32.99,-8.95 31.73,-9.85 30.47,-10.75 32.06,-12.40 33.65,-14.04 34.94,-15.64 36.22,-17.24 37.80,-19.64 39.38,-22.04 41.15,-24.88 42.92,-27.71 44.67,-31.29 46.42,-34.87 48.26,-38.92 50.09,-42.97 51.54,-47.08 53.00,-51.19 54.35,-55.14 55.71,-59.09 57.02,-62.62 58.33,-66.14 58.81,-68.45 59.29,-70.75 59.94,-72.74 60.60,-74.73 60.96,-76.07 61.33,-77.41 61.44,-77.74 61.56,-78.06 61.75,-78.35 61.94,-78.64 62.19,-78.87 62.44,-79.11 62.74,-79.27 63.05,-79.44 63.38,-79.53 63.71,-79.62 64.06,-79.63 64.40,-79.63 64.74,-79.56 65.08,-79.48 65.38,-79.33 65.69,-79.18 65.96,-78.95 66.22,-78.73 66.42,-78.45 66.62,-78.17 66.75,-77.85 66.88,-77.53 66.93,-77.19 66.98,-76.85 66.94,-76.50 66.91,-76.16 65.88,-75.21 64.86,-74.26 63.61,-73.04 62.37,-71.82 62.24,-71.66 62.10,-71.50 61.92,-71.39 61.74,-71.28 61.53,-71.23 61.32,-71.18 61.11,-71.21 60.90,-71.23 60.71,-71.32 60.51,-71.40 60.36,-71.55 60.20,-71.69 60.10,-71.88 60.00,-72.07 59.97,-72.28 59.93,-72.49 59.97,-72.70 60.00,-72.91 60.10,-73.10 60.20,-73.28 60.35,-73.43 60.50,-73.58 60.69,-73.67 60.89,-73.76 61.10,-73.78 61.31,-73.81 61.52,-73.76 61.73,-73.72 61.91,-73.61 62.09,-73.50 62.23,-73.34 62.37,-73.18 62.45,-72.98 62.53,-72.78 62.54,-72.57 62.55,-72.36 62.50,-72.15 62.44,-71.95 62.32,-71.77 62.20,-71.60 62.03,-71.47 61.87,-71.34 61.66,-71.27 61.46,-71.20 61.25,-71.20 61.04,-71.20 60.84,-71.26 60.64,-71.33 60.47,-71.46 60.30,-71.59 60.18,-71.76 60.06,-71.94 60.00,-72.14 59.94,-72.35 59.95,-72.56 59.96,-72.77 60.04,-72.97 60.12,-73.17 60.12,-73.17 60.12,-73.17 60.72,-75.29 61.33,-77.41 61.44,-77.74 61.56,-78.06 61.75,-78.35 61.94,-78.64 62.19,-78.87 62.44,-79.11 62.74,-79.27 63.05,-79.44 63.38,-79.53 63.71,-79.62 64.06,-79.63 64.40,-79.63 64.74,-79.56 65.07,-79.48 65.38,-79.33 65.69,-79.18 65.96,-78.95 66.22,-78.73 66.42,-78.45 66.62,-78.17 66.75,-77.85 66.88,-77.53 66.93,-77.19 66.98,-76.85 66.94,-76.51 66.91,-76.16 67.45,-75.90 68.00,-75.63 67.82,-74.03 67.64,-72.42 67.10,-70.80 66.57,-69.18 65.95,-66.36 65.32,-63.55 64.04,-60.11 62.76,-56.67 61.40,-52.69 60.03,-48.70 58.46,-44.29 56.90,-39.89 55.01,-35.73 53.12,-31.57 51.19,-27.66 49.26,-23.76 47.44,-20.84 45.61,-17.91 43.82,-15.22 42.02,-12.52 40.43,-10.59 38.84,-8.65 36.95,-6.87 35.07,-5.08 33.97,-4.39 32.87,-3.70 31.37,-3.70 29.86,-3.71 27.78,-5.99 25.70,-8.27 25.05,-9.86 24.41,-11.45 23.76,-13.41 23.11,-15.37 22.52,-17.91 21.93,-20.45 21.36,-23.04 20.80,-25.62 20.32,-28.32 19.84,-31.02 19.62,-33.44 19.40,-35.86 18.78,-38.70 18.17,-41.53 17.58,-44.73 16.99,-47.93 16.49,-51.01 15.98,-54.09 15.51,-55.97 15.03,-57.85 15.59,-58.98 16.15,-60.11 17.06,-59.55 17.98,-58.99 17.67,-56.72 17.36,-54.45 16.76,-52.22 16.15,-49.99 15.54,-47.15 14.92,-44.31 14.29,-40.83 13.66,-37.36 13.03,-34.34 12.40,-31.31 11.76,-28.42 11.12,-25.52 10.49,-23.06 9.86,-20.59 9.23,-18.17 8.59,-15.74 7.93,-13.41 7.27,-11.07 6.63,-9.15 5.99,-7.22 5.32,-5.23 4.65,-3.23 3.07,-1.37 1.49,0.49 1.41,0.66 1.33,0.84 1.21,0.98 1.09,1.13 0.93,1.24 0.78,1.36 0.61,1.43 0.43,1.51 0.25,1.54 0.06,1.57 -0.12,1.55 -0.31,1.54 -0.49,1.48 -0.67,1.42 -0.83,1.32 -0.99,1.22 -1.12,1.08 -1.25,0.94 -1.35,0.78 -1.44,0.61 -1.50,0.43 -1.55,0.25 -1.56,0.06 -1.56,-0.12 -1.53,-0.31 -1.49,-0.49 -1.49,-0.49 L -1.49,-0.49 Z"></path></g><g transform="translate(534.5291428379714 553.75) rotate(0 -8.125 1.875)" stroke="none"><path fill="#1e1e1e" d="M 1.87,0.62 Q 1.87,0.62 1.85,1.81 1.83,3.00 1.40,4.08 0.97,5.15 -0.26,6.08 -1.50,7.00 -2.90,7.25 -4.31,7.50 -6.78,7.19 -9.24,6.87 -11.47,6.23 -13.70,5.60 -14.62,4.94 -15.55,4.29 -16.67,2.96 -17.79,1.64 -17.64,0.01 -17.48,-1.60 -16.71,-2.54 -15.93,-3.48 -13.97,-4.37 -12.01,-5.25 -10.70,-5.39 -9.38,-5.52 -7.30,-5.38 -5.22,-5.24 -4.13,-4.54 -3.04,-3.84 -2.05,-2.25 -1.07,-0.66 -0.89,1.12 -0.70,2.91 -1.22,4.26 -1.73,5.61 -2.39,6.46 -3.05,7.31 -4.36,8.69 -5.67,10.06 -6.76,10.65 -7.86,11.24 -9.73,11.49 -11.61,11.74 -12.97,11.24 -14.32,10.74 -15.23,10.03 -16.13,9.31 -16.80,8.21 -17.46,7.11 -17.71,5.70 -17.95,4.28 -18.01,3.04 -18.06,1.80 -18.08,0.51 -18.09,-0.77 -17.64,-2.21 -17.19,-3.66 -16.52,-4.70 -15.86,-5.74 -15.07,-6.63 -14.29,-7.51 -12.69,-8.22 -11.08,-8.93 -9.16,-9.16 -7.24,-9.39 -5.78,-8.85 -4.33,-8.32 -3.18,-7.02 -2.04,-5.72 -0.87,-3.41 0.28,-1.09 0.44,0.31 0.60,1.72 0.65,3.02 0.71,4.33 0.21,6.71 -0.28,9.09 -1.02,10.09 -1.76,11.08 -3.29,11.81 -4.82,12.53 -6.39,12.27 -7.96,12.00 -9.51,10.41 -11.06,8.81 -11.97,7.41 -12.87,6.00 -13.39,4.33 -13.91,2.66 -14.35,1.60 -14.78,0.54 -15.06,-0.72 -15.34,-1.99 -15.04,-3.50 -14.73,-5.02 -13.54,-6.82 -12.35,-8.63 -10.69,-9.00 -9.03,-9.38 -7.52,-8.98 -6.01,-8.58 -4.99,-7.91 -3.97,-7.24 -2.80,-6.20 -1.64,-5.15 -0.81,-4.35 0.02,-3.55 0.69,-2.40 1.36,-1.25 1.63,-0.22 1.91,0.80 1.99,2.50 2.07,4.19 1.41,5.69 0.74,7.18 -0.37,7.98 -1.50,8.78 -2.63,9.05 -3.77,9.33 -5.04,9.48 -6.32,9.63 -8.28,8.58 -10.25,7.53 -10.45,7.46 -10.64,7.39 -10.81,7.25 -10.98,7.12 -11.09,6.94 -11.20,6.76 -11.25,6.55 -11.30,6.35 -11.29,6.14 -11.27,5.92 -11.18,5.73 -11.10,5.53 -10.96,5.38 -10.81,5.22 -10.63,5.11 -10.44,5.01 -10.24,4.97 -10.03,4.93 -9.82,4.96 -9.61,4.99 -9.42,5.09 -9.23,5.18 -9.08,5.33 -8.93,5.48 -8.83,5.67 -8.74,5.86 -8.71,6.07 -8.68,6.28 -8.72,6.49 -8.76,6.70 -8.87,6.89 -8.97,7.07 -9.13,7.21 -9.29,7.35 -9.49,7.44 -9.68,7.52 -9.89,7.54 -10.11,7.55 -10.31,7.50 -10.52,7.45 -10.70,7.33 -10.88,7.22 -11.01,7.05 -11.14,6.89 -11.21,6.69 -11.29,6.49 -11.29,6.28 -11.30,6.06 -11.23,5.86 -11.17,5.66 -11.05,5.49 -10.92,5.31 -10.75,5.19 -10.57,5.07 -10.37,5.00 -10.17,4.94 -9.96,4.95 -9.74,4.96 -9.74,4.96 -9.74,4.96 -8.34,4.71 -6.94,4.46 -5.79,4.20 -4.65,3.94 -4.75,2.84 -4.85,1.74 -5.59,0.83 -6.32,-0.08 -7.17,-0.89 -8.01,-1.70 -8.28,-2.88 -8.56,-4.06 -8.64,-2.96 -8.73,-1.86 -8.03,0.36 -7.33,2.60 -6.69,3.63 -6.04,4.67 -6.38,5.80 -6.72,6.93 -6.29,5.76 -5.85,4.59 -5.89,3.47 -5.94,2.36 -5.96,1.02 -5.98,-0.30 -6.63,-1.62 -7.28,-2.95 -8.59,-2.98 -9.90,-3.00 -10.87,-1.84 -11.84,-0.68 -11.81,0.42 -11.78,1.53 -11.90,3.10 -12.01,4.66 -11.03,5.12 -10.04,5.58 -8.99,4.46 -7.95,3.34 -7.38,2.34 -6.82,1.34 -7.87,1.05 -8.91,0.76 -10.61,0.28 -12.31,-0.20 -11.35,0.51 -10.38,1.23 -8.41,1.69 -6.44,2.16 -4.86,1.73 -3.27,1.30 -2.57,0.34 -1.87,-0.62 -1.77,-0.83 -1.66,-1.05 -1.51,-1.23 -1.36,-1.42 -1.17,-1.56 -0.98,-1.70 -0.76,-1.80 -0.55,-1.89 -0.31,-1.93 -0.08,-1.97 0.15,-1.95 0.39,-1.93 0.61,-1.85 0.84,-1.78 1.04,-1.65 1.24,-1.52 1.41,-1.35 1.57,-1.18 1.69,-0.98 1.81,-0.77 1.88,-0.54 1.94,-0.31 1.95,-0.07 1.96,0.15 1.92,0.39 1.87,0.62 1.87,0.62 L 1.87,0.62 Z"></path></g><g transform="translate(585.7791428379714 600) rotate(0 -9.375 16.87500000000003)" stroke="none"><path fill="#1e1e1e" d="M -2.65,0 Q -2.65,0 -2.87,-0.71 -3.09,-1.43 -5.22,-1.97 -7.35,-2.50 -9.82,-2.23 -12.29,-1.95 -14.43,-0.68 -16.58,0.59 -17.90,1.65 -19.23,2.71 -19.25,4.42 -19.27,6.14 -18.33,7.44 -17.39,8.75 -16.25,10.37 -15.12,11.99 -13.83,13.09 -12.53,14.20 -10.75,15.90 -8.98,17.60 -6.14,20.04 -3.29,22.47 -1.31,24.28 0.67,26.09 2.25,27.58 3.83,29.08 4.89,30.13 5.96,31.19 6.78,33.04 7.59,34.90 7.46,36.58 7.33,38.26 6.48,39.65 5.63,41.05 4.02,41.92 2.41,42.79 0.97,42.99 -0.47,43.20 -2.16,43.27 -3.85,43.33 -6.27,42.97 -8.69,42.61 -10.54,42.05 -12.38,41.48 -13.92,40.84 -15.45,40.20 -16.64,39.43 -17.84,38.66 -18.70,37.87 -19.57,37.08 -20.38,34.44 -21.19,31.80 -21.24,31.60 -21.30,31.39 -21.29,31.18 -21.28,30.97 -21.20,30.77 -21.12,30.57 -20.99,30.41 -20.85,30.25 -20.67,30.14 -20.49,30.03 -20.28,29.98 -20.07,29.93 -19.86,29.96 -19.65,29.98 -19.45,30.07 -19.26,30.16 -19.11,30.30 -18.95,30.45 -18.85,30.63 -18.75,30.82 -18.72,31.03 -18.68,31.24 -18.72,31.45 -18.75,31.66 -18.85,31.85 -18.95,32.04 -19.10,32.18 -19.25,32.33 -19.45,32.42 -19.64,32.51 -19.85,32.53 -20.06,32.56 -20.27,32.51 -20.48,32.47 -20.66,32.36 -20.84,32.25 -20.98,32.09 -21.12,31.93 -21.20,31.73 -21.28,31.53 -21.29,31.32 -21.30,31.11 -21.24,30.90 -21.19,30.70 -21.07,30.52 -20.95,30.34 -20.78,30.22 -20.61,30.09 -20.41,30.02 -20.21,29.95 -20.00,29.95 -19.79,29.95 -19.59,30.02 -19.38,30.08 -19.21,30.21 -19.04,30.34 -18.92,30.51 -18.80,30.69 -18.80,30.69 -18.80,30.69 -17.23,31.46 -15.66,32.23 -14.28,33.10 -12.89,33.98 -11.62,34.49 -10.35,34.99 -8.98,35.43 -7.60,35.87 -5.84,36.18 -4.07,36.50 -2.67,36.45 -1.26,36.41 -0.12,36.14 1.02,35.88 0.06,34.96 -0.90,34.04 -2.42,32.59 -3.93,31.13 -5.84,29.37 -7.75,27.61 -10.69,25.04 -13.64,22.46 -15.33,20.83 -17.02,19.20 -18.81,17.53 -20.60,15.87 -21.66,14.36 -22.71,12.84 -23.82,11.29 -24.93,9.73 -25.46,7.72 -25.99,5.72 -26.01,4.10 -26.03,2.49 -25.49,1.28 -24.95,0.08 -24.25,-1.00 -23.54,-2.08 -22.64,-2.83 -21.73,-3.58 -20.61,-4.33 -19.50,-5.09 -18.18,-5.75 -16.87,-6.42 -14.84,-7.33 -12.80,-8.24 -11.20,-8.31 -9.60,-8.39 -7.63,-8.48 -5.67,-8.58 -4.17,-8.12 -2.66,-7.65 -1.07,-7.07 0.52,-6.48 1.65,-5.01 2.78,-3.54 2.93,-2.49 3.09,-1.43 2.87,-0.71 2.65,0 2.61,0.31 2.57,0.63 2.45,0.93 2.34,1.23 2.16,1.49 1.98,1.75 1.74,1.96 1.50,2.18 1.22,2.32 0.93,2.47 0.62,2.55 0.31,2.63 -0.00,2.63 -0.31,2.63 -0.62,2.55 -0.93,2.47 -1.22,2.32 -1.50,2.18 -1.74,1.96 -1.98,1.75 -2.16,1.49 -2.34,1.23 -2.45,0.93 -2.57,0.63 -2.61,0.31 -2.65,-0.00 -2.65,-0.00 L -2.65,0 Z"></path></g><g stroke-linecap="round"><g transform="translate(262.02914283797145 367.5) rotate(0 373.75000000000006 0)"><path d="M0.85 0.29 C125.28 0.16, 622.17 -0.1, 746.74 -0.02" stroke="#1971c2" stroke-width="4.5" fill="none" stroke-dasharray="1.5 10"></path></g></g><mask></mask><g stroke-linecap="round"><g transform="translate(999.5291428379716 366.25) rotate(0 -116.72513564263556 202.17386545341353)"><path d="M-0.83 0.67 C-39.56 67.78, -194.44 335.88, -233.18 403.16" stroke="#1971c2" stroke-width="4.5" fill="none" stroke-dasharray="1.5 10"></path></g></g><mask></mask><g stroke-linecap="round"><g transform="translate(768.2791428379716 768.75) rotate(0 -371.25 0)"><path d="M-0.02 0.21 C-124.02 0.34, -619.65 0.86, -743.31 0.84" stroke="#1971c2" stroke-width="4.5" fill="none" stroke-dasharray="1.5 10"></path></g></g><mask></mask><g stroke-linecap="round"><g transform="translate(265.6682527608359 369.140127467357) rotate(0 -115.93229935102747 200.80063271426388)"><path d="M-1.13 -0.09 C-39.76 66.55, -193.09 334.04, -231.46 400.84" stroke="#1971c2" stroke-width="4.5" fill="none" stroke-dasharray="1.5 10"></path></g></g><mask></mask><g stroke-linecap="round"><g transform="translate(531.0572386001157 550) rotate(0 126.11095211892791 -2.842170943040401e-14)"><path d="M-1.79 1.49 C40.36 1.4, 209.55 -0.31, 251.66 -0.2 M2.44 -0.18 C44.26 0.17, 208.13 3.67, 249.12 3.33" stroke="#1971c2" stroke-width="4" fill="none"></path></g><g transform="translate(531.0572386001157 550) rotate(0 126.11095211892791 -2.842170943040401e-14)"><path d="M226.61 11.28 C231.46 8.73, 239.19 9.13, 247.16 2.71 M226.29 11.97 C230.08 9.17, 235.59 7.29, 249.9 3.34" stroke="#1971c2" stroke-width="4" fill="none"></path></g><g transform="translate(531.0572386001157 550) rotate(0 126.11095211892791 -2.842170943040401e-14)"><path d="M226.76 -5.82 C231.59 -3.97, 239.28 0.83, 247.16 2.71 M226.44 -5.13 C230.24 -4.44, 235.72 -2.85, 249.9 3.34" stroke="#1971c2" stroke-width="4" fill="none"></path></g></g><mask></mask><g stroke-linecap="round"><g transform="translate(537.0291428379714 548.75) rotate(0 45.50600027401225 -78.81870452383254)"><path d="M-0.56 -0.2 C14.68 -26.36, 74.05 -128.8, 89.68 -155.49 M-4.31 -2.77 C10.6 -29.83, 70.56 -133.34, 86.72 -159.34" stroke="#1971c2" stroke-width="4" fill="none"></path></g><g transform="translate(537.0291428379714 548.75) rotate(0 45.50600027401225 -78.81870452383254)"><path d="M81.89 -135.73 C84.54 -138.97, 82.16 -146.99, 84.8 -158.83 M81.78 -135.52 C83.86 -143.83, 85.73 -151.01, 86.29 -159.8" stroke="#1971c2" stroke-width="4" fill="none"></path></g><g transform="translate(537.0291428379714 548.75) rotate(0 45.50600027401225 -78.81870452383254)"><path d="M67.2 -144.5 C73.37 -145.64, 74.46 -151.59, 84.8 -158.83 M67.09 -144.28 C74.09 -149.74, 80.81 -154.03, 86.29 -159.8" stroke="#1971c2" stroke-width="4" fill="none"></path></g></g><mask></mask><g transform="translate(809.5291428379716 506.25) rotate(0 -11.25 11.25)" stroke="none"><path fill="#1971c2" d="M 2.39,0.79 Q 2.39,0.79 2.35,1.99 2.30,3.18 1.63,4.33 0.96,5.49 0.42,6.50 -0.12,7.51 -1.44,8.75 -2.75,10.00 -4.48,11.64 -6.21,13.29 -7.37,14.44 -8.54,15.59 -9.68,16.30 -10.81,17.00 -12.22,18.34 -13.62,19.68 -14.62,20.59 -15.62,21.50 -17.98,22.47 -20.33,23.44 -20.46,23.53 -20.58,23.63 -20.73,23.69 -20.88,23.76 -21.03,23.78 -21.19,23.81 -21.35,23.79 -21.50,23.78 -21.65,23.73 -21.80,23.68 -21.94,23.60 -22.07,23.51 -22.18,23.40 -22.29,23.29 -22.37,23.15 -22.45,23.01 -22.50,22.86 -22.54,22.71 -22.55,22.55 -22.55,22.39 -22.52,22.24 -22.49,22.08 -22.42,21.94 -22.36,21.80 -22.26,21.67 -22.16,21.55 -21.22,21.57 -20.29,21.59 -20.17,21.77 -20.05,21.95 -20.00,22.15 -19.94,22.36 -19.95,22.57 -19.96,22.78 -20.04,22.98 -20.12,23.18 -20.26,23.34 -20.40,23.50 -20.58,23.61 -20.76,23.72 -20.97,23.76 -21.18,23.81 -21.39,23.78 -21.60,23.76 -21.79,23.67 -21.99,23.58 -22.14,23.43 -22.29,23.29 -22.39,23.10 -22.49,22.91 -22.52,22.70 -22.56,22.49 -22.52,22.28 -22.49,22.07 -22.39,21.88 -22.29,21.70 -22.13,21.55 -21.98,21.41 -21.79,21.32 -21.59,21.23 -21.38,21.21 -21.17,21.18 -20.96,21.23 -20.75,21.28 -20.57,21.39 -20.39,21.50 -20.25,21.66 -20.12,21.82 -20.04,22.02 -19.96,22.22 -19.95,22.43 -19.94,22.64 -20.00,22.85 -20.05,23.05 -20.17,23.23 -20.29,23.40 -20.46,23.53 -20.63,23.66 -20.84,23.72 -21.04,23.79 -21.25,23.79 -21.46,23.79 -21.66,23.72 -21.86,23.65 -21.10,23.55 -20.33,23.44 -20.46,23.53 -20.58,23.63 -20.73,23.69 -20.88,23.76 -21.03,23.78 -21.19,23.81 -21.35,23.79 -21.50,23.78 -21.65,23.73 -21.80,23.68 -21.94,23.60 -22.07,23.52 -22.18,23.40 -22.29,23.29 -22.37,23.15 -22.45,23.01 -22.50,22.86 -22.54,22.71 -22.55,22.55 -22.55,22.39 -22.52,22.24 -22.49,22.08 -22.42,21.94 -22.36,21.80 -22.26,21.67 -22.16,21.55 -21.70,19.76 -21.24,17.98 -19.91,16.73 -18.59,15.48 -17.49,14.79 -16.40,14.09 -14.71,12.54 -13.01,10.99 -11.85,9.84 -10.69,8.69 -9.61,7.64 -8.53,6.59 -7.09,5.46 -5.66,4.33 -4.70,2.73 -3.74,1.12 -3.06,0.16 -2.39,-0.79 -2.26,-1.07 -2.13,-1.34 -1.94,-1.58 -1.75,-1.82 -1.50,-2.00 -1.26,-2.18 -0.98,-2.30 -0.70,-2.42 -0.40,-2.47 -0.10,-2.52 0.20,-2.50 0.50,-2.47 0.79,-2.38 1.08,-2.28 1.34,-2.12 1.59,-1.95 1.80,-1.73 2.01,-1.51 2.17,-1.25 2.32,-0.99 2.40,-0.69 2.49,-0.40 2.50,-0.10 2.51,0.20 2.45,0.50 2.39,0.79 2.39,0.79 L 2.39,0.79 Z"></path></g><g transform="translate(808.2791428379716 532.5) rotate(0 -13.125 -10)" stroke="none"><path fill="#1971c2" d="M -1.11,1.66 Q -1.11,1.66 -2.44,1.33 -3.78,1.00 -4.87,0.40 -5.96,-0.19 -6.98,-0.92 -8.01,-1.66 -8.96,-2.19 -9.90,-2.72 -10.88,-3.45 -11.86,-4.18 -13.75,-5.43 -15.63,-6.67 -16.57,-7.21 -17.50,-7.75 -18.69,-9.06 -19.88,-10.36 -20.89,-11.43 -21.89,-12.49 -22.68,-13.32 -23.48,-14.15 -24.85,-15.54 -26.22,-16.94 -26.84,-18.04 -27.46,-19.13 -27.76,-19.35 -28.05,-19.57 -28.29,-19.86 -28.52,-20.14 -28.68,-20.47 -28.84,-20.81 -28.92,-21.17 -29.00,-21.53 -28.98,-21.90 -28.97,-22.27 -28.87,-22.62 -28.77,-22.98 -28.59,-23.30 -28.40,-23.62 -28.15,-23.89 -27.89,-24.15 -27.58,-24.35 -27.27,-24.55 -26.92,-24.67 -26.57,-24.79 -26.21,-24.82 -25.84,-24.85 -25.47,-24.80 -25.11,-24.74 -24.77,-24.60 -24.43,-24.45 -26.07,-21.56 -27.72,-18.67 -28.03,-18.91 -28.34,-19.14 -28.59,-19.44 -28.84,-19.74 -29.00,-20.09 -29.17,-20.44 -29.25,-20.82 -29.33,-21.20 -29.32,-21.59 -29.31,-21.98 -29.20,-22.35 -29.09,-22.73 -28.90,-23.06 -28.71,-23.40 -28.44,-23.68 -28.17,-23.97 -27.84,-24.18 -27.52,-24.39 -27.15,-24.51 -26.78,-24.64 -26.39,-24.67 -26.00,-24.70 -25.62,-24.64 -25.24,-24.58 -24.88,-24.43 -24.52,-24.28 -23.64,-23.30 -22.77,-22.32 -21.48,-21.14 -20.19,-19.96 -18.25,-18.87 -16.31,-17.79 -15.29,-16.97 -14.28,-16.15 -13.47,-15.42 -12.66,-14.69 -10.89,-13.48 -9.13,-12.27 -7.96,-11.20 -6.80,-10.13 -5.97,-9.34 -5.13,-8.54 -3.52,-6.56 -1.92,-4.57 -0.79,-3.26 0.33,-1.96 0.77,-1.23 1.21,-0.49 1.25,-0.34 1.29,-0.19 1.30,-0.03 1.30,0.12 1.27,0.27 1.23,0.43 1.16,0.57 1.10,0.71 0.99,0.83 0.89,0.95 0.76,1.05 0.64,1.14 0.49,1.20 0.34,1.26 0.19,1.28 0.03,1.31 -0.12,1.29 -0.28,1.28 -0.43,1.23 -0.57,1.17 -0.71,1.09 -0.84,1.00 -0.95,0.88 -1.06,0.77 -1.13,0.63 -1.21,0.49 -1.09,-0.19 -0.97,-0.88 -0.80,-1.01 -0.63,-1.14 -0.43,-1.21 -0.24,-1.29 -0.02,-1.29 0.18,-1.30 0.38,-1.23 0.59,-1.17 0.76,-1.04 0.93,-0.92 1.05,-0.74 1.17,-0.57 1.24,-0.37 1.30,-0.16 1.29,0.04 1.28,0.25 1.21,0.45 1.13,0.65 1.00,0.81 0.87,0.98 0.69,1.09 0.51,1.20 0.30,1.25 0.09,1.30 -0.11,1.29 -0.32,1.27 -0.51,1.18 -0.71,1.10 -0.87,0.95 -1.02,0.81 -1.13,0.63 -1.23,0.44 -1.27,0.23 -1.31,0.02 -1.28,-0.18 -1.25,-0.39 -1.15,-0.58 -1.06,-0.77 -0.91,-0.92 -0.75,-1.07 -0.56,-1.16 -0.37,-1.25 -0.16,-1.28 0.04,-1.31 0.25,-1.27 0.46,-1.23 0.64,-1.12 0.82,-1.01 0.96,-0.85 1.11,-0.70 1.19,-0.50 1.27,-0.30 1.29,-0.09 1.30,0.11 1.25,0.32 1.20,0.52 1.20,0.01 1.21,-0.49 1.25,-0.34 1.29,-0.19 1.30,-0.03 1.30,0.12 1.27,0.27 1.23,0.43 1.16,0.57 1.10,0.71 0.99,0.83 0.89,0.95 0.76,1.05 0.64,1.14 0.49,1.20 0.34,1.26 0.19,1.28 0.03,1.31 -0.12,1.29 -0.28,1.28 -0.43,1.23 -0.57,1.17 -0.71,1.09 -0.84,1.00 -0.95,0.88 -1.06,0.77 -1.13,0.63 -1.21,0.49 -2.83,1.81 -4.46,3.13 -5.25,2.03 -6.04,0.93 -6.78,0.00 -7.52,-0.92 -8.64,-2.33 -9.75,-3.75 -10.54,-4.52 -11.32,-5.28 -12.92,-6.72 -14.52,-8.16 -15.79,-8.98 -17.05,-9.80 -18.55,-11.10 -20.06,-12.40 -21.73,-13.67 -23.41,-14.93 -24.50,-16.08 -25.60,-17.23 -26.66,-17.95 -27.72,-18.67 -28.03,-18.91 -28.34,-19.14 -28.59,-19.44 -28.84,-19.74 -29.00,-20.09 -29.17,-20.44 -29.25,-20.82 -29.33,-21.20 -29.32,-21.59 -29.31,-21.98 -29.20,-22.35 -29.09,-22.73 -28.90,-23.06 -28.71,-23.40 -28.44,-23.68 -28.17,-23.97 -27.84,-24.18 -27.52,-24.39 -27.15,-24.51 -26.78,-24.64 -26.39,-24.67 -26.00,-24.70 -25.62,-24.64 -25.24,-24.58 -24.88,-24.43 -24.52,-24.28 -25.99,-21.71 -27.46,-19.13 -27.76,-19.35 -28.05,-19.57 -28.29,-19.86 -28.52,-20.14 -28.68,-20.47 -28.84,-20.81 -28.92,-21.17 -29.00,-21.53 -28.98,-21.90 -28.97,-22.27 -28.87,-22.62 -28.77,-22.98 -28.59,-23.30 -28.40,-23.62 -28.15,-23.89 -27.89,-24.15 -27.58,-24.35 -27.27,-24.55 -26.92,-24.67 -26.57,-24.79 -26.21,-24.82 -25.84,-24.85 -25.47,-24.80 -25.11,-24.74 -24.77,-24.60 -24.43,-24.45 -24.10,-23.82 -23.77,-23.19 -22.80,-22.14 -21.82,-21.09 -20.47,-19.72 -19.11,-18.35 -18.28,-17.49 -17.46,-16.64 -15.90,-14.76 -14.34,-12.89 -12.49,-11.65 -10.64,-10.42 -8.76,-9.16 -6.88,-7.90 -4.96,-6.62 -3.05,-5.34 -1.79,-4.60 -0.53,-3.87 0.29,-2.77 1.11,-1.66 1.29,-1.51 1.47,-1.35 1.61,-1.15 1.75,-0.95 1.84,-0.73 1.93,-0.51 1.97,-0.27 2.00,-0.03 1.97,0.20 1.95,0.44 1.87,0.67 1.78,0.90 1.65,1.10 1.52,1.30 1.34,1.46 1.16,1.63 0.95,1.74 0.74,1.86 0.50,1.92 0.27,1.98 0.03,1.98 -0.20,1.99 -0.44,1.93 -0.68,1.88 -0.89,1.77 -1.11,1.66 -1.11,1.66 L -1.11,1.66 Z"></path></g><g transform="translate(809.5291428379716 515) rotate(0 -12.5 8.125)" stroke="none"><path fill="#1971c2" d="M 1.65,1.65 Q 1.65,1.65 0.85,3.01 0.06,4.37 -0.75,5.19 -1.57,6.02 -2.88,6.92 -4.18,7.82 -6.12,9.16 -8.05,10.49 -9.94,11.76 -11.82,13.02 -13.09,14.10 -14.36,15.17 -16.77,16.67 -19.17,18.18 -20.85,19.01 -22.53,19.84 -23.00,20.43 -23.48,21.02 -23.85,21.10 -24.22,21.18 -24.60,21.17 -24.98,21.16 -25.34,21.06 -25.71,20.96 -26.04,20.78 -26.37,20.59 -26.65,20.33 -26.93,20.07 -27.13,19.76 -27.34,19.44 -27.47,19.08 -27.59,18.72 -27.63,18.35 -27.67,17.97 -27.61,17.59 -27.56,17.22 -27.41,16.87 -27.27,16.51 -27.05,16.21 -26.82,15.90 -26.53,15.66 -26.24,15.41 -25.90,15.24 -25.56,15.08 -26.45,15.96 -27.35,16.84 -26.94,15.84 -26.54,14.83 -25.45,14.19 -24.37,13.54 -23.13,12.31 -21.89,11.07 -20.76,9.46 -19.64,7.85 -18.35,6.88 -17.07,5.91 -15.27,4.13 -13.48,2.34 -11.40,0.39 -9.33,-1.55 -8.14,-2.31 -6.94,-3.07 -6.46,-3.50 -5.98,-3.93 -5.73,-4.23 -5.47,-4.53 -5.15,-4.75 -4.83,-4.98 -4.46,-5.12 -4.10,-5.27 -3.71,-5.32 -3.32,-5.37 -2.93,-5.33 -2.54,-5.28 -2.17,-5.15 -1.80,-5.01 -1.48,-4.79 -1.15,-4.57 -0.89,-4.28 -0.62,-3.99 -0.44,-3.65 -0.25,-3.30 -0.15,-2.92 -0.06,-2.54 -0.05,-2.15 -0.05,-1.76 -0.14,-1.37 -0.23,-0.99 -0.41,-0.64 -0.58,-0.29 -3.41,-2.22 -6.23,-4.14 -5.98,-4.43 -5.72,-4.73 -5.40,-4.95 -5.08,-5.18 -4.72,-5.32 -4.36,-5.46 -3.97,-5.52 -3.59,-5.57 -3.20,-5.52 -2.81,-5.48 -2.44,-5.35 -2.08,-5.21 -1.75,-5.00 -1.43,-4.78 -1.17,-4.49 -0.91,-4.20 -0.72,-3.86 -0.54,-3.51 -0.44,-3.14 -0.34,-2.76 -0.34,-2.37 -0.33,-1.98 -0.42,-1.60 -0.51,-1.22 -0.69,-0.87 -0.87,-0.53 -1.98,1.03 -3.09,2.59 -4.96,4.08 -6.83,5.57 -8.40,6.99 -9.98,8.41 -10.77,9.17 -11.55,9.93 -12.90,11.26 -14.25,12.59 -15.51,13.44 -16.77,14.29 -19.84,15.77 -22.91,17.26 -23.09,17.36 -23.28,17.47 -23.48,17.51 -23.69,17.56 -23.90,17.53 -24.11,17.51 -24.31,17.41 -24.50,17.32 -24.65,17.17 -24.80,17.03 -24.90,16.84 -25.00,16.65 -25.03,16.44 -25.06,16.23 -25.02,16.02 -24.98,15.81 -24.88,15.62 -24.78,15.44 -24.62,15.29 -24.47,15.15 -24.27,15.06 -24.08,14.97 -23.87,14.95 -23.66,14.93 -23.45,14.98 -23.24,15.03 -23.06,15.14 -22.88,15.26 -22.75,15.42 -22.61,15.58 -22.53,15.78 -22.46,15.98 -22.45,16.19 -22.44,16.41 -22.50,16.61 -22.56,16.81 -22.68,16.99 -22.80,17.16 -22.98,17.29 -23.15,17.41 -23.35,17.48 -23.55,17.54 -23.76,17.54 -23.98,17.54 -24.18,17.47 -24.38,17.40 -24.54,17.27 -24.71,17.13 -24.83,16.96 -24.94,16.78 -25.00,16.57 -25.05,16.37 -25.04,16.16 -25.02,15.94 -24.94,15.75 -24.86,15.55 -24.72,15.39 -24.58,15.23 -24.58,15.23 -24.58,15.23 -23.98,13.77 -23.39,12.32 -22.79,11.34 -22.19,10.37 -20.49,9.17 -18.80,7.97 -17.43,6.62 -16.06,5.26 -15.24,4.47 -14.42,3.68 -13.28,2.62 -12.14,1.56 -11.23,0.83 -10.31,0.10 -9.08,-0.83 -7.86,-1.78 -7.04,-2.96 -6.23,-4.14 -5.98,-4.43 -5.72,-4.73 -5.40,-4.95 -5.08,-5.18 -4.72,-5.32 -4.36,-5.46 -3.97,-5.52 -3.59,-5.57 -3.20,-5.52 -2.81,-5.48 -2.44,-5.35 -2.08,-5.21 -1.75,-5.00 -1.43,-4.78 -1.17,-4.49 -0.91,-4.20 -0.72,-3.86 -0.54,-3.51 -0.44,-3.14 -0.34,-2.76 -0.34,-2.37 -0.33,-1.98 -0.42,-1.60 -0.51,-1.22 -0.69,-0.87 -0.87,-0.53 -3.43,-2.23 -5.98,-3.93 -5.73,-4.23 -5.47,-4.53 -5.15,-4.75 -4.83,-4.98 -4.46,-5.12 -4.10,-5.27 -3.71,-5.32 -3.32,-5.37 -2.93,-5.33 -2.54,-5.28 -2.17,-5.15 -1.80,-5.01 -1.48,-4.79 -1.15,-4.57 -0.89,-4.28 -0.63,-3.99 -0.44,-3.65 -0.25,-3.30 -0.15,-2.92 -0.06,-2.54 -0.05,-2.15 -0.05,-1.76 -0.14,-1.38 -0.23,-0.99 -0.41,-0.64 -0.58,-0.29 -1.21,0.03 -1.83,0.36 -3.34,1.74 -4.86,3.11 -6.35,4.54 -7.83,5.96 -9.48,7.21 -11.12,8.47 -12.23,9.79 -13.33,11.11 -14.52,12.13 -15.71,13.16 -16.57,14.41 -17.42,15.66 -18.77,16.92 -20.13,18.17 -21.18,18.40 -22.24,18.62 -22.86,19.82 -23.48,21.02 -23.85,21.10 -24.22,21.18 -24.60,21.17 -24.98,21.16 -25.34,21.06 -25.71,20.96 -26.04,20.78 -26.37,20.59 -26.65,20.33 -26.93,20.07 -27.13,19.76 -27.34,19.44 -27.47,19.08 -27.59,18.72 -27.63,18.35 -27.67,17.97 -27.61,17.59 -27.56,17.22 -27.41,16.87 -27.27,16.51 -27.05,16.21 -26.82,15.90 -26.53,15.66 -26.24,15.41 -25.90,15.24 -25.56,15.08 -24.82,14.51 -24.09,13.94 -21.99,12.85 -19.89,11.76 -18.43,10.42 -16.97,9.08 -15.10,7.83 -13.22,6.58 -11.37,5.33 -9.52,4.08 -7.76,2.82 -6.00,1.56 -5.19,0.74 -4.37,-0.06 -3.01,-0.85 -1.65,-1.65 -1.43,-1.82 -1.20,-2.00 -0.95,-2.11 -0.69,-2.23 -0.41,-2.28 -0.14,-2.33 0.14,-2.31 0.42,-2.29 0.69,-2.21 0.95,-2.13 1.20,-1.98 1.44,-1.84 1.64,-1.64 1.84,-1.44 1.98,-1.20 2.13,-0.95 2.21,-0.69 2.30,-0.42 2.31,-0.13 2.33,0.14 2.28,0.41 2.23,0.69 2.11,0.95 2.00,1.20 1.82,1.43 1.65,1.65 1.65,1.65 L 1.65,1.65 Z"></path></g><g transform="translate(638.2791428379714 395) rotate(0 8.125 20)" stroke="none"><path fill="#1971c2" d="M 2.41,0 Q 2.41,0 2.73,1.07 3.05,2.15 2.53,4.36 2.01,6.57 2.24,7.68 2.46,8.80 3.12,9.71 3.78,10.63 5.22,10.58 6.66,10.52 8.12,9.93 9.59,9.33 10.67,7.91 11.75,6.50 11.78,4.92 11.81,3.34 13.20,3.52 14.59,3.69 14.13,4.76 13.68,5.82 14.08,7.44 14.47,9.06 14.47,11.54 14.47,14.02 14.47,15.38 14.47,16.74 14.75,18.30 15.03,19.87 15.24,21.32 15.45,22.77 16.05,24.69 16.66,26.61 16.74,27.92 16.83,29.22 17.37,31.15 17.91,33.09 17.56,34.59 17.21,36.09 16.89,37.46 16.57,38.83 15.76,39.87 14.95,40.90 13.42,41.79 11.89,42.68 10.24,42.88 8.59,43.08 6.37,42.94 4.16,42.80 3.04,42.10 1.93,41.41 0.88,39.79 -0.15,38.18 -0.39,36.47 -0.62,34.76 -0.20,33.19 0.22,31.61 0.88,30.50 1.55,29.39 2.07,28.44 2.59,27.49 4.47,25.31 6.36,23.13 7.45,21.95 8.55,20.77 9.39,19.91 10.24,19.05 13.60,17.67 16.96,16.29 17.17,16.24 17.37,16.19 17.59,16.20 17.80,16.22 17.99,16.30 18.19,16.38 18.35,16.52 18.51,16.66 18.62,16.85 18.72,17.03 18.77,17.24 18.81,17.45 18.78,17.66 18.75,17.87 18.66,18.06 18.57,18.25 18.42,18.40 18.27,18.55 18.08,18.65 17.89,18.75 17.68,18.78 17.47,18.81 17.26,18.77 17.05,18.73 16.87,18.63 16.68,18.53 16.54,18.37 16.40,18.21 16.31,18.02 16.22,17.82 16.20,17.61 16.18,17.40 16.23,17.20 16.28,16.99 16.40,16.81 16.51,16.63 16.67,16.49 16.84,16.36 17.04,16.28 17.23,16.21 17.45,16.20 17.66,16.19 17.86,16.25 18.07,16.31 18.24,16.43 18.41,16.56 18.54,16.73 18.67,16.90 18.73,17.10 18.79,17.30 18.79,17.52 18.79,17.73 18.72,17.93 18.64,18.13 18.51,18.30 18.38,18.46 18.20,18.58 18.03,18.70 18.03,18.70 18.03,18.70 16.43,21.08 14.84,23.45 14.05,24.30 13.27,25.15 12.22,26.29 11.16,27.42 9.68,29.01 8.21,30.61 6.97,32.58 5.74,34.56 5.68,35.86 5.63,37.17 6.92,36.99 8.22,36.80 9.49,36.35 10.76,35.90 11.12,34.21 11.47,32.52 10.95,31.15 10.44,29.78 10.32,28.06 10.21,26.34 9.55,24.08 8.90,21.82 8.46,19.28 8.03,16.73 8.03,15.37 8.03,14.01 8.04,11.47 8.05,8.93 8.11,7.42 8.17,5.90 8.34,4.57 8.52,3.24 9.33,2.42 10.15,1.59 11.03,0.36 11.91,-0.86 13.98,-0.89 16.04,-0.92 16.83,0.11 17.62,1.15 17.86,3.00 18.10,4.86 17.91,6.50 17.71,8.15 16.94,9.60 16.17,11.04 15.51,12.12 14.85,13.21 13.98,13.94 13.10,14.67 12.00,15.35 10.90,16.02 9.38,16.47 7.86,16.92 6.50,16.90 5.13,16.88 3.47,16.65 1.80,16.43 0.23,15.46 -1.33,14.49 -2.39,12.63 -3.44,10.77 -3.72,8.30 -4.00,5.83 -3.53,3.99 -3.05,2.15 -2.73,1.07 -2.41,0 -2.38,-0.28 -2.34,-0.57 -2.24,-0.85 -2.13,-1.12 -1.97,-1.36 -1.80,-1.60 -1.59,-1.79 -1.37,-1.98 -1.11,-2.12 -0.85,-2.25 -0.57,-2.32 -0.29,-2.39 0.00,-2.39 0.29,-2.39 0.57,-2.32 0.85,-2.25 1.11,-2.12 1.37,-1.98 1.59,-1.79 1.80,-1.60 1.97,-1.36 2.13,-1.12 2.24,-0.85 2.34,-0.57 2.38,-0.28 2.41,0.00 2.41,0.00 L 2.41,0 Z"></path></g><g transform="translate(460.77914283797145 15) rotate(0 18.125 8.75)" stroke="none"><path fill="#1e1e1e" d="M 1.81,-0.60 Q 1.81,-0.60 2.71,0.28 3.60,1.17 4.38,3.24 5.16,5.31 5.59,6.96 6.02,8.61 6.61,10.44 7.20,12.28 7.46,13.32 7.73,14.36 8.50,15.71 9.27,17.06 10.30,18.19 11.32,19.33 11.99,17.70 12.66,16.08 13.85,14.46 15.04,12.84 16.37,12.51 17.69,12.17 19.12,12.57 20.56,12.97 21.44,13.63 22.32,14.29 23.67,15.55 25.03,16.82 26.41,17.60 27.80,18.38 28.63,19.14 29.46,19.90 27.93,20.00 26.39,20.10 26.55,18.22 26.71,16.35 26.74,15.25 26.77,14.14 26.78,12.95 26.79,11.76 26.80,10.52 26.80,9.29 27.20,7.35 27.60,5.42 27.73,4.18 27.85,2.95 28.35,1.32 28.84,-0.30 29.52,-1.51 30.20,-2.73 32.94,-4.46 35.68,-6.18 35.88,-6.24 36.09,-6.30 36.30,-6.29 36.51,-6.28 36.71,-6.20 36.91,-6.13 37.07,-5.99 37.24,-5.86 37.35,-5.68 37.46,-5.49 37.51,-5.29 37.56,-5.08 37.53,-4.87 37.51,-4.66 37.43,-4.46 37.34,-4.27 37.20,-4.11 37.05,-3.96 36.86,-3.86 36.68,-3.75 36.47,-3.72 36.26,-3.68 36.05,-3.71 35.84,-3.75 35.65,-3.84 35.46,-3.94 35.31,-4.09 35.17,-4.25 35.07,-4.44 34.98,-4.63 34.96,-4.84 34.93,-5.05 34.98,-5.26 35.02,-5.47 35.13,-5.65 35.24,-5.83 35.40,-5.97 35.56,-6.11 35.75,-6.19 35.95,-6.27 36.16,-6.29 36.37,-6.30 36.58,-6.25 36.78,-6.19 36.96,-6.08 37.14,-5.96 37.27,-5.79 37.40,-5.62 37.47,-5.42 37.54,-5.22 37.54,-5.01 37.54,-4.80 37.48,-4.59 37.41,-4.39 37.28,-4.22 37.16,-4.05 36.98,-3.93 36.81,-3.81 36.81,-3.81 36.81,-3.81 36.25,-1.68 35.69,0.44 34.94,2.06 34.18,3.68 34.00,5.24 33.82,6.81 33.49,8.08 33.17,9.35 33.16,10.59 33.16,11.83 33.15,13.07 33.13,14.31 33.10,15.54 33.07,16.78 32.96,18.05 32.86,19.33 31.98,20.74 31.10,22.16 30.40,23.27 29.71,24.38 26.91,24.09 24.11,23.81 22.36,22.60 20.62,21.40 19.40,20.32 18.18,19.25 17.16,20.75 16.15,22.24 15.32,23.28 14.49,24.31 12.94,24.85 11.39,25.39 10.21,25.18 9.04,24.98 7.26,23.60 5.47,22.22 4.79,21.38 4.11,20.53 3.42,19.45 2.73,18.36 2.13,16.47 1.52,14.57 0.91,12.65 0.30,10.74 -0.18,9.32 -0.66,7.91 -0.76,6.63 -0.86,5.34 -1.51,4.24 -2.16,3.13 -1.99,1.87 -1.81,0.60 -1.86,0.37 -1.91,0.15 -1.90,-0.07 -1.89,-0.30 -1.82,-0.53 -1.76,-0.75 -1.64,-0.95 -1.53,-1.15 -1.37,-1.31 -1.21,-1.48 -1.01,-1.60 -0.82,-1.73 -0.60,-1.80 -0.38,-1.87 -0.15,-1.89 0.07,-1.91 0.30,-1.87 0.53,-1.84 0.74,-1.75 0.95,-1.65 1.14,-1.52 1.32,-1.38 1.47,-1.20 1.62,-1.02 1.71,-0.81 1.81,-0.60 1.81,-0.60 L 1.81,-0.60 Z"></path></g><g transform="translate(1102.0291428379714 525) rotate(0 10.625 10)" stroke="none"><path fill="#1e1e1e" d="M -1.95,0.65 Q -1.95,0.65 -2.44,-0.19 -2.94,-1.04 -1.26,-1.22 0.41,-1.40 0.44,-0.05 0.46,1.29 -0.05,2.57 -0.56,3.85 -0.64,5.02 -0.71,6.20 -0.73,7.61 -0.76,9.02 -0.52,10.19 -0.29,11.36 0.29,12.68 0.88,13.99 2.06,14.17 3.24,14.35 4.68,14.18 6.11,14.01 7.44,12.38 8.76,10.75 9.41,9.77 10.05,8.79 10.70,7.67 11.34,6.55 11.98,5.36 12.62,4.16 13.19,2.71 13.76,1.26 15.43,-1.20 17.10,-3.67 18.81,-3.17 20.52,-2.68 21.10,-1.20 21.68,0.27 21.72,2.41 21.76,4.54 22.29,6.79 22.82,9.05 23.21,10.44 23.59,11.84 24.08,13.08 24.57,14.32 24.86,15.45 25.14,16.58 25.71,17.98 26.29,19.38 26.27,21.38 26.25,23.37 26.28,23.58 26.31,23.79 26.27,24.00 26.22,24.21 26.12,24.39 26.01,24.58 25.85,24.72 25.69,24.86 25.49,24.94 25.30,25.02 25.09,25.04 24.87,25.05 24.67,25.00 24.46,24.95 24.29,24.83 24.11,24.71 23.98,24.55 23.84,24.38 23.77,24.18 23.70,23.98 23.70,23.77 23.70,23.55 23.76,23.35 23.82,23.15 23.95,22.98 24.08,22.81 24.25,22.68 24.42,22.56 24.63,22.50 24.83,22.44 25.04,22.45 25.26,22.46 25.46,22.53 25.65,22.61 25.82,22.74 25.98,22.88 26.09,23.06 26.21,23.24 26.26,23.45 26.31,23.65 26.29,23.86 26.27,24.08 26.18,24.27 26.09,24.46 25.95,24.62 25.81,24.78 25.62,24.88 25.43,24.98 25.23,25.02 25.02,25.06 24.81,25.03 24.60,25.00 24.41,24.90 24.22,24.80 24.07,24.65 23.92,24.50 23.83,24.31 23.74,24.12 23.74,24.12 23.74,24.12 22.08,22.26 20.43,20.41 19.63,18.47 18.82,16.53 18.23,14.98 17.64,13.42 17.09,10.64 16.53,7.86 16.12,6.25 15.71,4.65 15.71,3.53 15.71,2.41 16.04,1.26 16.37,0.12 18.18,0.60 19.98,1.07 19.66,2.27 19.34,3.47 18.63,5.23 17.93,6.98 17.25,8.27 16.57,9.55 15.81,10.87 15.05,12.19 14.09,13.57 13.13,14.95 12.12,16.00 11.11,17.05 9.79,18.29 8.47,19.53 6.19,20.01 3.91,20.49 2.30,20.30 0.70,20.12 -0.63,19.40 -1.96,18.68 -2.88,17.73 -3.79,16.78 -4.78,15.29 -5.76,13.80 -6.23,12.44 -6.70,11.09 -6.70,10.00 -6.70,8.91 -6.63,7.35 -6.57,5.79 -6.45,4.54 -6.34,3.29 -5.79,2.00 -5.23,0.70 -4.70,-1.38 -4.16,-3.47 -1.32,-3.37 1.50,-3.27 1.73,-1.96 1.95,-0.65 2.00,-0.40 2.05,-0.16 2.04,0.08 2.03,0.33 1.96,0.57 1.89,0.80 1.77,1.02 1.64,1.23 1.47,1.41 1.30,1.59 1.09,1.72 0.88,1.86 0.64,1.94 0.41,2.01 0.16,2.03 -0.08,2.05 -0.32,2.01 -0.57,1.97 -0.80,1.88 -1.03,1.78 -1.22,1.63 -1.42,1.48 -1.58,1.29 -1.74,1.10 -1.84,0.87 -1.95,0.65 -1.95,0.65 L -1.95,0.65 Z"></path></g><g transform="translate(644.5291428379714 252.5) rotate(0 10 10.625)" stroke="none"><path fill="#1e1e1e" d="M 2.19,-0.73 Q 2.19,-0.73 2.88,0.22 3.57,1.18 4.34,3.23 5.12,5.27 5.75,6.72 6.38,8.16 6.52,9.70 6.67,11.23 7.18,12.28 7.70,13.33 8.32,15.19 8.94,17.05 8.96,17.53 8.98,18.01 9.26,18.25 9.54,18.50 9.75,18.80 9.97,19.10 10.10,19.45 10.23,19.80 10.28,20.16 10.33,20.53 10.28,20.90 10.24,21.27 10.11,21.61 9.98,21.96 9.77,22.27 9.56,22.57 9.29,22.82 9.01,23.07 8.68,23.24 8.36,23.42 8.00,23.51 7.64,23.60 7.27,23.60 6.90,23.60 6.53,23.51 6.17,23.43 5.85,23.26 5.52,23.09 6.26,20.22 7.00,17.36 7.56,16.29 8.13,15.23 9.27,13.49 10.42,11.75 11.09,10.77 11.76,9.79 12.40,8.84 13.04,7.90 13.67,6.67 14.30,5.43 15.27,4.24 16.24,3.05 17.47,3.31 18.69,3.56 18.74,3.41 18.78,3.25 18.85,3.12 18.93,2.98 19.04,2.86 19.14,2.74 19.28,2.66 19.41,2.57 19.56,2.52 19.71,2.46 19.86,2.45 20.02,2.43 20.18,2.45 20.33,2.48 20.48,2.54 20.63,2.59 20.76,2.69 20.89,2.78 20.99,2.90 21.09,3.02 21.16,3.16 21.23,3.30 21.27,3.46 21.30,3.61 21.30,3.77 21.30,3.93 21.28,4.00 21.27,4.08 21.18,4.27 21.09,4.46 20.95,4.62 20.81,4.78 20.62,4.88 20.43,4.98 20.23,5.02 20.02,5.06 19.81,5.03 19.60,5.00 19.41,4.90 19.22,4.80 19.07,4.65 18.92,4.50 18.83,4.31 18.74,4.12 18.71,3.91 18.68,3.69 18.72,3.49 18.77,3.28 18.87,3.09 18.98,2.91 19.14,2.77 19.30,2.63 19.50,2.55 19.69,2.47 19.90,2.45 20.12,2.44 20.32,2.49 20.53,2.54 20.71,2.66 20.88,2.78 21.01,2.94 21.15,3.11 21.22,3.31 21.29,3.51 21.29,3.72 21.29,3.94 21.23,4.14 21.16,4.34 21.04,4.51 20.91,4.68 20.74,4.81 20.57,4.93 20.36,4.99 20.16,5.05 19.95,5.04 19.73,5.03 19.53,4.96 19.34,4.88 19.17,4.75 19.01,4.61 18.90,4.43 18.78,4.25 18.73,4.04 18.68,3.84 18.69,3.70 18.69,3.56 18.74,3.41 18.78,3.25 18.85,3.12 18.93,2.98 19.04,2.86 19.14,2.74 19.28,2.66 19.41,2.57 19.56,2.52 19.71,2.46 19.86,2.45 20.02,2.43 20.18,2.45 20.33,2.48 20.48,2.54 20.63,2.59 20.76,2.69 20.89,2.78 20.99,2.90 21.09,3.02 21.16,3.16 21.23,3.30 21.27,3.46 21.30,3.61 21.30,3.77 21.30,3.93 21.32,4.74 21.35,5.56 20.59,6.41 19.82,7.26 19.35,8.33 18.87,9.40 18.17,10.76 17.47,12.13 16.95,13.19 16.43,14.26 15.39,15.49 14.36,16.71 13.42,18.12 12.48,19.53 11.85,20.59 11.22,21.65 10.22,22.38 9.22,23.10 9.10,20.55 8.98,18.01 9.26,18.25 9.54,18.50 9.75,18.80 9.97,19.10 10.10,19.45 10.23,19.80 10.28,20.16 10.33,20.53 10.28,20.90 10.24,21.27 10.11,21.61 9.98,21.96 9.77,22.27 9.56,22.57 9.29,22.82 9.01,23.07 8.68,23.24 8.36,23.42 8.00,23.51 7.64,23.60 7.27,23.60 6.90,23.60 6.54,23.52 6.17,23.43 5.85,23.26 5.52,23.09 5.24,22.46 4.97,21.83 4.03,19.98 3.08,18.13 2.45,16.23 1.83,14.32 1.27,13.10 0.72,11.87 0.57,10.43 0.43,8.99 -0.20,7.16 -0.84,5.33 -1.49,4.23 -2.13,3.12 -2.16,1.93 -2.19,0.73 -2.24,0.45 -2.30,0.18 -2.29,-0.09 -2.28,-0.37 -2.20,-0.63 -2.12,-0.90 -1.98,-1.14 -1.84,-1.38 -1.65,-1.58 -1.46,-1.79 -1.22,-1.93 -0.98,-2.08 -0.72,-2.17 -0.46,-2.26 -0.18,-2.28 0.09,-2.30 0.36,-2.26 0.64,-2.21 0.90,-2.10 1.15,-2.00 1.37,-1.83 1.60,-1.66 1.77,-1.44 1.95,-1.23 2.07,-0.98 2.19,-0.73 2.19,-0.73 L 2.19,-0.73 Z"></path></g><g transform="translate(679.5291428379714 693.75) rotate(0 -2.5 -8.125)" stroke="none"><path fill="#6741d9" d="M 0.75,1.51 Q 0.75,1.51 0.24,2.31 -0.25,3.11 -2.14,3.54 -4.03,3.96 -5.33,3.51 -6.63,3.05 -8.03,2.41 -9.43,1.77 -10.86,0.04 -12.29,-1.68 -12.58,-3.53 -12.88,-5.37 -12.39,-6.68 -11.91,-7.99 -11.26,-9.38 -10.62,-10.76 -8.88,-12.19 -7.14,-13.62 -5.74,-14.37 -4.35,-15.12 -2.72,-15.32 -1.10,-15.53 0.82,-15.55 2.74,-15.57 4.18,-14.96 5.62,-14.36 6.31,-13.46 7.01,-12.56 7.99,-11.01 8.98,-9.46 9.15,-7.41 9.32,-5.36 8.82,-3.14 8.32,-0.91 7.65,1.02 6.98,2.96 5.96,3.80 4.95,4.64 2.90,5.56 0.85,6.47 -1.61,6.63 -4.08,6.79 -5.46,6.80 -6.84,6.81 -8.30,6.36 -9.75,5.92 -10.95,5.37 -12.14,4.82 -13.94,3.98 -15.73,3.14 -16.37,2.22 -17.01,1.30 -17.90,0.35 -18.78,-0.59 -18.98,-2.06 -19.18,-3.53 -18.76,-4.96 -18.33,-6.39 -17.67,-7.36 -17.00,-8.34 -15.70,-10.26 -14.39,-12.17 -12.80,-12.96 -11.21,-13.74 -10.21,-14.20 -9.21,-14.66 -8.04,-15.22 -6.87,-15.78 -5.27,-16.15 -3.68,-16.52 -2.26,-16.66 -0.85,-16.80 0.47,-16.86 1.79,-16.91 3.09,-16.94 4.39,-16.97 6.10,-16.56 7.80,-16.15 9.05,-15.49 10.30,-14.83 11.51,-13.50 12.71,-12.16 13.01,-10.77 13.30,-9.39 12.81,-7.34 12.32,-5.29 11.62,-4.17 10.91,-3.05 9.61,-1.98 8.30,-0.90 5.96,0.27 3.61,1.46 2.23,1.62 0.85,1.77 -1.11,2.34 -3.07,2.91 -4.58,2.56 -6.09,2.22 -7.78,1.53 -9.48,0.83 -10.33,0.12 -11.19,-0.59 -11.86,-1.71 -12.53,-2.82 -12.78,-4.25 -13.03,-5.68 -12.67,-8.20 -12.32,-10.72 -11.66,-11.88 -10.99,-13.03 -10.30,-13.92 -9.60,-14.81 -8.30,-15.78 -7.00,-16.75 -5.88,-17.22 -4.76,-17.68 -2.75,-18.43 -0.74,-19.18 0.66,-19.30 2.06,-19.42 3.67,-18.90 5.28,-18.37 6.25,-17.38 7.23,-16.38 8.15,-14.81 9.07,-13.23 9.23,-11.77 9.39,-10.31 8.96,-8.83 8.53,-7.35 7.85,-6.34 7.17,-5.32 5.85,-3.87 4.54,-2.41 2.59,-1.12 0.65,0.17 -1.47,0.00 -3.60,-0.15 -5.80,-1.12 -8.01,-2.10 -9.11,-3.77 -10.21,-5.43 -10.90,-6.77 -11.59,-8.11 -11.70,-9.18 -11.82,-10.25 -11.35,-11.67 -10.89,-13.10 -10.16,-14.04 -9.44,-14.98 -8.35,-15.67 -7.26,-16.35 -5.54,-17.10 -3.83,-17.84 -2.33,-17.53 -0.83,-17.22 0.80,-16.03 2.44,-14.84 2.76,-13.78 3.09,-12.72 3.17,-11.51 3.25,-10.31 3.25,-8.70 3.26,-7.08 2.72,-5.72 2.18,-4.35 1.44,-3.43 0.71,-2.51 -0.41,-1.82 -1.54,-1.13 -3.09,-0.91 -4.63,-0.68 -6.12,-1.10 -7.60,-1.51 -8.62,-2.19 -9.63,-2.86 -10.48,-3.65 -11.34,-4.44 -12.03,-6.06 -12.73,-7.67 -12.95,-9.51 -13.17,-11.34 -12.76,-12.95 -12.34,-14.56 -11.61,-15.76 -10.88,-16.96 -9.82,-17.78 -8.75,-18.59 -7.49,-19.17 -6.24,-19.76 -4.59,-19.72 -2.94,-19.68 -1.66,-18.97 -0.38,-18.26 0.44,-16.68 1.26,-15.10 1.08,-13.63 0.89,-12.16 0.24,-10.67 -0.39,-9.17 -1.52,-7.77 -2.65,-6.36 -4.66,-5.50 -6.68,-4.63 -8.08,-4.70 -9.49,-4.77 -10.54,-5.33 -11.60,-5.89 -12.81,-7.58 -14.02,-9.26 -14.21,-11.32 -14.39,-13.38 -13.89,-15.66 -13.38,-17.93 -12.66,-18.90 -11.93,-19.86 -10.85,-20.55 -9.77,-21.25 -8.05,-22.01 -6.33,-22.76 -4.85,-22.45 -3.37,-22.14 -1.80,-21.40 -0.23,-20.65 0.52,-19.53 1.28,-18.42 1.54,-16.97 1.80,-15.53 1.88,-13.94 1.96,-12.35 1.29,-10.13 0.63,-7.90 -0.45,-7.11 -1.54,-6.31 -3.38,-6.37 -5.22,-6.43 -6.20,-7.07 -7.17,-7.72 -7.55,-8.79 -7.93,-9.87 -8.00,-11.44 -8.07,-13.00 -7.44,-14.43 -6.80,-15.86 -5.73,-16.65 -4.66,-17.44 -2.90,-17.78 -1.14,-18.11 0.11,-17.86 1.37,-17.61 2.40,-16.90 3.42,-16.18 4.33,-14.65 5.23,-13.12 5.40,-11.79 5.56,-10.45 5.61,-8.46 5.65,-6.47 5.18,-5.06 4.71,-3.66 3.52,-2.00 2.34,-0.34 0.37,-0.40 -1.60,-0.46 -2.44,-1.79 -3.29,-3.12 -3.43,-3.18 -3.58,-3.24 -3.70,-3.34 -3.83,-3.43 -3.93,-3.55 -4.03,-3.67 -4.10,-3.82 -4.17,-3.96 -4.20,-4.12 -4.24,-4.27 -4.23,-4.43 -4.22,-4.59 -4.18,-4.74 -4.14,-4.89 -4.06,-5.03 -3.98,-5.17 -3.87,-5.28 -3.76,-5.40 -3.63,-5.48 -3.50,-5.57 -3.35,-5.62 -3.20,-5.67 -3.04,-5.68 -2.88,-5.69 -2.72,-5.67 -2.57,-5.65 -0.74,-3.19 1.09,-0.72 1.17,-0.53 1.26,-0.34 1.28,-0.13 1.31,0.07 1.26,0.28 1.21,0.49 1.10,0.67 0.99,0.85 0.83,0.99 0.66,1.12 0.47,1.20 0.27,1.28 0.06,1.29 -0.15,1.30 -0.35,1.24 -0.55,1.18 -0.73,1.06 -0.90,0.94 -1.03,0.77 -1.16,0.60 -1.23,0.40 -1.29,0.20 -1.29,-0.00 -1.29,-0.22 -1.22,-0.42 -1.15,-0.62 -1.02,-0.79 -0.89,-0.95 -0.71,-1.07 -0.54,-1.19 -0.33,-1.25 -0.13,-1.30 0.07,-1.29 0.29,-1.28 0.48,-1.20 0.68,-1.12 0.84,-0.98 1.00,-0.84 1.11,-0.66 1.22,-0.47 1.26,-0.26 1.31,-0.06 1.28,0.14 1.26,0.36 1.17,0.55 1.08,0.74 0.93,0.89 0.78,1.05 0.59,1.14 0.41,1.24 0.20,1.28 -0.00,1.31 -0.21,1.27 -0.42,1.24 -0.61,1.14 -0.80,1.03 -0.94,0.88 -1.09,0.72 -1.09,0.72 -1.09,0.72 -2.19,-1.19 -3.29,-3.12 -3.43,-3.18 -3.58,-3.24 -3.70,-3.34 -3.83,-3.43 -3.93,-3.55 -4.03,-3.67 -4.10,-3.82 -4.17,-3.96 -4.20,-4.11 -4.24,-4.27 -4.23,-4.43 -4.22,-4.59 -4.18,-4.74 -4.14,-4.89 -4.06,-5.03 -3.98,-5.17 -3.87,-5.28 -3.76,-5.40 -3.63,-5.48 -3.50,-5.57 -3.35,-5.62 -3.20,-5.67 -3.04,-5.68 -2.88,-5.69 -2.72,-5.67 -2.57,-5.65 -0.93,-5.27 0.69,-4.90 -0.23,-5.56 -1.16,-6.21 -0.96,-7.35 -0.75,-8.48 -1.42,-9.92 -2.09,-11.35 -3.27,-11.24 -4.44,-11.13 -4.50,-12.27 -4.55,-13.42 -4.87,-15.06 -5.18,-16.70 -6.12,-16.20 -7.06,-15.70 -7.52,-14.66 -7.99,-13.62 -8.27,-12.07 -8.56,-10.53 -7.40,-10.79 -6.25,-11.05 -5.17,-12.40 -4.10,-13.75 -5.38,-12.69 -6.67,-11.62 -6.70,-10.24 -6.73,-8.87 -5.87,-8.01 -5.01,-7.15 -4.18,-7.84 -3.35,-8.53 -3.00,-10.09 -2.64,-11.64 -4.03,-10.70 -5.42,-9.75 -4.74,-8.19 -4.06,-6.64 -2.71,-6.21 -1.37,-5.79 -0.26,-6.97 0.84,-8.14 1.84,-9.10 2.83,-10.06 2.56,-11.44 2.29,-12.82 1.06,-12.67 -0.17,-12.51 -1.34,-12.00 -2.50,-11.48 -3.54,-11.05 -4.59,-10.61 -5.38,-9.65 -6.17,-8.68 -6.40,-7.56 -6.62,-6.45 -6.22,-5.33 -5.82,-4.21 -4.21,-3.87 -2.60,-3.52 -1.26,-4.07 0.07,-4.62 1.48,-4.68 2.88,-4.73 4.24,-5.73 5.60,-6.74 6.33,-7.95 7.05,-9.16 5.73,-9.82 4.41,-10.47 3.21,-10.46 2.02,-10.45 0.85,-10.42 -0.31,-10.39 -2.24,-10.20 -4.17,-10.02 -5.40,-9.43 -6.63,-8.85 -8.62,-7.90 -10.61,-6.96 -11.28,-5.80 -11.95,-4.65 -12.89,-3.99 -13.83,-3.34 -12.76,-2.37 -11.69,-1.41 -10.63,-1.11 -9.57,-0.81 -8.16,-0.09 -6.76,0.63 -5.50,0.61 -4.25,0.58 -2.00,0.57 0.25,0.55 1.20,-0.10 2.15,-0.76 2.61,-2.95 3.06,-5.14 3.32,-6.69 3.58,-8.25 2.33,-8.81 1.09,-9.36 -0.86,-9.36 -2.83,-9.35 -4.44,-8.21 -6.04,-7.08 -6.45,-5.86 -6.86,-4.64 -6.37,-3.61 -5.87,-2.58 -4.24,-2.13 -2.61,-1.67 -1.68,-1.59 -0.75,-1.51 -0.56,-1.58 -0.37,-1.64 -0.16,-1.66 0.03,-1.68 0.23,-1.66 0.43,-1.63 0.62,-1.55 0.81,-1.48 0.98,-1.36 1.14,-1.24 1.27,-1.08 1.40,-0.93 1.50,-0.75 1.59,-0.56 1.63,-0.36 1.68,-0.17 1.67,0.03 1.67,0.23 1.62,0.43 1.56,0.63 1.46,0.80 1.37,0.98 1.23,1.13 1.09,1.28 0.92,1.39 0.75,1.51 0.75,1.51 L 0.75,1.51 Z"></path></g><g transform="translate(718.2791428379714 692.5) rotate(0 15.625000000000057 8.125)" stroke="none"><path fill="#6741d9" d="M -1.19,-1.79 Q -1.19,-1.79 -0.48,-3.08 0.22,-4.37 1.39,-4.85 2.55,-5.34 5.10,-6.12 7.65,-6.91 9.03,-7.02 10.42,-7.13 12.80,-7.69 15.18,-8.25 16.23,-8.53 17.27,-8.81 19.16,-8.89 21.04,-8.98 22.39,-7.08 23.73,-5.18 23.60,-4.07 23.48,-2.96 23.00,-1.50 22.53,-0.04 21.41,1.46 20.30,2.97 19.76,4.20 19.23,5.43 18.55,6.83 17.87,8.23 17.22,9.55 16.57,10.86 15.81,12.00 15.05,13.13 14.52,14.11 13.99,15.08 13.35,16.84 12.71,18.59 14.40,18.63 16.09,18.67 17.21,18.69 18.33,18.70 19.53,18.71 20.72,18.71 22.10,18.47 23.47,18.23 24.54,18.05 25.61,17.87 28.42,18.90 31.22,19.93 31.43,19.96 31.64,19.99 31.83,20.09 32.02,20.19 32.17,20.34 32.32,20.49 32.41,20.68 32.50,20.87 32.53,21.08 32.56,21.29 32.52,21.50 32.47,21.71 32.37,21.89 32.26,22.08 32.10,22.22 31.94,22.36 31.75,22.44 31.55,22.52 31.34,22.54 31.13,22.55 30.92,22.50 30.72,22.45 30.54,22.33 30.36,22.21 30.23,22.05 30.10,21.88 30.02,21.68 29.95,21.48 29.95,21.27 29.95,21.06 30.01,20.85 30.07,20.65 30.20,20.48 30.32,20.31 30.50,20.19 30.67,20.06 30.88,20.00 31.08,19.94 31.29,19.95 31.50,19.96 31.70,20.03 31.90,20.11 32.07,20.24 32.23,20.38 32.34,20.56 32.46,20.74 32.51,20.94 32.55,21.15 32.54,21.36 32.52,21.57 32.43,21.77 32.35,21.96 32.20,22.12 32.06,22.28 31.87,22.38 31.69,22.48 31.48,22.52 31.27,22.56 31.27,22.56 31.27,22.56 29.64,23.72 28.02,24.88 26.91,25.10 25.79,25.32 23.24,25.79 20.68,26.26 19.46,26.25 18.23,26.24 17.03,26.23 15.82,26.21 13.69,26.04 11.55,25.87 9.26,24.71 6.96,23.55 6.31,22.31 5.67,21.06 5.60,19.50 5.53,17.93 6.28,15.93 7.02,13.93 7.44,12.78 7.86,11.64 9.10,9.70 10.33,7.77 10.97,6.47 11.61,5.18 12.28,3.82 12.94,2.46 14.55,-0.16 16.15,-2.79 17.03,-4.22 17.92,-5.66 19.23,-4.09 20.54,-2.53 19.18,-1.96 17.83,-1.39 16.03,-1.22 14.24,-1.04 12.61,-0.57 10.98,-0.10 9.17,0.04 7.36,0.18 5.72,0.84 4.08,1.49 2.64,1.64 1.19,1.79 0.96,1.90 0.73,2.02 0.47,2.08 0.22,2.14 -0.03,2.13 -0.29,2.13 -0.54,2.06 -0.79,2.00 -1.02,1.87 -1.25,1.75 -1.44,1.57 -1.63,1.40 -1.77,1.18 -1.92,0.96 -2.01,0.72 -2.09,0.48 -2.12,0.22 -2.15,-0.03 -2.11,-0.29 -2.08,-0.54 -1.98,-0.79 -1.89,-1.03 -1.73,-1.24 -1.58,-1.45 -1.39,-1.62 -1.19,-1.79 -1.19,-1.79 L -1.19,-1.79 Z"></path></g><g transform="translate(747.0291428379716 700) rotate(0 -13.125000000000057 -1.875)" stroke="none"><path fill="#6741d9" d="M -1.58,2.37 Q -1.58,2.37 -2.81,1.95 -4.05,1.53 -5.41,1.39 -6.76,1.26 -8.87,0.75 -10.98,0.23 -12.51,0.11 -14.03,-0.00 -15.81,-0.03 -17.59,-0.07 -19.45,-0.08 -21.30,-0.09 -23.15,-0.64 -25.00,-1.18 -25.15,-1.20 -25.31,-1.22 -25.46,-1.28 -25.61,-1.33 -25.74,-1.42 -25.87,-1.51 -25.97,-1.63 -26.08,-1.75 -26.15,-1.89 -26.22,-2.03 -26.26,-2.18 -26.30,-2.34 -26.30,-2.50 -26.30,-2.66 -26.26,-2.81 -26.22,-2.96 -26.15,-3.10 -26.07,-3.24 -25.97,-3.36 -25.86,-3.48 -25.73,-3.57 -25.60,-3.66 -25.46,-3.71 -25.31,-3.77 -25.15,-3.79 -24.99,-3.81 -24.34,-3.10 -23.69,-2.38 -23.74,-2.18 -23.79,-1.97 -23.91,-1.79 -24.02,-1.61 -24.19,-1.48 -24.35,-1.35 -24.55,-1.28 -24.75,-1.20 -24.97,-1.20 -25.18,-1.19 -25.38,-1.26 -25.58,-1.32 -25.76,-1.45 -25.93,-1.57 -26.05,-1.74 -26.17,-1.92 -26.24,-2.12 -26.30,-2.32 -26.29,-2.54 -26.28,-2.75 -26.21,-2.95 -26.14,-3.15 -26.00,-3.31 -25.87,-3.48 -25.69,-3.59 -25.51,-3.70 -25.30,-3.75 -25.10,-3.80 -24.88,-3.79 -24.67,-3.77 -24.48,-3.68 -24.28,-3.60 -24.12,-3.46 -23.97,-3.31 -23.86,-3.13 -23.76,-2.94 -23.72,-2.73 -23.68,-2.52 -23.71,-2.31 -23.74,-2.10 -23.84,-1.91 -23.93,-1.72 -24.08,-1.57 -24.23,-1.42 -24.42,-1.33 -24.62,-1.24 -24.83,-1.21 -25.04,-1.18 -25.25,-1.22 -25.45,-1.26 -25.64,-1.37 -25.82,-1.48 -25.96,-1.63 -26.10,-1.79 -26.19,-1.99 -26.27,-2.18 -25.63,-1.68 -25.00,-1.18 -25.15,-1.20 -25.31,-1.22 -25.46,-1.28 -25.61,-1.33 -25.74,-1.42 -25.87,-1.51 -25.97,-1.63 -26.08,-1.75 -26.15,-1.89 -26.22,-2.03 -26.26,-2.18 -26.30,-2.34 -26.30,-2.50 -26.30,-2.66 -26.26,-2.81 -26.22,-2.96 -26.15,-3.10 -26.07,-3.24 -25.97,-3.36 -25.86,-3.48 -25.73,-3.57 -25.60,-3.66 -25.46,-3.71 -25.31,-3.77 -25.15,-3.79 -24.99,-3.81 -23.85,-5.59 -22.70,-7.38 -21.17,-7.39 -19.65,-7.39 -17.72,-7.37 -15.80,-7.36 -13.66,-7.24 -11.53,-7.12 -9.44,-6.58 -7.36,-6.03 -5.48,-5.77 -3.61,-5.51 -1.93,-4.95 -0.25,-4.40 0.66,-3.38 1.58,-2.37 1.84,-2.14 2.10,-1.92 2.30,-1.64 2.50,-1.36 2.62,-1.04 2.75,-0.72 2.80,-0.38 2.84,-0.04 2.81,0.29 2.77,0.63 2.66,0.96 2.54,1.28 2.35,1.56 2.16,1.85 1.90,2.08 1.65,2.31 1.35,2.48 1.05,2.64 0.72,2.73 0.38,2.82 0.04,2.82 -0.29,2.83 -0.63,2.75 -0.96,2.68 -1.27,2.52 -1.58,2.37 -1.58,2.37 L -1.58,2.37 Z"></path></g><g stroke-linecap="round"><g transform="translate(528.2791428379714 116.25) rotate(0 76.34355731568849 284.9180347326957)"><path d="M0 0 C25.45 94.97, 127.24 474.86, 152.69 569.84 M0 0 C25.45 94.97, 127.24 474.86, 152.69 569.84" stroke="#6741d9" stroke-width="4" fill="none"></path></g></g><mask></mask><g stroke-linecap="round"><g transform="translate(679.5291428379714 688.75) rotate(0 10.296075348982015 38.42547632095824)"><path d="M1.77 -2.46 C4.63 10.89, 16.48 64.1, 19.68 77.41" stroke="#6741d9" stroke-width="4.5" fill="none" stroke-dasharray="8 12"></path></g></g><mask></mask><g stroke-linecap="round"><g transform="translate(703.2791428379714 768.75) rotate(0 30.678890740359236 114.4951789628746)"><path d="M0 0 C10.23 38.17, 51.13 190.83, 61.36 228.99 M0 0 C10.23 38.17, 51.13 190.83, 61.36 228.99" stroke="#6741d9" stroke-width="4" fill="none"></path></g></g><mask></mask><g transform="translate(628.2791428379714 476.25) rotate(0 -3.125 6.25)" stroke="none"><path fill="#6741d9" d="M 7.78,0 Q 7.78,0 9.43,2.87 11.07,5.75 9.93,11.80 8.79,17.86 4.27,21.08 -0.24,24.30 -7.30,23.52 -14.36,22.73 -18.33,18.41 -22.30,14.08 -23.07,9.75 -23.83,5.42 -20.06,-0.47 -16.29,-6.36 -10.66,-9.08 -5.04,-11.80 0.51,-11.45 6.06,-11.11 10.61,-8.37 15.15,-5.63 17.31,-0.00 19.47,5.61 17.57,11.07 15.66,16.53 12.01,20.37 8.35,24.21 3.11,26.10 -2.13,27.99 -7.69,27.49 -13.26,27.00 -18.55,21.69 -23.85,16.38 -24.40,10.43 -24.95,4.49 -22.36,-0.97 -19.77,-6.43 -16.35,-9.59 -12.93,-12.74 -7.60,-14.48 -2.27,-16.22 3.80,-14.32 9.89,-12.41 13.24,-7.68 16.59,-2.94 16.47,2.77 16.36,8.50 14.06,12.75 11.76,16.99 7.45,20.20 3.14,23.41 -1.88,23.78 -6.92,24.16 -10.93,22.19 -14.93,20.22 -17.48,14.75 -20.03,9.29 -18.41,3.72 -16.79,-1.84 -13.15,-4.96 -9.51,-8.08 -4.61,-7.58 0.27,-7.08 5.30,-1.67 10.32,3.73 9.64,8.78 8.96,13.82 2.34,16.48 -4.27,19.14 -5.02,19.55 -5.76,19.95 -6.60,20.10 -7.44,20.25 -8.28,20.12 -9.12,19.99 -9.87,19.60 -10.63,19.21 -11.22,18.60 -11.81,17.99 -12.18,17.22 -12.54,16.45 -12.64,15.61 -12.74,14.77 -12.57,13.94 -12.40,13.10 -11.97,12.37 -11.54,11.64 -10.89,11.08 -10.25,10.52 -9.47,10.20 -8.68,9.88 -7.83,9.82 -6.98,9.77 -6.16,9.99 -5.34,10.20 -4.63,10.67 -3.92,11.14 -3.40,11.81 -2.88,12.48 -2.60,13.29 -2.32,14.09 -2.31,14.94 -2.30,15.79 -2.56,16.60 -2.83,17.41 -3.33,18.09 -3.84,18.77 -4.54,19.25 -5.24,19.74 -6.06,19.98 -6.87,20.21 -7.72,20.17 -8.57,20.14 -9.36,19.83 -10.16,19.52 -10.81,18.98 -11.46,18.44 -11.91,17.71 -12.35,16.99 -12.55,16.16 -12.74,15.33 -12.65,14.49 -12.57,13.64 -12.22,12.87 -11.87,12.09 -11.30,11.47 -10.72,10.85 -10.72,10.85 -10.72,10.85 -11.86,7.45 -13.00,4.05 -10.04,8.23 -7.07,12.42 -2.10,9.44 2.86,6.47 -2.41,5.36 -7.69,4.26 -4.27,7.62 -0.85,10.97 -2.72,6.76 -4.60,2.54 -4.90,8.60 -5.20,14.65 -3.55,9.92 -1.90,5.20 -6.48,5.47 -11.07,5.75 -9.43,2.87 -7.78,0 -7.67,-0.93 -7.55,-1.86 -7.22,-2.74 -6.89,-3.61 -6.36,-4.39 -5.82,-5.16 -5.12,-5.78 -4.42,-6.40 -3.59,-6.84 -2.76,-7.28 -1.84,-7.50 -0.93,-7.72 0.00,-7.72 0.93,-7.72 1.85,-7.50 2.76,-7.28 3.59,-6.84 4.42,-6.40 5.12,-5.78 5.82,-5.16 6.36,-4.39 6.89,-3.61 7.22,-2.74 7.56,-1.86 7.67,-0.93 7.78,0.00 7.78,0.00 L 7.78,0 Z"></path></g><g transform="translate(677.0291428379714 683.75) rotate(0 0.625 1.875)" stroke="none"><path fill="#6741d9" d="M 5.00,5.00 Q 5.00,5.00 5.01,7.24 5.03,9.49 -2.72,9.85 -10.47,10.22 -12.74,6.34 -15.02,2.46 -14.42,-2.17 -13.83,-6.81 -10.72,-10.79 -7.61,-14.77 -1.59,-14.44 4.42,-14.11 9.06,-9.66 13.71,-5.22 13.87,1.32 14.04,7.87 10.83,11.96 7.62,16.04 3.18,16.60 -1.25,17.17 -6.59,14.65 -11.93,12.14 -13.73,7.90 -15.53,3.65 -14.67,-0.91 -13.80,-5.48 -9.18,-9.66 -4.57,-13.84 2.39,-14.06 9.36,-14.28 12.76,-10.62 16.15,-6.95 16.89,-0.80 17.62,5.35 15.06,10.09 12.50,14.82 6.19,16.93 -0.11,19.04 -4.91,17.19 -9.72,15.35 -12.46,11.06 -15.20,6.78 -14.72,1.44 -14.23,-3.89 -12.20,-7.97 -10.18,-12.04 -5.93,-14.21 -1.69,-16.39 4.88,-13.93 11.45,-11.48 13.42,-6.34 15.40,-1.21 14.90,3.23 14.41,7.67 12.16,11.52 9.91,15.36 5.61,16.94 1.32,18.52 -1.97,15.63 -5.26,12.74 -5.89,12.67 -6.52,12.61 -7.12,12.39 -7.71,12.17 -8.24,11.82 -8.76,11.46 -9.19,10.99 -9.61,10.52 -9.91,9.97 -10.21,9.41 -10.37,8.80 -10.53,8.18 -10.54,7.55 -10.54,6.92 -10.40,6.30 -10.25,5.68 -9.97,5.12 -9.68,4.55 -9.26,4.08 -8.85,3.60 -8.33,3.23 -7.82,2.87 -7.23,2.64 -6.64,2.40 -6.01,2.32 -5.38,2.24 -4.83,-0.40 -4.28,-3.04 -3.68,-3.64 -3.08,-4.25 -2.32,-4.63 -1.56,-5.01 -0.72,-5.13 0.11,-5.25 0.95,-5.09 1.78,-4.94 2.52,-4.52 3.27,-4.11 3.84,-3.48 4.41,-2.85 4.75,-2.07 5.09,-1.29 5.16,-0.44 5.23,0.40 5.03,1.22 4.83,2.05 4.38,2.77 3.92,3.48 3.26,4.02 2.60,4.56 1.81,4.85 1.01,5.15 0.16,5.18 -0.68,5.20 -1.49,4.96 -2.31,4.71 -3.00,4.22 -3.69,3.73 -4.19,3.04 -4.69,2.35 -4.94,1.54 -5.20,0.73 -5.18,-0.11 -5.16,-0.96 -4.87,-1.76 -4.58,-2.56 -4.05,-3.22 -3.52,-3.89 -2.81,-4.35 -2.09,-4.81 -1.27,-5.02 -0.45,-5.23 0.39,-5.16 1.24,-5.10 2.02,-4.77 2.80,-4.43 3.44,-3.87 4.07,-3.31 4.50,-2.57 4.92,-1.83 5.08,-1.00 5.25,-0.16 5.13,0.67 5.02,1.51 4.65,2.28 4.28,3.04 4.28,3.04 4.28,3.04 -0.49,7.89 -5.26,12.74 -5.89,12.67 -6.52,12.61 -7.12,12.39 -7.71,12.17 -8.24,11.82 -8.76,11.46 -9.19,10.99 -9.61,10.52 -9.91,9.97 -10.21,9.41 -10.37,8.80 -10.53,8.18 -10.54,7.55 -10.54,6.92 -10.40,6.30 -10.25,5.68 -9.97,5.12 -9.68,4.56 -9.26,4.08 -8.85,3.60 -8.33,3.23 -7.82,2.87 -7.23,2.64 -6.64,2.40 -6.01,2.32 -5.38,2.24 -3.71,-0.77 -2.03,-3.79 -4.63,-0.40 -7.23,2.97 -2.04,5.00 3.14,7.02 4.25,2.74 5.35,-1.52 0.52,-1.13 -4.31,-0.75 -0.78,3.20 2.73,7.17 3.99,3.04 5.24,-1.09 1.07,-2.17 -3.09,-3.26 -4.63,1.19 -6.16,5.65 -1.45,5.35 3.25,5.06 2.38,0.16 1.50,-4.73 -3.92,-4.95 -9.34,-5.18 -7.17,-5.09 -5.00,-5.00 -4.33,-5.52 -3.66,-6.05 -2.88,-6.40 -2.10,-6.75 -1.26,-6.90 -0.42,-7.06 0.42,-7.01 1.27,-6.95 2.08,-6.70 2.90,-6.45 3.63,-6.01 4.36,-5.56 4.96,-4.96 5.56,-4.36 6.01,-3.63 6.45,-2.90 6.70,-2.08 6.95,-1.27 7.01,-0.42 7.06,0.42 6.90,1.26 6.75,2.10 6.40,2.88 6.05,3.66 5.52,4.33 5.00,5.00 5.00,5.00 L 5.00,5.00 Z"></path></g></svg>